<?xml version="1.0"?>
<Project_Data Version="8.00">
<Project_Settings>
<ProfileName></ProfileName>
<ProjectWidth>1920</ProjectWidth>
<ProjectHeight>1080</ProjectHeight>
<IsCustomProject>1</IsCustomProject>
<SavedProjectSettings>1</SavedProjectSettings>
<LastFlashTemplate>-1</LastFlashTemplate>
</Project_Settings>


<AutoSaveFile>C:\Users\ZhuoJia\AppData\Local\TechSmith\Camtasia Studio\8.0\Auto-Saves\demo13cda79c.autosave.camproj</AutoSaveFile>

<ProjectID>2734A246-23CA-402F-9BFA-C2BBDB84F53A</ProjectID>

<PowerPointProject>0</PowerPointProject>

<PowerPointFilename></PowerPointFilename>


<Project_Notes>
</Project_Notes>

<Project_MetaData>
<Project_MetaData_Object>
<FieldArrayKey>8</FieldArrayKey>
<Value>demo</Value>
</Project_MetaData_Object>
<Project_MetaData_Object>
<FieldArrayKey>13</FieldArrayKey>
<Value>2014-03-30 06:51:15 PM</Value>
</Project_MetaData_Object>
<Project_MetaData_Object>
<FieldArrayKey>16</FieldArrayKey>
<Value>ENU</Value>
</Project_MetaData_Object>
</Project_MetaData>

<CSMLData>
<GoProject id="1" version="3.0" >
 <Project id="2" editRate="30/1" version="3.0" >
  <Author></Author>
  <Comment></Comment>
  <System></System>
  <SourceBin id="3"  >
    <Source id="4" src="C:\Users\ZhuoJia\Dropbox\AnalytixWare\Video\demo.camrec" lastMod="20140330T105111" rect="(0,0,1920,1080)" >
      <SourceTrack range="(0,1417333333)" type="0" editRate="10000000/1" trackRect="(0,0,1920,1080)" sampleRate="10000000/333333" bitDepth="24" numChannels="0" filename="demo.camrec!Screen_Stream.avi" metaData="demo.camrec!Events.dat;demo.camrec!manifest.camxml;" />
    </Source>
    <Source id="5" src="C:\Users\ZhuoJia\Google Drive\Lines\1.wav" lastMod="20140330T101727" rect="(0,0,0,0)" >
      <SourceTrack range="(0,85333333)" type="2" editRate="10000000/1" trackRect="(0,0,0,0)" sampleRate="44100/1" bitDepth="16" numChannels="2" filename="" metaData="" />
    </Source>
    <Source id="6" src="C:\Users\ZhuoJia\Google Drive\Lines\2.wav" lastMod="20140330T101727" rect="(0,0,0,0)" >
      <SourceTrack range="(0,104666667)" type="2" editRate="10000000/1" trackRect="(0,0,0,0)" sampleRate="44100/1" bitDepth="16" numChannels="2" filename="" metaData="" />
    </Source>
    <Source id="7" src="C:\Users\ZhuoJia\Google Drive\Lines\3.wav" lastMod="20140330T101727" rect="(0,0,0,0)" >
      <SourceTrack range="(0,103666667)" type="2" editRate="10000000/1" trackRect="(0,0,0,0)" sampleRate="44100/1" bitDepth="16" numChannels="2" filename="" metaData="" />
    </Source>
    <Source id="8" src="C:\Users\ZhuoJia\Google Drive\Lines\4.wav" lastMod="20140330T101727" rect="(0,0,0,0)" >
      <SourceTrack range="(0,78666667)" type="2" editRate="10000000/1" trackRect="(0,0,0,0)" sampleRate="44100/1" bitDepth="16" numChannels="2" filename="" metaData="" />
    </Source>
    <Source id="9" src="C:\Users\ZhuoJia\Google Drive\Lines\5.wav" lastMod="20140330T101727" rect="(0,0,0,0)" >
      <SourceTrack range="(0,66000000)" type="2" editRate="10000000/1" trackRect="(0,0,0,0)" sampleRate="44100/1" bitDepth="16" numChannels="2" filename="" metaData="" />
    </Source>
    <Source id="10" src="C:\Users\ZhuoJia\Google Drive\Lines\6.wav" lastMod="20140330T101727" rect="(0,0,0,0)" >
      <SourceTrack range="(0,205666667)" type="2" editRate="10000000/1" trackRect="(0,0,0,0)" sampleRate="44100/1" bitDepth="16" numChannels="2" filename="" metaData="" />
    </Source>
    <Source id="11" src="C:\Users\ZhuoJia\Google Drive\Lines\7.wav" lastMod="20140330T101727" rect="(0,0,0,0)" >
      <SourceTrack range="(0,53333333)" type="2" editRate="10000000/1" trackRect="(0,0,0,0)" sampleRate="44100/1" bitDepth="16" numChannels="2" filename="" metaData="" />
    </Source>
    <Source id="12" src="C:\Users\ZhuoJia\Google Drive\Lines\8.wav" lastMod="20140330T101727" rect="(0,0,0,0)" >
      <SourceTrack range="(0,97000000)" type="2" editRate="10000000/1" trackRect="(0,0,0,0)" sampleRate="44100/1" bitDepth="16" numChannels="2" filename="" metaData="" />
    </Source>
    <Source id="13" src="C:\Users\ZhuoJia\Google Drive\Lines\9.wav" lastMod="20140330T101727" rect="(0,0,0,0)" >
      <SourceTrack range="(0,122333333)" type="2" editRate="10000000/1" trackRect="(0,0,0,0)" sampleRate="44100/1" bitDepth="16" numChannels="2" filename="" metaData="" />
    </Source>
    <Source id="14" src="C:\Users\ZhuoJia\Google Drive\Lines\10.wav" lastMod="20140330T101727" rect="(0,0,0,0)" >
      <SourceTrack range="(0,194000000)" type="2" editRate="10000000/1" trackRect="(0,0,0,0)" sampleRate="44100/1" bitDepth="16" numChannels="2" filename="" metaData="" />
    </Source>
    <Source id="15" src="C:\Users\ZhuoJia\Google Drive\Lines\10 with slash.wav" lastMod="20140330T151319" rect="(0,0,0,0)" >
      <SourceTrack range="(0,172666667)" type="2" editRate="10000000/1" trackRect="(0,0,0,0)" sampleRate="44100/1" bitDepth="16" numChannels="2" filename="" metaData="" />
    </Source>
    <Source id="16" src="C:\Users\ZhuoJia\Google Drive\Lines\10 without slash.wav" lastMod="20140330T151319" rect="(0,0,0,0)" >
      <SourceTrack range="(0,173666667)" type="2" editRate="10000000/1" trackRect="(0,0,0,0)" sampleRate="44100/1" bitDepth="16" numChannels="2" filename="" metaData="" />
    </Source>
    <Source id="17" src="C:\Users\ZhuoJia\Google Drive\Lines\11.wav" lastMod="20140330T124203" rect="(0,0,0,0)" >
      <SourceTrack range="(0,187333333)" type="2" editRate="10000000/1" trackRect="(0,0,0,0)" sampleRate="44100/1" bitDepth="16" numChannels="2" filename="" metaData="" />
    </Source>
    <Source id="18" src="C:\Users\ZhuoJia\Google Drive\Lines\12.wav" lastMod="20140330T124203" rect="(0,0,0,0)" >
      <SourceTrack range="(0,119333333)" type="2" editRate="10000000/1" trackRect="(0,0,0,0)" sampleRate="44100/1" bitDepth="16" numChannels="2" filename="" metaData="" />
    </Source>
    <Source id="19" src="C:\Users\ZhuoJia\Google Drive\Lines\13.wav" lastMod="20140330T124203" rect="(0,0,0,0)" >
      <SourceTrack range="(0,140000000)" type="2" editRate="10000000/1" trackRect="(0,0,0,0)" sampleRate="44100/1" bitDepth="16" numChannels="2" filename="" metaData="" />
    </Source>
    <Source id="20" src="C:\Users\ZhuoJia\Google Drive\Lines\14.wav" lastMod="20140330T124203" rect="(0,0,0,0)" >
      <SourceTrack range="(0,76333333)" type="2" editRate="10000000/1" trackRect="(0,0,0,0)" sampleRate="44100/1" bitDepth="16" numChannels="2" filename="" metaData="" />
    </Source>
    <Source id="21" src="C:\Users\ZhuoJia\Google Drive\Lines\14-2.wav" lastMod="20140330T124203" rect="(0,0,0,0)" >
      <SourceTrack range="(0,79666667)" type="2" editRate="10000000/1" trackRect="(0,0,0,0)" sampleRate="44100/1" bitDepth="16" numChannels="2" filename="" metaData="" />
    </Source>
    <Source id="22" src="C:\Users\ZhuoJia\Google Drive\Lines\15.wav" lastMod="20140330T124203" rect="(0,0,0,0)" >
      <SourceTrack range="(0,149333333)" type="2" editRate="10000000/1" trackRect="(0,0,0,0)" sampleRate="44100/1" bitDepth="16" numChannels="2" filename="" metaData="" />
    </Source>
    <Source id="23" src="C:\Users\ZhuoJia\Google Drive\Lines\16.wav" lastMod="20140330T124203" rect="(0,0,0,0)" >
      <SourceTrack range="(0,67333333)" type="2" editRate="10000000/1" trackRect="(0,0,0,0)" sampleRate="44100/1" bitDepth="16" numChannels="2" filename="" metaData="" />
    </Source>
    <Source id="24" src="C:\Users\ZhuoJia\Google Drive\Lines\17.wav" lastMod="20140330T124203" rect="(0,0,0,0)" >
      <SourceTrack range="(0,122666667)" type="2" editRate="10000000/1" trackRect="(0,0,0,0)" sampleRate="44100/1" bitDepth="16" numChannels="2" filename="" metaData="" />
    </Source>
    <Source id="25" src="C:\Users\ZhuoJia\Google Drive\Lines\18.wav" lastMod="20140330T124203" rect="(0,0,0,0)" >
      <SourceTrack range="(0,90666667)" type="2" editRate="10000000/1" trackRect="(0,0,0,0)" sampleRate="44100/1" bitDepth="16" numChannels="2" filename="" metaData="" />
    </Source>
    <Source id="26" src="C:\Users\ZhuoJia\Google Drive\Lines\19.wav" lastMod="20140330T124203" rect="(0,0,0,0)" >
      <SourceTrack range="(0,99666667)" type="2" editRate="10000000/1" trackRect="(0,0,0,0)" sampleRate="44100/1" bitDepth="16" numChannels="2" filename="" metaData="" />
    </Source>
    <Source id="27" src="C:\Users\ZhuoJia\Google Drive\Lines\20.wav" lastMod="20140330T124203" rect="(0,0,0,0)" >
      <SourceTrack range="(0,137000000)" type="2" editRate="10000000/1" trackRect="(0,0,0,0)" sampleRate="44100/1" bitDepth="16" numChannels="2" filename="" metaData="" />
    </Source>
    <Source id="28" src="C:\Users\ZhuoJia\Google Drive\Lines\21.wav" lastMod="20140330T124203" rect="(0,0,0,0)" >
      <SourceTrack range="(0,105000000)" type="2" editRate="10000000/1" trackRect="(0,0,0,0)" sampleRate="44100/1" bitDepth="16" numChannels="2" filename="" metaData="" />
    </Source>
    <Source id="29" src="C:\Users\ZhuoJia\Google Drive\Lines\22.wav" lastMod="20140330T124203" rect="(0,0,0,0)" >
      <SourceTrack range="(0,178666667)" type="2" editRate="10000000/1" trackRect="(0,0,0,0)" sampleRate="44100/1" bitDepth="16" numChannels="2" filename="" metaData="" />
    </Source>
    <Source id="30" src="C:\Users\ZhuoJia\Google Drive\Lines\23.wav" lastMod="20140330T124203" rect="(0,0,0,0)" >
      <SourceTrack range="(0,120666667)" type="2" editRate="10000000/1" trackRect="(0,0,0,0)" sampleRate="44100/1" bitDepth="16" numChannels="2" filename="" metaData="" />
    </Source>
    <Source id="31" src="C:\Users\ZhuoJia\Google Drive\Lines\6-2.wav" lastMod="20140330T151319" rect="(0,0,0,0)" >
      <SourceTrack range="(0,183000000)" type="2" editRate="10000000/1" trackRect="(0,0,0,0)" sampleRate="44100/1" bitDepth="16" numChannels="2" filename="" metaData="" />
    </Source>
  </SourceBin>
  <Timeline id="32"  >
   <Attributes>
    <Attribute id="33" value="1920" name="width"/>
    <Attribute id="34" value="1080" name="height"/>
    <Attribute id="35" value="(0,0,0,255)" name="backgroundColor"/>
   </Attributes>
    <GenericMixer id="36"  name="Unified Mixer">
     <MetaData>
      <entry key="MixerType" val="TimelineMixer"/>
     </MetaData>
     <Tracks>
      <GenericTrack id="37"  >
       <Attributes>
        <Attribute id="38" value="" name="ident"/>
       </Attributes>
       <MetaData>
        <entry key="IsLocked" val="False"/>
        <entry key="WinTrackHeight" val="62"/>
       </MetaData>
       <Medias>
        <StitchedMedia id="39" start="0" duration="5999" scalar="1/1" mediaStart="0/1" mediaDuration="5999/1" minMediaStart="-108000/1" >
         <Transformer>
          <VectorParam id="40"  name="translation">
           <InterpolatingParam id="41" interp="linr"  time="-9999999/1" value="-2.8978822509085653e-010" leadInLength="0/1"  />
           <InterpolatingParam id="42" interp="linr"  time="-9999999/1" value="1.5347723092418164e-012" leadInLength="0/1"  />
           <InterpolatingParam id="43" interp="linr"  time="-9999999/1" value="0" leadInLength="0/1"  />
          </VectorParam>
          <VectorParam id="44"  name="rotation">
           <InterpolatingParam id="45" interp="linr"  time="-9999999/1" value="0" leadInLength="0/1"  />
           <InterpolatingParam id="46" interp="linr"  time="-9999999/1" value="0" leadInLength="0/1"  />
           <InterpolatingParam id="47" interp="linr"  time="-9999999/1" value="0" leadInLength="0/1"  />
          </VectorParam>
          <VectorParam id="48"  name="shear">
           <InterpolatingParam id="49" interp="linr"  time="-9999999/1" value="0" leadInLength="0/1"  />
           <InterpolatingParam id="50" interp="linr"  time="-9999999/1" value="0" leadInLength="0/1"  />
           <InterpolatingParam id="51" interp="linr"  time="-9999999/1" value="0" leadInLength="0/1"  />
          </VectorParam>
          <VectorParam id="52"  name="scale">
           <InterpolatingParam id="53" interp="linr"  time="-9999999/1" value="1" leadInLength="0/1"  />
           <InterpolatingParam id="54" interp="linr"  time="-9999999/1" value="1" leadInLength="0/1"  />
           <InterpolatingParam id="55" interp="linr"  time="-9999999/1" value="1" leadInLength="0/1"  />
          </VectorParam>
          <VectorParam id="56"  name="anchor">
           <InterpolatingParam id="57" interp="linr"  >
            <Keyframes>
            <Keyframe id="58"  time="0/1" value="0" leadInLength="0/1"  />
            <Keyframe id="59"  time="1524/1" value="0" leadInLength="0/1"  />
            <Keyframe id="60"  time="2212/1" value="0" leadInLength="0/1"  />
            <Keyframe id="61"  time="2419/1" value="0" leadInLength="0/1"  />
            <Keyframe id="62"  time="2746/1" value="0" leadInLength="0/1"  />
            <Keyframe id="63"  time="2966/1" value="0" leadInLength="0/1"  />
            <Keyframe id="64"  time="3410/1" value="0" leadInLength="0/1"  />
            <Keyframe id="65"  time="3630/1" value="0" leadInLength="0/1"  />
            <Keyframe id="66"  time="3763/1" value="0" leadInLength="0/1"  />
            <Keyframe id="67"  time="4429/1" value="0" leadInLength="0/1"  />
            <Keyframe id="68"  time="4538/1" value="0" leadInLength="0/1"  />
            <Keyframe id="69"  time="5390/1" value="0" leadInLength="0/1"  />
            <Keyframe id="70"  time="5503/1" value="0" leadInLength="0/1"  />
            <Keyframe id="71"  time="5888/1" value="0" leadInLength="0/1"  />
            <Keyframe id="72"  time="6064/1" value="0" leadInLength="0/1"  />
            <Keyframe id="73"  time="6300/1" value="0" leadInLength="0/1"  />
            <Keyframe id="74"  time="6447/1" value="0" leadInLength="0/1"  />
            <Keyframe id="75"  time="6874/1" value="0" leadInLength="0/1"  />
            </Keyframes>
           </InterpolatingParam>
           <InterpolatingParam id="76" interp="linr"  >
            <Keyframes>
            <Keyframe id="77"  time="0/1" value="0" leadInLength="0/1"  />
            <Keyframe id="78"  time="1524/1" value="0" leadInLength="0/1"  />
            <Keyframe id="79"  time="2212/1" value="0" leadInLength="0/1"  />
            <Keyframe id="80"  time="2419/1" value="0" leadInLength="0/1"  />
            <Keyframe id="81"  time="2746/1" value="0" leadInLength="0/1"  />
            <Keyframe id="82"  time="2966/1" value="0" leadInLength="0/1"  />
            <Keyframe id="83"  time="3410/1" value="0" leadInLength="0/1"  />
            <Keyframe id="84"  time="3630/1" value="0" leadInLength="0/1"  />
            <Keyframe id="85"  time="3763/1" value="0" leadInLength="0/1"  />
            <Keyframe id="86"  time="4429/1" value="0" leadInLength="0/1"  />
            <Keyframe id="87"  time="4538/1" value="0" leadInLength="0/1"  />
            <Keyframe id="88"  time="5390/1" value="0" leadInLength="0/1"  />
            <Keyframe id="89"  time="5503/1" value="0" leadInLength="0/1"  />
            <Keyframe id="90"  time="5888/1" value="0" leadInLength="0/1"  />
            <Keyframe id="91"  time="6064/1" value="0" leadInLength="0/1"  />
            <Keyframe id="92"  time="6300/1" value="0" leadInLength="0/1"  />
            <Keyframe id="93"  time="6447/1" value="0" leadInLength="0/1"  />
            <Keyframe id="94"  time="6874/1" value="0" leadInLength="0/1"  />
            </Keyframes>
           </InterpolatingParam>
           <InterpolatingParam id="95" interp="linr"  >
            <Keyframes>
            <Keyframe id="96"  time="0/1" value="0" leadInLength="0/1"  />
            <Keyframe id="97"  time="1524/1" value="0" leadInLength="0/1"  />
            <Keyframe id="98"  time="2212/1" value="0" leadInLength="0/1"  />
            <Keyframe id="99"  time="2419/1" value="0" leadInLength="0/1"  />
            <Keyframe id="100"  time="2746/1" value="0" leadInLength="0/1"  />
            <Keyframe id="101"  time="2966/1" value="0" leadInLength="0/1"  />
            <Keyframe id="102"  time="3410/1" value="0" leadInLength="0/1"  />
            <Keyframe id="103"  time="3630/1" value="0" leadInLength="0/1"  />
            <Keyframe id="104"  time="3763/1" value="0" leadInLength="0/1"  />
            <Keyframe id="105"  time="4429/1" value="0" leadInLength="0/1"  />
            <Keyframe id="106"  time="4538/1" value="0" leadInLength="0/1"  />
            <Keyframe id="107"  time="5390/1" value="0" leadInLength="0/1"  />
            <Keyframe id="108"  time="5503/1" value="0" leadInLength="0/1"  />
            <Keyframe id="109"  time="5888/1" value="0" leadInLength="0/1"  />
            <Keyframe id="110"  time="6064/1" value="0" leadInLength="0/1"  />
            <Keyframe id="111"  time="6300/1" value="0" leadInLength="0/1"  />
            <Keyframe id="112"  time="6447/1" value="0" leadInLength="0/1"  />
            <Keyframe id="113"  time="6874/1" value="0" leadInLength="0/1"  />
            </Keyframes>
           </InterpolatingParam>
          </VectorParam>
         </Transformer>
         <Parameters>
          <VectorParam id="114"  name="sourceCrop">
           <InterpolatingParam id="115" interp="linr"  >
            <Keyframes>
            <Keyframe id="116"  time="0/1" value="0" leadInLength="0/1"  />
            <Keyframe id="117"  time="1524/1" value="0" leadInLength="0/1"  />
            <Keyframe id="118"  time="2212/1" value="0" leadInLength="0/1"  />
            <Keyframe id="119"  time="2419/1" value="0" leadInLength="0/1"  />
            <Keyframe id="120"  time="2746/1" value="0" leadInLength="0/1"  />
            <Keyframe id="121"  time="2966/1" value="0" leadInLength="0/1"  />
            <Keyframe id="122"  time="3410/1" value="0" leadInLength="0/1"  />
            <Keyframe id="123"  time="3630/1" value="0" leadInLength="0/1"  />
            <Keyframe id="124"  time="3763/1" value="0" leadInLength="0/1"  />
            <Keyframe id="125"  time="4429/1" value="0" leadInLength="0/1"  />
            <Keyframe id="126"  time="4538/1" value="0" leadInLength="0/1"  />
            <Keyframe id="127"  time="5390/1" value="0" leadInLength="0/1"  />
            <Keyframe id="128"  time="5503/1" value="0" leadInLength="0/1"  />
            <Keyframe id="129"  time="5888/1" value="0" leadInLength="0/1"  />
            <Keyframe id="130"  time="6064/1" value="0" leadInLength="0/1"  />
            <Keyframe id="131"  time="6300/1" value="0" leadInLength="0/1"  />
            <Keyframe id="132"  time="6447/1" value="0" leadInLength="0/1"  />
            <Keyframe id="133"  time="6874/1" value="0" leadInLength="0/1"  />
            </Keyframes>
           </InterpolatingParam>
           <InterpolatingParam id="134" interp="linr"  >
            <Keyframes>
            <Keyframe id="135"  time="0/1" value="0" leadInLength="0/1"  />
            <Keyframe id="136"  time="1524/1" value="0" leadInLength="0/1"  />
            <Keyframe id="137"  time="2212/1" value="0" leadInLength="0/1"  />
            <Keyframe id="138"  time="2419/1" value="0" leadInLength="0/1"  />
            <Keyframe id="139"  time="2746/1" value="0" leadInLength="0/1"  />
            <Keyframe id="140"  time="2966/1" value="0" leadInLength="0/1"  />
            <Keyframe id="141"  time="3410/1" value="0" leadInLength="0/1"  />
            <Keyframe id="142"  time="3630/1" value="0" leadInLength="0/1"  />
            <Keyframe id="143"  time="3763/1" value="0" leadInLength="0/1"  />
            <Keyframe id="144"  time="4429/1" value="0" leadInLength="0/1"  />
            <Keyframe id="145"  time="4538/1" value="0" leadInLength="0/1"  />
            <Keyframe id="146"  time="5390/1" value="0" leadInLength="0/1"  />
            <Keyframe id="147"  time="5503/1" value="0" leadInLength="0/1"  />
            <Keyframe id="148"  time="5888/1" value="0" leadInLength="0/1"  />
            <Keyframe id="149"  time="6064/1" value="0" leadInLength="0/1"  />
            <Keyframe id="150"  time="6300/1" value="0" leadInLength="0/1"  />
            <Keyframe id="151"  time="6447/1" value="0" leadInLength="0/1"  />
            <Keyframe id="152"  time="6874/1" value="0" leadInLength="0/1"  />
            </Keyframes>
           </InterpolatingParam>
           <InterpolatingParam id="153" interp="linr"  >
            <Keyframes>
            <Keyframe id="154"  time="0/1" value="0" leadInLength="0/1"  />
            <Keyframe id="155"  time="1524/1" value="0" leadInLength="0/1"  />
            <Keyframe id="156"  time="2212/1" value="0" leadInLength="0/1"  />
            <Keyframe id="157"  time="2419/1" value="0" leadInLength="0/1"  />
            <Keyframe id="158"  time="2746/1" value="0" leadInLength="0/1"  />
            <Keyframe id="159"  time="2966/1" value="0" leadInLength="0/1"  />
            <Keyframe id="160"  time="3410/1" value="0" leadInLength="0/1"  />
            <Keyframe id="161"  time="3630/1" value="0" leadInLength="0/1"  />
            <Keyframe id="162"  time="3763/1" value="0" leadInLength="0/1"  />
            <Keyframe id="163"  time="4429/1" value="0" leadInLength="0/1"  />
            <Keyframe id="164"  time="4538/1" value="0" leadInLength="0/1"  />
            <Keyframe id="165"  time="5390/1" value="0" leadInLength="0/1"  />
            <Keyframe id="166"  time="5503/1" value="0" leadInLength="0/1"  />
            <Keyframe id="167"  time="5888/1" value="0" leadInLength="0/1"  />
            <Keyframe id="168"  time="6064/1" value="0" leadInLength="0/1"  />
            <Keyframe id="169"  time="6300/1" value="0" leadInLength="0/1"  />
            <Keyframe id="170"  time="6447/1" value="0" leadInLength="0/1"  />
            <Keyframe id="171"  time="6874/1" value="0" leadInLength="0/1"  />
            </Keyframes>
           </InterpolatingParam>
           <InterpolatingParam id="172" interp="linr"  >
            <Keyframes>
            <Keyframe id="173"  time="0/1" value="0" leadInLength="0/1"  />
            <Keyframe id="174"  time="1524/1" value="0" leadInLength="0/1"  />
            <Keyframe id="175"  time="2212/1" value="0" leadInLength="0/1"  />
            <Keyframe id="176"  time="2419/1" value="0" leadInLength="0/1"  />
            <Keyframe id="177"  time="2746/1" value="0" leadInLength="0/1"  />
            <Keyframe id="178"  time="2966/1" value="0" leadInLength="0/1"  />
            <Keyframe id="179"  time="3410/1" value="0" leadInLength="0/1"  />
            <Keyframe id="180"  time="3630/1" value="0" leadInLength="0/1"  />
            <Keyframe id="181"  time="3763/1" value="0" leadInLength="0/1"  />
            <Keyframe id="182"  time="4429/1" value="0" leadInLength="0/1"  />
            <Keyframe id="183"  time="4538/1" value="0" leadInLength="0/1"  />
            <Keyframe id="184"  time="5390/1" value="0" leadInLength="0/1"  />
            <Keyframe id="185"  time="5503/1" value="0" leadInLength="0/1"  />
            <Keyframe id="186"  time="5888/1" value="0" leadInLength="0/1"  />
            <Keyframe id="187"  time="6064/1" value="0" leadInLength="0/1"  />
            <Keyframe id="188"  time="6300/1" value="0" leadInLength="0/1"  />
            <Keyframe id="189"  time="6447/1" value="0" leadInLength="0/1"  />
            <Keyframe id="190"  time="6874/1" value="0" leadInLength="0/1"  />
            </Keyframes>
           </InterpolatingParam>
          </VectorParam>
          <VectorParam id="191"  name="geometryCrop">
           <InterpolatingParam id="192" interp="linr"  time="-9999999/1" value="0" leadInLength="0/1"  />
           <InterpolatingParam id="193" interp="linr"  time="-9999999/1" value="0" leadInLength="0/1"  />
           <InterpolatingParam id="194" interp="linr"  time="-9999999/1" value="0" leadInLength="0/1"  />
           <InterpolatingParam id="195" interp="linr"  time="-9999999/1" value="0" leadInLength="0/1"  />
          </VectorParam>
          <InterpolatingParam id="196" interp="linr"  time="-9999999/1" value="1" leadInLength="0/1"  name="opacity"/>
          <InterpolatingParam id="197" interp="linr"  time="0/1" value="1" leadInLength="0/1"  name="cursorOpacity"/>
          <InterpolatingParam id="198" interp="linr"  time="0/1" value="1" leadInLength="0/1"  name="cursorScale"/>
          <Parameter id="199"  name="captions"/>
         </Parameters>
         <Effects>
          <GenericEffect id="200" range="(-133893728/1,-1/1)" name = "CursorBaseEffectName" >
           <Parameters>
           <InterpolatingParam id="201" interp="linr"   name="cursorSize">
            <Keyframes>
            <Keyframe id="202"  time="-9999999/1" value="1" leadInLength="0/1"  />
            <Keyframe id="203"  time="256/1" value="2.2799999999999998" leadInLength="30/1"  interpolater="leadin-linr"  />
            </Keyframes>
           </InterpolatingParam>
           <InterpolatingParam id="204" interp="linr"   name="highlightBlurRadius">
            <Keyframes>
            <Keyframe id="205"  time="-9999999/1" value="0" leadInLength="0/1"  />
            <Keyframe id="206"  time="256/1" value="0" leadInLength="30/1"  interpolater="leadin-linr"  />
            </Keyframes>
           </InterpolatingParam>
           <InterpolatingParam id="207" interp="linr"   name="highlightColorBlue">
            <Keyframes>
            <Keyframe id="208"  time="-9999999/1" value="0" leadInLength="0/1"  />
            <Keyframe id="209"  time="256/1" value="0" leadInLength="30/1"  interpolater="leadin-linr"  />
            </Keyframes>
           </InterpolatingParam>
           <InterpolatingParam id="210" interp="linr"   name="highlightColorGreen">
            <Keyframes>
            <Keyframe id="211"  time="-9999999/1" value="255" leadInLength="0/1"  />
            <Keyframe id="212"  time="256/1" value="255" leadInLength="30/1"  interpolater="leadin-linr"  />
            </Keyframes>
           </InterpolatingParam>
           <InterpolatingParam id="213" interp="linr"   name="highlightColorRed">
            <Keyframes>
            <Keyframe id="214"  time="-9999999/1" value="255" leadInLength="0/1"  />
            <Keyframe id="215"  time="256/1" value="255" leadInLength="30/1"  interpolater="leadin-linr"  />
            </Keyframes>
           </InterpolatingParam>
           <InterpolatingParam id="216" interp="linr"   name="highlightFeatherSize">
            <Keyframes>
            <Keyframe id="217"  time="-9999999/1" value="5" leadInLength="0/1"  />
            <Keyframe id="218"  time="256/1" value="5" leadInLength="30/1"  interpolater="leadin-linr"  />
            </Keyframes>
           </InterpolatingParam>
           <InterpolatingParam id="219" interp="linr"   name="highlightMagnification">
            <Keyframes>
            <Keyframe id="220"  time="-9999999/1" value="2" leadInLength="0/1"  />
            <Keyframe id="221"  time="256/1" value="2" leadInLength="30/1"  interpolater="leadin-linr"  />
            </Keyframes>
           </InterpolatingParam>
           <InterpolatingParam id="222" interp="linr"   name="highlightOpacity">
            <Keyframes>
            <Keyframe id="223"  time="-9999999/1" value="1" leadInLength="0/1"  />
            <Keyframe id="224"  time="256/1" value="100" leadInLength="30/1"  interpolater="leadin-linr"  />
            </Keyframes>
           </InterpolatingParam>
           <InterpolatingParam id="225" interp="linr"   name="highlightSize">
            <Keyframes>
            <Keyframe id="226"  time="-9999999/1" value="45" leadInLength="0/1"  />
            <Keyframe id="227"  time="256/1" value="45" leadInLength="30/1"  interpolater="leadin-linr"  />
            </Keyframes>
           </InterpolatingParam>
           <Parameter id="228"   name="highlightType">
            <Keyframes>
            <Keyframe id="229"  time="-9999999/1" value="0" leadInLength="0/1"  />
            <Keyframe id="230"  time="256/1" value="0" leadInLength="30/1"  />
            </Keyframes>
           </Parameter>
           <InterpolatingParam id="231" interp="linr"   name="leftClickColorBlue">
            <Keyframes>
            <Keyframe id="232"  time="-9999999/1" value="0" leadInLength="0/1"  />
            <Keyframe id="233"  time="256/1" value="0" leadInLength="30/1"  interpolater="leadin-linr"  />
            </Keyframes>
           </InterpolatingParam>
           <InterpolatingParam id="234" interp="linr"   name="leftClickColorGreen">
            <Keyframes>
            <Keyframe id="235"  time="-9999999/1" value="0" leadInLength="0/1"  />
            <Keyframe id="236"  time="256/1" value="0" leadInLength="30/1"  interpolater="leadin-linr"  />
            </Keyframes>
           </InterpolatingParam>
           <InterpolatingParam id="237" interp="linr"   name="leftClickColorRed">
            <Keyframes>
            <Keyframe id="238"  time="-9999999/1" value="255" leadInLength="0/1"  />
            <Keyframe id="239"  time="256/1" value="255" leadInLength="30/1"  interpolater="leadin-linr"  />
            </Keyframes>
           </InterpolatingParam>
           <InterpolatingParam id="240" interp="linr"   name="leftClickDuration">
            <Keyframes>
            <Keyframe id="241"  time="-9999999/1" value="0.80000000000000004" leadInLength="0/1"  />
            <Keyframe id="242"  time="256/1" value="0.80000000000000004" leadInLength="30/1"  interpolater="leadin-linr"  />
            </Keyframes>
           </InterpolatingParam>
           <InterpolatingParam id="243" interp="linr"   name="leftClickSize">
            <Keyframes>
            <Keyframe id="244"  time="-9999999/1" value="20" leadInLength="0/1"  />
            <Keyframe id="245"  time="256/1" value="20" leadInLength="30/1"  interpolater="leadin-linr"  />
            </Keyframes>
           </InterpolatingParam>
           <Parameter id="246"   name="leftClickSoundFilename">
            <Keyframes>
            <Keyframe id="247"  time="-9999999/1" value="" leadInLength="0/1"  />
            <Keyframe id="248"  time="256/1" value="" leadInLength="30/1"  />
            </Keyframes>
           </Parameter>
           <InterpolatingParam id="249" interp="linr"   name="leftClickSoundVolume">
            <Keyframes>
            <Keyframe id="250"  time="-9999999/1" value="1" leadInLength="0/1"  />
            <Keyframe id="251"  time="256/1" value="1" leadInLength="30/1"  interpolater="leadin-linr"  />
            </Keyframes>
           </InterpolatingParam>
           <Parameter id="252"   name="leftClickType">
            <Keyframes>
            <Keyframe id="253"  time="-9999999/1" value="0" leadInLength="0/1"  />
            <Keyframe id="254"  time="256/1" value="1" leadInLength="30/1"  />
            </Keyframes>
           </Parameter>
           <InterpolatingParam id="255" interp="linr"   name="opacity">
            <Keyframes>
            <Keyframe id="256"  time="-9999999/1" value="1" leadInLength="0/1"  />
            <Keyframe id="257"  time="256/1" value="1" leadInLength="30/1"  interpolater="leadin-linr"  />
            </Keyframes>
           </InterpolatingParam>
           <InterpolatingParam id="258" interp="linr"   name="rightClickColorBlue">
            <Keyframes>
            <Keyframe id="259"  time="-9999999/1" value="255" leadInLength="0/1"  />
            <Keyframe id="260"  time="256/1" value="255" leadInLength="30/1"  interpolater="leadin-linr"  />
            </Keyframes>
           </InterpolatingParam>
           <InterpolatingParam id="261" interp="linr"   name="rightClickColorGreen">
            <Keyframes>
            <Keyframe id="262"  time="-9999999/1" value="0" leadInLength="0/1"  />
            <Keyframe id="263"  time="256/1" value="0" leadInLength="30/1"  interpolater="leadin-linr"  />
            </Keyframes>
           </InterpolatingParam>
           <InterpolatingParam id="264" interp="linr"   name="rightClickColorRed">
            <Keyframes>
            <Keyframe id="265"  time="-9999999/1" value="0" leadInLength="0/1"  />
            <Keyframe id="266"  time="256/1" value="0" leadInLength="30/1"  interpolater="leadin-linr"  />
            </Keyframes>
           </InterpolatingParam>
           <InterpolatingParam id="267" interp="linr"   name="rightClickDuration">
            <Keyframes>
            <Keyframe id="268"  time="-9999999/1" value="0.80000000000000004" leadInLength="0/1"  />
            <Keyframe id="269"  time="256/1" value="0.80000000000000004" leadInLength="30/1"  interpolater="leadin-linr"  />
            </Keyframes>
           </InterpolatingParam>
           <InterpolatingParam id="270" interp="linr"   name="rightClickSize">
            <Keyframes>
            <Keyframe id="271"  time="-9999999/1" value="20" leadInLength="0/1"  />
            <Keyframe id="272"  time="256/1" value="20" leadInLength="30/1"  interpolater="leadin-linr"  />
            </Keyframes>
           </InterpolatingParam>
           <Parameter id="273"   name="rightClickSoundFilename">
            <Keyframes>
            <Keyframe id="274"  time="-9999999/1" value="" leadInLength="0/1"  />
            <Keyframe id="275"  time="256/1" value="" leadInLength="30/1"  />
            </Keyframes>
           </Parameter>
           <InterpolatingParam id="276" interp="linr"   name="rightClickSoundVolume">
            <Keyframes>
            <Keyframe id="277"  time="-9999999/1" value="1" leadInLength="0/1"  />
            <Keyframe id="278"  time="256/1" value="1" leadInLength="30/1"  interpolater="leadin-linr"  />
            </Keyframes>
           </InterpolatingParam>
           <Parameter id="279"   name="rightClickType">
            <Keyframes>
            <Keyframe id="280"  time="-9999999/1" value="0" leadInLength="0/1"  />
            <Keyframe id="281"  time="256/1" value="0" leadInLength="30/1"  />
            </Keyframes>
           </Parameter>
           </Parameters>
          </GenericEffect>
         </Effects>
         <Attributes>
          <Attribute id="282" value="" name="ident"/>
         </Attributes>
         <MetaData>
          <entry key="AutoAppliedSmartFocus" val="False"/>
          <entry key="WinSubProjectDisplayName" val=""/>
         </MetaData>
         <ExtraData>
          <Entry key="ZoomPanBin">
           <ZoomPanBin id="283"  >
            <ZoomPanKeyframes>
             <ZoomPanKeyframe id="284" timeRangeEnd="-9999999/1" timeRangeDuration="0/1" interpolaterName="linr"  />
            </ZoomPanKeyframes>
           </ZoomPanBin>
          </Entry>
          <Entry key="CursorEffectBin">
           <CursorEffectBin id="285"  >
            <CursorEffectKeyframes>
             <CursorEffectKeyframe id="286" timeRangeEnd="-9999999/1" timeRangeDuration="0/1" interpolaterName=""  />
             <CursorEffectKeyframe id="287" timeRangeEnd="256/1" timeRangeDuration="30/1" interpolaterName=""  />
            </CursorEffectKeyframes>
           </CursorEffectBin>
          </Entry>
         </ExtraData>
         <GenericTrack id="288"  >
          <Attributes>
           <Attribute id="289" value="" name="ident"/>
          </Attributes>
          <MetaData>
           <entry key="IsLocked" val="False"/>
           <entry key="WinTrackHeight" val="0"/>
          </MetaData>
          <Medias>
           <ScreenIMFile id="290" start="-108000" duration="108810" scalar="1/1" mediaStart="36/1" mediaDuration="1/1" trackNumber="0" src="4" trimStartSum="-108000/1" >
            <Transformer>
             <VectorParam id="291"  name="translation">
              <InterpolatingParam id="292" interp="linr"  time="-9999999/1" value="0" leadInLength="0/1"  />
              <InterpolatingParam id="293" interp="linr"  time="-9999999/1" value="0" leadInLength="0/1"  />
              <InterpolatingParam id="294" interp="linr"  time="-9999999/1" value="0" leadInLength="0/1"  />
             </VectorParam>
             <VectorParam id="295"  name="rotation">
              <InterpolatingParam id="296" interp="linr"  time="-9999999/1" value="0" leadInLength="0/1"  />
              <InterpolatingParam id="297" interp="linr"  time="-9999999/1" value="0" leadInLength="0/1"  />
              <InterpolatingParam id="298" interp="linr"  time="-9999999/1" value="0" leadInLength="0/1"  />
             </VectorParam>
             <VectorParam id="299"  name="shear">
              <InterpolatingParam id="300" interp="linr"  time="-9999999/1" value="0" leadInLength="0/1"  />
              <InterpolatingParam id="301" interp="linr"  time="-9999999/1" value="0" leadInLength="0/1"  />
              <InterpolatingParam id="302" interp="linr"  time="-9999999/1" value="0" leadInLength="0/1"  />
             </VectorParam>
             <VectorParam id="303"  name="scale">
              <InterpolatingParam id="304" interp="linr"  time="-9999999/1" value="1" leadInLength="0/1"  />
              <InterpolatingParam id="305" interp="linr"  time="-9999999/1" value="1" leadInLength="0/1"  />
              <InterpolatingParam id="306" interp="linr"  time="-9999999/1" value="1" leadInLength="0/1"  />
             </VectorParam>
             <VectorParam id="307"  name="anchor">
              <InterpolatingParam id="308" interp="linr"  time="0/1" value="0" leadInLength="0/1"  />
              <InterpolatingParam id="309" interp="linr"  time="0/1" value="0" leadInLength="0/1"  />
              <InterpolatingParam id="310" interp="linr"  time="0/1" value="0" leadInLength="0/1"  />
             </VectorParam>
            </Transformer>
            <Parameters>
             <VectorParam id="311"  name="sourceCrop">
              <InterpolatingParam id="312" interp="linr"  time="0/1" value="0" leadInLength="0/1"  />
              <InterpolatingParam id="313" interp="linr"  time="0/1" value="0" leadInLength="0/1"  />
              <InterpolatingParam id="314" interp="linr"  time="0/1" value="0" leadInLength="0/1"  />
              <InterpolatingParam id="315" interp="linr"  time="0/1" value="0" leadInLength="0/1"  />
             </VectorParam>
             <VectorParam id="316"  name="geometryCrop">
              <InterpolatingParam id="317" interp="linr"  time="-9999999/1" value="0" leadInLength="0/1"  />
              <InterpolatingParam id="318" interp="linr"  time="-9999999/1" value="0" leadInLength="0/1"  />
              <InterpolatingParam id="319" interp="linr"  time="-9999999/1" value="0" leadInLength="0/1"  />
              <InterpolatingParam id="320" interp="linr"  time="-9999999/1" value="0" leadInLength="0/1"  />
             </VectorParam>
             <InterpolatingParam id="321" interp="linr"  time="-9999999/1" value="1" leadInLength="0/1"  name="opacity"/>
             <InterpolatingParam id="322" interp="linr"  time="0/1" value="0" leadInLength="0/1"  name="cursorOpacity"/>
             <InterpolatingParam id="323" interp="linr"  time="0/1" value="0" leadInLength="0/1"  name="recordedCursorOpacity"/>
             <InterpolatingParam id="324" interp="linr"  time="0/1" value="0" leadInLength="0/1"  name="cursorScale"/>
            </Parameters>
            <Attributes>
             <Attribute id="325" value="" name="ident"/>
            </Attributes>
            <MetaData>
             <entry key="AutoAppliedSmartFocus" val="False"/>
             <entry key="WinSubProjectDisplayName" val=""/>
            </MetaData>
            <ExtraData>
             <Entry key="ZoomPanBin">
              <ZoomPanBin id="326"  >
               <ZoomPanKeyframes>
                <ZoomPanKeyframe id="327" timeRangeEnd="-9999999/1" timeRangeDuration="0/1" interpolaterName="linr"  />
               </ZoomPanKeyframes>
              </ZoomPanBin>
             </Entry>
             <Entry key="CursorEffectBin">
              <CursorEffectBin id="328"  >
               <CursorEffectKeyframes>
               </CursorEffectKeyframes>
              </CursorEffectBin>
             </Entry>
            </ExtraData>
           </ScreenIMFile>
           <ScreenVMFile id="329" start="810" duration="714" scalar="1/1" mediaStart="36/1" mediaDuration="714/1" trackNumber="0" src="4" >
            <Transformer>
             <VectorParam id="330"  name="translation">
              <InterpolatingParam id="331" interp="linr"  time="-9999999/1" value="0" leadInLength="0/1"  />
              <InterpolatingParam id="332" interp="linr"  time="-9999999/1" value="0" leadInLength="0/1"  />
              <InterpolatingParam id="333" interp="linr"  time="-9999999/1" value="0" leadInLength="0/1"  />
             </VectorParam>
             <VectorParam id="334"  name="rotation">
              <InterpolatingParam id="335" interp="linr"  time="-9999999/1" value="0" leadInLength="0/1"  />
              <InterpolatingParam id="336" interp="linr"  time="-9999999/1" value="0" leadInLength="0/1"  />
              <InterpolatingParam id="337" interp="linr"  time="-9999999/1" value="0" leadInLength="0/1"  />
             </VectorParam>
             <VectorParam id="338"  name="shear">
              <InterpolatingParam id="339" interp="linr"  time="-9999999/1" value="0" leadInLength="0/1"  />
              <InterpolatingParam id="340" interp="linr"  time="-9999999/1" value="0" leadInLength="0/1"  />
              <InterpolatingParam id="341" interp="linr"  time="-9999999/1" value="0" leadInLength="0/1"  />
             </VectorParam>
             <VectorParam id="342"  name="scale">
              <InterpolatingParam id="343" interp="linr"  time="-9999999/1" value="1" leadInLength="0/1"  />
              <InterpolatingParam id="344" interp="linr"  time="-9999999/1" value="1" leadInLength="0/1"  />
              <InterpolatingParam id="345" interp="linr"  time="-9999999/1" value="1" leadInLength="0/1"  />
             </VectorParam>
             <VectorParam id="346"  name="anchor">
              <InterpolatingParam id="347" interp="linr"  time="0/1" value="0" leadInLength="0/1"  />
              <InterpolatingParam id="348" interp="linr"  time="0/1" value="0" leadInLength="0/1"  />
              <InterpolatingParam id="349" interp="linr"  time="0/1" value="0" leadInLength="0/1"  />
             </VectorParam>
            </Transformer>
            <Parameters>
             <VectorParam id="350"  name="sourceCrop">
              <InterpolatingParam id="351" interp="linr"  time="0/1" value="0" leadInLength="0/1"  />
              <InterpolatingParam id="352" interp="linr"  time="0/1" value="0" leadInLength="0/1"  />
              <InterpolatingParam id="353" interp="linr"  time="0/1" value="0" leadInLength="0/1"  />
              <InterpolatingParam id="354" interp="linr"  time="0/1" value="0" leadInLength="0/1"  />
             </VectorParam>
             <VectorParam id="355"  name="geometryCrop">
              <InterpolatingParam id="356" interp="linr"  time="-9999999/1" value="0" leadInLength="0/1"  />
              <InterpolatingParam id="357" interp="linr"  time="-9999999/1" value="0" leadInLength="0/1"  />
              <InterpolatingParam id="358" interp="linr"  time="-9999999/1" value="0" leadInLength="0/1"  />
              <InterpolatingParam id="359" interp="linr"  time="-9999999/1" value="0" leadInLength="0/1"  />
             </VectorParam>
             <InterpolatingParam id="360" interp="linr"  time="-9999999/1" value="1" leadInLength="0/1"  name="opacity"/>
             <InterpolatingParam id="361" interp="linr"  time="0/1" value="0" leadInLength="0/1"  name="cursorOpacity"/>
             <InterpolatingParam id="362" interp="linr"  time="0/1" value="0" leadInLength="0/1"  name="cursorScale"/>
            </Parameters>
            <Attributes>
             <Attribute id="363" value="" name="ident"/>
            </Attributes>
            <MetaData>
             <entry key="AutoAppliedSmartFocus" val="False"/>
             <entry key="WinSubProjectDisplayName" val=""/>
            </MetaData>
            <ExtraData>
             <Entry key="ZoomPanBin">
              <ZoomPanBin id="364"  >
               <ZoomPanKeyframes>
                <ZoomPanKeyframe id="365" timeRangeEnd="-9999999/1" timeRangeDuration="0/1" interpolaterName="linr"  />
               </ZoomPanKeyframes>
              </ZoomPanBin>
             </Entry>
             <Entry key="CursorEffectBin">
              <CursorEffectBin id="366"  >
               <CursorEffectKeyframes>
               </CursorEffectKeyframes>
              </CursorEffectBin>
             </Entry>
            </ExtraData>
           </ScreenVMFile>
           <ScreenIMFile id="367" start="1524" duration="300" scalar="1/1" mediaStart="750/1" mediaDuration="1/1" trackNumber="0" src="4" trimStartSum="0/1" >
            <Transformer>
             <VectorParam id="368"  name="translation">
              <InterpolatingParam id="369" interp="linr"  time="-9999999/1" value="0" leadInLength="0/1"  />
              <InterpolatingParam id="370" interp="linr"  time="-9999999/1" value="0" leadInLength="0/1"  />
              <InterpolatingParam id="371" interp="linr"  time="-9999999/1" value="0" leadInLength="0/1"  />
             </VectorParam>
             <VectorParam id="372"  name="rotation">
              <InterpolatingParam id="373" interp="linr"  time="-9999999/1" value="0" leadInLength="0/1"  />
              <InterpolatingParam id="374" interp="linr"  time="-9999999/1" value="0" leadInLength="0/1"  />
              <InterpolatingParam id="375" interp="linr"  time="-9999999/1" value="0" leadInLength="0/1"  />
             </VectorParam>
             <VectorParam id="376"  name="shear">
              <InterpolatingParam id="377" interp="linr"  time="-9999999/1" value="0" leadInLength="0/1"  />
              <InterpolatingParam id="378" interp="linr"  time="-9999999/1" value="0" leadInLength="0/1"  />
              <InterpolatingParam id="379" interp="linr"  time="-9999999/1" value="0" leadInLength="0/1"  />
             </VectorParam>
             <VectorParam id="380"  name="scale">
              <InterpolatingParam id="381" interp="linr"  time="-9999999/1" value="1" leadInLength="0/1"  />
              <InterpolatingParam id="382" interp="linr"  time="-9999999/1" value="1" leadInLength="0/1"  />
              <InterpolatingParam id="383" interp="linr"  time="-9999999/1" value="1" leadInLength="0/1"  />
             </VectorParam>
             <VectorParam id="384"  name="anchor">
              <InterpolatingParam id="385" interp="linr"  time="0/1" value="0" leadInLength="0/1"  />
              <InterpolatingParam id="386" interp="linr"  time="0/1" value="0" leadInLength="0/1"  />
              <InterpolatingParam id="387" interp="linr"  time="0/1" value="0" leadInLength="0/1"  />
             </VectorParam>
            </Transformer>
            <Parameters>
             <VectorParam id="388"  name="sourceCrop">
              <InterpolatingParam id="389" interp="linr"  time="0/1" value="0" leadInLength="0/1"  />
              <InterpolatingParam id="390" interp="linr"  time="0/1" value="0" leadInLength="0/1"  />
              <InterpolatingParam id="391" interp="linr"  time="0/1" value="0" leadInLength="0/1"  />
              <InterpolatingParam id="392" interp="linr"  time="0/1" value="0" leadInLength="0/1"  />
             </VectorParam>
             <VectorParam id="393"  name="geometryCrop">
              <InterpolatingParam id="394" interp="linr"  time="-9999999/1" value="0" leadInLength="0/1"  />
              <InterpolatingParam id="395" interp="linr"  time="-9999999/1" value="0" leadInLength="0/1"  />
              <InterpolatingParam id="396" interp="linr"  time="-9999999/1" value="0" leadInLength="0/1"  />
              <InterpolatingParam id="397" interp="linr"  time="-9999999/1" value="0" leadInLength="0/1"  />
             </VectorParam>
             <InterpolatingParam id="398" interp="linr"  time="-9999999/1" value="1" leadInLength="0/1"  name="opacity"/>
             <InterpolatingParam id="399" interp="linr"  time="0/1" value="0" leadInLength="0/1"  name="cursorOpacity"/>
             <InterpolatingParam id="400" interp="linr"  time="0/1" value="0" leadInLength="0/1"  name="recordedCursorOpacity"/>
             <InterpolatingParam id="401" interp="linr"  time="0/1" value="0" leadInLength="0/1"  name="cursorScale"/>
            </Parameters>
            <Attributes>
             <Attribute id="402" value="" name="ident"/>
            </Attributes>
            <MetaData>
             <entry key="AutoAppliedSmartFocus" val="False"/>
             <entry key="WinSubProjectDisplayName" val=""/>
            </MetaData>
            <ExtraData>
             <Entry key="ZoomPanBin">
              <ZoomPanBin id="403"  >
               <ZoomPanKeyframes>
                <ZoomPanKeyframe id="404" timeRangeEnd="-9999999/1" timeRangeDuration="0/1" interpolaterName="linr"  />
               </ZoomPanKeyframes>
              </ZoomPanBin>
             </Entry>
             <Entry key="CursorEffectBin">
              <CursorEffectBin id="405"  >
               <CursorEffectKeyframes>
               </CursorEffectKeyframes>
              </CursorEffectBin>
             </Entry>
            </ExtraData>
           </ScreenIMFile>
           <ScreenVMFile id="406" start="1824" duration="388" scalar="1/1" mediaStart="750/1" mediaDuration="388/1" trackNumber="0" src="4" >
            <Transformer>
             <VectorParam id="407"  name="translation">
              <InterpolatingParam id="408" interp="linr"  time="-9999999/1" value="0" leadInLength="0/1"  />
              <InterpolatingParam id="409" interp="linr"  time="-9999999/1" value="0" leadInLength="0/1"  />
              <InterpolatingParam id="410" interp="linr"  time="-9999999/1" value="0" leadInLength="0/1"  />
             </VectorParam>
             <VectorParam id="411"  name="rotation">
              <InterpolatingParam id="412" interp="linr"  time="-9999999/1" value="0" leadInLength="0/1"  />
              <InterpolatingParam id="413" interp="linr"  time="-9999999/1" value="0" leadInLength="0/1"  />
              <InterpolatingParam id="414" interp="linr"  time="-9999999/1" value="0" leadInLength="0/1"  />
             </VectorParam>
             <VectorParam id="415"  name="shear">
              <InterpolatingParam id="416" interp="linr"  time="-9999999/1" value="0" leadInLength="0/1"  />
              <InterpolatingParam id="417" interp="linr"  time="-9999999/1" value="0" leadInLength="0/1"  />
              <InterpolatingParam id="418" interp="linr"  time="-9999999/1" value="0" leadInLength="0/1"  />
             </VectorParam>
             <VectorParam id="419"  name="scale">
              <InterpolatingParam id="420" interp="linr"  time="-9999999/1" value="1" leadInLength="0/1"  />
              <InterpolatingParam id="421" interp="linr"  time="-9999999/1" value="1" leadInLength="0/1"  />
              <InterpolatingParam id="422" interp="linr"  time="-9999999/1" value="1" leadInLength="0/1"  />
             </VectorParam>
             <VectorParam id="423"  name="anchor">
              <InterpolatingParam id="424" interp="linr"  time="0/1" value="0" leadInLength="0/1"  />
              <InterpolatingParam id="425" interp="linr"  time="0/1" value="0" leadInLength="0/1"  />
              <InterpolatingParam id="426" interp="linr"  time="0/1" value="0" leadInLength="0/1"  />
             </VectorParam>
            </Transformer>
            <Parameters>
             <VectorParam id="427"  name="sourceCrop">
              <InterpolatingParam id="428" interp="linr"  time="0/1" value="0" leadInLength="0/1"  />
              <InterpolatingParam id="429" interp="linr"  time="0/1" value="0" leadInLength="0/1"  />
              <InterpolatingParam id="430" interp="linr"  time="0/1" value="0" leadInLength="0/1"  />
              <InterpolatingParam id="431" interp="linr"  time="0/1" value="0" leadInLength="0/1"  />
             </VectorParam>
             <VectorParam id="432"  name="geometryCrop">
              <InterpolatingParam id="433" interp="linr"  time="-9999999/1" value="0" leadInLength="0/1"  />
              <InterpolatingParam id="434" interp="linr"  time="-9999999/1" value="0" leadInLength="0/1"  />
              <InterpolatingParam id="435" interp="linr"  time="-9999999/1" value="0" leadInLength="0/1"  />
              <InterpolatingParam id="436" interp="linr"  time="-9999999/1" value="0" leadInLength="0/1"  />
             </VectorParam>
             <InterpolatingParam id="437" interp="linr"  time="-9999999/1" value="1" leadInLength="0/1"  name="opacity"/>
             <InterpolatingParam id="438" interp="linr"  time="0/1" value="0" leadInLength="0/1"  name="cursorOpacity"/>
             <InterpolatingParam id="439" interp="linr"  time="0/1" value="0" leadInLength="0/1"  name="cursorScale"/>
            </Parameters>
            <Attributes>
             <Attribute id="440" value="" name="ident"/>
            </Attributes>
            <MetaData>
             <entry key="AutoAppliedSmartFocus" val="False"/>
             <entry key="WinSubProjectDisplayName" val=""/>
            </MetaData>
            <ExtraData>
             <Entry key="ZoomPanBin">
              <ZoomPanBin id="441"  >
               <ZoomPanKeyframes>
                <ZoomPanKeyframe id="442" timeRangeEnd="-9999999/1" timeRangeDuration="0/1" interpolaterName="linr"  />
               </ZoomPanKeyframes>
              </ZoomPanBin>
             </Entry>
             <Entry key="CursorEffectBin">
              <CursorEffectBin id="443"  >
               <CursorEffectKeyframes>
               </CursorEffectKeyframes>
              </CursorEffectBin>
             </Entry>
            </ExtraData>
           </ScreenVMFile>
           <ScreenIMFile id="444" start="2212" duration="90" scalar="1/1" mediaStart="1138/1" mediaDuration="1/1" trackNumber="0" src="4" trimStartSum="0/1" >
            <Transformer>
             <VectorParam id="445"  name="translation">
              <InterpolatingParam id="446" interp="linr"  time="-9999999/1" value="0" leadInLength="0/1"  />
              <InterpolatingParam id="447" interp="linr"  time="-9999999/1" value="0" leadInLength="0/1"  />
              <InterpolatingParam id="448" interp="linr"  time="-9999999/1" value="0" leadInLength="0/1"  />
             </VectorParam>
             <VectorParam id="449"  name="rotation">
              <InterpolatingParam id="450" interp="linr"  time="-9999999/1" value="0" leadInLength="0/1"  />
              <InterpolatingParam id="451" interp="linr"  time="-9999999/1" value="0" leadInLength="0/1"  />
              <InterpolatingParam id="452" interp="linr"  time="-9999999/1" value="0" leadInLength="0/1"  />
             </VectorParam>
             <VectorParam id="453"  name="shear">
              <InterpolatingParam id="454" interp="linr"  time="-9999999/1" value="0" leadInLength="0/1"  />
              <InterpolatingParam id="455" interp="linr"  time="-9999999/1" value="0" leadInLength="0/1"  />
              <InterpolatingParam id="456" interp="linr"  time="-9999999/1" value="0" leadInLength="0/1"  />
             </VectorParam>
             <VectorParam id="457"  name="scale">
              <InterpolatingParam id="458" interp="linr"  time="-9999999/1" value="1" leadInLength="0/1"  />
              <InterpolatingParam id="459" interp="linr"  time="-9999999/1" value="1" leadInLength="0/1"  />
              <InterpolatingParam id="460" interp="linr"  time="-9999999/1" value="1" leadInLength="0/1"  />
             </VectorParam>
             <VectorParam id="461"  name="anchor">
              <InterpolatingParam id="462" interp="linr"  time="0/1" value="0" leadInLength="0/1"  />
              <InterpolatingParam id="463" interp="linr"  time="0/1" value="0" leadInLength="0/1"  />
              <InterpolatingParam id="464" interp="linr"  time="0/1" value="0" leadInLength="0/1"  />
             </VectorParam>
            </Transformer>
            <Parameters>
             <VectorParam id="465"  name="sourceCrop">
              <InterpolatingParam id="466" interp="linr"  time="0/1" value="0" leadInLength="0/1"  />
              <InterpolatingParam id="467" interp="linr"  time="0/1" value="0" leadInLength="0/1"  />
              <InterpolatingParam id="468" interp="linr"  time="0/1" value="0" leadInLength="0/1"  />
              <InterpolatingParam id="469" interp="linr"  time="0/1" value="0" leadInLength="0/1"  />
             </VectorParam>
             <VectorParam id="470"  name="geometryCrop">
              <InterpolatingParam id="471" interp="linr"  time="-9999999/1" value="0" leadInLength="0/1"  />
              <InterpolatingParam id="472" interp="linr"  time="-9999999/1" value="0" leadInLength="0/1"  />
              <InterpolatingParam id="473" interp="linr"  time="-9999999/1" value="0" leadInLength="0/1"  />
              <InterpolatingParam id="474" interp="linr"  time="-9999999/1" value="0" leadInLength="0/1"  />
             </VectorParam>
             <InterpolatingParam id="475" interp="linr"  time="-9999999/1" value="1" leadInLength="0/1"  name="opacity"/>
             <InterpolatingParam id="476" interp="linr"  time="0/1" value="0" leadInLength="0/1"  name="cursorOpacity"/>
             <InterpolatingParam id="477" interp="linr"  time="0/1" value="0" leadInLength="0/1"  name="recordedCursorOpacity"/>
             <InterpolatingParam id="478" interp="linr"  time="0/1" value="0" leadInLength="0/1"  name="cursorScale"/>
            </Parameters>
            <Attributes>
             <Attribute id="479" value="" name="ident"/>
            </Attributes>
            <MetaData>
             <entry key="AutoAppliedSmartFocus" val="False"/>
             <entry key="WinSubProjectDisplayName" val=""/>
            </MetaData>
            <ExtraData>
             <Entry key="ZoomPanBin">
              <ZoomPanBin id="480"  >
               <ZoomPanKeyframes>
                <ZoomPanKeyframe id="481" timeRangeEnd="-9999999/1" timeRangeDuration="0/1" interpolaterName="linr"  />
               </ZoomPanKeyframes>
              </ZoomPanBin>
             </Entry>
             <Entry key="CursorEffectBin">
              <CursorEffectBin id="482"  >
               <CursorEffectKeyframes>
               </CursorEffectKeyframes>
              </CursorEffectBin>
             </Entry>
            </ExtraData>
           </ScreenIMFile>
           <ScreenVMFile id="483" start="2302" duration="117" scalar="1/1" mediaStart="1138/1" mediaDuration="117/1" trackNumber="0" src="4" >
            <Transformer>
             <VectorParam id="484"  name="translation">
              <InterpolatingParam id="485" interp="linr"  time="-9999999/1" value="0" leadInLength="0/1"  />
              <InterpolatingParam id="486" interp="linr"  time="-9999999/1" value="0" leadInLength="0/1"  />
              <InterpolatingParam id="487" interp="linr"  time="-9999999/1" value="0" leadInLength="0/1"  />
             </VectorParam>
             <VectorParam id="488"  name="rotation">
              <InterpolatingParam id="489" interp="linr"  time="-9999999/1" value="0" leadInLength="0/1"  />
              <InterpolatingParam id="490" interp="linr"  time="-9999999/1" value="0" leadInLength="0/1"  />
              <InterpolatingParam id="491" interp="linr"  time="-9999999/1" value="0" leadInLength="0/1"  />
             </VectorParam>
             <VectorParam id="492"  name="shear">
              <InterpolatingParam id="493" interp="linr"  time="-9999999/1" value="0" leadInLength="0/1"  />
              <InterpolatingParam id="494" interp="linr"  time="-9999999/1" value="0" leadInLength="0/1"  />
              <InterpolatingParam id="495" interp="linr"  time="-9999999/1" value="0" leadInLength="0/1"  />
             </VectorParam>
             <VectorParam id="496"  name="scale">
              <InterpolatingParam id="497" interp="linr"  time="-9999999/1" value="1" leadInLength="0/1"  />
              <InterpolatingParam id="498" interp="linr"  time="-9999999/1" value="1" leadInLength="0/1"  />
              <InterpolatingParam id="499" interp="linr"  time="-9999999/1" value="1" leadInLength="0/1"  />
             </VectorParam>
             <VectorParam id="500"  name="anchor">
              <InterpolatingParam id="501" interp="linr"  time="0/1" value="0" leadInLength="0/1"  />
              <InterpolatingParam id="502" interp="linr"  time="0/1" value="0" leadInLength="0/1"  />
              <InterpolatingParam id="503" interp="linr"  time="0/1" value="0" leadInLength="0/1"  />
             </VectorParam>
            </Transformer>
            <Parameters>
             <VectorParam id="504"  name="sourceCrop">
              <InterpolatingParam id="505" interp="linr"  time="0/1" value="0" leadInLength="0/1"  />
              <InterpolatingParam id="506" interp="linr"  time="0/1" value="0" leadInLength="0/1"  />
              <InterpolatingParam id="507" interp="linr"  time="0/1" value="0" leadInLength="0/1"  />
              <InterpolatingParam id="508" interp="linr"  time="0/1" value="0" leadInLength="0/1"  />
             </VectorParam>
             <VectorParam id="509"  name="geometryCrop">
              <InterpolatingParam id="510" interp="linr"  time="-9999999/1" value="0" leadInLength="0/1"  />
              <InterpolatingParam id="511" interp="linr"  time="-9999999/1" value="0" leadInLength="0/1"  />
              <InterpolatingParam id="512" interp="linr"  time="-9999999/1" value="0" leadInLength="0/1"  />
              <InterpolatingParam id="513" interp="linr"  time="-9999999/1" value="0" leadInLength="0/1"  />
             </VectorParam>
             <InterpolatingParam id="514" interp="linr"  time="-9999999/1" value="1" leadInLength="0/1"  name="opacity"/>
             <InterpolatingParam id="515" interp="linr"  time="0/1" value="0" leadInLength="0/1"  name="cursorOpacity"/>
             <InterpolatingParam id="516" interp="linr"  time="0/1" value="0" leadInLength="0/1"  name="cursorScale"/>
            </Parameters>
            <Attributes>
             <Attribute id="517" value="" name="ident"/>
            </Attributes>
            <MetaData>
             <entry key="AutoAppliedSmartFocus" val="False"/>
             <entry key="WinSubProjectDisplayName" val=""/>
            </MetaData>
            <ExtraData>
             <Entry key="ZoomPanBin">
              <ZoomPanBin id="518"  >
               <ZoomPanKeyframes>
                <ZoomPanKeyframe id="519" timeRangeEnd="-9999999/1" timeRangeDuration="0/1" interpolaterName="linr"  />
               </ZoomPanKeyframes>
              </ZoomPanBin>
             </Entry>
             <Entry key="CursorEffectBin">
              <CursorEffectBin id="520"  >
               <CursorEffectKeyframes>
               </CursorEffectKeyframes>
              </CursorEffectBin>
             </Entry>
            </ExtraData>
           </ScreenVMFile>
           <ScreenIMFile id="521" start="2419" duration="300" scalar="1/1" mediaStart="1255/1" mediaDuration="1/1" trackNumber="0" src="4" trimStartSum="0/1" >
            <Transformer>
             <VectorParam id="522"  name="translation">
              <InterpolatingParam id="523" interp="linr"  time="-9999999/1" value="0" leadInLength="0/1"  />
              <InterpolatingParam id="524" interp="linr"  time="-9999999/1" value="0" leadInLength="0/1"  />
              <InterpolatingParam id="525" interp="linr"  time="-9999999/1" value="0" leadInLength="0/1"  />
             </VectorParam>
             <VectorParam id="526"  name="rotation">
              <InterpolatingParam id="527" interp="linr"  time="-9999999/1" value="0" leadInLength="0/1"  />
              <InterpolatingParam id="528" interp="linr"  time="-9999999/1" value="0" leadInLength="0/1"  />
              <InterpolatingParam id="529" interp="linr"  time="-9999999/1" value="0" leadInLength="0/1"  />
             </VectorParam>
             <VectorParam id="530"  name="shear">
              <InterpolatingParam id="531" interp="linr"  time="-9999999/1" value="0" leadInLength="0/1"  />
              <InterpolatingParam id="532" interp="linr"  time="-9999999/1" value="0" leadInLength="0/1"  />
              <InterpolatingParam id="533" interp="linr"  time="-9999999/1" value="0" leadInLength="0/1"  />
             </VectorParam>
             <VectorParam id="534"  name="scale">
              <InterpolatingParam id="535" interp="linr"  time="-9999999/1" value="1" leadInLength="0/1"  />
              <InterpolatingParam id="536" interp="linr"  time="-9999999/1" value="1" leadInLength="0/1"  />
              <InterpolatingParam id="537" interp="linr"  time="-9999999/1" value="1" leadInLength="0/1"  />
             </VectorParam>
             <VectorParam id="538"  name="anchor">
              <InterpolatingParam id="539" interp="linr"  time="0/1" value="0" leadInLength="0/1"  />
              <InterpolatingParam id="540" interp="linr"  time="0/1" value="0" leadInLength="0/1"  />
              <InterpolatingParam id="541" interp="linr"  time="0/1" value="0" leadInLength="0/1"  />
             </VectorParam>
            </Transformer>
            <Parameters>
             <VectorParam id="542"  name="sourceCrop">
              <InterpolatingParam id="543" interp="linr"  time="0/1" value="0" leadInLength="0/1"  />
              <InterpolatingParam id="544" interp="linr"  time="0/1" value="0" leadInLength="0/1"  />
              <InterpolatingParam id="545" interp="linr"  time="0/1" value="0" leadInLength="0/1"  />
              <InterpolatingParam id="546" interp="linr"  time="0/1" value="0" leadInLength="0/1"  />
             </VectorParam>
             <VectorParam id="547"  name="geometryCrop">
              <InterpolatingParam id="548" interp="linr"  time="-9999999/1" value="0" leadInLength="0/1"  />
              <InterpolatingParam id="549" interp="linr"  time="-9999999/1" value="0" leadInLength="0/1"  />
              <InterpolatingParam id="550" interp="linr"  time="-9999999/1" value="0" leadInLength="0/1"  />
              <InterpolatingParam id="551" interp="linr"  time="-9999999/1" value="0" leadInLength="0/1"  />
             </VectorParam>
             <InterpolatingParam id="552" interp="linr"  time="-9999999/1" value="1" leadInLength="0/1"  name="opacity"/>
             <InterpolatingParam id="553" interp="linr"  time="0/1" value="0" leadInLength="0/1"  name="cursorOpacity"/>
             <InterpolatingParam id="554" interp="linr"  time="0/1" value="0" leadInLength="0/1"  name="recordedCursorOpacity"/>
             <InterpolatingParam id="555" interp="linr"  time="0/1" value="0" leadInLength="0/1"  name="cursorScale"/>
            </Parameters>
            <Attributes>
             <Attribute id="556" value="" name="ident"/>
            </Attributes>
            <MetaData>
             <entry key="AutoAppliedSmartFocus" val="False"/>
             <entry key="WinSubProjectDisplayName" val=""/>
            </MetaData>
            <ExtraData>
             <Entry key="ZoomPanBin">
              <ZoomPanBin id="557"  >
               <ZoomPanKeyframes>
                <ZoomPanKeyframe id="558" timeRangeEnd="-9999999/1" timeRangeDuration="0/1" interpolaterName="linr"  />
               </ZoomPanKeyframes>
              </ZoomPanBin>
             </Entry>
             <Entry key="CursorEffectBin">
              <CursorEffectBin id="559"  >
               <CursorEffectKeyframes>
               </CursorEffectKeyframes>
              </CursorEffectBin>
             </Entry>
            </ExtraData>
           </ScreenIMFile>
           <ScreenVMFile id="560" start="2719" duration="27" scalar="1/1" mediaStart="1255/1" mediaDuration="27/1" trackNumber="0" src="4" >
            <Transformer>
             <VectorParam id="561"  name="translation">
              <InterpolatingParam id="562" interp="linr"  time="-9999999/1" value="0" leadInLength="0/1"  />
              <InterpolatingParam id="563" interp="linr"  time="-9999999/1" value="0" leadInLength="0/1"  />
              <InterpolatingParam id="564" interp="linr"  time="-9999999/1" value="0" leadInLength="0/1"  />
             </VectorParam>
             <VectorParam id="565"  name="rotation">
              <InterpolatingParam id="566" interp="linr"  time="-9999999/1" value="0" leadInLength="0/1"  />
              <InterpolatingParam id="567" interp="linr"  time="-9999999/1" value="0" leadInLength="0/1"  />
              <InterpolatingParam id="568" interp="linr"  time="-9999999/1" value="0" leadInLength="0/1"  />
             </VectorParam>
             <VectorParam id="569"  name="shear">
              <InterpolatingParam id="570" interp="linr"  time="-9999999/1" value="0" leadInLength="0/1"  />
              <InterpolatingParam id="571" interp="linr"  time="-9999999/1" value="0" leadInLength="0/1"  />
              <InterpolatingParam id="572" interp="linr"  time="-9999999/1" value="0" leadInLength="0/1"  />
             </VectorParam>
             <VectorParam id="573"  name="scale">
              <InterpolatingParam id="574" interp="linr"  time="-9999999/1" value="1" leadInLength="0/1"  />
              <InterpolatingParam id="575" interp="linr"  time="-9999999/1" value="1" leadInLength="0/1"  />
              <InterpolatingParam id="576" interp="linr"  time="-9999999/1" value="1" leadInLength="0/1"  />
             </VectorParam>
             <VectorParam id="577"  name="anchor">
              <InterpolatingParam id="578" interp="linr"  time="0/1" value="0" leadInLength="0/1"  />
              <InterpolatingParam id="579" interp="linr"  time="0/1" value="0" leadInLength="0/1"  />
              <InterpolatingParam id="580" interp="linr"  time="0/1" value="0" leadInLength="0/1"  />
             </VectorParam>
            </Transformer>
            <Parameters>
             <VectorParam id="581"  name="sourceCrop">
              <InterpolatingParam id="582" interp="linr"  time="0/1" value="0" leadInLength="0/1"  />
              <InterpolatingParam id="583" interp="linr"  time="0/1" value="0" leadInLength="0/1"  />
              <InterpolatingParam id="584" interp="linr"  time="0/1" value="0" leadInLength="0/1"  />
              <InterpolatingParam id="585" interp="linr"  time="0/1" value="0" leadInLength="0/1"  />
             </VectorParam>
             <VectorParam id="586"  name="geometryCrop">
              <InterpolatingParam id="587" interp="linr"  time="-9999999/1" value="0" leadInLength="0/1"  />
              <InterpolatingParam id="588" interp="linr"  time="-9999999/1" value="0" leadInLength="0/1"  />
              <InterpolatingParam id="589" interp="linr"  time="-9999999/1" value="0" leadInLength="0/1"  />
              <InterpolatingParam id="590" interp="linr"  time="-9999999/1" value="0" leadInLength="0/1"  />
             </VectorParam>
             <InterpolatingParam id="591" interp="linr"  time="-9999999/1" value="1" leadInLength="0/1"  name="opacity"/>
             <InterpolatingParam id="592" interp="linr"  time="0/1" value="0" leadInLength="0/1"  name="cursorOpacity"/>
             <InterpolatingParam id="593" interp="linr"  time="0/1" value="0" leadInLength="0/1"  name="cursorScale"/>
            </Parameters>
            <Attributes>
             <Attribute id="594" value="" name="ident"/>
            </Attributes>
            <MetaData>
             <entry key="AutoAppliedSmartFocus" val="False"/>
             <entry key="WinSubProjectDisplayName" val=""/>
            </MetaData>
            <ExtraData>
             <Entry key="ZoomPanBin">
              <ZoomPanBin id="595"  >
               <ZoomPanKeyframes>
                <ZoomPanKeyframe id="596" timeRangeEnd="-9999999/1" timeRangeDuration="0/1" interpolaterName="linr"  />
               </ZoomPanKeyframes>
              </ZoomPanBin>
             </Entry>
             <Entry key="CursorEffectBin">
              <CursorEffectBin id="597"  >
               <CursorEffectKeyframes>
               </CursorEffectKeyframes>
              </CursorEffectBin>
             </Entry>
            </ExtraData>
           </ScreenVMFile>
           <ScreenIMFile id="598" start="2746" duration="150" scalar="1/1" mediaStart="1282/1" mediaDuration="1/1" trackNumber="0" src="4" trimStartSum="0/1" >
            <Transformer>
             <VectorParam id="599"  name="translation">
              <InterpolatingParam id="600" interp="linr"  time="-9999999/1" value="0" leadInLength="0/1"  />
              <InterpolatingParam id="601" interp="linr"  time="-9999999/1" value="0" leadInLength="0/1"  />
              <InterpolatingParam id="602" interp="linr"  time="-9999999/1" value="0" leadInLength="0/1"  />
             </VectorParam>
             <VectorParam id="603"  name="rotation">
              <InterpolatingParam id="604" interp="linr"  time="-9999999/1" value="0" leadInLength="0/1"  />
              <InterpolatingParam id="605" interp="linr"  time="-9999999/1" value="0" leadInLength="0/1"  />
              <InterpolatingParam id="606" interp="linr"  time="-9999999/1" value="0" leadInLength="0/1"  />
             </VectorParam>
             <VectorParam id="607"  name="shear">
              <InterpolatingParam id="608" interp="linr"  time="-9999999/1" value="0" leadInLength="0/1"  />
              <InterpolatingParam id="609" interp="linr"  time="-9999999/1" value="0" leadInLength="0/1"  />
              <InterpolatingParam id="610" interp="linr"  time="-9999999/1" value="0" leadInLength="0/1"  />
             </VectorParam>
             <VectorParam id="611"  name="scale">
              <InterpolatingParam id="612" interp="linr"  time="-9999999/1" value="1" leadInLength="0/1"  />
              <InterpolatingParam id="613" interp="linr"  time="-9999999/1" value="1" leadInLength="0/1"  />
              <InterpolatingParam id="614" interp="linr"  time="-9999999/1" value="1" leadInLength="0/1"  />
             </VectorParam>
             <VectorParam id="615"  name="anchor">
              <InterpolatingParam id="616" interp="linr"  time="0/1" value="0" leadInLength="0/1"  />
              <InterpolatingParam id="617" interp="linr"  time="0/1" value="0" leadInLength="0/1"  />
              <InterpolatingParam id="618" interp="linr"  time="0/1" value="0" leadInLength="0/1"  />
             </VectorParam>
            </Transformer>
            <Parameters>
             <VectorParam id="619"  name="sourceCrop">
              <InterpolatingParam id="620" interp="linr"  time="0/1" value="0" leadInLength="0/1"  />
              <InterpolatingParam id="621" interp="linr"  time="0/1" value="0" leadInLength="0/1"  />
              <InterpolatingParam id="622" interp="linr"  time="0/1" value="0" leadInLength="0/1"  />
              <InterpolatingParam id="623" interp="linr"  time="0/1" value="0" leadInLength="0/1"  />
             </VectorParam>
             <VectorParam id="624"  name="geometryCrop">
              <InterpolatingParam id="625" interp="linr"  time="-9999999/1" value="0" leadInLength="0/1"  />
              <InterpolatingParam id="626" interp="linr"  time="-9999999/1" value="0" leadInLength="0/1"  />
              <InterpolatingParam id="627" interp="linr"  time="-9999999/1" value="0" leadInLength="0/1"  />
              <InterpolatingParam id="628" interp="linr"  time="-9999999/1" value="0" leadInLength="0/1"  />
             </VectorParam>
             <InterpolatingParam id="629" interp="linr"  time="-9999999/1" value="1" leadInLength="0/1"  name="opacity"/>
             <InterpolatingParam id="630" interp="linr"  time="0/1" value="0" leadInLength="0/1"  name="cursorOpacity"/>
             <InterpolatingParam id="631" interp="linr"  time="0/1" value="0" leadInLength="0/1"  name="recordedCursorOpacity"/>
             <InterpolatingParam id="632" interp="linr"  time="0/1" value="0" leadInLength="0/1"  name="cursorScale"/>
            </Parameters>
            <Attributes>
             <Attribute id="633" value="" name="ident"/>
            </Attributes>
            <MetaData>
             <entry key="AutoAppliedSmartFocus" val="False"/>
             <entry key="WinSubProjectDisplayName" val=""/>
            </MetaData>
            <ExtraData>
             <Entry key="ZoomPanBin">
              <ZoomPanBin id="634"  >
               <ZoomPanKeyframes>
                <ZoomPanKeyframe id="635" timeRangeEnd="-9999999/1" timeRangeDuration="0/1" interpolaterName="linr"  />
               </ZoomPanKeyframes>
              </ZoomPanBin>
             </Entry>
             <Entry key="CursorEffectBin">
              <CursorEffectBin id="636"  >
               <CursorEffectKeyframes>
               </CursorEffectKeyframes>
              </CursorEffectBin>
             </Entry>
            </ExtraData>
           </ScreenIMFile>
           <ScreenVMFile id="637" start="2896" duration="70" scalar="1/1" mediaStart="1282/1" mediaDuration="70/1" trackNumber="0" src="4" >
            <Transformer>
             <VectorParam id="638"  name="translation">
              <InterpolatingParam id="639" interp="linr"  time="-9999999/1" value="0" leadInLength="0/1"  />
              <InterpolatingParam id="640" interp="linr"  time="-9999999/1" value="0" leadInLength="0/1"  />
              <InterpolatingParam id="641" interp="linr"  time="-9999999/1" value="0" leadInLength="0/1"  />
             </VectorParam>
             <VectorParam id="642"  name="rotation">
              <InterpolatingParam id="643" interp="linr"  time="-9999999/1" value="0" leadInLength="0/1"  />
              <InterpolatingParam id="644" interp="linr"  time="-9999999/1" value="0" leadInLength="0/1"  />
              <InterpolatingParam id="645" interp="linr"  time="-9999999/1" value="0" leadInLength="0/1"  />
             </VectorParam>
             <VectorParam id="646"  name="shear">
              <InterpolatingParam id="647" interp="linr"  time="-9999999/1" value="0" leadInLength="0/1"  />
              <InterpolatingParam id="648" interp="linr"  time="-9999999/1" value="0" leadInLength="0/1"  />
              <InterpolatingParam id="649" interp="linr"  time="-9999999/1" value="0" leadInLength="0/1"  />
             </VectorParam>
             <VectorParam id="650"  name="scale">
              <InterpolatingParam id="651" interp="linr"  time="-9999999/1" value="1" leadInLength="0/1"  />
              <InterpolatingParam id="652" interp="linr"  time="-9999999/1" value="1" leadInLength="0/1"  />
              <InterpolatingParam id="653" interp="linr"  time="-9999999/1" value="1" leadInLength="0/1"  />
             </VectorParam>
             <VectorParam id="654"  name="anchor">
              <InterpolatingParam id="655" interp="linr"  time="0/1" value="0" leadInLength="0/1"  />
              <InterpolatingParam id="656" interp="linr"  time="0/1" value="0" leadInLength="0/1"  />
              <InterpolatingParam id="657" interp="linr"  time="0/1" value="0" leadInLength="0/1"  />
             </VectorParam>
            </Transformer>
            <Parameters>
             <VectorParam id="658"  name="sourceCrop">
              <InterpolatingParam id="659" interp="linr"  time="0/1" value="0" leadInLength="0/1"  />
              <InterpolatingParam id="660" interp="linr"  time="0/1" value="0" leadInLength="0/1"  />
              <InterpolatingParam id="661" interp="linr"  time="0/1" value="0" leadInLength="0/1"  />
              <InterpolatingParam id="662" interp="linr"  time="0/1" value="0" leadInLength="0/1"  />
             </VectorParam>
             <VectorParam id="663"  name="geometryCrop">
              <InterpolatingParam id="664" interp="linr"  time="-9999999/1" value="0" leadInLength="0/1"  />
              <InterpolatingParam id="665" interp="linr"  time="-9999999/1" value="0" leadInLength="0/1"  />
              <InterpolatingParam id="666" interp="linr"  time="-9999999/1" value="0" leadInLength="0/1"  />
              <InterpolatingParam id="667" interp="linr"  time="-9999999/1" value="0" leadInLength="0/1"  />
             </VectorParam>
             <InterpolatingParam id="668" interp="linr"  time="-9999999/1" value="1" leadInLength="0/1"  name="opacity"/>
             <InterpolatingParam id="669" interp="linr"  time="0/1" value="0" leadInLength="0/1"  name="cursorOpacity"/>
             <InterpolatingParam id="670" interp="linr"  time="0/1" value="0" leadInLength="0/1"  name="cursorScale"/>
            </Parameters>
            <Attributes>
             <Attribute id="671" value="" name="ident"/>
            </Attributes>
            <MetaData>
             <entry key="AutoAppliedSmartFocus" val="False"/>
             <entry key="WinSubProjectDisplayName" val=""/>
            </MetaData>
            <ExtraData>
             <Entry key="ZoomPanBin">
              <ZoomPanBin id="672"  >
               <ZoomPanKeyframes>
                <ZoomPanKeyframe id="673" timeRangeEnd="-9999999/1" timeRangeDuration="0/1" interpolaterName="linr"  />
               </ZoomPanKeyframes>
              </ZoomPanBin>
             </Entry>
             <Entry key="CursorEffectBin">
              <CursorEffectBin id="674"  >
               <CursorEffectKeyframes>
               </CursorEffectKeyframes>
              </CursorEffectBin>
             </Entry>
            </ExtraData>
           </ScreenVMFile>
           <ScreenIMFile id="675" start="2966" duration="300" scalar="1/1" mediaStart="1352/1" mediaDuration="1/1" trackNumber="0" src="4" trimStartSum="0/1" >
            <Transformer>
             <VectorParam id="676"  name="translation">
              <InterpolatingParam id="677" interp="linr"  time="-9999999/1" value="0" leadInLength="0/1"  />
              <InterpolatingParam id="678" interp="linr"  time="-9999999/1" value="0" leadInLength="0/1"  />
              <InterpolatingParam id="679" interp="linr"  time="-9999999/1" value="0" leadInLength="0/1"  />
             </VectorParam>
             <VectorParam id="680"  name="rotation">
              <InterpolatingParam id="681" interp="linr"  time="-9999999/1" value="0" leadInLength="0/1"  />
              <InterpolatingParam id="682" interp="linr"  time="-9999999/1" value="0" leadInLength="0/1"  />
              <InterpolatingParam id="683" interp="linr"  time="-9999999/1" value="0" leadInLength="0/1"  />
             </VectorParam>
             <VectorParam id="684"  name="shear">
              <InterpolatingParam id="685" interp="linr"  time="-9999999/1" value="0" leadInLength="0/1"  />
              <InterpolatingParam id="686" interp="linr"  time="-9999999/1" value="0" leadInLength="0/1"  />
              <InterpolatingParam id="687" interp="linr"  time="-9999999/1" value="0" leadInLength="0/1"  />
             </VectorParam>
             <VectorParam id="688"  name="scale">
              <InterpolatingParam id="689" interp="linr"  time="-9999999/1" value="1" leadInLength="0/1"  />
              <InterpolatingParam id="690" interp="linr"  time="-9999999/1" value="1" leadInLength="0/1"  />
              <InterpolatingParam id="691" interp="linr"  time="-9999999/1" value="1" leadInLength="0/1"  />
             </VectorParam>
             <VectorParam id="692"  name="anchor">
              <InterpolatingParam id="693" interp="linr"  time="0/1" value="0" leadInLength="0/1"  />
              <InterpolatingParam id="694" interp="linr"  time="0/1" value="0" leadInLength="0/1"  />
              <InterpolatingParam id="695" interp="linr"  time="0/1" value="0" leadInLength="0/1"  />
             </VectorParam>
            </Transformer>
            <Parameters>
             <VectorParam id="696"  name="sourceCrop">
              <InterpolatingParam id="697" interp="linr"  time="0/1" value="0" leadInLength="0/1"  />
              <InterpolatingParam id="698" interp="linr"  time="0/1" value="0" leadInLength="0/1"  />
              <InterpolatingParam id="699" interp="linr"  time="0/1" value="0" leadInLength="0/1"  />
              <InterpolatingParam id="700" interp="linr"  time="0/1" value="0" leadInLength="0/1"  />
             </VectorParam>
             <VectorParam id="701"  name="geometryCrop">
              <InterpolatingParam id="702" interp="linr"  time="-9999999/1" value="0" leadInLength="0/1"  />
              <InterpolatingParam id="703" interp="linr"  time="-9999999/1" value="0" leadInLength="0/1"  />
              <InterpolatingParam id="704" interp="linr"  time="-9999999/1" value="0" leadInLength="0/1"  />
              <InterpolatingParam id="705" interp="linr"  time="-9999999/1" value="0" leadInLength="0/1"  />
             </VectorParam>
             <InterpolatingParam id="706" interp="linr"  time="-9999999/1" value="1" leadInLength="0/1"  name="opacity"/>
             <InterpolatingParam id="707" interp="linr"  time="0/1" value="0" leadInLength="0/1"  name="cursorOpacity"/>
             <InterpolatingParam id="708" interp="linr"  time="0/1" value="0" leadInLength="0/1"  name="recordedCursorOpacity"/>
             <InterpolatingParam id="709" interp="linr"  time="0/1" value="0" leadInLength="0/1"  name="cursorScale"/>
            </Parameters>
            <Attributes>
             <Attribute id="710" value="" name="ident"/>
            </Attributes>
            <MetaData>
             <entry key="AutoAppliedSmartFocus" val="False"/>
             <entry key="WinSubProjectDisplayName" val=""/>
            </MetaData>
            <ExtraData>
             <Entry key="ZoomPanBin">
              <ZoomPanBin id="711"  >
               <ZoomPanKeyframes>
                <ZoomPanKeyframe id="712" timeRangeEnd="-9999999/1" timeRangeDuration="0/1" interpolaterName="linr"  />
               </ZoomPanKeyframes>
              </ZoomPanBin>
             </Entry>
             <Entry key="CursorEffectBin">
              <CursorEffectBin id="713"  >
               <CursorEffectKeyframes>
               </CursorEffectKeyframes>
              </CursorEffectBin>
             </Entry>
            </ExtraData>
           </ScreenIMFile>
           <ScreenVMFile id="714" start="3266" duration="144" scalar="1/1" mediaStart="1352/1" mediaDuration="144/1" trackNumber="0" src="4" >
            <Transformer>
             <VectorParam id="715"  name="translation">
              <InterpolatingParam id="716" interp="linr"  time="-9999999/1" value="0" leadInLength="0/1"  />
              <InterpolatingParam id="717" interp="linr"  time="-9999999/1" value="0" leadInLength="0/1"  />
              <InterpolatingParam id="718" interp="linr"  time="-9999999/1" value="0" leadInLength="0/1"  />
             </VectorParam>
             <VectorParam id="719"  name="rotation">
              <InterpolatingParam id="720" interp="linr"  time="-9999999/1" value="0" leadInLength="0/1"  />
              <InterpolatingParam id="721" interp="linr"  time="-9999999/1" value="0" leadInLength="0/1"  />
              <InterpolatingParam id="722" interp="linr"  time="-9999999/1" value="0" leadInLength="0/1"  />
             </VectorParam>
             <VectorParam id="723"  name="shear">
              <InterpolatingParam id="724" interp="linr"  time="-9999999/1" value="0" leadInLength="0/1"  />
              <InterpolatingParam id="725" interp="linr"  time="-9999999/1" value="0" leadInLength="0/1"  />
              <InterpolatingParam id="726" interp="linr"  time="-9999999/1" value="0" leadInLength="0/1"  />
             </VectorParam>
             <VectorParam id="727"  name="scale">
              <InterpolatingParam id="728" interp="linr"  time="-9999999/1" value="1" leadInLength="0/1"  />
              <InterpolatingParam id="729" interp="linr"  time="-9999999/1" value="1" leadInLength="0/1"  />
              <InterpolatingParam id="730" interp="linr"  time="-9999999/1" value="1" leadInLength="0/1"  />
             </VectorParam>
             <VectorParam id="731"  name="anchor">
              <InterpolatingParam id="732" interp="linr"  time="0/1" value="0" leadInLength="0/1"  />
              <InterpolatingParam id="733" interp="linr"  time="0/1" value="0" leadInLength="0/1"  />
              <InterpolatingParam id="734" interp="linr"  time="0/1" value="0" leadInLength="0/1"  />
             </VectorParam>
            </Transformer>
            <Parameters>
             <VectorParam id="735"  name="sourceCrop">
              <InterpolatingParam id="736" interp="linr"  time="0/1" value="0" leadInLength="0/1"  />
              <InterpolatingParam id="737" interp="linr"  time="0/1" value="0" leadInLength="0/1"  />
              <InterpolatingParam id="738" interp="linr"  time="0/1" value="0" leadInLength="0/1"  />
              <InterpolatingParam id="739" interp="linr"  time="0/1" value="0" leadInLength="0/1"  />
             </VectorParam>
             <VectorParam id="740"  name="geometryCrop">
              <InterpolatingParam id="741" interp="linr"  time="-9999999/1" value="0" leadInLength="0/1"  />
              <InterpolatingParam id="742" interp="linr"  time="-9999999/1" value="0" leadInLength="0/1"  />
              <InterpolatingParam id="743" interp="linr"  time="-9999999/1" value="0" leadInLength="0/1"  />
              <InterpolatingParam id="744" interp="linr"  time="-9999999/1" value="0" leadInLength="0/1"  />
             </VectorParam>
             <InterpolatingParam id="745" interp="linr"  time="-9999999/1" value="1" leadInLength="0/1"  name="opacity"/>
             <InterpolatingParam id="746" interp="linr"  time="0/1" value="0" leadInLength="0/1"  name="cursorOpacity"/>
             <InterpolatingParam id="747" interp="linr"  time="0/1" value="0" leadInLength="0/1"  name="cursorScale"/>
            </Parameters>
            <Attributes>
             <Attribute id="748" value="" name="ident"/>
            </Attributes>
            <MetaData>
             <entry key="AutoAppliedSmartFocus" val="False"/>
             <entry key="WinSubProjectDisplayName" val=""/>
            </MetaData>
            <ExtraData>
             <Entry key="ZoomPanBin">
              <ZoomPanBin id="749"  >
               <ZoomPanKeyframes>
                <ZoomPanKeyframe id="750" timeRangeEnd="-9999999/1" timeRangeDuration="0/1" interpolaterName="linr"  />
               </ZoomPanKeyframes>
              </ZoomPanBin>
             </Entry>
             <Entry key="CursorEffectBin">
              <CursorEffectBin id="751"  >
               <CursorEffectKeyframes>
               </CursorEffectKeyframes>
              </CursorEffectBin>
             </Entry>
            </ExtraData>
           </ScreenVMFile>
           <ScreenIMFile id="752" start="3410" duration="150" scalar="1/1" mediaStart="1496/1" mediaDuration="1/1" trackNumber="0" src="4" trimStartSum="0/1" >
            <Transformer>
             <VectorParam id="753"  name="translation">
              <InterpolatingParam id="754" interp="linr"  time="-9999999/1" value="0" leadInLength="0/1"  />
              <InterpolatingParam id="755" interp="linr"  time="-9999999/1" value="0" leadInLength="0/1"  />
              <InterpolatingParam id="756" interp="linr"  time="-9999999/1" value="0" leadInLength="0/1"  />
             </VectorParam>
             <VectorParam id="757"  name="rotation">
              <InterpolatingParam id="758" interp="linr"  time="-9999999/1" value="0" leadInLength="0/1"  />
              <InterpolatingParam id="759" interp="linr"  time="-9999999/1" value="0" leadInLength="0/1"  />
              <InterpolatingParam id="760" interp="linr"  time="-9999999/1" value="0" leadInLength="0/1"  />
             </VectorParam>
             <VectorParam id="761"  name="shear">
              <InterpolatingParam id="762" interp="linr"  time="-9999999/1" value="0" leadInLength="0/1"  />
              <InterpolatingParam id="763" interp="linr"  time="-9999999/1" value="0" leadInLength="0/1"  />
              <InterpolatingParam id="764" interp="linr"  time="-9999999/1" value="0" leadInLength="0/1"  />
             </VectorParam>
             <VectorParam id="765"  name="scale">
              <InterpolatingParam id="766" interp="linr"  time="-9999999/1" value="1" leadInLength="0/1"  />
              <InterpolatingParam id="767" interp="linr"  time="-9999999/1" value="1" leadInLength="0/1"  />
              <InterpolatingParam id="768" interp="linr"  time="-9999999/1" value="1" leadInLength="0/1"  />
             </VectorParam>
             <VectorParam id="769"  name="anchor">
              <InterpolatingParam id="770" interp="linr"  time="0/1" value="0" leadInLength="0/1"  />
              <InterpolatingParam id="771" interp="linr"  time="0/1" value="0" leadInLength="0/1"  />
              <InterpolatingParam id="772" interp="linr"  time="0/1" value="0" leadInLength="0/1"  />
             </VectorParam>
            </Transformer>
            <Parameters>
             <VectorParam id="773"  name="sourceCrop">
              <InterpolatingParam id="774" interp="linr"  time="0/1" value="0" leadInLength="0/1"  />
              <InterpolatingParam id="775" interp="linr"  time="0/1" value="0" leadInLength="0/1"  />
              <InterpolatingParam id="776" interp="linr"  time="0/1" value="0" leadInLength="0/1"  />
              <InterpolatingParam id="777" interp="linr"  time="0/1" value="0" leadInLength="0/1"  />
             </VectorParam>
             <VectorParam id="778"  name="geometryCrop">
              <InterpolatingParam id="779" interp="linr"  time="-9999999/1" value="0" leadInLength="0/1"  />
              <InterpolatingParam id="780" interp="linr"  time="-9999999/1" value="0" leadInLength="0/1"  />
              <InterpolatingParam id="781" interp="linr"  time="-9999999/1" value="0" leadInLength="0/1"  />
              <InterpolatingParam id="782" interp="linr"  time="-9999999/1" value="0" leadInLength="0/1"  />
             </VectorParam>
             <InterpolatingParam id="783" interp="linr"  time="-9999999/1" value="1" leadInLength="0/1"  name="opacity"/>
             <InterpolatingParam id="784" interp="linr"  time="0/1" value="0" leadInLength="0/1"  name="cursorOpacity"/>
             <InterpolatingParam id="785" interp="linr"  time="0/1" value="0" leadInLength="0/1"  name="recordedCursorOpacity"/>
             <InterpolatingParam id="786" interp="linr"  time="0/1" value="0" leadInLength="0/1"  name="cursorScale"/>
            </Parameters>
            <Attributes>
             <Attribute id="787" value="" name="ident"/>
            </Attributes>
            <MetaData>
             <entry key="AutoAppliedSmartFocus" val="False"/>
             <entry key="WinSubProjectDisplayName" val=""/>
            </MetaData>
            <ExtraData>
             <Entry key="ZoomPanBin">
              <ZoomPanBin id="788"  >
               <ZoomPanKeyframes>
                <ZoomPanKeyframe id="789" timeRangeEnd="-9999999/1" timeRangeDuration="0/1" interpolaterName="linr"  />
               </ZoomPanKeyframes>
              </ZoomPanBin>
             </Entry>
             <Entry key="CursorEffectBin">
              <CursorEffectBin id="790"  >
               <CursorEffectKeyframes>
               </CursorEffectKeyframes>
              </CursorEffectBin>
             </Entry>
            </ExtraData>
           </ScreenIMFile>
           <ScreenVMFile id="791" start="3560" duration="70" scalar="1/1" mediaStart="1496/1" mediaDuration="70/1" trackNumber="0" src="4" >
            <Transformer>
             <VectorParam id="792"  name="translation">
              <InterpolatingParam id="793" interp="linr"  time="-9999999/1" value="0" leadInLength="0/1"  />
              <InterpolatingParam id="794" interp="linr"  time="-9999999/1" value="0" leadInLength="0/1"  />
              <InterpolatingParam id="795" interp="linr"  time="-9999999/1" value="0" leadInLength="0/1"  />
             </VectorParam>
             <VectorParam id="796"  name="rotation">
              <InterpolatingParam id="797" interp="linr"  time="-9999999/1" value="0" leadInLength="0/1"  />
              <InterpolatingParam id="798" interp="linr"  time="-9999999/1" value="0" leadInLength="0/1"  />
              <InterpolatingParam id="799" interp="linr"  time="-9999999/1" value="0" leadInLength="0/1"  />
             </VectorParam>
             <VectorParam id="800"  name="shear">
              <InterpolatingParam id="801" interp="linr"  time="-9999999/1" value="0" leadInLength="0/1"  />
              <InterpolatingParam id="802" interp="linr"  time="-9999999/1" value="0" leadInLength="0/1"  />
              <InterpolatingParam id="803" interp="linr"  time="-9999999/1" value="0" leadInLength="0/1"  />
             </VectorParam>
             <VectorParam id="804"  name="scale">
              <InterpolatingParam id="805" interp="linr"  time="-9999999/1" value="1" leadInLength="0/1"  />
              <InterpolatingParam id="806" interp="linr"  time="-9999999/1" value="1" leadInLength="0/1"  />
              <InterpolatingParam id="807" interp="linr"  time="-9999999/1" value="1" leadInLength="0/1"  />
             </VectorParam>
             <VectorParam id="808"  name="anchor">
              <InterpolatingParam id="809" interp="linr"  time="0/1" value="0" leadInLength="0/1"  />
              <InterpolatingParam id="810" interp="linr"  time="0/1" value="0" leadInLength="0/1"  />
              <InterpolatingParam id="811" interp="linr"  time="0/1" value="0" leadInLength="0/1"  />
             </VectorParam>
            </Transformer>
            <Parameters>
             <VectorParam id="812"  name="sourceCrop">
              <InterpolatingParam id="813" interp="linr"  time="0/1" value="0" leadInLength="0/1"  />
              <InterpolatingParam id="814" interp="linr"  time="0/1" value="0" leadInLength="0/1"  />
              <InterpolatingParam id="815" interp="linr"  time="0/1" value="0" leadInLength="0/1"  />
              <InterpolatingParam id="816" interp="linr"  time="0/1" value="0" leadInLength="0/1"  />
             </VectorParam>
             <VectorParam id="817"  name="geometryCrop">
              <InterpolatingParam id="818" interp="linr"  time="-9999999/1" value="0" leadInLength="0/1"  />
              <InterpolatingParam id="819" interp="linr"  time="-9999999/1" value="0" leadInLength="0/1"  />
              <InterpolatingParam id="820" interp="linr"  time="-9999999/1" value="0" leadInLength="0/1"  />
              <InterpolatingParam id="821" interp="linr"  time="-9999999/1" value="0" leadInLength="0/1"  />
             </VectorParam>
             <InterpolatingParam id="822" interp="linr"  time="-9999999/1" value="1" leadInLength="0/1"  name="opacity"/>
             <InterpolatingParam id="823" interp="linr"  time="0/1" value="0" leadInLength="0/1"  name="cursorOpacity"/>
             <InterpolatingParam id="824" interp="linr"  time="0/1" value="0" leadInLength="0/1"  name="cursorScale"/>
            </Parameters>
            <Attributes>
             <Attribute id="825" value="" name="ident"/>
            </Attributes>
            <MetaData>
             <entry key="AutoAppliedSmartFocus" val="False"/>
             <entry key="WinSubProjectDisplayName" val=""/>
            </MetaData>
            <ExtraData>
             <Entry key="ZoomPanBin">
              <ZoomPanBin id="826"  >
               <ZoomPanKeyframes>
                <ZoomPanKeyframe id="827" timeRangeEnd="-9999999/1" timeRangeDuration="0/1" interpolaterName="linr"  />
               </ZoomPanKeyframes>
              </ZoomPanBin>
             </Entry>
             <Entry key="CursorEffectBin">
              <CursorEffectBin id="828"  >
               <CursorEffectKeyframes>
               </CursorEffectKeyframes>
              </CursorEffectBin>
             </Entry>
            </ExtraData>
           </ScreenVMFile>
           <ScreenIMFile id="829" start="3630" duration="90" scalar="1/1" mediaStart="1566/1" mediaDuration="1/1" trackNumber="0" src="4" trimStartSum="0/1" >
            <Transformer>
             <VectorParam id="830"  name="translation">
              <InterpolatingParam id="831" interp="linr"  time="-9999999/1" value="0" leadInLength="0/1"  />
              <InterpolatingParam id="832" interp="linr"  time="-9999999/1" value="0" leadInLength="0/1"  />
              <InterpolatingParam id="833" interp="linr"  time="-9999999/1" value="0" leadInLength="0/1"  />
             </VectorParam>
             <VectorParam id="834"  name="rotation">
              <InterpolatingParam id="835" interp="linr"  time="-9999999/1" value="0" leadInLength="0/1"  />
              <InterpolatingParam id="836" interp="linr"  time="-9999999/1" value="0" leadInLength="0/1"  />
              <InterpolatingParam id="837" interp="linr"  time="-9999999/1" value="0" leadInLength="0/1"  />
             </VectorParam>
             <VectorParam id="838"  name="shear">
              <InterpolatingParam id="839" interp="linr"  time="-9999999/1" value="0" leadInLength="0/1"  />
              <InterpolatingParam id="840" interp="linr"  time="-9999999/1" value="0" leadInLength="0/1"  />
              <InterpolatingParam id="841" interp="linr"  time="-9999999/1" value="0" leadInLength="0/1"  />
             </VectorParam>
             <VectorParam id="842"  name="scale">
              <InterpolatingParam id="843" interp="linr"  time="-9999999/1" value="1" leadInLength="0/1"  />
              <InterpolatingParam id="844" interp="linr"  time="-9999999/1" value="1" leadInLength="0/1"  />
              <InterpolatingParam id="845" interp="linr"  time="-9999999/1" value="1" leadInLength="0/1"  />
             </VectorParam>
             <VectorParam id="846"  name="anchor">
              <InterpolatingParam id="847" interp="linr"  time="0/1" value="0" leadInLength="0/1"  />
              <InterpolatingParam id="848" interp="linr"  time="0/1" value="0" leadInLength="0/1"  />
              <InterpolatingParam id="849" interp="linr"  time="0/1" value="0" leadInLength="0/1"  />
             </VectorParam>
            </Transformer>
            <Parameters>
             <VectorParam id="850"  name="sourceCrop">
              <InterpolatingParam id="851" interp="linr"  time="0/1" value="0" leadInLength="0/1"  />
              <InterpolatingParam id="852" interp="linr"  time="0/1" value="0" leadInLength="0/1"  />
              <InterpolatingParam id="853" interp="linr"  time="0/1" value="0" leadInLength="0/1"  />
              <InterpolatingParam id="854" interp="linr"  time="0/1" value="0" leadInLength="0/1"  />
             </VectorParam>
             <VectorParam id="855"  name="geometryCrop">
              <InterpolatingParam id="856" interp="linr"  time="-9999999/1" value="0" leadInLength="0/1"  />
              <InterpolatingParam id="857" interp="linr"  time="-9999999/1" value="0" leadInLength="0/1"  />
              <InterpolatingParam id="858" interp="linr"  time="-9999999/1" value="0" leadInLength="0/1"  />
              <InterpolatingParam id="859" interp="linr"  time="-9999999/1" value="0" leadInLength="0/1"  />
             </VectorParam>
             <InterpolatingParam id="860" interp="linr"  time="-9999999/1" value="1" leadInLength="0/1"  name="opacity"/>
             <InterpolatingParam id="861" interp="linr"  time="0/1" value="0" leadInLength="0/1"  name="cursorOpacity"/>
             <InterpolatingParam id="862" interp="linr"  time="0/1" value="0" leadInLength="0/1"  name="recordedCursorOpacity"/>
             <InterpolatingParam id="863" interp="linr"  time="0/1" value="0" leadInLength="0/1"  name="cursorScale"/>
            </Parameters>
            <Attributes>
             <Attribute id="864" value="" name="ident"/>
            </Attributes>
            <MetaData>
             <entry key="AutoAppliedSmartFocus" val="False"/>
             <entry key="WinSubProjectDisplayName" val=""/>
            </MetaData>
            <ExtraData>
             <Entry key="ZoomPanBin">
              <ZoomPanBin id="865"  >
               <ZoomPanKeyframes>
                <ZoomPanKeyframe id="866" timeRangeEnd="-9999999/1" timeRangeDuration="0/1" interpolaterName="linr"  />
               </ZoomPanKeyframes>
              </ZoomPanBin>
             </Entry>
             <Entry key="CursorEffectBin">
              <CursorEffectBin id="867"  >
               <CursorEffectKeyframes>
               </CursorEffectKeyframes>
              </CursorEffectBin>
             </Entry>
            </ExtraData>
           </ScreenIMFile>
           <ScreenVMFile id="868" start="3720" duration="43" scalar="1/1" mediaStart="1566/1" mediaDuration="43/1" trackNumber="0" src="4" >
            <Transformer>
             <VectorParam id="869"  name="translation">
              <InterpolatingParam id="870" interp="linr"  time="-9999999/1" value="0" leadInLength="0/1"  />
              <InterpolatingParam id="871" interp="linr"  time="-9999999/1" value="0" leadInLength="0/1"  />
              <InterpolatingParam id="872" interp="linr"  time="-9999999/1" value="0" leadInLength="0/1"  />
             </VectorParam>
             <VectorParam id="873"  name="rotation">
              <InterpolatingParam id="874" interp="linr"  time="-9999999/1" value="0" leadInLength="0/1"  />
              <InterpolatingParam id="875" interp="linr"  time="-9999999/1" value="0" leadInLength="0/1"  />
              <InterpolatingParam id="876" interp="linr"  time="-9999999/1" value="0" leadInLength="0/1"  />
             </VectorParam>
             <VectorParam id="877"  name="shear">
              <InterpolatingParam id="878" interp="linr"  time="-9999999/1" value="0" leadInLength="0/1"  />
              <InterpolatingParam id="879" interp="linr"  time="-9999999/1" value="0" leadInLength="0/1"  />
              <InterpolatingParam id="880" interp="linr"  time="-9999999/1" value="0" leadInLength="0/1"  />
             </VectorParam>
             <VectorParam id="881"  name="scale">
              <InterpolatingParam id="882" interp="linr"  time="-9999999/1" value="1" leadInLength="0/1"  />
              <InterpolatingParam id="883" interp="linr"  time="-9999999/1" value="1" leadInLength="0/1"  />
              <InterpolatingParam id="884" interp="linr"  time="-9999999/1" value="1" leadInLength="0/1"  />
             </VectorParam>
             <VectorParam id="885"  name="anchor">
              <InterpolatingParam id="886" interp="linr"  time="0/1" value="0" leadInLength="0/1"  />
              <InterpolatingParam id="887" interp="linr"  time="0/1" value="0" leadInLength="0/1"  />
              <InterpolatingParam id="888" interp="linr"  time="0/1" value="0" leadInLength="0/1"  />
             </VectorParam>
            </Transformer>
            <Parameters>
             <VectorParam id="889"  name="sourceCrop">
              <InterpolatingParam id="890" interp="linr"  time="0/1" value="0" leadInLength="0/1"  />
              <InterpolatingParam id="891" interp="linr"  time="0/1" value="0" leadInLength="0/1"  />
              <InterpolatingParam id="892" interp="linr"  time="0/1" value="0" leadInLength="0/1"  />
              <InterpolatingParam id="893" interp="linr"  time="0/1" value="0" leadInLength="0/1"  />
             </VectorParam>
             <VectorParam id="894"  name="geometryCrop">
              <InterpolatingParam id="895" interp="linr"  time="-9999999/1" value="0" leadInLength="0/1"  />
              <InterpolatingParam id="896" interp="linr"  time="-9999999/1" value="0" leadInLength="0/1"  />
              <InterpolatingParam id="897" interp="linr"  time="-9999999/1" value="0" leadInLength="0/1"  />
              <InterpolatingParam id="898" interp="linr"  time="-9999999/1" value="0" leadInLength="0/1"  />
             </VectorParam>
             <InterpolatingParam id="899" interp="linr"  time="-9999999/1" value="1" leadInLength="0/1"  name="opacity"/>
             <InterpolatingParam id="900" interp="linr"  time="0/1" value="0" leadInLength="0/1"  name="cursorOpacity"/>
             <InterpolatingParam id="901" interp="linr"  time="0/1" value="0" leadInLength="0/1"  name="cursorScale"/>
            </Parameters>
            <Attributes>
             <Attribute id="902" value="" name="ident"/>
            </Attributes>
            <MetaData>
             <entry key="AutoAppliedSmartFocus" val="False"/>
             <entry key="WinSubProjectDisplayName" val=""/>
            </MetaData>
            <ExtraData>
             <Entry key="ZoomPanBin">
              <ZoomPanBin id="903"  >
               <ZoomPanKeyframes>
                <ZoomPanKeyframe id="904" timeRangeEnd="-9999999/1" timeRangeDuration="0/1" interpolaterName="linr"  />
               </ZoomPanKeyframes>
              </ZoomPanBin>
             </Entry>
             <Entry key="CursorEffectBin">
              <CursorEffectBin id="905"  >
               <CursorEffectKeyframes>
               </CursorEffectKeyframes>
              </CursorEffectBin>
             </Entry>
            </ExtraData>
           </ScreenVMFile>
           <ScreenIMFile id="906" start="3763" duration="90" scalar="1/1" mediaStart="1609/1" mediaDuration="1/1" trackNumber="0" src="4" trimStartSum="0/1" >
            <Transformer>
             <VectorParam id="907"  name="translation">
              <InterpolatingParam id="908" interp="linr"  time="-9999999/1" value="0" leadInLength="0/1"  />
              <InterpolatingParam id="909" interp="linr"  time="-9999999/1" value="0" leadInLength="0/1"  />
              <InterpolatingParam id="910" interp="linr"  time="-9999999/1" value="0" leadInLength="0/1"  />
             </VectorParam>
             <VectorParam id="911"  name="rotation">
              <InterpolatingParam id="912" interp="linr"  time="-9999999/1" value="0" leadInLength="0/1"  />
              <InterpolatingParam id="913" interp="linr"  time="-9999999/1" value="0" leadInLength="0/1"  />
              <InterpolatingParam id="914" interp="linr"  time="-9999999/1" value="0" leadInLength="0/1"  />
             </VectorParam>
             <VectorParam id="915"  name="shear">
              <InterpolatingParam id="916" interp="linr"  time="-9999999/1" value="0" leadInLength="0/1"  />
              <InterpolatingParam id="917" interp="linr"  time="-9999999/1" value="0" leadInLength="0/1"  />
              <InterpolatingParam id="918" interp="linr"  time="-9999999/1" value="0" leadInLength="0/1"  />
             </VectorParam>
             <VectorParam id="919"  name="scale">
              <InterpolatingParam id="920" interp="linr"  time="-9999999/1" value="1" leadInLength="0/1"  />
              <InterpolatingParam id="921" interp="linr"  time="-9999999/1" value="1" leadInLength="0/1"  />
              <InterpolatingParam id="922" interp="linr"  time="-9999999/1" value="1" leadInLength="0/1"  />
             </VectorParam>
             <VectorParam id="923"  name="anchor">
              <InterpolatingParam id="924" interp="linr"  time="0/1" value="0" leadInLength="0/1"  />
              <InterpolatingParam id="925" interp="linr"  time="0/1" value="0" leadInLength="0/1"  />
              <InterpolatingParam id="926" interp="linr"  time="0/1" value="0" leadInLength="0/1"  />
             </VectorParam>
            </Transformer>
            <Parameters>
             <VectorParam id="927"  name="sourceCrop">
              <InterpolatingParam id="928" interp="linr"  time="0/1" value="0" leadInLength="0/1"  />
              <InterpolatingParam id="929" interp="linr"  time="0/1" value="0" leadInLength="0/1"  />
              <InterpolatingParam id="930" interp="linr"  time="0/1" value="0" leadInLength="0/1"  />
              <InterpolatingParam id="931" interp="linr"  time="0/1" value="0" leadInLength="0/1"  />
             </VectorParam>
             <VectorParam id="932"  name="geometryCrop">
              <InterpolatingParam id="933" interp="linr"  time="-9999999/1" value="0" leadInLength="0/1"  />
              <InterpolatingParam id="934" interp="linr"  time="-9999999/1" value="0" leadInLength="0/1"  />
              <InterpolatingParam id="935" interp="linr"  time="-9999999/1" value="0" leadInLength="0/1"  />
              <InterpolatingParam id="936" interp="linr"  time="-9999999/1" value="0" leadInLength="0/1"  />
             </VectorParam>
             <InterpolatingParam id="937" interp="linr"  time="-9999999/1" value="1" leadInLength="0/1"  name="opacity"/>
             <InterpolatingParam id="938" interp="linr"  time="0/1" value="0" leadInLength="0/1"  name="cursorOpacity"/>
             <InterpolatingParam id="939" interp="linr"  time="0/1" value="0" leadInLength="0/1"  name="recordedCursorOpacity"/>
             <InterpolatingParam id="940" interp="linr"  time="0/1" value="0" leadInLength="0/1"  name="cursorScale"/>
            </Parameters>
            <Attributes>
             <Attribute id="941" value="" name="ident"/>
            </Attributes>
            <MetaData>
             <entry key="AutoAppliedSmartFocus" val="False"/>
             <entry key="WinSubProjectDisplayName" val=""/>
            </MetaData>
            <ExtraData>
             <Entry key="ZoomPanBin">
              <ZoomPanBin id="942"  >
               <ZoomPanKeyframes>
                <ZoomPanKeyframe id="943" timeRangeEnd="-9999999/1" timeRangeDuration="0/1" interpolaterName="linr"  />
               </ZoomPanKeyframes>
              </ZoomPanBin>
             </Entry>
             <Entry key="CursorEffectBin">
              <CursorEffectBin id="944"  >
               <CursorEffectKeyframes>
               </CursorEffectKeyframes>
              </CursorEffectBin>
             </Entry>
            </ExtraData>
           </ScreenIMFile>
           <ScreenVMFile id="945" start="3853" duration="576" scalar="1/1" mediaStart="1609/1" mediaDuration="576/1" trackNumber="0" src="4" >
            <Transformer>
             <VectorParam id="946"  name="translation">
              <InterpolatingParam id="947" interp="linr"  time="-9999999/1" value="0" leadInLength="0/1"  />
              <InterpolatingParam id="948" interp="linr"  time="-9999999/1" value="0" leadInLength="0/1"  />
              <InterpolatingParam id="949" interp="linr"  time="-9999999/1" value="0" leadInLength="0/1"  />
             </VectorParam>
             <VectorParam id="950"  name="rotation">
              <InterpolatingParam id="951" interp="linr"  time="-9999999/1" value="0" leadInLength="0/1"  />
              <InterpolatingParam id="952" interp="linr"  time="-9999999/1" value="0" leadInLength="0/1"  />
              <InterpolatingParam id="953" interp="linr"  time="-9999999/1" value="0" leadInLength="0/1"  />
             </VectorParam>
             <VectorParam id="954"  name="shear">
              <InterpolatingParam id="955" interp="linr"  time="-9999999/1" value="0" leadInLength="0/1"  />
              <InterpolatingParam id="956" interp="linr"  time="-9999999/1" value="0" leadInLength="0/1"  />
              <InterpolatingParam id="957" interp="linr"  time="-9999999/1" value="0" leadInLength="0/1"  />
             </VectorParam>
             <VectorParam id="958"  name="scale">
              <InterpolatingParam id="959" interp="linr"  time="-9999999/1" value="1" leadInLength="0/1"  />
              <InterpolatingParam id="960" interp="linr"  time="-9999999/1" value="1" leadInLength="0/1"  />
              <InterpolatingParam id="961" interp="linr"  time="-9999999/1" value="1" leadInLength="0/1"  />
             </VectorParam>
             <VectorParam id="962"  name="anchor">
              <InterpolatingParam id="963" interp="linr"  time="0/1" value="0" leadInLength="0/1"  />
              <InterpolatingParam id="964" interp="linr"  time="0/1" value="0" leadInLength="0/1"  />
              <InterpolatingParam id="965" interp="linr"  time="0/1" value="0" leadInLength="0/1"  />
             </VectorParam>
            </Transformer>
            <Parameters>
             <VectorParam id="966"  name="sourceCrop">
              <InterpolatingParam id="967" interp="linr"  time="0/1" value="0" leadInLength="0/1"  />
              <InterpolatingParam id="968" interp="linr"  time="0/1" value="0" leadInLength="0/1"  />
              <InterpolatingParam id="969" interp="linr"  time="0/1" value="0" leadInLength="0/1"  />
              <InterpolatingParam id="970" interp="linr"  time="0/1" value="0" leadInLength="0/1"  />
             </VectorParam>
             <VectorParam id="971"  name="geometryCrop">
              <InterpolatingParam id="972" interp="linr"  time="-9999999/1" value="0" leadInLength="0/1"  />
              <InterpolatingParam id="973" interp="linr"  time="-9999999/1" value="0" leadInLength="0/1"  />
              <InterpolatingParam id="974" interp="linr"  time="-9999999/1" value="0" leadInLength="0/1"  />
              <InterpolatingParam id="975" interp="linr"  time="-9999999/1" value="0" leadInLength="0/1"  />
             </VectorParam>
             <InterpolatingParam id="976" interp="linr"  time="-9999999/1" value="1" leadInLength="0/1"  name="opacity"/>
             <InterpolatingParam id="977" interp="linr"  time="0/1" value="0" leadInLength="0/1"  name="cursorOpacity"/>
             <InterpolatingParam id="978" interp="linr"  time="0/1" value="0" leadInLength="0/1"  name="cursorScale"/>
            </Parameters>
            <Attributes>
             <Attribute id="979" value="" name="ident"/>
            </Attributes>
            <MetaData>
             <entry key="AutoAppliedSmartFocus" val="False"/>
             <entry key="WinSubProjectDisplayName" val=""/>
            </MetaData>
            <ExtraData>
             <Entry key="ZoomPanBin">
              <ZoomPanBin id="980"  >
               <ZoomPanKeyframes>
                <ZoomPanKeyframe id="981" timeRangeEnd="-9999999/1" timeRangeDuration="0/1" interpolaterName="linr"  />
               </ZoomPanKeyframes>
              </ZoomPanBin>
             </Entry>
             <Entry key="CursorEffectBin">
              <CursorEffectBin id="982"  >
               <CursorEffectKeyframes>
               </CursorEffectKeyframes>
              </CursorEffectBin>
             </Entry>
            </ExtraData>
           </ScreenVMFile>
           <ScreenIMFile id="983" start="4429" duration="90" scalar="1/1" mediaStart="2185/1" mediaDuration="1/1" trackNumber="0" src="4" trimStartSum="0/1" >
            <Transformer>
             <VectorParam id="984"  name="translation">
              <InterpolatingParam id="985" interp="linr"  time="-9999999/1" value="0" leadInLength="0/1"  />
              <InterpolatingParam id="986" interp="linr"  time="-9999999/1" value="0" leadInLength="0/1"  />
              <InterpolatingParam id="987" interp="linr"  time="-9999999/1" value="0" leadInLength="0/1"  />
             </VectorParam>
             <VectorParam id="988"  name="rotation">
              <InterpolatingParam id="989" interp="linr"  time="-9999999/1" value="0" leadInLength="0/1"  />
              <InterpolatingParam id="990" interp="linr"  time="-9999999/1" value="0" leadInLength="0/1"  />
              <InterpolatingParam id="991" interp="linr"  time="-9999999/1" value="0" leadInLength="0/1"  />
             </VectorParam>
             <VectorParam id="992"  name="shear">
              <InterpolatingParam id="993" interp="linr"  time="-9999999/1" value="0" leadInLength="0/1"  />
              <InterpolatingParam id="994" interp="linr"  time="-9999999/1" value="0" leadInLength="0/1"  />
              <InterpolatingParam id="995" interp="linr"  time="-9999999/1" value="0" leadInLength="0/1"  />
             </VectorParam>
             <VectorParam id="996"  name="scale">
              <InterpolatingParam id="997" interp="linr"  time="-9999999/1" value="1" leadInLength="0/1"  />
              <InterpolatingParam id="998" interp="linr"  time="-9999999/1" value="1" leadInLength="0/1"  />
              <InterpolatingParam id="999" interp="linr"  time="-9999999/1" value="1" leadInLength="0/1"  />
             </VectorParam>
             <VectorParam id="1000"  name="anchor">
              <InterpolatingParam id="1001" interp="linr"  time="0/1" value="0" leadInLength="0/1"  />
              <InterpolatingParam id="1002" interp="linr"  time="0/1" value="0" leadInLength="0/1"  />
              <InterpolatingParam id="1003" interp="linr"  time="0/1" value="0" leadInLength="0/1"  />
             </VectorParam>
            </Transformer>
            <Parameters>
             <VectorParam id="1004"  name="sourceCrop">
              <InterpolatingParam id="1005" interp="linr"  time="0/1" value="0" leadInLength="0/1"  />
              <InterpolatingParam id="1006" interp="linr"  time="0/1" value="0" leadInLength="0/1"  />
              <InterpolatingParam id="1007" interp="linr"  time="0/1" value="0" leadInLength="0/1"  />
              <InterpolatingParam id="1008" interp="linr"  time="0/1" value="0" leadInLength="0/1"  />
             </VectorParam>
             <VectorParam id="1009"  name="geometryCrop">
              <InterpolatingParam id="1010" interp="linr"  time="-9999999/1" value="0" leadInLength="0/1"  />
              <InterpolatingParam id="1011" interp="linr"  time="-9999999/1" value="0" leadInLength="0/1"  />
              <InterpolatingParam id="1012" interp="linr"  time="-9999999/1" value="0" leadInLength="0/1"  />
              <InterpolatingParam id="1013" interp="linr"  time="-9999999/1" value="0" leadInLength="0/1"  />
             </VectorParam>
             <InterpolatingParam id="1014" interp="linr"  time="-9999999/1" value="1" leadInLength="0/1"  name="opacity"/>
             <InterpolatingParam id="1015" interp="linr"  time="0/1" value="0" leadInLength="0/1"  name="cursorOpacity"/>
             <InterpolatingParam id="1016" interp="linr"  time="0/1" value="0" leadInLength="0/1"  name="recordedCursorOpacity"/>
             <InterpolatingParam id="1017" interp="linr"  time="0/1" value="0" leadInLength="0/1"  name="cursorScale"/>
            </Parameters>
            <Attributes>
             <Attribute id="1018" value="" name="ident"/>
            </Attributes>
            <MetaData>
             <entry key="AutoAppliedSmartFocus" val="False"/>
             <entry key="WinSubProjectDisplayName" val=""/>
            </MetaData>
            <ExtraData>
             <Entry key="ZoomPanBin">
              <ZoomPanBin id="1019"  >
               <ZoomPanKeyframes>
                <ZoomPanKeyframe id="1020" timeRangeEnd="-9999999/1" timeRangeDuration="0/1" interpolaterName="linr"  />
               </ZoomPanKeyframes>
              </ZoomPanBin>
             </Entry>
             <Entry key="CursorEffectBin">
              <CursorEffectBin id="1021"  >
               <CursorEffectKeyframes>
               </CursorEffectKeyframes>
              </CursorEffectBin>
             </Entry>
            </ExtraData>
           </ScreenIMFile>
           <ScreenVMFile id="1022" start="4519" duration="19" scalar="1/1" mediaStart="2185/1" mediaDuration="19/1" trackNumber="0" src="4" >
            <Transformer>
             <VectorParam id="1023"  name="translation">
              <InterpolatingParam id="1024" interp="linr"  time="-9999999/1" value="0" leadInLength="0/1"  />
              <InterpolatingParam id="1025" interp="linr"  time="-9999999/1" value="0" leadInLength="0/1"  />
              <InterpolatingParam id="1026" interp="linr"  time="-9999999/1" value="0" leadInLength="0/1"  />
             </VectorParam>
             <VectorParam id="1027"  name="rotation">
              <InterpolatingParam id="1028" interp="linr"  time="-9999999/1" value="0" leadInLength="0/1"  />
              <InterpolatingParam id="1029" interp="linr"  time="-9999999/1" value="0" leadInLength="0/1"  />
              <InterpolatingParam id="1030" interp="linr"  time="-9999999/1" value="0" leadInLength="0/1"  />
             </VectorParam>
             <VectorParam id="1031"  name="shear">
              <InterpolatingParam id="1032" interp="linr"  time="-9999999/1" value="0" leadInLength="0/1"  />
              <InterpolatingParam id="1033" interp="linr"  time="-9999999/1" value="0" leadInLength="0/1"  />
              <InterpolatingParam id="1034" interp="linr"  time="-9999999/1" value="0" leadInLength="0/1"  />
             </VectorParam>
             <VectorParam id="1035"  name="scale">
              <InterpolatingParam id="1036" interp="linr"  time="-9999999/1" value="1" leadInLength="0/1"  />
              <InterpolatingParam id="1037" interp="linr"  time="-9999999/1" value="1" leadInLength="0/1"  />
              <InterpolatingParam id="1038" interp="linr"  time="-9999999/1" value="1" leadInLength="0/1"  />
             </VectorParam>
             <VectorParam id="1039"  name="anchor">
              <InterpolatingParam id="1040" interp="linr"  time="0/1" value="0" leadInLength="0/1"  />
              <InterpolatingParam id="1041" interp="linr"  time="0/1" value="0" leadInLength="0/1"  />
              <InterpolatingParam id="1042" interp="linr"  time="0/1" value="0" leadInLength="0/1"  />
             </VectorParam>
            </Transformer>
            <Parameters>
             <VectorParam id="1043"  name="sourceCrop">
              <InterpolatingParam id="1044" interp="linr"  time="0/1" value="0" leadInLength="0/1"  />
              <InterpolatingParam id="1045" interp="linr"  time="0/1" value="0" leadInLength="0/1"  />
              <InterpolatingParam id="1046" interp="linr"  time="0/1" value="0" leadInLength="0/1"  />
              <InterpolatingParam id="1047" interp="linr"  time="0/1" value="0" leadInLength="0/1"  />
             </VectorParam>
             <VectorParam id="1048"  name="geometryCrop">
              <InterpolatingParam id="1049" interp="linr"  time="-9999999/1" value="0" leadInLength="0/1"  />
              <InterpolatingParam id="1050" interp="linr"  time="-9999999/1" value="0" leadInLength="0/1"  />
              <InterpolatingParam id="1051" interp="linr"  time="-9999999/1" value="0" leadInLength="0/1"  />
              <InterpolatingParam id="1052" interp="linr"  time="-9999999/1" value="0" leadInLength="0/1"  />
             </VectorParam>
             <InterpolatingParam id="1053" interp="linr"  time="-9999999/1" value="1" leadInLength="0/1"  name="opacity"/>
             <InterpolatingParam id="1054" interp="linr"  time="0/1" value="0" leadInLength="0/1"  name="cursorOpacity"/>
             <InterpolatingParam id="1055" interp="linr"  time="0/1" value="0" leadInLength="0/1"  name="cursorScale"/>
            </Parameters>
            <Attributes>
             <Attribute id="1056" value="" name="ident"/>
            </Attributes>
            <MetaData>
             <entry key="AutoAppliedSmartFocus" val="False"/>
             <entry key="WinSubProjectDisplayName" val=""/>
            </MetaData>
            <ExtraData>
             <Entry key="ZoomPanBin">
              <ZoomPanBin id="1057"  >
               <ZoomPanKeyframes>
                <ZoomPanKeyframe id="1058" timeRangeEnd="-9999999/1" timeRangeDuration="0/1" interpolaterName="linr"  />
               </ZoomPanKeyframes>
              </ZoomPanBin>
             </Entry>
             <Entry key="CursorEffectBin">
              <CursorEffectBin id="1059"  >
               <CursorEffectKeyframes>
               </CursorEffectKeyframes>
              </CursorEffectBin>
             </Entry>
            </ExtraData>
           </ScreenVMFile>
           <ScreenIMFile id="1060" start="4538" duration="90" scalar="1/1" mediaStart="2204/1" mediaDuration="1/1" trackNumber="0" src="4" trimStartSum="0/1" >
            <Transformer>
             <VectorParam id="1061"  name="translation">
              <InterpolatingParam id="1062" interp="linr"  time="-9999999/1" value="0" leadInLength="0/1"  />
              <InterpolatingParam id="1063" interp="linr"  time="-9999999/1" value="0" leadInLength="0/1"  />
              <InterpolatingParam id="1064" interp="linr"  time="-9999999/1" value="0" leadInLength="0/1"  />
             </VectorParam>
             <VectorParam id="1065"  name="rotation">
              <InterpolatingParam id="1066" interp="linr"  time="-9999999/1" value="0" leadInLength="0/1"  />
              <InterpolatingParam id="1067" interp="linr"  time="-9999999/1" value="0" leadInLength="0/1"  />
              <InterpolatingParam id="1068" interp="linr"  time="-9999999/1" value="0" leadInLength="0/1"  />
             </VectorParam>
             <VectorParam id="1069"  name="shear">
              <InterpolatingParam id="1070" interp="linr"  time="-9999999/1" value="0" leadInLength="0/1"  />
              <InterpolatingParam id="1071" interp="linr"  time="-9999999/1" value="0" leadInLength="0/1"  />
              <InterpolatingParam id="1072" interp="linr"  time="-9999999/1" value="0" leadInLength="0/1"  />
             </VectorParam>
             <VectorParam id="1073"  name="scale">
              <InterpolatingParam id="1074" interp="linr"  time="-9999999/1" value="1" leadInLength="0/1"  />
              <InterpolatingParam id="1075" interp="linr"  time="-9999999/1" value="1" leadInLength="0/1"  />
              <InterpolatingParam id="1076" interp="linr"  time="-9999999/1" value="1" leadInLength="0/1"  />
             </VectorParam>
             <VectorParam id="1077"  name="anchor">
              <InterpolatingParam id="1078" interp="linr"  time="0/1" value="0" leadInLength="0/1"  />
              <InterpolatingParam id="1079" interp="linr"  time="0/1" value="0" leadInLength="0/1"  />
              <InterpolatingParam id="1080" interp="linr"  time="0/1" value="0" leadInLength="0/1"  />
             </VectorParam>
            </Transformer>
            <Parameters>
             <VectorParam id="1081"  name="sourceCrop">
              <InterpolatingParam id="1082" interp="linr"  time="0/1" value="0" leadInLength="0/1"  />
              <InterpolatingParam id="1083" interp="linr"  time="0/1" value="0" leadInLength="0/1"  />
              <InterpolatingParam id="1084" interp="linr"  time="0/1" value="0" leadInLength="0/1"  />
              <InterpolatingParam id="1085" interp="linr"  time="0/1" value="0" leadInLength="0/1"  />
             </VectorParam>
             <VectorParam id="1086"  name="geometryCrop">
              <InterpolatingParam id="1087" interp="linr"  time="-9999999/1" value="0" leadInLength="0/1"  />
              <InterpolatingParam id="1088" interp="linr"  time="-9999999/1" value="0" leadInLength="0/1"  />
              <InterpolatingParam id="1089" interp="linr"  time="-9999999/1" value="0" leadInLength="0/1"  />
              <InterpolatingParam id="1090" interp="linr"  time="-9999999/1" value="0" leadInLength="0/1"  />
             </VectorParam>
             <InterpolatingParam id="1091" interp="linr"  time="-9999999/1" value="1" leadInLength="0/1"  name="opacity"/>
             <InterpolatingParam id="1092" interp="linr"  time="0/1" value="0" leadInLength="0/1"  name="cursorOpacity"/>
             <InterpolatingParam id="1093" interp="linr"  time="0/1" value="0" leadInLength="0/1"  name="recordedCursorOpacity"/>
             <InterpolatingParam id="1094" interp="linr"  time="0/1" value="0" leadInLength="0/1"  name="cursorScale"/>
            </Parameters>
            <Attributes>
             <Attribute id="1095" value="" name="ident"/>
            </Attributes>
            <MetaData>
             <entry key="AutoAppliedSmartFocus" val="False"/>
             <entry key="WinSubProjectDisplayName" val=""/>
            </MetaData>
            <ExtraData>
             <Entry key="ZoomPanBin">
              <ZoomPanBin id="1096"  >
               <ZoomPanKeyframes>
                <ZoomPanKeyframe id="1097" timeRangeEnd="-9999999/1" timeRangeDuration="0/1" interpolaterName="linr"  />
               </ZoomPanKeyframes>
              </ZoomPanBin>
             </Entry>
             <Entry key="CursorEffectBin">
              <CursorEffectBin id="1098"  >
               <CursorEffectKeyframes>
               </CursorEffectKeyframes>
              </CursorEffectBin>
             </Entry>
            </ExtraData>
           </ScreenIMFile>
           <ScreenVMFile id="1099" start="4628" duration="598" scalar="1/1" mediaStart="2204/1" mediaDuration="598/1" trackNumber="0" src="4" >
            <Transformer>
             <VectorParam id="1100"  name="translation">
              <InterpolatingParam id="1101" interp="linr"  time="-9999999/1" value="0" leadInLength="0/1"  />
              <InterpolatingParam id="1102" interp="linr"  time="-9999999/1" value="0" leadInLength="0/1"  />
              <InterpolatingParam id="1103" interp="linr"  time="-9999999/1" value="0" leadInLength="0/1"  />
             </VectorParam>
             <VectorParam id="1104"  name="rotation">
              <InterpolatingParam id="1105" interp="linr"  time="-9999999/1" value="0" leadInLength="0/1"  />
              <InterpolatingParam id="1106" interp="linr"  time="-9999999/1" value="0" leadInLength="0/1"  />
              <InterpolatingParam id="1107" interp="linr"  time="-9999999/1" value="0" leadInLength="0/1"  />
             </VectorParam>
             <VectorParam id="1108"  name="shear">
              <InterpolatingParam id="1109" interp="linr"  time="-9999999/1" value="0" leadInLength="0/1"  />
              <InterpolatingParam id="1110" interp="linr"  time="-9999999/1" value="0" leadInLength="0/1"  />
              <InterpolatingParam id="1111" interp="linr"  time="-9999999/1" value="0" leadInLength="0/1"  />
             </VectorParam>
             <VectorParam id="1112"  name="scale">
              <InterpolatingParam id="1113" interp="linr"  time="-9999999/1" value="1" leadInLength="0/1"  />
              <InterpolatingParam id="1114" interp="linr"  time="-9999999/1" value="1" leadInLength="0/1"  />
              <InterpolatingParam id="1115" interp="linr"  time="-9999999/1" value="1" leadInLength="0/1"  />
             </VectorParam>
             <VectorParam id="1116"  name="anchor">
              <InterpolatingParam id="1117" interp="linr"  time="0/1" value="0" leadInLength="0/1"  />
              <InterpolatingParam id="1118" interp="linr"  time="0/1" value="0" leadInLength="0/1"  />
              <InterpolatingParam id="1119" interp="linr"  time="0/1" value="0" leadInLength="0/1"  />
             </VectorParam>
            </Transformer>
            <Parameters>
             <VectorParam id="1120"  name="sourceCrop">
              <InterpolatingParam id="1121" interp="linr"  time="0/1" value="0" leadInLength="0/1"  />
              <InterpolatingParam id="1122" interp="linr"  time="0/1" value="0" leadInLength="0/1"  />
              <InterpolatingParam id="1123" interp="linr"  time="0/1" value="0" leadInLength="0/1"  />
              <InterpolatingParam id="1124" interp="linr"  time="0/1" value="0" leadInLength="0/1"  />
             </VectorParam>
             <VectorParam id="1125"  name="geometryCrop">
              <InterpolatingParam id="1126" interp="linr"  time="-9999999/1" value="0" leadInLength="0/1"  />
              <InterpolatingParam id="1127" interp="linr"  time="-9999999/1" value="0" leadInLength="0/1"  />
              <InterpolatingParam id="1128" interp="linr"  time="-9999999/1" value="0" leadInLength="0/1"  />
              <InterpolatingParam id="1129" interp="linr"  time="-9999999/1" value="0" leadInLength="0/1"  />
             </VectorParam>
             <InterpolatingParam id="1130" interp="linr"  time="-9999999/1" value="1" leadInLength="0/1"  name="opacity"/>
             <InterpolatingParam id="1131" interp="linr"  time="0/1" value="0" leadInLength="0/1"  name="cursorOpacity"/>
             <InterpolatingParam id="1132" interp="linr"  time="0/1" value="0" leadInLength="0/1"  name="cursorScale"/>
            </Parameters>
            <Attributes>
             <Attribute id="1133" value="" name="ident"/>
            </Attributes>
            <MetaData>
             <entry key="AutoAppliedSmartFocus" val="False"/>
             <entry key="WinSubProjectDisplayName" val=""/>
            </MetaData>
            <ExtraData>
             <Entry key="ZoomPanBin">
              <ZoomPanBin id="1134"  >
               <ZoomPanKeyframes>
                <ZoomPanKeyframe id="1135" timeRangeEnd="-9999999/1" timeRangeDuration="0/1" interpolaterName="linr"  />
               </ZoomPanKeyframes>
              </ZoomPanBin>
             </Entry>
             <Entry key="CursorEffectBin">
              <CursorEffectBin id="1136"  >
               <CursorEffectKeyframes>
               </CursorEffectKeyframes>
              </CursorEffectBin>
             </Entry>
            </ExtraData>
           </ScreenVMFile>
           <ScreenVMFile id="1137" start="5226" duration="164" scalar="1/1" mediaStart="2927/1" mediaDuration="164/1" trackNumber="0" src="4" >
            <Transformer>
             <VectorParam id="1138"  name="translation">
              <InterpolatingParam id="1139" interp="linr"  time="-9999999/1" value="0" leadInLength="0/1"  />
              <InterpolatingParam id="1140" interp="linr"  time="-9999999/1" value="0" leadInLength="0/1"  />
              <InterpolatingParam id="1141" interp="linr"  time="-9999999/1" value="0" leadInLength="0/1"  />
             </VectorParam>
             <VectorParam id="1142"  name="rotation">
              <InterpolatingParam id="1143" interp="linr"  time="-9999999/1" value="0" leadInLength="0/1"  />
              <InterpolatingParam id="1144" interp="linr"  time="-9999999/1" value="0" leadInLength="0/1"  />
              <InterpolatingParam id="1145" interp="linr"  time="-9999999/1" value="0" leadInLength="0/1"  />
             </VectorParam>
             <VectorParam id="1146"  name="shear">
              <InterpolatingParam id="1147" interp="linr"  time="-9999999/1" value="0" leadInLength="0/1"  />
              <InterpolatingParam id="1148" interp="linr"  time="-9999999/1" value="0" leadInLength="0/1"  />
              <InterpolatingParam id="1149" interp="linr"  time="-9999999/1" value="0" leadInLength="0/1"  />
             </VectorParam>
             <VectorParam id="1150"  name="scale">
              <InterpolatingParam id="1151" interp="linr"  time="-9999999/1" value="1" leadInLength="0/1"  />
              <InterpolatingParam id="1152" interp="linr"  time="-9999999/1" value="1" leadInLength="0/1"  />
              <InterpolatingParam id="1153" interp="linr"  time="-9999999/1" value="1" leadInLength="0/1"  />
             </VectorParam>
             <VectorParam id="1154"  name="anchor">
              <InterpolatingParam id="1155" interp="linr"  time="0/1" value="0" leadInLength="0/1"  />
              <InterpolatingParam id="1156" interp="linr"  time="0/1" value="0" leadInLength="0/1"  />
              <InterpolatingParam id="1157" interp="linr"  time="0/1" value="0" leadInLength="0/1"  />
             </VectorParam>
            </Transformer>
            <Parameters>
             <VectorParam id="1158"  name="sourceCrop">
              <InterpolatingParam id="1159" interp="linr"  time="0/1" value="0" leadInLength="0/1"  />
              <InterpolatingParam id="1160" interp="linr"  time="0/1" value="0" leadInLength="0/1"  />
              <InterpolatingParam id="1161" interp="linr"  time="0/1" value="0" leadInLength="0/1"  />
              <InterpolatingParam id="1162" interp="linr"  time="0/1" value="0" leadInLength="0/1"  />
             </VectorParam>
             <VectorParam id="1163"  name="geometryCrop">
              <InterpolatingParam id="1164" interp="linr"  time="-9999999/1" value="0" leadInLength="0/1"  />
              <InterpolatingParam id="1165" interp="linr"  time="-9999999/1" value="0" leadInLength="0/1"  />
              <InterpolatingParam id="1166" interp="linr"  time="-9999999/1" value="0" leadInLength="0/1"  />
              <InterpolatingParam id="1167" interp="linr"  time="-9999999/1" value="0" leadInLength="0/1"  />
             </VectorParam>
             <InterpolatingParam id="1168" interp="linr"  time="-9999999/1" value="1" leadInLength="0/1"  name="opacity"/>
             <InterpolatingParam id="1169" interp="linr"  time="0/1" value="0" leadInLength="0/1"  name="cursorOpacity"/>
             <InterpolatingParam id="1170" interp="linr"  time="0/1" value="0" leadInLength="0/1"  name="cursorScale"/>
            </Parameters>
            <Attributes>
             <Attribute id="1171" value="" name="ident"/>
            </Attributes>
            <MetaData>
             <entry key="AutoAppliedSmartFocus" val="False"/>
             <entry key="WinSubProjectDisplayName" val=""/>
            </MetaData>
            <ExtraData>
             <Entry key="ZoomPanBin">
              <ZoomPanBin id="1172"  >
               <ZoomPanKeyframes>
                <ZoomPanKeyframe id="1173" timeRangeEnd="-9999999/1" timeRangeDuration="0/1" interpolaterName="linr"  />
               </ZoomPanKeyframes>
              </ZoomPanBin>
             </Entry>
             <Entry key="CursorEffectBin">
              <CursorEffectBin id="1174"  >
               <CursorEffectKeyframes>
               </CursorEffectKeyframes>
              </CursorEffectBin>
             </Entry>
            </ExtraData>
           </ScreenVMFile>
           <ScreenIMFile id="1175" start="5390" duration="90" scalar="1/1" mediaStart="3091/1" mediaDuration="1/1" trackNumber="0" src="4" trimStartSum="0/1" >
            <Transformer>
             <VectorParam id="1176"  name="translation">
              <InterpolatingParam id="1177" interp="linr"  time="-9999999/1" value="0" leadInLength="0/1"  />
              <InterpolatingParam id="1178" interp="linr"  time="-9999999/1" value="0" leadInLength="0/1"  />
              <InterpolatingParam id="1179" interp="linr"  time="-9999999/1" value="0" leadInLength="0/1"  />
             </VectorParam>
             <VectorParam id="1180"  name="rotation">
              <InterpolatingParam id="1181" interp="linr"  time="-9999999/1" value="0" leadInLength="0/1"  />
              <InterpolatingParam id="1182" interp="linr"  time="-9999999/1" value="0" leadInLength="0/1"  />
              <InterpolatingParam id="1183" interp="linr"  time="-9999999/1" value="0" leadInLength="0/1"  />
             </VectorParam>
             <VectorParam id="1184"  name="shear">
              <InterpolatingParam id="1185" interp="linr"  time="-9999999/1" value="0" leadInLength="0/1"  />
              <InterpolatingParam id="1186" interp="linr"  time="-9999999/1" value="0" leadInLength="0/1"  />
              <InterpolatingParam id="1187" interp="linr"  time="-9999999/1" value="0" leadInLength="0/1"  />
             </VectorParam>
             <VectorParam id="1188"  name="scale">
              <InterpolatingParam id="1189" interp="linr"  time="-9999999/1" value="1" leadInLength="0/1"  />
              <InterpolatingParam id="1190" interp="linr"  time="-9999999/1" value="1" leadInLength="0/1"  />
              <InterpolatingParam id="1191" interp="linr"  time="-9999999/1" value="1" leadInLength="0/1"  />
             </VectorParam>
             <VectorParam id="1192"  name="anchor">
              <InterpolatingParam id="1193" interp="linr"  time="0/1" value="0" leadInLength="0/1"  />
              <InterpolatingParam id="1194" interp="linr"  time="0/1" value="0" leadInLength="0/1"  />
              <InterpolatingParam id="1195" interp="linr"  time="0/1" value="0" leadInLength="0/1"  />
             </VectorParam>
            </Transformer>
            <Parameters>
             <VectorParam id="1196"  name="sourceCrop">
              <InterpolatingParam id="1197" interp="linr"  time="0/1" value="0" leadInLength="0/1"  />
              <InterpolatingParam id="1198" interp="linr"  time="0/1" value="0" leadInLength="0/1"  />
              <InterpolatingParam id="1199" interp="linr"  time="0/1" value="0" leadInLength="0/1"  />
              <InterpolatingParam id="1200" interp="linr"  time="0/1" value="0" leadInLength="0/1"  />
             </VectorParam>
             <VectorParam id="1201"  name="geometryCrop">
              <InterpolatingParam id="1202" interp="linr"  time="-9999999/1" value="0" leadInLength="0/1"  />
              <InterpolatingParam id="1203" interp="linr"  time="-9999999/1" value="0" leadInLength="0/1"  />
              <InterpolatingParam id="1204" interp="linr"  time="-9999999/1" value="0" leadInLength="0/1"  />
              <InterpolatingParam id="1205" interp="linr"  time="-9999999/1" value="0" leadInLength="0/1"  />
             </VectorParam>
             <InterpolatingParam id="1206" interp="linr"  time="-9999999/1" value="1" leadInLength="0/1"  name="opacity"/>
             <InterpolatingParam id="1207" interp="linr"  time="0/1" value="0" leadInLength="0/1"  name="cursorOpacity"/>
             <InterpolatingParam id="1208" interp="linr"  time="0/1" value="0" leadInLength="0/1"  name="recordedCursorOpacity"/>
             <InterpolatingParam id="1209" interp="linr"  time="0/1" value="0" leadInLength="0/1"  name="cursorScale"/>
            </Parameters>
            <Attributes>
             <Attribute id="1210" value="" name="ident"/>
            </Attributes>
            <MetaData>
             <entry key="AutoAppliedSmartFocus" val="False"/>
             <entry key="WinSubProjectDisplayName" val=""/>
            </MetaData>
            <ExtraData>
             <Entry key="ZoomPanBin">
              <ZoomPanBin id="1211"  >
               <ZoomPanKeyframes>
                <ZoomPanKeyframe id="1212" timeRangeEnd="-9999999/1" timeRangeDuration="0/1" interpolaterName="linr"  />
               </ZoomPanKeyframes>
              </ZoomPanBin>
             </Entry>
             <Entry key="CursorEffectBin">
              <CursorEffectBin id="1213"  >
               <CursorEffectKeyframes>
               </CursorEffectKeyframes>
              </CursorEffectBin>
             </Entry>
            </ExtraData>
           </ScreenIMFile>
           <ScreenVMFile id="1214" start="5480" duration="23" scalar="1/1" mediaStart="3091/1" mediaDuration="23/1" trackNumber="0" src="4" >
            <Transformer>
             <VectorParam id="1215"  name="translation">
              <InterpolatingParam id="1216" interp="linr"  time="-9999999/1" value="0" leadInLength="0/1"  />
              <InterpolatingParam id="1217" interp="linr"  time="-9999999/1" value="0" leadInLength="0/1"  />
              <InterpolatingParam id="1218" interp="linr"  time="-9999999/1" value="0" leadInLength="0/1"  />
             </VectorParam>
             <VectorParam id="1219"  name="rotation">
              <InterpolatingParam id="1220" interp="linr"  time="-9999999/1" value="0" leadInLength="0/1"  />
              <InterpolatingParam id="1221" interp="linr"  time="-9999999/1" value="0" leadInLength="0/1"  />
              <InterpolatingParam id="1222" interp="linr"  time="-9999999/1" value="0" leadInLength="0/1"  />
             </VectorParam>
             <VectorParam id="1223"  name="shear">
              <InterpolatingParam id="1224" interp="linr"  time="-9999999/1" value="0" leadInLength="0/1"  />
              <InterpolatingParam id="1225" interp="linr"  time="-9999999/1" value="0" leadInLength="0/1"  />
              <InterpolatingParam id="1226" interp="linr"  time="-9999999/1" value="0" leadInLength="0/1"  />
             </VectorParam>
             <VectorParam id="1227"  name="scale">
              <InterpolatingParam id="1228" interp="linr"  time="-9999999/1" value="1" leadInLength="0/1"  />
              <InterpolatingParam id="1229" interp="linr"  time="-9999999/1" value="1" leadInLength="0/1"  />
              <InterpolatingParam id="1230" interp="linr"  time="-9999999/1" value="1" leadInLength="0/1"  />
             </VectorParam>
             <VectorParam id="1231"  name="anchor">
              <InterpolatingParam id="1232" interp="linr"  time="0/1" value="0" leadInLength="0/1"  />
              <InterpolatingParam id="1233" interp="linr"  time="0/1" value="0" leadInLength="0/1"  />
              <InterpolatingParam id="1234" interp="linr"  time="0/1" value="0" leadInLength="0/1"  />
             </VectorParam>
            </Transformer>
            <Parameters>
             <VectorParam id="1235"  name="sourceCrop">
              <InterpolatingParam id="1236" interp="linr"  time="0/1" value="0" leadInLength="0/1"  />
              <InterpolatingParam id="1237" interp="linr"  time="0/1" value="0" leadInLength="0/1"  />
              <InterpolatingParam id="1238" interp="linr"  time="0/1" value="0" leadInLength="0/1"  />
              <InterpolatingParam id="1239" interp="linr"  time="0/1" value="0" leadInLength="0/1"  />
             </VectorParam>
             <VectorParam id="1240"  name="geometryCrop">
              <InterpolatingParam id="1241" interp="linr"  time="-9999999/1" value="0" leadInLength="0/1"  />
              <InterpolatingParam id="1242" interp="linr"  time="-9999999/1" value="0" leadInLength="0/1"  />
              <InterpolatingParam id="1243" interp="linr"  time="-9999999/1" value="0" leadInLength="0/1"  />
              <InterpolatingParam id="1244" interp="linr"  time="-9999999/1" value="0" leadInLength="0/1"  />
             </VectorParam>
             <InterpolatingParam id="1245" interp="linr"  time="-9999999/1" value="1" leadInLength="0/1"  name="opacity"/>
             <InterpolatingParam id="1246" interp="linr"  time="0/1" value="0" leadInLength="0/1"  name="cursorOpacity"/>
             <InterpolatingParam id="1247" interp="linr"  time="0/1" value="0" leadInLength="0/1"  name="cursorScale"/>
            </Parameters>
            <Attributes>
             <Attribute id="1248" value="" name="ident"/>
            </Attributes>
            <MetaData>
             <entry key="AutoAppliedSmartFocus" val="False"/>
             <entry key="WinSubProjectDisplayName" val=""/>
            </MetaData>
            <ExtraData>
             <Entry key="ZoomPanBin">
              <ZoomPanBin id="1249"  >
               <ZoomPanKeyframes>
                <ZoomPanKeyframe id="1250" timeRangeEnd="-9999999/1" timeRangeDuration="0/1" interpolaterName="linr"  />
               </ZoomPanKeyframes>
              </ZoomPanBin>
             </Entry>
             <Entry key="CursorEffectBin">
              <CursorEffectBin id="1251"  >
               <CursorEffectKeyframes>
               </CursorEffectKeyframes>
              </CursorEffectBin>
             </Entry>
            </ExtraData>
           </ScreenVMFile>
           <ScreenIMFile id="1252" start="5503" duration="330" scalar="1/1" mediaStart="3114/1" mediaDuration="1/1" trackNumber="0" src="4" trimStartSum="0/1" >
            <Transformer>
             <VectorParam id="1253"  name="translation">
              <InterpolatingParam id="1254" interp="linr"  time="-9999999/1" value="0" leadInLength="0/1"  />
              <InterpolatingParam id="1255" interp="linr"  time="-9999999/1" value="0" leadInLength="0/1"  />
              <InterpolatingParam id="1256" interp="linr"  time="-9999999/1" value="0" leadInLength="0/1"  />
             </VectorParam>
             <VectorParam id="1257"  name="rotation">
              <InterpolatingParam id="1258" interp="linr"  time="-9999999/1" value="0" leadInLength="0/1"  />
              <InterpolatingParam id="1259" interp="linr"  time="-9999999/1" value="0" leadInLength="0/1"  />
              <InterpolatingParam id="1260" interp="linr"  time="-9999999/1" value="0" leadInLength="0/1"  />
             </VectorParam>
             <VectorParam id="1261"  name="shear">
              <InterpolatingParam id="1262" interp="linr"  time="-9999999/1" value="0" leadInLength="0/1"  />
              <InterpolatingParam id="1263" interp="linr"  time="-9999999/1" value="0" leadInLength="0/1"  />
              <InterpolatingParam id="1264" interp="linr"  time="-9999999/1" value="0" leadInLength="0/1"  />
             </VectorParam>
             <VectorParam id="1265"  name="scale">
              <InterpolatingParam id="1266" interp="linr"  time="-9999999/1" value="1" leadInLength="0/1"  />
              <InterpolatingParam id="1267" interp="linr"  time="-9999999/1" value="1" leadInLength="0/1"  />
              <InterpolatingParam id="1268" interp="linr"  time="-9999999/1" value="1" leadInLength="0/1"  />
             </VectorParam>
             <VectorParam id="1269"  name="anchor">
              <InterpolatingParam id="1270" interp="linr"  time="0/1" value="0" leadInLength="0/1"  />
              <InterpolatingParam id="1271" interp="linr"  time="0/1" value="0" leadInLength="0/1"  />
              <InterpolatingParam id="1272" interp="linr"  time="0/1" value="0" leadInLength="0/1"  />
             </VectorParam>
            </Transformer>
            <Parameters>
             <VectorParam id="1273"  name="sourceCrop">
              <InterpolatingParam id="1274" interp="linr"  time="0/1" value="0" leadInLength="0/1"  />
              <InterpolatingParam id="1275" interp="linr"  time="0/1" value="0" leadInLength="0/1"  />
              <InterpolatingParam id="1276" interp="linr"  time="0/1" value="0" leadInLength="0/1"  />
              <InterpolatingParam id="1277" interp="linr"  time="0/1" value="0" leadInLength="0/1"  />
             </VectorParam>
             <VectorParam id="1278"  name="geometryCrop">
              <InterpolatingParam id="1279" interp="linr"  time="-9999999/1" value="0" leadInLength="0/1"  />
              <InterpolatingParam id="1280" interp="linr"  time="-9999999/1" value="0" leadInLength="0/1"  />
              <InterpolatingParam id="1281" interp="linr"  time="-9999999/1" value="0" leadInLength="0/1"  />
              <InterpolatingParam id="1282" interp="linr"  time="-9999999/1" value="0" leadInLength="0/1"  />
             </VectorParam>
             <InterpolatingParam id="1283" interp="linr"  time="-9999999/1" value="1" leadInLength="0/1"  name="opacity"/>
             <InterpolatingParam id="1284" interp="linr"  time="0/1" value="0" leadInLength="0/1"  name="cursorOpacity"/>
             <InterpolatingParam id="1285" interp="linr"  time="0/1" value="0" leadInLength="0/1"  name="recordedCursorOpacity"/>
             <InterpolatingParam id="1286" interp="linr"  time="0/1" value="0" leadInLength="0/1"  name="cursorScale"/>
            </Parameters>
            <Attributes>
             <Attribute id="1287" value="" name="ident"/>
            </Attributes>
            <MetaData>
             <entry key="AutoAppliedSmartFocus" val="False"/>
             <entry key="WinSubProjectDisplayName" val=""/>
            </MetaData>
            <ExtraData>
             <Entry key="ZoomPanBin">
              <ZoomPanBin id="1288"  >
               <ZoomPanKeyframes>
                <ZoomPanKeyframe id="1289" timeRangeEnd="-9999999/1" timeRangeDuration="0/1" interpolaterName="linr"  />
               </ZoomPanKeyframes>
              </ZoomPanBin>
             </Entry>
             <Entry key="CursorEffectBin">
              <CursorEffectBin id="1290"  >
               <CursorEffectKeyframes>
               </CursorEffectKeyframes>
              </CursorEffectBin>
             </Entry>
            </ExtraData>
           </ScreenIMFile>
           <ScreenVMFile id="1291" start="5833" duration="55" scalar="1/1" mediaStart="3114/1" mediaDuration="55/1" trackNumber="0" src="4" >
            <Transformer>
             <VectorParam id="1292"  name="translation">
              <InterpolatingParam id="1293" interp="linr"  time="-9999999/1" value="0" leadInLength="0/1"  />
              <InterpolatingParam id="1294" interp="linr"  time="-9999999/1" value="0" leadInLength="0/1"  />
              <InterpolatingParam id="1295" interp="linr"  time="-9999999/1" value="0" leadInLength="0/1"  />
             </VectorParam>
             <VectorParam id="1296"  name="rotation">
              <InterpolatingParam id="1297" interp="linr"  time="-9999999/1" value="0" leadInLength="0/1"  />
              <InterpolatingParam id="1298" interp="linr"  time="-9999999/1" value="0" leadInLength="0/1"  />
              <InterpolatingParam id="1299" interp="linr"  time="-9999999/1" value="0" leadInLength="0/1"  />
             </VectorParam>
             <VectorParam id="1300"  name="shear">
              <InterpolatingParam id="1301" interp="linr"  time="-9999999/1" value="0" leadInLength="0/1"  />
              <InterpolatingParam id="1302" interp="linr"  time="-9999999/1" value="0" leadInLength="0/1"  />
              <InterpolatingParam id="1303" interp="linr"  time="-9999999/1" value="0" leadInLength="0/1"  />
             </VectorParam>
             <VectorParam id="1304"  name="scale">
              <InterpolatingParam id="1305" interp="linr"  time="-9999999/1" value="1" leadInLength="0/1"  />
              <InterpolatingParam id="1306" interp="linr"  time="-9999999/1" value="1" leadInLength="0/1"  />
              <InterpolatingParam id="1307" interp="linr"  time="-9999999/1" value="1" leadInLength="0/1"  />
             </VectorParam>
             <VectorParam id="1308"  name="anchor">
              <InterpolatingParam id="1309" interp="linr"  time="0/1" value="0" leadInLength="0/1"  />
              <InterpolatingParam id="1310" interp="linr"  time="0/1" value="0" leadInLength="0/1"  />
              <InterpolatingParam id="1311" interp="linr"  time="0/1" value="0" leadInLength="0/1"  />
             </VectorParam>
            </Transformer>
            <Parameters>
             <VectorParam id="1312"  name="sourceCrop">
              <InterpolatingParam id="1313" interp="linr"  time="0/1" value="0" leadInLength="0/1"  />
              <InterpolatingParam id="1314" interp="linr"  time="0/1" value="0" leadInLength="0/1"  />
              <InterpolatingParam id="1315" interp="linr"  time="0/1" value="0" leadInLength="0/1"  />
              <InterpolatingParam id="1316" interp="linr"  time="0/1" value="0" leadInLength="0/1"  />
             </VectorParam>
             <VectorParam id="1317"  name="geometryCrop">
              <InterpolatingParam id="1318" interp="linr"  time="-9999999/1" value="0" leadInLength="0/1"  />
              <InterpolatingParam id="1319" interp="linr"  time="-9999999/1" value="0" leadInLength="0/1"  />
              <InterpolatingParam id="1320" interp="linr"  time="-9999999/1" value="0" leadInLength="0/1"  />
              <InterpolatingParam id="1321" interp="linr"  time="-9999999/1" value="0" leadInLength="0/1"  />
             </VectorParam>
             <InterpolatingParam id="1322" interp="linr"  time="-9999999/1" value="1" leadInLength="0/1"  name="opacity"/>
             <InterpolatingParam id="1323" interp="linr"  time="0/1" value="0" leadInLength="0/1"  name="cursorOpacity"/>
             <InterpolatingParam id="1324" interp="linr"  time="0/1" value="0" leadInLength="0/1"  name="cursorScale"/>
            </Parameters>
            <Attributes>
             <Attribute id="1325" value="" name="ident"/>
            </Attributes>
            <MetaData>
             <entry key="AutoAppliedSmartFocus" val="False"/>
             <entry key="WinSubProjectDisplayName" val=""/>
            </MetaData>
            <ExtraData>
             <Entry key="ZoomPanBin">
              <ZoomPanBin id="1326"  >
               <ZoomPanKeyframes>
                <ZoomPanKeyframe id="1327" timeRangeEnd="-9999999/1" timeRangeDuration="0/1" interpolaterName="linr"  />
               </ZoomPanKeyframes>
              </ZoomPanBin>
             </Entry>
             <Entry key="CursorEffectBin">
              <CursorEffectBin id="1328"  >
               <CursorEffectKeyframes>
               </CursorEffectKeyframes>
              </CursorEffectBin>
             </Entry>
            </ExtraData>
           </ScreenVMFile>
           <ScreenIMFile id="1329" start="5888" duration="90" scalar="1/1" mediaStart="3169/1" mediaDuration="1/1" trackNumber="0" src="4" trimStartSum="0/1" >
            <Transformer>
             <VectorParam id="1330"  name="translation">
              <InterpolatingParam id="1331" interp="linr"  time="-9999999/1" value="0" leadInLength="0/1"  />
              <InterpolatingParam id="1332" interp="linr"  time="-9999999/1" value="0" leadInLength="0/1"  />
              <InterpolatingParam id="1333" interp="linr"  time="-9999999/1" value="0" leadInLength="0/1"  />
             </VectorParam>
             <VectorParam id="1334"  name="rotation">
              <InterpolatingParam id="1335" interp="linr"  time="-9999999/1" value="0" leadInLength="0/1"  />
              <InterpolatingParam id="1336" interp="linr"  time="-9999999/1" value="0" leadInLength="0/1"  />
              <InterpolatingParam id="1337" interp="linr"  time="-9999999/1" value="0" leadInLength="0/1"  />
             </VectorParam>
             <VectorParam id="1338"  name="shear">
              <InterpolatingParam id="1339" interp="linr"  time="-9999999/1" value="0" leadInLength="0/1"  />
              <InterpolatingParam id="1340" interp="linr"  time="-9999999/1" value="0" leadInLength="0/1"  />
              <InterpolatingParam id="1341" interp="linr"  time="-9999999/1" value="0" leadInLength="0/1"  />
             </VectorParam>
             <VectorParam id="1342"  name="scale">
              <InterpolatingParam id="1343" interp="linr"  time="-9999999/1" value="1" leadInLength="0/1"  />
              <InterpolatingParam id="1344" interp="linr"  time="-9999999/1" value="1" leadInLength="0/1"  />
              <InterpolatingParam id="1345" interp="linr"  time="-9999999/1" value="1" leadInLength="0/1"  />
             </VectorParam>
             <VectorParam id="1346"  name="anchor">
              <InterpolatingParam id="1347" interp="linr"  time="0/1" value="0" leadInLength="0/1"  />
              <InterpolatingParam id="1348" interp="linr"  time="0/1" value="0" leadInLength="0/1"  />
              <InterpolatingParam id="1349" interp="linr"  time="0/1" value="0" leadInLength="0/1"  />
             </VectorParam>
            </Transformer>
            <Parameters>
             <VectorParam id="1350"  name="sourceCrop">
              <InterpolatingParam id="1351" interp="linr"  time="0/1" value="0" leadInLength="0/1"  />
              <InterpolatingParam id="1352" interp="linr"  time="0/1" value="0" leadInLength="0/1"  />
              <InterpolatingParam id="1353" interp="linr"  time="0/1" value="0" leadInLength="0/1"  />
              <InterpolatingParam id="1354" interp="linr"  time="0/1" value="0" leadInLength="0/1"  />
             </VectorParam>
             <VectorParam id="1355"  name="geometryCrop">
              <InterpolatingParam id="1356" interp="linr"  time="-9999999/1" value="0" leadInLength="0/1"  />
              <InterpolatingParam id="1357" interp="linr"  time="-9999999/1" value="0" leadInLength="0/1"  />
              <InterpolatingParam id="1358" interp="linr"  time="-9999999/1" value="0" leadInLength="0/1"  />
              <InterpolatingParam id="1359" interp="linr"  time="-9999999/1" value="0" leadInLength="0/1"  />
             </VectorParam>
             <InterpolatingParam id="1360" interp="linr"  time="-9999999/1" value="1" leadInLength="0/1"  name="opacity"/>
             <InterpolatingParam id="1361" interp="linr"  time="0/1" value="0" leadInLength="0/1"  name="cursorOpacity"/>
             <InterpolatingParam id="1362" interp="linr"  time="0/1" value="0" leadInLength="0/1"  name="recordedCursorOpacity"/>
             <InterpolatingParam id="1363" interp="linr"  time="0/1" value="0" leadInLength="0/1"  name="cursorScale"/>
            </Parameters>
            <Attributes>
             <Attribute id="1364" value="" name="ident"/>
            </Attributes>
            <MetaData>
             <entry key="AutoAppliedSmartFocus" val="False"/>
             <entry key="WinSubProjectDisplayName" val=""/>
            </MetaData>
            <ExtraData>
             <Entry key="ZoomPanBin">
              <ZoomPanBin id="1365"  >
               <ZoomPanKeyframes>
                <ZoomPanKeyframe id="1366" timeRangeEnd="-9999999/1" timeRangeDuration="0/1" interpolaterName="linr"  />
               </ZoomPanKeyframes>
              </ZoomPanBin>
             </Entry>
             <Entry key="CursorEffectBin">
              <CursorEffectBin id="1367"  >
               <CursorEffectKeyframes>
               </CursorEffectKeyframes>
              </CursorEffectBin>
             </Entry>
            </ExtraData>
           </ScreenIMFile>
           <ScreenVMFile id="1368" start="5978" duration="86" scalar="1/1" mediaStart="3169/1" mediaDuration="86/1" trackNumber="0" src="4" >
            <Transformer>
             <VectorParam id="1369"  name="translation">
              <InterpolatingParam id="1370" interp="linr"  time="-9999999/1" value="0" leadInLength="0/1"  />
              <InterpolatingParam id="1371" interp="linr"  time="-9999999/1" value="0" leadInLength="0/1"  />
              <InterpolatingParam id="1372" interp="linr"  time="-9999999/1" value="0" leadInLength="0/1"  />
             </VectorParam>
             <VectorParam id="1373"  name="rotation">
              <InterpolatingParam id="1374" interp="linr"  time="-9999999/1" value="0" leadInLength="0/1"  />
              <InterpolatingParam id="1375" interp="linr"  time="-9999999/1" value="0" leadInLength="0/1"  />
              <InterpolatingParam id="1376" interp="linr"  time="-9999999/1" value="0" leadInLength="0/1"  />
             </VectorParam>
             <VectorParam id="1377"  name="shear">
              <InterpolatingParam id="1378" interp="linr"  time="-9999999/1" value="0" leadInLength="0/1"  />
              <InterpolatingParam id="1379" interp="linr"  time="-9999999/1" value="0" leadInLength="0/1"  />
              <InterpolatingParam id="1380" interp="linr"  time="-9999999/1" value="0" leadInLength="0/1"  />
             </VectorParam>
             <VectorParam id="1381"  name="scale">
              <InterpolatingParam id="1382" interp="linr"  time="-9999999/1" value="1" leadInLength="0/1"  />
              <InterpolatingParam id="1383" interp="linr"  time="-9999999/1" value="1" leadInLength="0/1"  />
              <InterpolatingParam id="1384" interp="linr"  time="-9999999/1" value="1" leadInLength="0/1"  />
             </VectorParam>
             <VectorParam id="1385"  name="anchor">
              <InterpolatingParam id="1386" interp="linr"  time="0/1" value="0" leadInLength="0/1"  />
              <InterpolatingParam id="1387" interp="linr"  time="0/1" value="0" leadInLength="0/1"  />
              <InterpolatingParam id="1388" interp="linr"  time="0/1" value="0" leadInLength="0/1"  />
             </VectorParam>
            </Transformer>
            <Parameters>
             <VectorParam id="1389"  name="sourceCrop">
              <InterpolatingParam id="1390" interp="linr"  time="0/1" value="0" leadInLength="0/1"  />
              <InterpolatingParam id="1391" interp="linr"  time="0/1" value="0" leadInLength="0/1"  />
              <InterpolatingParam id="1392" interp="linr"  time="0/1" value="0" leadInLength="0/1"  />
              <InterpolatingParam id="1393" interp="linr"  time="0/1" value="0" leadInLength="0/1"  />
             </VectorParam>
             <VectorParam id="1394"  name="geometryCrop">
              <InterpolatingParam id="1395" interp="linr"  time="-9999999/1" value="0" leadInLength="0/1"  />
              <InterpolatingParam id="1396" interp="linr"  time="-9999999/1" value="0" leadInLength="0/1"  />
              <InterpolatingParam id="1397" interp="linr"  time="-9999999/1" value="0" leadInLength="0/1"  />
              <InterpolatingParam id="1398" interp="linr"  time="-9999999/1" value="0" leadInLength="0/1"  />
             </VectorParam>
             <InterpolatingParam id="1399" interp="linr"  time="-9999999/1" value="1" leadInLength="0/1"  name="opacity"/>
             <InterpolatingParam id="1400" interp="linr"  time="0/1" value="0" leadInLength="0/1"  name="cursorOpacity"/>
             <InterpolatingParam id="1401" interp="linr"  time="0/1" value="0" leadInLength="0/1"  name="cursorScale"/>
            </Parameters>
            <Attributes>
             <Attribute id="1402" value="" name="ident"/>
            </Attributes>
            <MetaData>
             <entry key="AutoAppliedSmartFocus" val="False"/>
             <entry key="WinSubProjectDisplayName" val=""/>
            </MetaData>
            <ExtraData>
             <Entry key="ZoomPanBin">
              <ZoomPanBin id="1403"  >
               <ZoomPanKeyframes>
                <ZoomPanKeyframe id="1404" timeRangeEnd="-9999999/1" timeRangeDuration="0/1" interpolaterName="linr"  />
               </ZoomPanKeyframes>
              </ZoomPanBin>
             </Entry>
             <Entry key="CursorEffectBin">
              <CursorEffectBin id="1405"  >
               <CursorEffectKeyframes>
               </CursorEffectKeyframes>
              </CursorEffectBin>
             </Entry>
            </ExtraData>
           </ScreenVMFile>
           <ScreenIMFile id="1406" start="6064" duration="30" scalar="1/1" mediaStart="3255/1" mediaDuration="1/1" trackNumber="0" src="4" trimStartSum="0/1" >
            <Transformer>
             <VectorParam id="1407"  name="translation">
              <InterpolatingParam id="1408" interp="linr"  time="-9999999/1" value="0" leadInLength="0/1"  />
              <InterpolatingParam id="1409" interp="linr"  time="-9999999/1" value="0" leadInLength="0/1"  />
              <InterpolatingParam id="1410" interp="linr"  time="-9999999/1" value="0" leadInLength="0/1"  />
             </VectorParam>
             <VectorParam id="1411"  name="rotation">
              <InterpolatingParam id="1412" interp="linr"  time="-9999999/1" value="0" leadInLength="0/1"  />
              <InterpolatingParam id="1413" interp="linr"  time="-9999999/1" value="0" leadInLength="0/1"  />
              <InterpolatingParam id="1414" interp="linr"  time="-9999999/1" value="0" leadInLength="0/1"  />
             </VectorParam>
             <VectorParam id="1415"  name="shear">
              <InterpolatingParam id="1416" interp="linr"  time="-9999999/1" value="0" leadInLength="0/1"  />
              <InterpolatingParam id="1417" interp="linr"  time="-9999999/1" value="0" leadInLength="0/1"  />
              <InterpolatingParam id="1418" interp="linr"  time="-9999999/1" value="0" leadInLength="0/1"  />
             </VectorParam>
             <VectorParam id="1419"  name="scale">
              <InterpolatingParam id="1420" interp="linr"  time="-9999999/1" value="1" leadInLength="0/1"  />
              <InterpolatingParam id="1421" interp="linr"  time="-9999999/1" value="1" leadInLength="0/1"  />
              <InterpolatingParam id="1422" interp="linr"  time="-9999999/1" value="1" leadInLength="0/1"  />
             </VectorParam>
             <VectorParam id="1423"  name="anchor">
              <InterpolatingParam id="1424" interp="linr"  time="0/1" value="0" leadInLength="0/1"  />
              <InterpolatingParam id="1425" interp="linr"  time="0/1" value="0" leadInLength="0/1"  />
              <InterpolatingParam id="1426" interp="linr"  time="0/1" value="0" leadInLength="0/1"  />
             </VectorParam>
            </Transformer>
            <Parameters>
             <VectorParam id="1427"  name="sourceCrop">
              <InterpolatingParam id="1428" interp="linr"  time="0/1" value="0" leadInLength="0/1"  />
              <InterpolatingParam id="1429" interp="linr"  time="0/1" value="0" leadInLength="0/1"  />
              <InterpolatingParam id="1430" interp="linr"  time="0/1" value="0" leadInLength="0/1"  />
              <InterpolatingParam id="1431" interp="linr"  time="0/1" value="0" leadInLength="0/1"  />
             </VectorParam>
             <VectorParam id="1432"  name="geometryCrop">
              <InterpolatingParam id="1433" interp="linr"  time="-9999999/1" value="0" leadInLength="0/1"  />
              <InterpolatingParam id="1434" interp="linr"  time="-9999999/1" value="0" leadInLength="0/1"  />
              <InterpolatingParam id="1435" interp="linr"  time="-9999999/1" value="0" leadInLength="0/1"  />
              <InterpolatingParam id="1436" interp="linr"  time="-9999999/1" value="0" leadInLength="0/1"  />
             </VectorParam>
             <InterpolatingParam id="1437" interp="linr"  time="-9999999/1" value="1" leadInLength="0/1"  name="opacity"/>
             <InterpolatingParam id="1438" interp="linr"  time="0/1" value="0" leadInLength="0/1"  name="cursorOpacity"/>
             <InterpolatingParam id="1439" interp="linr"  time="0/1" value="0" leadInLength="0/1"  name="recordedCursorOpacity"/>
             <InterpolatingParam id="1440" interp="linr"  time="0/1" value="0" leadInLength="0/1"  name="cursorScale"/>
            </Parameters>
            <Attributes>
             <Attribute id="1441" value="" name="ident"/>
            </Attributes>
            <MetaData>
             <entry key="AutoAppliedSmartFocus" val="False"/>
             <entry key="WinSubProjectDisplayName" val=""/>
            </MetaData>
            <ExtraData>
             <Entry key="ZoomPanBin">
              <ZoomPanBin id="1442"  >
               <ZoomPanKeyframes>
                <ZoomPanKeyframe id="1443" timeRangeEnd="-9999999/1" timeRangeDuration="0/1" interpolaterName="linr"  />
               </ZoomPanKeyframes>
              </ZoomPanBin>
             </Entry>
             <Entry key="CursorEffectBin">
              <CursorEffectBin id="1444"  >
               <CursorEffectKeyframes>
               </CursorEffectKeyframes>
              </CursorEffectBin>
             </Entry>
            </ExtraData>
           </ScreenIMFile>
           <ScreenVMFile id="1445" start="6094" duration="206" scalar="1/1" mediaStart="3255/1" mediaDuration="206/1" trackNumber="0" src="4" >
            <Transformer>
             <VectorParam id="1446"  name="translation">
              <InterpolatingParam id="1447" interp="linr"  time="-9999999/1" value="0" leadInLength="0/1"  />
              <InterpolatingParam id="1448" interp="linr"  time="-9999999/1" value="0" leadInLength="0/1"  />
              <InterpolatingParam id="1449" interp="linr"  time="-9999999/1" value="0" leadInLength="0/1"  />
             </VectorParam>
             <VectorParam id="1450"  name="rotation">
              <InterpolatingParam id="1451" interp="linr"  time="-9999999/1" value="0" leadInLength="0/1"  />
              <InterpolatingParam id="1452" interp="linr"  time="-9999999/1" value="0" leadInLength="0/1"  />
              <InterpolatingParam id="1453" interp="linr"  time="-9999999/1" value="0" leadInLength="0/1"  />
             </VectorParam>
             <VectorParam id="1454"  name="shear">
              <InterpolatingParam id="1455" interp="linr"  time="-9999999/1" value="0" leadInLength="0/1"  />
              <InterpolatingParam id="1456" interp="linr"  time="-9999999/1" value="0" leadInLength="0/1"  />
              <InterpolatingParam id="1457" interp="linr"  time="-9999999/1" value="0" leadInLength="0/1"  />
             </VectorParam>
             <VectorParam id="1458"  name="scale">
              <InterpolatingParam id="1459" interp="linr"  time="-9999999/1" value="1" leadInLength="0/1"  />
              <InterpolatingParam id="1460" interp="linr"  time="-9999999/1" value="1" leadInLength="0/1"  />
              <InterpolatingParam id="1461" interp="linr"  time="-9999999/1" value="1" leadInLength="0/1"  />
             </VectorParam>
             <VectorParam id="1462"  name="anchor">
              <InterpolatingParam id="1463" interp="linr"  time="0/1" value="0" leadInLength="0/1"  />
              <InterpolatingParam id="1464" interp="linr"  time="0/1" value="0" leadInLength="0/1"  />
              <InterpolatingParam id="1465" interp="linr"  time="0/1" value="0" leadInLength="0/1"  />
             </VectorParam>
            </Transformer>
            <Parameters>
             <VectorParam id="1466"  name="sourceCrop">
              <InterpolatingParam id="1467" interp="linr"  time="0/1" value="0" leadInLength="0/1"  />
              <InterpolatingParam id="1468" interp="linr"  time="0/1" value="0" leadInLength="0/1"  />
              <InterpolatingParam id="1469" interp="linr"  time="0/1" value="0" leadInLength="0/1"  />
              <InterpolatingParam id="1470" interp="linr"  time="0/1" value="0" leadInLength="0/1"  />
             </VectorParam>
             <VectorParam id="1471"  name="geometryCrop">
              <InterpolatingParam id="1472" interp="linr"  time="-9999999/1" value="0" leadInLength="0/1"  />
              <InterpolatingParam id="1473" interp="linr"  time="-9999999/1" value="0" leadInLength="0/1"  />
              <InterpolatingParam id="1474" interp="linr"  time="-9999999/1" value="0" leadInLength="0/1"  />
              <InterpolatingParam id="1475" interp="linr"  time="-9999999/1" value="0" leadInLength="0/1"  />
             </VectorParam>
             <InterpolatingParam id="1476" interp="linr"  time="-9999999/1" value="1" leadInLength="0/1"  name="opacity"/>
             <InterpolatingParam id="1477" interp="linr"  time="0/1" value="0" leadInLength="0/1"  name="cursorOpacity"/>
             <InterpolatingParam id="1478" interp="linr"  time="0/1" value="0" leadInLength="0/1"  name="cursorScale"/>
            </Parameters>
            <Attributes>
             <Attribute id="1479" value="" name="ident"/>
            </Attributes>
            <MetaData>
             <entry key="AutoAppliedSmartFocus" val="False"/>
             <entry key="WinSubProjectDisplayName" val=""/>
            </MetaData>
            <ExtraData>
             <Entry key="ZoomPanBin">
              <ZoomPanBin id="1480"  >
               <ZoomPanKeyframes>
                <ZoomPanKeyframe id="1481" timeRangeEnd="-9999999/1" timeRangeDuration="0/1" interpolaterName="linr"  />
               </ZoomPanKeyframes>
              </ZoomPanBin>
             </Entry>
             <Entry key="CursorEffectBin">
              <CursorEffectBin id="1482"  >
               <CursorEffectKeyframes>
               </CursorEffectKeyframes>
              </CursorEffectBin>
             </Entry>
            </ExtraData>
           </ScreenVMFile>
           <ScreenIMFile id="1483" start="6300" duration="90" scalar="1/1" mediaStart="3461/1" mediaDuration="1/1" trackNumber="0" src="4" trimStartSum="0/1" >
            <Transformer>
             <VectorParam id="1484"  name="translation">
              <InterpolatingParam id="1485" interp="linr"  time="-9999999/1" value="0" leadInLength="0/1"  />
              <InterpolatingParam id="1486" interp="linr"  time="-9999999/1" value="0" leadInLength="0/1"  />
              <InterpolatingParam id="1487" interp="linr"  time="-9999999/1" value="0" leadInLength="0/1"  />
             </VectorParam>
             <VectorParam id="1488"  name="rotation">
              <InterpolatingParam id="1489" interp="linr"  time="-9999999/1" value="0" leadInLength="0/1"  />
              <InterpolatingParam id="1490" interp="linr"  time="-9999999/1" value="0" leadInLength="0/1"  />
              <InterpolatingParam id="1491" interp="linr"  time="-9999999/1" value="0" leadInLength="0/1"  />
             </VectorParam>
             <VectorParam id="1492"  name="shear">
              <InterpolatingParam id="1493" interp="linr"  time="-9999999/1" value="0" leadInLength="0/1"  />
              <InterpolatingParam id="1494" interp="linr"  time="-9999999/1" value="0" leadInLength="0/1"  />
              <InterpolatingParam id="1495" interp="linr"  time="-9999999/1" value="0" leadInLength="0/1"  />
             </VectorParam>
             <VectorParam id="1496"  name="scale">
              <InterpolatingParam id="1497" interp="linr"  time="-9999999/1" value="1" leadInLength="0/1"  />
              <InterpolatingParam id="1498" interp="linr"  time="-9999999/1" value="1" leadInLength="0/1"  />
              <InterpolatingParam id="1499" interp="linr"  time="-9999999/1" value="1" leadInLength="0/1"  />
             </VectorParam>
             <VectorParam id="1500"  name="anchor">
              <InterpolatingParam id="1501" interp="linr"  time="0/1" value="0" leadInLength="0/1"  />
              <InterpolatingParam id="1502" interp="linr"  time="0/1" value="0" leadInLength="0/1"  />
              <InterpolatingParam id="1503" interp="linr"  time="0/1" value="0" leadInLength="0/1"  />
             </VectorParam>
            </Transformer>
            <Parameters>
             <VectorParam id="1504"  name="sourceCrop">
              <InterpolatingParam id="1505" interp="linr"  time="0/1" value="0" leadInLength="0/1"  />
              <InterpolatingParam id="1506" interp="linr"  time="0/1" value="0" leadInLength="0/1"  />
              <InterpolatingParam id="1507" interp="linr"  time="0/1" value="0" leadInLength="0/1"  />
              <InterpolatingParam id="1508" interp="linr"  time="0/1" value="0" leadInLength="0/1"  />
             </VectorParam>
             <VectorParam id="1509"  name="geometryCrop">
              <InterpolatingParam id="1510" interp="linr"  time="-9999999/1" value="0" leadInLength="0/1"  />
              <InterpolatingParam id="1511" interp="linr"  time="-9999999/1" value="0" leadInLength="0/1"  />
              <InterpolatingParam id="1512" interp="linr"  time="-9999999/1" value="0" leadInLength="0/1"  />
              <InterpolatingParam id="1513" interp="linr"  time="-9999999/1" value="0" leadInLength="0/1"  />
             </VectorParam>
             <InterpolatingParam id="1514" interp="linr"  time="-9999999/1" value="1" leadInLength="0/1"  name="opacity"/>
             <InterpolatingParam id="1515" interp="linr"  time="0/1" value="0" leadInLength="0/1"  name="cursorOpacity"/>
             <InterpolatingParam id="1516" interp="linr"  time="0/1" value="0" leadInLength="0/1"  name="recordedCursorOpacity"/>
             <InterpolatingParam id="1517" interp="linr"  time="0/1" value="0" leadInLength="0/1"  name="cursorScale"/>
            </Parameters>
            <Attributes>
             <Attribute id="1518" value="" name="ident"/>
            </Attributes>
            <MetaData>
             <entry key="AutoAppliedSmartFocus" val="False"/>
             <entry key="WinSubProjectDisplayName" val=""/>
            </MetaData>
            <ExtraData>
             <Entry key="ZoomPanBin">
              <ZoomPanBin id="1519"  >
               <ZoomPanKeyframes>
                <ZoomPanKeyframe id="1520" timeRangeEnd="-9999999/1" timeRangeDuration="0/1" interpolaterName="linr"  />
               </ZoomPanKeyframes>
              </ZoomPanBin>
             </Entry>
             <Entry key="CursorEffectBin">
              <CursorEffectBin id="1521"  >
               <CursorEffectKeyframes>
               </CursorEffectKeyframes>
              </CursorEffectBin>
             </Entry>
            </ExtraData>
           </ScreenIMFile>
           <ScreenVMFile id="1522" start="6390" duration="57" scalar="1/1" mediaStart="3461/1" mediaDuration="57/1" trackNumber="0" src="4" >
            <Transformer>
             <VectorParam id="1523"  name="translation">
              <InterpolatingParam id="1524" interp="linr"  time="-9999999/1" value="0" leadInLength="0/1"  />
              <InterpolatingParam id="1525" interp="linr"  time="-9999999/1" value="0" leadInLength="0/1"  />
              <InterpolatingParam id="1526" interp="linr"  time="-9999999/1" value="0" leadInLength="0/1"  />
             </VectorParam>
             <VectorParam id="1527"  name="rotation">
              <InterpolatingParam id="1528" interp="linr"  time="-9999999/1" value="0" leadInLength="0/1"  />
              <InterpolatingParam id="1529" interp="linr"  time="-9999999/1" value="0" leadInLength="0/1"  />
              <InterpolatingParam id="1530" interp="linr"  time="-9999999/1" value="0" leadInLength="0/1"  />
             </VectorParam>
             <VectorParam id="1531"  name="shear">
              <InterpolatingParam id="1532" interp="linr"  time="-9999999/1" value="0" leadInLength="0/1"  />
              <InterpolatingParam id="1533" interp="linr"  time="-9999999/1" value="0" leadInLength="0/1"  />
              <InterpolatingParam id="1534" interp="linr"  time="-9999999/1" value="0" leadInLength="0/1"  />
             </VectorParam>
             <VectorParam id="1535"  name="scale">
              <InterpolatingParam id="1536" interp="linr"  time="-9999999/1" value="1" leadInLength="0/1"  />
              <InterpolatingParam id="1537" interp="linr"  time="-9999999/1" value="1" leadInLength="0/1"  />
              <InterpolatingParam id="1538" interp="linr"  time="-9999999/1" value="1" leadInLength="0/1"  />
             </VectorParam>
             <VectorParam id="1539"  name="anchor">
              <InterpolatingParam id="1540" interp="linr"  time="0/1" value="0" leadInLength="0/1"  />
              <InterpolatingParam id="1541" interp="linr"  time="0/1" value="0" leadInLength="0/1"  />
              <InterpolatingParam id="1542" interp="linr"  time="0/1" value="0" leadInLength="0/1"  />
             </VectorParam>
            </Transformer>
            <Parameters>
             <VectorParam id="1543"  name="sourceCrop">
              <InterpolatingParam id="1544" interp="linr"  time="0/1" value="0" leadInLength="0/1"  />
              <InterpolatingParam id="1545" interp="linr"  time="0/1" value="0" leadInLength="0/1"  />
              <InterpolatingParam id="1546" interp="linr"  time="0/1" value="0" leadInLength="0/1"  />
              <InterpolatingParam id="1547" interp="linr"  time="0/1" value="0" leadInLength="0/1"  />
             </VectorParam>
             <VectorParam id="1548"  name="geometryCrop">
              <InterpolatingParam id="1549" interp="linr"  time="-9999999/1" value="0" leadInLength="0/1"  />
              <InterpolatingParam id="1550" interp="linr"  time="-9999999/1" value="0" leadInLength="0/1"  />
              <InterpolatingParam id="1551" interp="linr"  time="-9999999/1" value="0" leadInLength="0/1"  />
              <InterpolatingParam id="1552" interp="linr"  time="-9999999/1" value="0" leadInLength="0/1"  />
             </VectorParam>
             <InterpolatingParam id="1553" interp="linr"  time="-9999999/1" value="1" leadInLength="0/1"  name="opacity"/>
             <InterpolatingParam id="1554" interp="linr"  time="0/1" value="0" leadInLength="0/1"  name="cursorOpacity"/>
             <InterpolatingParam id="1555" interp="linr"  time="0/1" value="0" leadInLength="0/1"  name="cursorScale"/>
            </Parameters>
            <Attributes>
             <Attribute id="1556" value="" name="ident"/>
            </Attributes>
            <MetaData>
             <entry key="AutoAppliedSmartFocus" val="False"/>
             <entry key="WinSubProjectDisplayName" val=""/>
            </MetaData>
            <ExtraData>
             <Entry key="ZoomPanBin">
              <ZoomPanBin id="1557"  >
               <ZoomPanKeyframes>
                <ZoomPanKeyframe id="1558" timeRangeEnd="-9999999/1" timeRangeDuration="0/1" interpolaterName="linr"  />
               </ZoomPanKeyframes>
              </ZoomPanBin>
             </Entry>
             <Entry key="CursorEffectBin">
              <CursorEffectBin id="1559"  >
               <CursorEffectKeyframes>
               </CursorEffectKeyframes>
              </CursorEffectBin>
             </Entry>
            </ExtraData>
           </ScreenVMFile>
           <ScreenIMFile id="1560" start="6447" duration="180" scalar="1/1" mediaStart="3518/1" mediaDuration="1/1" trackNumber="0" src="4" trimStartSum="0/1" >
            <Transformer>
             <VectorParam id="1561"  name="translation">
              <InterpolatingParam id="1562" interp="linr"  time="-9999999/1" value="0" leadInLength="0/1"  />
              <InterpolatingParam id="1563" interp="linr"  time="-9999999/1" value="0" leadInLength="0/1"  />
              <InterpolatingParam id="1564" interp="linr"  time="-9999999/1" value="0" leadInLength="0/1"  />
             </VectorParam>
             <VectorParam id="1565"  name="rotation">
              <InterpolatingParam id="1566" interp="linr"  time="-9999999/1" value="0" leadInLength="0/1"  />
              <InterpolatingParam id="1567" interp="linr"  time="-9999999/1" value="0" leadInLength="0/1"  />
              <InterpolatingParam id="1568" interp="linr"  time="-9999999/1" value="0" leadInLength="0/1"  />
             </VectorParam>
             <VectorParam id="1569"  name="shear">
              <InterpolatingParam id="1570" interp="linr"  time="-9999999/1" value="0" leadInLength="0/1"  />
              <InterpolatingParam id="1571" interp="linr"  time="-9999999/1" value="0" leadInLength="0/1"  />
              <InterpolatingParam id="1572" interp="linr"  time="-9999999/1" value="0" leadInLength="0/1"  />
             </VectorParam>
             <VectorParam id="1573"  name="scale">
              <InterpolatingParam id="1574" interp="linr"  time="-9999999/1" value="1" leadInLength="0/1"  />
              <InterpolatingParam id="1575" interp="linr"  time="-9999999/1" value="1" leadInLength="0/1"  />
              <InterpolatingParam id="1576" interp="linr"  time="-9999999/1" value="1" leadInLength="0/1"  />
             </VectorParam>
             <VectorParam id="1577"  name="anchor">
              <InterpolatingParam id="1578" interp="linr"  time="0/1" value="0" leadInLength="0/1"  />
              <InterpolatingParam id="1579" interp="linr"  time="0/1" value="0" leadInLength="0/1"  />
              <InterpolatingParam id="1580" interp="linr"  time="0/1" value="0" leadInLength="0/1"  />
             </VectorParam>
            </Transformer>
            <Parameters>
             <VectorParam id="1581"  name="sourceCrop">
              <InterpolatingParam id="1582" interp="linr"  time="0/1" value="0" leadInLength="0/1"  />
              <InterpolatingParam id="1583" interp="linr"  time="0/1" value="0" leadInLength="0/1"  />
              <InterpolatingParam id="1584" interp="linr"  time="0/1" value="0" leadInLength="0/1"  />
              <InterpolatingParam id="1585" interp="linr"  time="0/1" value="0" leadInLength="0/1"  />
             </VectorParam>
             <VectorParam id="1586"  name="geometryCrop">
              <InterpolatingParam id="1587" interp="linr"  time="-9999999/1" value="0" leadInLength="0/1"  />
              <InterpolatingParam id="1588" interp="linr"  time="-9999999/1" value="0" leadInLength="0/1"  />
              <InterpolatingParam id="1589" interp="linr"  time="-9999999/1" value="0" leadInLength="0/1"  />
              <InterpolatingParam id="1590" interp="linr"  time="-9999999/1" value="0" leadInLength="0/1"  />
             </VectorParam>
             <InterpolatingParam id="1591" interp="linr"  time="-9999999/1" value="1" leadInLength="0/1"  name="opacity"/>
             <InterpolatingParam id="1592" interp="linr"  time="0/1" value="0" leadInLength="0/1"  name="cursorOpacity"/>
             <InterpolatingParam id="1593" interp="linr"  time="0/1" value="0" leadInLength="0/1"  name="recordedCursorOpacity"/>
             <InterpolatingParam id="1594" interp="linr"  time="0/1" value="0" leadInLength="0/1"  name="cursorScale"/>
            </Parameters>
            <Attributes>
             <Attribute id="1595" value="" name="ident"/>
            </Attributes>
            <MetaData>
             <entry key="AutoAppliedSmartFocus" val="False"/>
             <entry key="WinSubProjectDisplayName" val=""/>
            </MetaData>
            <ExtraData>
             <Entry key="ZoomPanBin">
              <ZoomPanBin id="1596"  >
               <ZoomPanKeyframes>
                <ZoomPanKeyframe id="1597" timeRangeEnd="-9999999/1" timeRangeDuration="0/1" interpolaterName="linr"  />
               </ZoomPanKeyframes>
              </ZoomPanBin>
             </Entry>
             <Entry key="CursorEffectBin">
              <CursorEffectBin id="1598"  >
               <CursorEffectKeyframes>
               </CursorEffectKeyframes>
              </CursorEffectBin>
             </Entry>
            </ExtraData>
           </ScreenIMFile>
           <ScreenVMFile id="1599" start="6627" duration="247" scalar="1/1" mediaStart="3518/1" mediaDuration="247/1" trackNumber="0" src="4" >
            <Transformer>
             <VectorParam id="1600"  name="translation">
              <InterpolatingParam id="1601" interp="linr"  time="-9999999/1" value="0" leadInLength="0/1"  />
              <InterpolatingParam id="1602" interp="linr"  time="-9999999/1" value="0" leadInLength="0/1"  />
              <InterpolatingParam id="1603" interp="linr"  time="-9999999/1" value="0" leadInLength="0/1"  />
             </VectorParam>
             <VectorParam id="1604"  name="rotation">
              <InterpolatingParam id="1605" interp="linr"  time="-9999999/1" value="0" leadInLength="0/1"  />
              <InterpolatingParam id="1606" interp="linr"  time="-9999999/1" value="0" leadInLength="0/1"  />
              <InterpolatingParam id="1607" interp="linr"  time="-9999999/1" value="0" leadInLength="0/1"  />
             </VectorParam>
             <VectorParam id="1608"  name="shear">
              <InterpolatingParam id="1609" interp="linr"  time="-9999999/1" value="0" leadInLength="0/1"  />
              <InterpolatingParam id="1610" interp="linr"  time="-9999999/1" value="0" leadInLength="0/1"  />
              <InterpolatingParam id="1611" interp="linr"  time="-9999999/1" value="0" leadInLength="0/1"  />
             </VectorParam>
             <VectorParam id="1612"  name="scale">
              <InterpolatingParam id="1613" interp="linr"  time="-9999999/1" value="1" leadInLength="0/1"  />
              <InterpolatingParam id="1614" interp="linr"  time="-9999999/1" value="1" leadInLength="0/1"  />
              <InterpolatingParam id="1615" interp="linr"  time="-9999999/1" value="1" leadInLength="0/1"  />
             </VectorParam>
             <VectorParam id="1616"  name="anchor">
              <InterpolatingParam id="1617" interp="linr"  time="0/1" value="0" leadInLength="0/1"  />
              <InterpolatingParam id="1618" interp="linr"  time="0/1" value="0" leadInLength="0/1"  />
              <InterpolatingParam id="1619" interp="linr"  time="0/1" value="0" leadInLength="0/1"  />
             </VectorParam>
            </Transformer>
            <Parameters>
             <VectorParam id="1620"  name="sourceCrop">
              <InterpolatingParam id="1621" interp="linr"  time="0/1" value="0" leadInLength="0/1"  />
              <InterpolatingParam id="1622" interp="linr"  time="0/1" value="0" leadInLength="0/1"  />
              <InterpolatingParam id="1623" interp="linr"  time="0/1" value="0" leadInLength="0/1"  />
              <InterpolatingParam id="1624" interp="linr"  time="0/1" value="0" leadInLength="0/1"  />
             </VectorParam>
             <VectorParam id="1625"  name="geometryCrop">
              <InterpolatingParam id="1626" interp="linr"  time="-9999999/1" value="0" leadInLength="0/1"  />
              <InterpolatingParam id="1627" interp="linr"  time="-9999999/1" value="0" leadInLength="0/1"  />
              <InterpolatingParam id="1628" interp="linr"  time="-9999999/1" value="0" leadInLength="0/1"  />
              <InterpolatingParam id="1629" interp="linr"  time="-9999999/1" value="0" leadInLength="0/1"  />
             </VectorParam>
             <InterpolatingParam id="1630" interp="linr"  time="-9999999/1" value="1" leadInLength="0/1"  name="opacity"/>
             <InterpolatingParam id="1631" interp="linr"  time="0/1" value="0" leadInLength="0/1"  name="cursorOpacity"/>
             <InterpolatingParam id="1632" interp="linr"  time="0/1" value="0" leadInLength="0/1"  name="cursorScale"/>
            </Parameters>
            <Attributes>
             <Attribute id="1633" value="" name="ident"/>
            </Attributes>
            <MetaData>
             <entry key="AutoAppliedSmartFocus" val="False"/>
             <entry key="WinSubProjectDisplayName" val=""/>
            </MetaData>
            <ExtraData>
             <Entry key="ZoomPanBin">
              <ZoomPanBin id="1634"  >
               <ZoomPanKeyframes>
                <ZoomPanKeyframe id="1635" timeRangeEnd="-9999999/1" timeRangeDuration="0/1" interpolaterName="linr"  />
               </ZoomPanKeyframes>
              </ZoomPanBin>
             </Entry>
             <Entry key="CursorEffectBin">
              <CursorEffectBin id="1636"  >
               <CursorEffectKeyframes>
               </CursorEffectKeyframes>
              </CursorEffectBin>
             </Entry>
            </ExtraData>
           </ScreenVMFile>
           <ScreenIMFile id="1637" start="6874" duration="270" scalar="1/1" mediaStart="3765/1" mediaDuration="1/1" trackNumber="0" src="4" trimStartSum="0/1" >
            <Transformer>
             <VectorParam id="1638"  name="translation">
              <InterpolatingParam id="1639" interp="linr"  time="-9999999/1" value="0" leadInLength="0/1"  />
              <InterpolatingParam id="1640" interp="linr"  time="-9999999/1" value="0" leadInLength="0/1"  />
              <InterpolatingParam id="1641" interp="linr"  time="-9999999/1" value="0" leadInLength="0/1"  />
             </VectorParam>
             <VectorParam id="1642"  name="rotation">
              <InterpolatingParam id="1643" interp="linr"  time="-9999999/1" value="0" leadInLength="0/1"  />
              <InterpolatingParam id="1644" interp="linr"  time="-9999999/1" value="0" leadInLength="0/1"  />
              <InterpolatingParam id="1645" interp="linr"  time="-9999999/1" value="0" leadInLength="0/1"  />
             </VectorParam>
             <VectorParam id="1646"  name="shear">
              <InterpolatingParam id="1647" interp="linr"  time="-9999999/1" value="0" leadInLength="0/1"  />
              <InterpolatingParam id="1648" interp="linr"  time="-9999999/1" value="0" leadInLength="0/1"  />
              <InterpolatingParam id="1649" interp="linr"  time="-9999999/1" value="0" leadInLength="0/1"  />
             </VectorParam>
             <VectorParam id="1650"  name="scale">
              <InterpolatingParam id="1651" interp="linr"  time="-9999999/1" value="1" leadInLength="0/1"  />
              <InterpolatingParam id="1652" interp="linr"  time="-9999999/1" value="1" leadInLength="0/1"  />
              <InterpolatingParam id="1653" interp="linr"  time="-9999999/1" value="1" leadInLength="0/1"  />
             </VectorParam>
             <VectorParam id="1654"  name="anchor">
              <InterpolatingParam id="1655" interp="linr"  time="0/1" value="0" leadInLength="0/1"  />
              <InterpolatingParam id="1656" interp="linr"  time="0/1" value="0" leadInLength="0/1"  />
              <InterpolatingParam id="1657" interp="linr"  time="0/1" value="0" leadInLength="0/1"  />
             </VectorParam>
            </Transformer>
            <Parameters>
             <VectorParam id="1658"  name="sourceCrop">
              <InterpolatingParam id="1659" interp="linr"  time="0/1" value="0" leadInLength="0/1"  />
              <InterpolatingParam id="1660" interp="linr"  time="0/1" value="0" leadInLength="0/1"  />
              <InterpolatingParam id="1661" interp="linr"  time="0/1" value="0" leadInLength="0/1"  />
              <InterpolatingParam id="1662" interp="linr"  time="0/1" value="0" leadInLength="0/1"  />
             </VectorParam>
             <VectorParam id="1663"  name="geometryCrop">
              <InterpolatingParam id="1664" interp="linr"  time="-9999999/1" value="0" leadInLength="0/1"  />
              <InterpolatingParam id="1665" interp="linr"  time="-9999999/1" value="0" leadInLength="0/1"  />
              <InterpolatingParam id="1666" interp="linr"  time="-9999999/1" value="0" leadInLength="0/1"  />
              <InterpolatingParam id="1667" interp="linr"  time="-9999999/1" value="0" leadInLength="0/1"  />
             </VectorParam>
             <InterpolatingParam id="1668" interp="linr"  time="-9999999/1" value="1" leadInLength="0/1"  name="opacity"/>
             <InterpolatingParam id="1669" interp="linr"  time="0/1" value="0" leadInLength="0/1"  name="cursorOpacity"/>
             <InterpolatingParam id="1670" interp="linr"  time="0/1" value="0" leadInLength="0/1"  name="recordedCursorOpacity"/>
             <InterpolatingParam id="1671" interp="linr"  time="0/1" value="0" leadInLength="0/1"  name="cursorScale"/>
            </Parameters>
            <Attributes>
             <Attribute id="1672" value="" name="ident"/>
            </Attributes>
            <MetaData>
             <entry key="AutoAppliedSmartFocus" val="False"/>
             <entry key="WinSubProjectDisplayName" val=""/>
            </MetaData>
            <ExtraData>
             <Entry key="ZoomPanBin">
              <ZoomPanBin id="1673"  >
               <ZoomPanKeyframes>
                <ZoomPanKeyframe id="1674" timeRangeEnd="-9999999/1" timeRangeDuration="0/1" interpolaterName="linr"  />
               </ZoomPanKeyframes>
              </ZoomPanBin>
             </Entry>
             <Entry key="CursorEffectBin">
              <CursorEffectBin id="1675"  >
               <CursorEffectKeyframes>
               </CursorEffectKeyframes>
              </CursorEffectBin>
             </Entry>
            </ExtraData>
           </ScreenIMFile>
           <ScreenVMFile id="1676" start="7144" duration="486" scalar="1/1" mediaStart="3765/1" mediaDuration="486/1" trackNumber="0" src="4" >
            <Transformer>
             <VectorParam id="1677"  name="translation">
              <InterpolatingParam id="1678" interp="linr"  time="-9999999/1" value="0" leadInLength="0/1"  />
              <InterpolatingParam id="1679" interp="linr"  time="-9999999/1" value="0" leadInLength="0/1"  />
              <InterpolatingParam id="1680" interp="linr"  time="-9999999/1" value="0" leadInLength="0/1"  />
             </VectorParam>
             <VectorParam id="1681"  name="rotation">
              <InterpolatingParam id="1682" interp="linr"  time="-9999999/1" value="0" leadInLength="0/1"  />
              <InterpolatingParam id="1683" interp="linr"  time="-9999999/1" value="0" leadInLength="0/1"  />
              <InterpolatingParam id="1684" interp="linr"  time="-9999999/1" value="0" leadInLength="0/1"  />
             </VectorParam>
             <VectorParam id="1685"  name="shear">
              <InterpolatingParam id="1686" interp="linr"  time="-9999999/1" value="0" leadInLength="0/1"  />
              <InterpolatingParam id="1687" interp="linr"  time="-9999999/1" value="0" leadInLength="0/1"  />
              <InterpolatingParam id="1688" interp="linr"  time="-9999999/1" value="0" leadInLength="0/1"  />
             </VectorParam>
             <VectorParam id="1689"  name="scale">
              <InterpolatingParam id="1690" interp="linr"  time="-9999999/1" value="1" leadInLength="0/1"  />
              <InterpolatingParam id="1691" interp="linr"  time="-9999999/1" value="1" leadInLength="0/1"  />
              <InterpolatingParam id="1692" interp="linr"  time="-9999999/1" value="1" leadInLength="0/1"  />
             </VectorParam>
             <VectorParam id="1693"  name="anchor">
              <InterpolatingParam id="1694" interp="linr"  time="0/1" value="0" leadInLength="0/1"  />
              <InterpolatingParam id="1695" interp="linr"  time="0/1" value="0" leadInLength="0/1"  />
              <InterpolatingParam id="1696" interp="linr"  time="0/1" value="0" leadInLength="0/1"  />
             </VectorParam>
            </Transformer>
            <Parameters>
             <VectorParam id="1697"  name="sourceCrop">
              <InterpolatingParam id="1698" interp="linr"  time="0/1" value="0" leadInLength="0/1"  />
              <InterpolatingParam id="1699" interp="linr"  time="0/1" value="0" leadInLength="0/1"  />
              <InterpolatingParam id="1700" interp="linr"  time="0/1" value="0" leadInLength="0/1"  />
              <InterpolatingParam id="1701" interp="linr"  time="0/1" value="0" leadInLength="0/1"  />
             </VectorParam>
             <VectorParam id="1702"  name="geometryCrop">
              <InterpolatingParam id="1703" interp="linr"  time="-9999999/1" value="0" leadInLength="0/1"  />
              <InterpolatingParam id="1704" interp="linr"  time="-9999999/1" value="0" leadInLength="0/1"  />
              <InterpolatingParam id="1705" interp="linr"  time="-9999999/1" value="0" leadInLength="0/1"  />
              <InterpolatingParam id="1706" interp="linr"  time="-9999999/1" value="0" leadInLength="0/1"  />
             </VectorParam>
             <InterpolatingParam id="1707" interp="linr"  time="-9999999/1" value="1" leadInLength="0/1"  name="opacity"/>
             <InterpolatingParam id="1708" interp="linr"  time="0/1" value="0" leadInLength="0/1"  name="cursorOpacity"/>
             <InterpolatingParam id="1709" interp="linr"  time="0/1" value="0" leadInLength="0/1"  name="cursorScale"/>
            </Parameters>
            <Attributes>
             <Attribute id="1710" value="" name="ident"/>
            </Attributes>
            <MetaData>
             <entry key="AutoAppliedSmartFocus" val="False"/>
             <entry key="WinSubProjectDisplayName" val=""/>
            </MetaData>
            <ExtraData>
             <Entry key="ZoomPanBin">
              <ZoomPanBin id="1711"  >
               <ZoomPanKeyframes>
                <ZoomPanKeyframe id="1712" timeRangeEnd="-9999999/1" timeRangeDuration="0/1" interpolaterName="linr"  />
               </ZoomPanKeyframes>
              </ZoomPanBin>
             </Entry>
             <Entry key="CursorEffectBin">
              <CursorEffectBin id="1713"  >
               <CursorEffectKeyframes>
               </CursorEffectKeyframes>
              </CursorEffectBin>
             </Entry>
            </ExtraData>
           </ScreenVMFile>
          </Medias>
         </GenericTrack>
        </StitchedMedia>
        <StitchedMedia id="1714" start="5999" duration="1603" scalar="1/1" mediaStart="6027/1" mediaDuration="1603/1" minMediaStart="-108000/1" >
         <Transformer>
          <VectorParam id="1715"  name="translation">
           <InterpolatingParam id="1716" interp="linr"  time="-9999999/1" value="-1.2018419934292281e-011" leadInLength="0/1"  />
           <InterpolatingParam id="1717" interp="linr"  time="-9999999/1" value="-1.0970779840135947e-011" leadInLength="0/1"  />
           <InterpolatingParam id="1718" interp="linr"  time="-9999999/1" value="0" leadInLength="0/1"  />
          </VectorParam>
          <VectorParam id="1719"  name="rotation">
           <InterpolatingParam id="1720" interp="linr"  time="-9999999/1" value="0" leadInLength="0/1"  />
           <InterpolatingParam id="1721" interp="linr"  time="-9999999/1" value="0" leadInLength="0/1"  />
           <InterpolatingParam id="1722" interp="linr"  time="-9999999/1" value="0" leadInLength="0/1"  />
          </VectorParam>
          <VectorParam id="1723"  name="shear">
           <InterpolatingParam id="1724" interp="linr"  time="-9999999/1" value="0" leadInLength="0/1"  />
           <InterpolatingParam id="1725" interp="linr"  time="-9999999/1" value="0" leadInLength="0/1"  />
           <InterpolatingParam id="1726" interp="linr"  time="-9999999/1" value="0" leadInLength="0/1"  />
          </VectorParam>
          <VectorParam id="1727"  name="scale">
           <InterpolatingParam id="1728" interp="linr"  time="-9999999/1" value="1" leadInLength="0/1"  />
           <InterpolatingParam id="1729" interp="linr"  time="-9999999/1" value="1" leadInLength="0/1"  />
           <InterpolatingParam id="1730" interp="linr"  time="-9999999/1" value="1" leadInLength="0/1"  />
          </VectorParam>
          <VectorParam id="1731"  name="anchor">
           <InterpolatingParam id="1732" interp="linr"  >
            <Keyframes>
            <Keyframe id="1733"  time="0/1" value="0" leadInLength="0/1"  />
            <Keyframe id="1734"  time="1524/1" value="0" leadInLength="0/1"  />
            <Keyframe id="1735"  time="2212/1" value="0" leadInLength="0/1"  />
            <Keyframe id="1736"  time="2419/1" value="0" leadInLength="0/1"  />
            <Keyframe id="1737"  time="2746/1" value="0" leadInLength="0/1"  />
            <Keyframe id="1738"  time="2966/1" value="0" leadInLength="0/1"  />
            <Keyframe id="1739"  time="3410/1" value="0" leadInLength="0/1"  />
            <Keyframe id="1740"  time="3630/1" value="0" leadInLength="0/1"  />
            <Keyframe id="1741"  time="3763/1" value="0" leadInLength="0/1"  />
            <Keyframe id="1742"  time="4429/1" value="0" leadInLength="0/1"  />
            <Keyframe id="1743"  time="4538/1" value="0" leadInLength="0/1"  />
            <Keyframe id="1744"  time="5390/1" value="0" leadInLength="0/1"  />
            <Keyframe id="1745"  time="5503/1" value="0" leadInLength="0/1"  />
            <Keyframe id="1746"  time="5888/1" value="0" leadInLength="0/1"  />
            <Keyframe id="1747"  time="6064/1" value="0" leadInLength="0/1"  />
            <Keyframe id="1748"  time="6300/1" value="0" leadInLength="0/1"  />
            <Keyframe id="1749"  time="6447/1" value="0" leadInLength="0/1"  />
            <Keyframe id="1750"  time="6874/1" value="0" leadInLength="0/1"  />
            </Keyframes>
           </InterpolatingParam>
           <InterpolatingParam id="1751" interp="linr"  >
            <Keyframes>
            <Keyframe id="1752"  time="0/1" value="0" leadInLength="0/1"  />
            <Keyframe id="1753"  time="1524/1" value="0" leadInLength="0/1"  />
            <Keyframe id="1754"  time="2212/1" value="0" leadInLength="0/1"  />
            <Keyframe id="1755"  time="2419/1" value="0" leadInLength="0/1"  />
            <Keyframe id="1756"  time="2746/1" value="0" leadInLength="0/1"  />
            <Keyframe id="1757"  time="2966/1" value="0" leadInLength="0/1"  />
            <Keyframe id="1758"  time="3410/1" value="0" leadInLength="0/1"  />
            <Keyframe id="1759"  time="3630/1" value="0" leadInLength="0/1"  />
            <Keyframe id="1760"  time="3763/1" value="0" leadInLength="0/1"  />
            <Keyframe id="1761"  time="4429/1" value="0" leadInLength="0/1"  />
            <Keyframe id="1762"  time="4538/1" value="0" leadInLength="0/1"  />
            <Keyframe id="1763"  time="5390/1" value="0" leadInLength="0/1"  />
            <Keyframe id="1764"  time="5503/1" value="0" leadInLength="0/1"  />
            <Keyframe id="1765"  time="5888/1" value="0" leadInLength="0/1"  />
            <Keyframe id="1766"  time="6064/1" value="0" leadInLength="0/1"  />
            <Keyframe id="1767"  time="6300/1" value="0" leadInLength="0/1"  />
            <Keyframe id="1768"  time="6447/1" value="0" leadInLength="0/1"  />
            <Keyframe id="1769"  time="6874/1" value="0" leadInLength="0/1"  />
            </Keyframes>
           </InterpolatingParam>
           <InterpolatingParam id="1770" interp="linr"  >
            <Keyframes>
            <Keyframe id="1771"  time="0/1" value="0" leadInLength="0/1"  />
            <Keyframe id="1772"  time="1524/1" value="0" leadInLength="0/1"  />
            <Keyframe id="1773"  time="2212/1" value="0" leadInLength="0/1"  />
            <Keyframe id="1774"  time="2419/1" value="0" leadInLength="0/1"  />
            <Keyframe id="1775"  time="2746/1" value="0" leadInLength="0/1"  />
            <Keyframe id="1776"  time="2966/1" value="0" leadInLength="0/1"  />
            <Keyframe id="1777"  time="3410/1" value="0" leadInLength="0/1"  />
            <Keyframe id="1778"  time="3630/1" value="0" leadInLength="0/1"  />
            <Keyframe id="1779"  time="3763/1" value="0" leadInLength="0/1"  />
            <Keyframe id="1780"  time="4429/1" value="0" leadInLength="0/1"  />
            <Keyframe id="1781"  time="4538/1" value="0" leadInLength="0/1"  />
            <Keyframe id="1782"  time="5390/1" value="0" leadInLength="0/1"  />
            <Keyframe id="1783"  time="5503/1" value="0" leadInLength="0/1"  />
            <Keyframe id="1784"  time="5888/1" value="0" leadInLength="0/1"  />
            <Keyframe id="1785"  time="6064/1" value="0" leadInLength="0/1"  />
            <Keyframe id="1786"  time="6300/1" value="0" leadInLength="0/1"  />
            <Keyframe id="1787"  time="6447/1" value="0" leadInLength="0/1"  />
            <Keyframe id="1788"  time="6874/1" value="0" leadInLength="0/1"  />
            </Keyframes>
           </InterpolatingParam>
          </VectorParam>
         </Transformer>
         <Parameters>
          <VectorParam id="1789"  name="sourceCrop">
           <InterpolatingParam id="1790" interp="linr"  >
            <Keyframes>
            <Keyframe id="1791"  time="0/1" value="0" leadInLength="0/1"  />
            <Keyframe id="1792"  time="1524/1" value="0" leadInLength="0/1"  />
            <Keyframe id="1793"  time="2212/1" value="0" leadInLength="0/1"  />
            <Keyframe id="1794"  time="2419/1" value="0" leadInLength="0/1"  />
            <Keyframe id="1795"  time="2746/1" value="0" leadInLength="0/1"  />
            <Keyframe id="1796"  time="2966/1" value="0" leadInLength="0/1"  />
            <Keyframe id="1797"  time="3410/1" value="0" leadInLength="0/1"  />
            <Keyframe id="1798"  time="3630/1" value="0" leadInLength="0/1"  />
            <Keyframe id="1799"  time="3763/1" value="0" leadInLength="0/1"  />
            <Keyframe id="1800"  time="4429/1" value="0" leadInLength="0/1"  />
            <Keyframe id="1801"  time="4538/1" value="0" leadInLength="0/1"  />
            <Keyframe id="1802"  time="5390/1" value="0" leadInLength="0/1"  />
            <Keyframe id="1803"  time="5503/1" value="0" leadInLength="0/1"  />
            <Keyframe id="1804"  time="5888/1" value="0" leadInLength="0/1"  />
            <Keyframe id="1805"  time="6064/1" value="0" leadInLength="0/1"  />
            <Keyframe id="1806"  time="6300/1" value="0" leadInLength="0/1"  />
            <Keyframe id="1807"  time="6447/1" value="0" leadInLength="0/1"  />
            <Keyframe id="1808"  time="6874/1" value="0" leadInLength="0/1"  />
            </Keyframes>
           </InterpolatingParam>
           <InterpolatingParam id="1809" interp="linr"  >
            <Keyframes>
            <Keyframe id="1810"  time="0/1" value="0" leadInLength="0/1"  />
            <Keyframe id="1811"  time="1524/1" value="0" leadInLength="0/1"  />
            <Keyframe id="1812"  time="2212/1" value="0" leadInLength="0/1"  />
            <Keyframe id="1813"  time="2419/1" value="0" leadInLength="0/1"  />
            <Keyframe id="1814"  time="2746/1" value="0" leadInLength="0/1"  />
            <Keyframe id="1815"  time="2966/1" value="0" leadInLength="0/1"  />
            <Keyframe id="1816"  time="3410/1" value="0" leadInLength="0/1"  />
            <Keyframe id="1817"  time="3630/1" value="0" leadInLength="0/1"  />
            <Keyframe id="1818"  time="3763/1" value="0" leadInLength="0/1"  />
            <Keyframe id="1819"  time="4429/1" value="0" leadInLength="0/1"  />
            <Keyframe id="1820"  time="4538/1" value="0" leadInLength="0/1"  />
            <Keyframe id="1821"  time="5390/1" value="0" leadInLength="0/1"  />
            <Keyframe id="1822"  time="5503/1" value="0" leadInLength="0/1"  />
            <Keyframe id="1823"  time="5888/1" value="0" leadInLength="0/1"  />
            <Keyframe id="1824"  time="6064/1" value="0" leadInLength="0/1"  />
            <Keyframe id="1825"  time="6300/1" value="0" leadInLength="0/1"  />
            <Keyframe id="1826"  time="6447/1" value="0" leadInLength="0/1"  />
            <Keyframe id="1827"  time="6874/1" value="0" leadInLength="0/1"  />
            </Keyframes>
           </InterpolatingParam>
           <InterpolatingParam id="1828" interp="linr"  >
            <Keyframes>
            <Keyframe id="1829"  time="0/1" value="0" leadInLength="0/1"  />
            <Keyframe id="1830"  time="1524/1" value="0" leadInLength="0/1"  />
            <Keyframe id="1831"  time="2212/1" value="0" leadInLength="0/1"  />
            <Keyframe id="1832"  time="2419/1" value="0" leadInLength="0/1"  />
            <Keyframe id="1833"  time="2746/1" value="0" leadInLength="0/1"  />
            <Keyframe id="1834"  time="2966/1" value="0" leadInLength="0/1"  />
            <Keyframe id="1835"  time="3410/1" value="0" leadInLength="0/1"  />
            <Keyframe id="1836"  time="3630/1" value="0" leadInLength="0/1"  />
            <Keyframe id="1837"  time="3763/1" value="0" leadInLength="0/1"  />
            <Keyframe id="1838"  time="4429/1" value="0" leadInLength="0/1"  />
            <Keyframe id="1839"  time="4538/1" value="0" leadInLength="0/1"  />
            <Keyframe id="1840"  time="5390/1" value="0" leadInLength="0/1"  />
            <Keyframe id="1841"  time="5503/1" value="0" leadInLength="0/1"  />
            <Keyframe id="1842"  time="5888/1" value="0" leadInLength="0/1"  />
            <Keyframe id="1843"  time="6064/1" value="0" leadInLength="0/1"  />
            <Keyframe id="1844"  time="6300/1" value="0" leadInLength="0/1"  />
            <Keyframe id="1845"  time="6447/1" value="0" leadInLength="0/1"  />
            <Keyframe id="1846"  time="6874/1" value="0" leadInLength="0/1"  />
            </Keyframes>
           </InterpolatingParam>
           <InterpolatingParam id="1847" interp="linr"  >
            <Keyframes>
            <Keyframe id="1848"  time="0/1" value="0" leadInLength="0/1"  />
            <Keyframe id="1849"  time="1524/1" value="0" leadInLength="0/1"  />
            <Keyframe id="1850"  time="2212/1" value="0" leadInLength="0/1"  />
            <Keyframe id="1851"  time="2419/1" value="0" leadInLength="0/1"  />
            <Keyframe id="1852"  time="2746/1" value="0" leadInLength="0/1"  />
            <Keyframe id="1853"  time="2966/1" value="0" leadInLength="0/1"  />
            <Keyframe id="1854"  time="3410/1" value="0" leadInLength="0/1"  />
            <Keyframe id="1855"  time="3630/1" value="0" leadInLength="0/1"  />
            <Keyframe id="1856"  time="3763/1" value="0" leadInLength="0/1"  />
            <Keyframe id="1857"  time="4429/1" value="0" leadInLength="0/1"  />
            <Keyframe id="1858"  time="4538/1" value="0" leadInLength="0/1"  />
            <Keyframe id="1859"  time="5390/1" value="0" leadInLength="0/1"  />
            <Keyframe id="1860"  time="5503/1" value="0" leadInLength="0/1"  />
            <Keyframe id="1861"  time="5888/1" value="0" leadInLength="0/1"  />
            <Keyframe id="1862"  time="6064/1" value="0" leadInLength="0/1"  />
            <Keyframe id="1863"  time="6300/1" value="0" leadInLength="0/1"  />
            <Keyframe id="1864"  time="6447/1" value="0" leadInLength="0/1"  />
            <Keyframe id="1865"  time="6874/1" value="0" leadInLength="0/1"  />
            </Keyframes>
           </InterpolatingParam>
          </VectorParam>
          <VectorParam id="1866"  name="geometryCrop">
           <InterpolatingParam id="1867" interp="linr"  time="-9999999/1" value="0" leadInLength="0/1"  />
           <InterpolatingParam id="1868" interp="linr"  time="-9999999/1" value="0" leadInLength="0/1"  />
           <InterpolatingParam id="1869" interp="linr"  time="-9999999/1" value="0" leadInLength="0/1"  />
           <InterpolatingParam id="1870" interp="linr"  time="-9999999/1" value="0" leadInLength="0/1"  />
          </VectorParam>
          <InterpolatingParam id="1871" interp="linr"  time="-9999999/1" value="1" leadInLength="0/1"  name="opacity"/>
          <InterpolatingParam id="1872" interp="linr"  time="0/1" value="1" leadInLength="0/1"  name="cursorOpacity"/>
          <InterpolatingParam id="1873" interp="linr"  time="0/1" value="1" leadInLength="0/1"  name="cursorScale"/>
          <Parameter id="1874"  name="captions"/>
         </Parameters>
         <Effects>
          <GenericEffect id="1875" range="(-133893728/1,-1/1)" name = "CursorBaseEffectName" >
           <Parameters>
           <InterpolatingParam id="1876" interp="linr"   name="cursorSize">
            <Keyframes>
            <Keyframe id="1877"  time="-9999999/1" value="1" leadInLength="0/1"  />
            <Keyframe id="1878"  time="256/1" value="1" leadInLength="30/1"  interpolater="leadin-linr"  />
            </Keyframes>
           </InterpolatingParam>
           <InterpolatingParam id="1879" interp="linr"   name="highlightBlurRadius">
            <Keyframes>
            <Keyframe id="1880"  time="-9999999/1" value="0" leadInLength="0/1"  />
            <Keyframe id="1881"  time="256/1" value="0" leadInLength="30/1"  interpolater="leadin-linr"  />
            </Keyframes>
           </InterpolatingParam>
           <InterpolatingParam id="1882" interp="linr"   name="highlightColorBlue">
            <Keyframes>
            <Keyframe id="1883"  time="-9999999/1" value="0" leadInLength="0/1"  />
            <Keyframe id="1884"  time="256/1" value="0" leadInLength="30/1"  interpolater="leadin-linr"  />
            </Keyframes>
           </InterpolatingParam>
           <InterpolatingParam id="1885" interp="linr"   name="highlightColorGreen">
            <Keyframes>
            <Keyframe id="1886"  time="-9999999/1" value="255" leadInLength="0/1"  />
            <Keyframe id="1887"  time="256/1" value="255" leadInLength="30/1"  interpolater="leadin-linr"  />
            </Keyframes>
           </InterpolatingParam>
           <InterpolatingParam id="1888" interp="linr"   name="highlightColorRed">
            <Keyframes>
            <Keyframe id="1889"  time="-9999999/1" value="255" leadInLength="0/1"  />
            <Keyframe id="1890"  time="256/1" value="255" leadInLength="30/1"  interpolater="leadin-linr"  />
            </Keyframes>
           </InterpolatingParam>
           <InterpolatingParam id="1891" interp="linr"   name="highlightFeatherSize">
            <Keyframes>
            <Keyframe id="1892"  time="-9999999/1" value="5" leadInLength="0/1"  />
            <Keyframe id="1893"  time="256/1" value="5" leadInLength="30/1"  interpolater="leadin-linr"  />
            </Keyframes>
           </InterpolatingParam>
           <InterpolatingParam id="1894" interp="linr"   name="highlightMagnification">
            <Keyframes>
            <Keyframe id="1895"  time="-9999999/1" value="2" leadInLength="0/1"  />
            <Keyframe id="1896"  time="256/1" value="2" leadInLength="30/1"  interpolater="leadin-linr"  />
            </Keyframes>
           </InterpolatingParam>
           <InterpolatingParam id="1897" interp="linr"   name="highlightOpacity">
            <Keyframes>
            <Keyframe id="1898"  time="-9999999/1" value="1" leadInLength="0/1"  />
            <Keyframe id="1899"  time="256/1" value="1" leadInLength="30/1"  interpolater="leadin-linr"  />
            </Keyframes>
           </InterpolatingParam>
           <InterpolatingParam id="1900" interp="linr"   name="highlightSize">
            <Keyframes>
            <Keyframe id="1901"  time="-9999999/1" value="45" leadInLength="0/1"  />
            <Keyframe id="1902"  time="256/1" value="45" leadInLength="30/1"  interpolater="leadin-linr"  />
            </Keyframes>
           </InterpolatingParam>
           <Parameter id="1903"   name="highlightType">
            <Keyframes>
            <Keyframe id="1904"  time="-9999999/1" value="0" leadInLength="0/1"  />
            <Keyframe id="1905"  time="256/1" value="0" leadInLength="30/1"  />
            </Keyframes>
           </Parameter>
           <InterpolatingParam id="1906" interp="linr"   name="leftClickColorBlue">
            <Keyframes>
            <Keyframe id="1907"  time="-9999999/1" value="0" leadInLength="0/1"  />
            <Keyframe id="1908"  time="256/1" value="0" leadInLength="30/1"  interpolater="leadin-linr"  />
            </Keyframes>
           </InterpolatingParam>
           <InterpolatingParam id="1909" interp="linr"   name="leftClickColorGreen">
            <Keyframes>
            <Keyframe id="1910"  time="-9999999/1" value="0" leadInLength="0/1"  />
            <Keyframe id="1911"  time="256/1" value="0" leadInLength="30/1"  interpolater="leadin-linr"  />
            </Keyframes>
           </InterpolatingParam>
           <InterpolatingParam id="1912" interp="linr"   name="leftClickColorRed">
            <Keyframes>
            <Keyframe id="1913"  time="-9999999/1" value="255" leadInLength="0/1"  />
            <Keyframe id="1914"  time="256/1" value="255" leadInLength="30/1"  interpolater="leadin-linr"  />
            </Keyframes>
           </InterpolatingParam>
           <InterpolatingParam id="1915" interp="linr"   name="leftClickDuration">
            <Keyframes>
            <Keyframe id="1916"  time="-9999999/1" value="0.80000000000000004" leadInLength="0/1"  />
            <Keyframe id="1917"  time="256/1" value="0.80000000000000004" leadInLength="30/1"  interpolater="leadin-linr"  />
            </Keyframes>
           </InterpolatingParam>
           <InterpolatingParam id="1918" interp="linr"   name="leftClickSize">
            <Keyframes>
            <Keyframe id="1919"  time="-9999999/1" value="20" leadInLength="0/1"  />
            <Keyframe id="1920"  time="256/1" value="20" leadInLength="30/1"  interpolater="leadin-linr"  />
            </Keyframes>
           </InterpolatingParam>
           <Parameter id="1921"   name="leftClickSoundFilename">
            <Keyframes>
            <Keyframe id="1922"  time="-9999999/1" value="" leadInLength="0/1"  />
            <Keyframe id="1923"  time="256/1" value="" leadInLength="30/1"  />
            </Keyframes>
           </Parameter>
           <InterpolatingParam id="1924" interp="linr"   name="leftClickSoundVolume">
            <Keyframes>
            <Keyframe id="1925"  time="-9999999/1" value="1" leadInLength="0/1"  />
            <Keyframe id="1926"  time="256/1" value="1" leadInLength="30/1"  interpolater="leadin-linr"  />
            </Keyframes>
           </InterpolatingParam>
           <Parameter id="1927"   name="leftClickType">
            <Keyframes>
            <Keyframe id="1928"  time="-9999999/1" value="0" leadInLength="0/1"  />
            <Keyframe id="1929"  time="256/1" value="0" leadInLength="30/1"  />
            </Keyframes>
           </Parameter>
           <InterpolatingParam id="1930" interp="linr"   name="opacity">
            <Keyframes>
            <Keyframe id="1931"  time="-9999999/1" value="1" leadInLength="0/1"  />
            <Keyframe id="1932"  time="256/1" value="1" leadInLength="30/1"  interpolater="leadin-linr"  />
            </Keyframes>
           </InterpolatingParam>
           <InterpolatingParam id="1933" interp="linr"   name="rightClickColorBlue">
            <Keyframes>
            <Keyframe id="1934"  time="-9999999/1" value="255" leadInLength="0/1"  />
            <Keyframe id="1935"  time="256/1" value="255" leadInLength="30/1"  interpolater="leadin-linr"  />
            </Keyframes>
           </InterpolatingParam>
           <InterpolatingParam id="1936" interp="linr"   name="rightClickColorGreen">
            <Keyframes>
            <Keyframe id="1937"  time="-9999999/1" value="0" leadInLength="0/1"  />
            <Keyframe id="1938"  time="256/1" value="0" leadInLength="30/1"  interpolater="leadin-linr"  />
            </Keyframes>
           </InterpolatingParam>
           <InterpolatingParam id="1939" interp="linr"   name="rightClickColorRed">
            <Keyframes>
            <Keyframe id="1940"  time="-9999999/1" value="0" leadInLength="0/1"  />
            <Keyframe id="1941"  time="256/1" value="0" leadInLength="30/1"  interpolater="leadin-linr"  />
            </Keyframes>
           </InterpolatingParam>
           <InterpolatingParam id="1942" interp="linr"   name="rightClickDuration">
            <Keyframes>
            <Keyframe id="1943"  time="-9999999/1" value="0.80000000000000004" leadInLength="0/1"  />
            <Keyframe id="1944"  time="256/1" value="0.80000000000000004" leadInLength="30/1"  interpolater="leadin-linr"  />
            </Keyframes>
           </InterpolatingParam>
           <InterpolatingParam id="1945" interp="linr"   name="rightClickSize">
            <Keyframes>
            <Keyframe id="1946"  time="-9999999/1" value="20" leadInLength="0/1"  />
            <Keyframe id="1947"  time="256/1" value="20" leadInLength="30/1"  interpolater="leadin-linr"  />
            </Keyframes>
           </InterpolatingParam>
           <Parameter id="1948"   name="rightClickSoundFilename">
            <Keyframes>
            <Keyframe id="1949"  time="-9999999/1" value="" leadInLength="0/1"  />
            <Keyframe id="1950"  time="256/1" value="" leadInLength="30/1"  />
            </Keyframes>
           </Parameter>
           <InterpolatingParam id="1951" interp="linr"   name="rightClickSoundVolume">
            <Keyframes>
            <Keyframe id="1952"  time="-9999999/1" value="1" leadInLength="0/1"  />
            <Keyframe id="1953"  time="256/1" value="1" leadInLength="30/1"  interpolater="leadin-linr"  />
            </Keyframes>
           </InterpolatingParam>
           <Parameter id="1954"   name="rightClickType">
            <Keyframes>
            <Keyframe id="1955"  time="-9999999/1" value="0" leadInLength="0/1"  />
            <Keyframe id="1956"  time="256/1" value="0" leadInLength="30/1"  />
            </Keyframes>
           </Parameter>
           </Parameters>
          </GenericEffect>
         </Effects>
         <Attributes>
          <Attribute id="1957" value="" name="ident"/>
         </Attributes>
         <MetaData>
          <entry key="AutoAppliedSmartFocus" val="False"/>
          <entry key="WinSubProjectDisplayName" val=""/>
         </MetaData>
         <ExtraData>
          <Entry key="ZoomPanBin">
           <ZoomPanBin id="1958"  >
            <ZoomPanKeyframes>
             <ZoomPanKeyframe id="1959" timeRangeEnd="-9999999/1" timeRangeDuration="0/1" interpolaterName="linr"  />
            </ZoomPanKeyframes>
           </ZoomPanBin>
          </Entry>
          <Entry key="CursorEffectBin">
           <CursorEffectBin id="1960"  >
            <CursorEffectKeyframes>
             <CursorEffectKeyframe id="1961" timeRangeEnd="-9999999/1" timeRangeDuration="0/1" interpolaterName=""  />
             <CursorEffectKeyframe id="1962" timeRangeEnd="256/1" timeRangeDuration="30/1" interpolaterName=""  />
            </CursorEffectKeyframes>
           </CursorEffectBin>
          </Entry>
         </ExtraData>
         <GenericTrack id="1963"  >
          <Attributes>
           <Attribute id="1964" value="" name="ident"/>
          </Attributes>
          <MetaData>
           <entry key="IsLocked" val="False"/>
           <entry key="WinTrackHeight" val="0"/>
          </MetaData>
          <Medias>
           <ScreenIMFile id="1965" start="-108000" duration="108810" scalar="1/1" mediaStart="36/1" mediaDuration="1/1" trackNumber="0" src="4" trimStartSum="-108000/1" >
            <Transformer>
             <VectorParam id="1966"  name="translation">
              <InterpolatingParam id="1967" interp="linr"  time="-9999999/1" value="0" leadInLength="0/1"  />
              <InterpolatingParam id="1968" interp="linr"  time="-9999999/1" value="0" leadInLength="0/1"  />
              <InterpolatingParam id="1969" interp="linr"  time="-9999999/1" value="0" leadInLength="0/1"  />
             </VectorParam>
             <VectorParam id="1970"  name="rotation">
              <InterpolatingParam id="1971" interp="linr"  time="-9999999/1" value="0" leadInLength="0/1"  />
              <InterpolatingParam id="1972" interp="linr"  time="-9999999/1" value="0" leadInLength="0/1"  />
              <InterpolatingParam id="1973" interp="linr"  time="-9999999/1" value="0" leadInLength="0/1"  />
             </VectorParam>
             <VectorParam id="1974"  name="shear">
              <InterpolatingParam id="1975" interp="linr"  time="-9999999/1" value="0" leadInLength="0/1"  />
              <InterpolatingParam id="1976" interp="linr"  time="-9999999/1" value="0" leadInLength="0/1"  />
              <InterpolatingParam id="1977" interp="linr"  time="-9999999/1" value="0" leadInLength="0/1"  />
             </VectorParam>
             <VectorParam id="1978"  name="scale">
              <InterpolatingParam id="1979" interp="linr"  time="-9999999/1" value="1" leadInLength="0/1"  />
              <InterpolatingParam id="1980" interp="linr"  time="-9999999/1" value="1" leadInLength="0/1"  />
              <InterpolatingParam id="1981" interp="linr"  time="-9999999/1" value="1" leadInLength="0/1"  />
             </VectorParam>
             <VectorParam id="1982"  name="anchor">
              <InterpolatingParam id="1983" interp="linr"  time="0/1" value="0" leadInLength="0/1"  />
              <InterpolatingParam id="1984" interp="linr"  time="0/1" value="0" leadInLength="0/1"  />
              <InterpolatingParam id="1985" interp="linr"  time="0/1" value="0" leadInLength="0/1"  />
             </VectorParam>
            </Transformer>
            <Parameters>
             <VectorParam id="1986"  name="sourceCrop">
              <InterpolatingParam id="1987" interp="linr"  time="0/1" value="0" leadInLength="0/1"  />
              <InterpolatingParam id="1988" interp="linr"  time="0/1" value="0" leadInLength="0/1"  />
              <InterpolatingParam id="1989" interp="linr"  time="0/1" value="0" leadInLength="0/1"  />
              <InterpolatingParam id="1990" interp="linr"  time="0/1" value="0" leadInLength="0/1"  />
             </VectorParam>
             <VectorParam id="1991"  name="geometryCrop">
              <InterpolatingParam id="1992" interp="linr"  time="-9999999/1" value="0" leadInLength="0/1"  />
              <InterpolatingParam id="1993" interp="linr"  time="-9999999/1" value="0" leadInLength="0/1"  />
              <InterpolatingParam id="1994" interp="linr"  time="-9999999/1" value="0" leadInLength="0/1"  />
              <InterpolatingParam id="1995" interp="linr"  time="-9999999/1" value="0" leadInLength="0/1"  />
             </VectorParam>
             <InterpolatingParam id="1996" interp="linr"  time="-9999999/1" value="1" leadInLength="0/1"  name="opacity"/>
             <InterpolatingParam id="1997" interp="linr"  time="0/1" value="0" leadInLength="0/1"  name="cursorOpacity"/>
             <InterpolatingParam id="1998" interp="linr"  time="0/1" value="0" leadInLength="0/1"  name="recordedCursorOpacity"/>
             <InterpolatingParam id="1999" interp="linr"  time="0/1" value="0" leadInLength="0/1"  name="cursorScale"/>
            </Parameters>
            <Attributes>
             <Attribute id="2000" value="" name="ident"/>
            </Attributes>
            <MetaData>
             <entry key="AutoAppliedSmartFocus" val="False"/>
             <entry key="WinSubProjectDisplayName" val=""/>
            </MetaData>
            <ExtraData>
             <Entry key="ZoomPanBin">
              <ZoomPanBin id="2001"  >
               <ZoomPanKeyframes>
                <ZoomPanKeyframe id="2002" timeRangeEnd="-9999999/1" timeRangeDuration="0/1" interpolaterName="linr"  />
               </ZoomPanKeyframes>
              </ZoomPanBin>
             </Entry>
             <Entry key="CursorEffectBin">
              <CursorEffectBin id="2003"  >
               <CursorEffectKeyframes>
               </CursorEffectKeyframes>
              </CursorEffectBin>
             </Entry>
            </ExtraData>
           </ScreenIMFile>
           <ScreenVMFile id="2004" start="810" duration="714" scalar="1/1" mediaStart="36/1" mediaDuration="714/1" trackNumber="0" src="4" >
            <Transformer>
             <VectorParam id="2005"  name="translation">
              <InterpolatingParam id="2006" interp="linr"  time="-9999999/1" value="0" leadInLength="0/1"  />
              <InterpolatingParam id="2007" interp="linr"  time="-9999999/1" value="0" leadInLength="0/1"  />
              <InterpolatingParam id="2008" interp="linr"  time="-9999999/1" value="0" leadInLength="0/1"  />
             </VectorParam>
             <VectorParam id="2009"  name="rotation">
              <InterpolatingParam id="2010" interp="linr"  time="-9999999/1" value="0" leadInLength="0/1"  />
              <InterpolatingParam id="2011" interp="linr"  time="-9999999/1" value="0" leadInLength="0/1"  />
              <InterpolatingParam id="2012" interp="linr"  time="-9999999/1" value="0" leadInLength="0/1"  />
             </VectorParam>
             <VectorParam id="2013"  name="shear">
              <InterpolatingParam id="2014" interp="linr"  time="-9999999/1" value="0" leadInLength="0/1"  />
              <InterpolatingParam id="2015" interp="linr"  time="-9999999/1" value="0" leadInLength="0/1"  />
              <InterpolatingParam id="2016" interp="linr"  time="-9999999/1" value="0" leadInLength="0/1"  />
             </VectorParam>
             <VectorParam id="2017"  name="scale">
              <InterpolatingParam id="2018" interp="linr"  time="-9999999/1" value="1" leadInLength="0/1"  />
              <InterpolatingParam id="2019" interp="linr"  time="-9999999/1" value="1" leadInLength="0/1"  />
              <InterpolatingParam id="2020" interp="linr"  time="-9999999/1" value="1" leadInLength="0/1"  />
             </VectorParam>
             <VectorParam id="2021"  name="anchor">
              <InterpolatingParam id="2022" interp="linr"  time="0/1" value="0" leadInLength="0/1"  />
              <InterpolatingParam id="2023" interp="linr"  time="0/1" value="0" leadInLength="0/1"  />
              <InterpolatingParam id="2024" interp="linr"  time="0/1" value="0" leadInLength="0/1"  />
             </VectorParam>
            </Transformer>
            <Parameters>
             <VectorParam id="2025"  name="sourceCrop">
              <InterpolatingParam id="2026" interp="linr"  time="0/1" value="0" leadInLength="0/1"  />
              <InterpolatingParam id="2027" interp="linr"  time="0/1" value="0" leadInLength="0/1"  />
              <InterpolatingParam id="2028" interp="linr"  time="0/1" value="0" leadInLength="0/1"  />
              <InterpolatingParam id="2029" interp="linr"  time="0/1" value="0" leadInLength="0/1"  />
             </VectorParam>
             <VectorParam id="2030"  name="geometryCrop">
              <InterpolatingParam id="2031" interp="linr"  time="-9999999/1" value="0" leadInLength="0/1"  />
              <InterpolatingParam id="2032" interp="linr"  time="-9999999/1" value="0" leadInLength="0/1"  />
              <InterpolatingParam id="2033" interp="linr"  time="-9999999/1" value="0" leadInLength="0/1"  />
              <InterpolatingParam id="2034" interp="linr"  time="-9999999/1" value="0" leadInLength="0/1"  />
             </VectorParam>
             <InterpolatingParam id="2035" interp="linr"  time="-9999999/1" value="1" leadInLength="0/1"  name="opacity"/>
             <InterpolatingParam id="2036" interp="linr"  time="0/1" value="0" leadInLength="0/1"  name="cursorOpacity"/>
             <InterpolatingParam id="2037" interp="linr"  time="0/1" value="0" leadInLength="0/1"  name="cursorScale"/>
            </Parameters>
            <Attributes>
             <Attribute id="2038" value="" name="ident"/>
            </Attributes>
            <MetaData>
             <entry key="AutoAppliedSmartFocus" val="False"/>
             <entry key="WinSubProjectDisplayName" val=""/>
            </MetaData>
            <ExtraData>
             <Entry key="ZoomPanBin">
              <ZoomPanBin id="2039"  >
               <ZoomPanKeyframes>
                <ZoomPanKeyframe id="2040" timeRangeEnd="-9999999/1" timeRangeDuration="0/1" interpolaterName="linr"  />
               </ZoomPanKeyframes>
              </ZoomPanBin>
             </Entry>
             <Entry key="CursorEffectBin">
              <CursorEffectBin id="2041"  >
               <CursorEffectKeyframes>
               </CursorEffectKeyframes>
              </CursorEffectBin>
             </Entry>
            </ExtraData>
           </ScreenVMFile>
           <ScreenIMFile id="2042" start="1524" duration="300" scalar="1/1" mediaStart="750/1" mediaDuration="1/1" trackNumber="0" src="4" trimStartSum="0/1" >
            <Transformer>
             <VectorParam id="2043"  name="translation">
              <InterpolatingParam id="2044" interp="linr"  time="-9999999/1" value="0" leadInLength="0/1"  />
              <InterpolatingParam id="2045" interp="linr"  time="-9999999/1" value="0" leadInLength="0/1"  />
              <InterpolatingParam id="2046" interp="linr"  time="-9999999/1" value="0" leadInLength="0/1"  />
             </VectorParam>
             <VectorParam id="2047"  name="rotation">
              <InterpolatingParam id="2048" interp="linr"  time="-9999999/1" value="0" leadInLength="0/1"  />
              <InterpolatingParam id="2049" interp="linr"  time="-9999999/1" value="0" leadInLength="0/1"  />
              <InterpolatingParam id="2050" interp="linr"  time="-9999999/1" value="0" leadInLength="0/1"  />
             </VectorParam>
             <VectorParam id="2051"  name="shear">
              <InterpolatingParam id="2052" interp="linr"  time="-9999999/1" value="0" leadInLength="0/1"  />
              <InterpolatingParam id="2053" interp="linr"  time="-9999999/1" value="0" leadInLength="0/1"  />
              <InterpolatingParam id="2054" interp="linr"  time="-9999999/1" value="0" leadInLength="0/1"  />
             </VectorParam>
             <VectorParam id="2055"  name="scale">
              <InterpolatingParam id="2056" interp="linr"  time="-9999999/1" value="1" leadInLength="0/1"  />
              <InterpolatingParam id="2057" interp="linr"  time="-9999999/1" value="1" leadInLength="0/1"  />
              <InterpolatingParam id="2058" interp="linr"  time="-9999999/1" value="1" leadInLength="0/1"  />
             </VectorParam>
             <VectorParam id="2059"  name="anchor">
              <InterpolatingParam id="2060" interp="linr"  time="0/1" value="0" leadInLength="0/1"  />
              <InterpolatingParam id="2061" interp="linr"  time="0/1" value="0" leadInLength="0/1"  />
              <InterpolatingParam id="2062" interp="linr"  time="0/1" value="0" leadInLength="0/1"  />
             </VectorParam>
            </Transformer>
            <Parameters>
             <VectorParam id="2063"  name="sourceCrop">
              <InterpolatingParam id="2064" interp="linr"  time="0/1" value="0" leadInLength="0/1"  />
              <InterpolatingParam id="2065" interp="linr"  time="0/1" value="0" leadInLength="0/1"  />
              <InterpolatingParam id="2066" interp="linr"  time="0/1" value="0" leadInLength="0/1"  />
              <InterpolatingParam id="2067" interp="linr"  time="0/1" value="0" leadInLength="0/1"  />
             </VectorParam>
             <VectorParam id="2068"  name="geometryCrop">
              <InterpolatingParam id="2069" interp="linr"  time="-9999999/1" value="0" leadInLength="0/1"  />
              <InterpolatingParam id="2070" interp="linr"  time="-9999999/1" value="0" leadInLength="0/1"  />
              <InterpolatingParam id="2071" interp="linr"  time="-9999999/1" value="0" leadInLength="0/1"  />
              <InterpolatingParam id="2072" interp="linr"  time="-9999999/1" value="0" leadInLength="0/1"  />
             </VectorParam>
             <InterpolatingParam id="2073" interp="linr"  time="-9999999/1" value="1" leadInLength="0/1"  name="opacity"/>
             <InterpolatingParam id="2074" interp="linr"  time="0/1" value="0" leadInLength="0/1"  name="cursorOpacity"/>
             <InterpolatingParam id="2075" interp="linr"  time="0/1" value="0" leadInLength="0/1"  name="recordedCursorOpacity"/>
             <InterpolatingParam id="2076" interp="linr"  time="0/1" value="0" leadInLength="0/1"  name="cursorScale"/>
            </Parameters>
            <Attributes>
             <Attribute id="2077" value="" name="ident"/>
            </Attributes>
            <MetaData>
             <entry key="AutoAppliedSmartFocus" val="False"/>
             <entry key="WinSubProjectDisplayName" val=""/>
            </MetaData>
            <ExtraData>
             <Entry key="ZoomPanBin">
              <ZoomPanBin id="2078"  >
               <ZoomPanKeyframes>
                <ZoomPanKeyframe id="2079" timeRangeEnd="-9999999/1" timeRangeDuration="0/1" interpolaterName="linr"  />
               </ZoomPanKeyframes>
              </ZoomPanBin>
             </Entry>
             <Entry key="CursorEffectBin">
              <CursorEffectBin id="2080"  >
               <CursorEffectKeyframes>
               </CursorEffectKeyframes>
              </CursorEffectBin>
             </Entry>
            </ExtraData>
           </ScreenIMFile>
           <ScreenVMFile id="2081" start="1824" duration="388" scalar="1/1" mediaStart="750/1" mediaDuration="388/1" trackNumber="0" src="4" >
            <Transformer>
             <VectorParam id="2082"  name="translation">
              <InterpolatingParam id="2083" interp="linr"  time="-9999999/1" value="0" leadInLength="0/1"  />
              <InterpolatingParam id="2084" interp="linr"  time="-9999999/1" value="0" leadInLength="0/1"  />
              <InterpolatingParam id="2085" interp="linr"  time="-9999999/1" value="0" leadInLength="0/1"  />
             </VectorParam>
             <VectorParam id="2086"  name="rotation">
              <InterpolatingParam id="2087" interp="linr"  time="-9999999/1" value="0" leadInLength="0/1"  />
              <InterpolatingParam id="2088" interp="linr"  time="-9999999/1" value="0" leadInLength="0/1"  />
              <InterpolatingParam id="2089" interp="linr"  time="-9999999/1" value="0" leadInLength="0/1"  />
             </VectorParam>
             <VectorParam id="2090"  name="shear">
              <InterpolatingParam id="2091" interp="linr"  time="-9999999/1" value="0" leadInLength="0/1"  />
              <InterpolatingParam id="2092" interp="linr"  time="-9999999/1" value="0" leadInLength="0/1"  />
              <InterpolatingParam id="2093" interp="linr"  time="-9999999/1" value="0" leadInLength="0/1"  />
             </VectorParam>
             <VectorParam id="2094"  name="scale">
              <InterpolatingParam id="2095" interp="linr"  time="-9999999/1" value="1" leadInLength="0/1"  />
              <InterpolatingParam id="2096" interp="linr"  time="-9999999/1" value="1" leadInLength="0/1"  />
              <InterpolatingParam id="2097" interp="linr"  time="-9999999/1" value="1" leadInLength="0/1"  />
             </VectorParam>
             <VectorParam id="2098"  name="anchor">
              <InterpolatingParam id="2099" interp="linr"  time="0/1" value="0" leadInLength="0/1"  />
              <InterpolatingParam id="2100" interp="linr"  time="0/1" value="0" leadInLength="0/1"  />
              <InterpolatingParam id="2101" interp="linr"  time="0/1" value="0" leadInLength="0/1"  />
             </VectorParam>
            </Transformer>
            <Parameters>
             <VectorParam id="2102"  name="sourceCrop">
              <InterpolatingParam id="2103" interp="linr"  time="0/1" value="0" leadInLength="0/1"  />
              <InterpolatingParam id="2104" interp="linr"  time="0/1" value="0" leadInLength="0/1"  />
              <InterpolatingParam id="2105" interp="linr"  time="0/1" value="0" leadInLength="0/1"  />
              <InterpolatingParam id="2106" interp="linr"  time="0/1" value="0" leadInLength="0/1"  />
             </VectorParam>
             <VectorParam id="2107"  name="geometryCrop">
              <InterpolatingParam id="2108" interp="linr"  time="-9999999/1" value="0" leadInLength="0/1"  />
              <InterpolatingParam id="2109" interp="linr"  time="-9999999/1" value="0" leadInLength="0/1"  />
              <InterpolatingParam id="2110" interp="linr"  time="-9999999/1" value="0" leadInLength="0/1"  />
              <InterpolatingParam id="2111" interp="linr"  time="-9999999/1" value="0" leadInLength="0/1"  />
             </VectorParam>
             <InterpolatingParam id="2112" interp="linr"  time="-9999999/1" value="1" leadInLength="0/1"  name="opacity"/>
             <InterpolatingParam id="2113" interp="linr"  time="0/1" value="0" leadInLength="0/1"  name="cursorOpacity"/>
             <InterpolatingParam id="2114" interp="linr"  time="0/1" value="0" leadInLength="0/1"  name="cursorScale"/>
            </Parameters>
            <Attributes>
             <Attribute id="2115" value="" name="ident"/>
            </Attributes>
            <MetaData>
             <entry key="AutoAppliedSmartFocus" val="False"/>
             <entry key="WinSubProjectDisplayName" val=""/>
            </MetaData>
            <ExtraData>
             <Entry key="ZoomPanBin">
              <ZoomPanBin id="2116"  >
               <ZoomPanKeyframes>
                <ZoomPanKeyframe id="2117" timeRangeEnd="-9999999/1" timeRangeDuration="0/1" interpolaterName="linr"  />
               </ZoomPanKeyframes>
              </ZoomPanBin>
             </Entry>
             <Entry key="CursorEffectBin">
              <CursorEffectBin id="2118"  >
               <CursorEffectKeyframes>
               </CursorEffectKeyframes>
              </CursorEffectBin>
             </Entry>
            </ExtraData>
           </ScreenVMFile>
           <ScreenIMFile id="2119" start="2212" duration="90" scalar="1/1" mediaStart="1138/1" mediaDuration="1/1" trackNumber="0" src="4" trimStartSum="0/1" >
            <Transformer>
             <VectorParam id="2120"  name="translation">
              <InterpolatingParam id="2121" interp="linr"  time="-9999999/1" value="0" leadInLength="0/1"  />
              <InterpolatingParam id="2122" interp="linr"  time="-9999999/1" value="0" leadInLength="0/1"  />
              <InterpolatingParam id="2123" interp="linr"  time="-9999999/1" value="0" leadInLength="0/1"  />
             </VectorParam>
             <VectorParam id="2124"  name="rotation">
              <InterpolatingParam id="2125" interp="linr"  time="-9999999/1" value="0" leadInLength="0/1"  />
              <InterpolatingParam id="2126" interp="linr"  time="-9999999/1" value="0" leadInLength="0/1"  />
              <InterpolatingParam id="2127" interp="linr"  time="-9999999/1" value="0" leadInLength="0/1"  />
             </VectorParam>
             <VectorParam id="2128"  name="shear">
              <InterpolatingParam id="2129" interp="linr"  time="-9999999/1" value="0" leadInLength="0/1"  />
              <InterpolatingParam id="2130" interp="linr"  time="-9999999/1" value="0" leadInLength="0/1"  />
              <InterpolatingParam id="2131" interp="linr"  time="-9999999/1" value="0" leadInLength="0/1"  />
             </VectorParam>
             <VectorParam id="2132"  name="scale">
              <InterpolatingParam id="2133" interp="linr"  time="-9999999/1" value="1" leadInLength="0/1"  />
              <InterpolatingParam id="2134" interp="linr"  time="-9999999/1" value="1" leadInLength="0/1"  />
              <InterpolatingParam id="2135" interp="linr"  time="-9999999/1" value="1" leadInLength="0/1"  />
             </VectorParam>
             <VectorParam id="2136"  name="anchor">
              <InterpolatingParam id="2137" interp="linr"  time="0/1" value="0" leadInLength="0/1"  />
              <InterpolatingParam id="2138" interp="linr"  time="0/1" value="0" leadInLength="0/1"  />
              <InterpolatingParam id="2139" interp="linr"  time="0/1" value="0" leadInLength="0/1"  />
             </VectorParam>
            </Transformer>
            <Parameters>
             <VectorParam id="2140"  name="sourceCrop">
              <InterpolatingParam id="2141" interp="linr"  time="0/1" value="0" leadInLength="0/1"  />
              <InterpolatingParam id="2142" interp="linr"  time="0/1" value="0" leadInLength="0/1"  />
              <InterpolatingParam id="2143" interp="linr"  time="0/1" value="0" leadInLength="0/1"  />
              <InterpolatingParam id="2144" interp="linr"  time="0/1" value="0" leadInLength="0/1"  />
             </VectorParam>
             <VectorParam id="2145"  name="geometryCrop">
              <InterpolatingParam id="2146" interp="linr"  time="-9999999/1" value="0" leadInLength="0/1"  />
              <InterpolatingParam id="2147" interp="linr"  time="-9999999/1" value="0" leadInLength="0/1"  />
              <InterpolatingParam id="2148" interp="linr"  time="-9999999/1" value="0" leadInLength="0/1"  />
              <InterpolatingParam id="2149" interp="linr"  time="-9999999/1" value="0" leadInLength="0/1"  />
             </VectorParam>
             <InterpolatingParam id="2150" interp="linr"  time="-9999999/1" value="1" leadInLength="0/1"  name="opacity"/>
             <InterpolatingParam id="2151" interp="linr"  time="0/1" value="0" leadInLength="0/1"  name="cursorOpacity"/>
             <InterpolatingParam id="2152" interp="linr"  time="0/1" value="0" leadInLength="0/1"  name="recordedCursorOpacity"/>
             <InterpolatingParam id="2153" interp="linr"  time="0/1" value="0" leadInLength="0/1"  name="cursorScale"/>
            </Parameters>
            <Attributes>
             <Attribute id="2154" value="" name="ident"/>
            </Attributes>
            <MetaData>
             <entry key="AutoAppliedSmartFocus" val="False"/>
             <entry key="WinSubProjectDisplayName" val=""/>
            </MetaData>
            <ExtraData>
             <Entry key="ZoomPanBin">
              <ZoomPanBin id="2155"  >
               <ZoomPanKeyframes>
                <ZoomPanKeyframe id="2156" timeRangeEnd="-9999999/1" timeRangeDuration="0/1" interpolaterName="linr"  />
               </ZoomPanKeyframes>
              </ZoomPanBin>
             </Entry>
             <Entry key="CursorEffectBin">
              <CursorEffectBin id="2157"  >
               <CursorEffectKeyframes>
               </CursorEffectKeyframes>
              </CursorEffectBin>
             </Entry>
            </ExtraData>
           </ScreenIMFile>
           <ScreenVMFile id="2158" start="2302" duration="117" scalar="1/1" mediaStart="1138/1" mediaDuration="117/1" trackNumber="0" src="4" >
            <Transformer>
             <VectorParam id="2159"  name="translation">
              <InterpolatingParam id="2160" interp="linr"  time="-9999999/1" value="0" leadInLength="0/1"  />
              <InterpolatingParam id="2161" interp="linr"  time="-9999999/1" value="0" leadInLength="0/1"  />
              <InterpolatingParam id="2162" interp="linr"  time="-9999999/1" value="0" leadInLength="0/1"  />
             </VectorParam>
             <VectorParam id="2163"  name="rotation">
              <InterpolatingParam id="2164" interp="linr"  time="-9999999/1" value="0" leadInLength="0/1"  />
              <InterpolatingParam id="2165" interp="linr"  time="-9999999/1" value="0" leadInLength="0/1"  />
              <InterpolatingParam id="2166" interp="linr"  time="-9999999/1" value="0" leadInLength="0/1"  />
             </VectorParam>
             <VectorParam id="2167"  name="shear">
              <InterpolatingParam id="2168" interp="linr"  time="-9999999/1" value="0" leadInLength="0/1"  />
              <InterpolatingParam id="2169" interp="linr"  time="-9999999/1" value="0" leadInLength="0/1"  />
              <InterpolatingParam id="2170" interp="linr"  time="-9999999/1" value="0" leadInLength="0/1"  />
             </VectorParam>
             <VectorParam id="2171"  name="scale">
              <InterpolatingParam id="2172" interp="linr"  time="-9999999/1" value="1" leadInLength="0/1"  />
              <InterpolatingParam id="2173" interp="linr"  time="-9999999/1" value="1" leadInLength="0/1"  />
              <InterpolatingParam id="2174" interp="linr"  time="-9999999/1" value="1" leadInLength="0/1"  />
             </VectorParam>
             <VectorParam id="2175"  name="anchor">
              <InterpolatingParam id="2176" interp="linr"  time="0/1" value="0" leadInLength="0/1"  />
              <InterpolatingParam id="2177" interp="linr"  time="0/1" value="0" leadInLength="0/1"  />
              <InterpolatingParam id="2178" interp="linr"  time="0/1" value="0" leadInLength="0/1"  />
             </VectorParam>
            </Transformer>
            <Parameters>
             <VectorParam id="2179"  name="sourceCrop">
              <InterpolatingParam id="2180" interp="linr"  time="0/1" value="0" leadInLength="0/1"  />
              <InterpolatingParam id="2181" interp="linr"  time="0/1" value="0" leadInLength="0/1"  />
              <InterpolatingParam id="2182" interp="linr"  time="0/1" value="0" leadInLength="0/1"  />
              <InterpolatingParam id="2183" interp="linr"  time="0/1" value="0" leadInLength="0/1"  />
             </VectorParam>
             <VectorParam id="2184"  name="geometryCrop">
              <InterpolatingParam id="2185" interp="linr"  time="-9999999/1" value="0" leadInLength="0/1"  />
              <InterpolatingParam id="2186" interp="linr"  time="-9999999/1" value="0" leadInLength="0/1"  />
              <InterpolatingParam id="2187" interp="linr"  time="-9999999/1" value="0" leadInLength="0/1"  />
              <InterpolatingParam id="2188" interp="linr"  time="-9999999/1" value="0" leadInLength="0/1"  />
             </VectorParam>
             <InterpolatingParam id="2189" interp="linr"  time="-9999999/1" value="1" leadInLength="0/1"  name="opacity"/>
             <InterpolatingParam id="2190" interp="linr"  time="0/1" value="0" leadInLength="0/1"  name="cursorOpacity"/>
             <InterpolatingParam id="2191" interp="linr"  time="0/1" value="0" leadInLength="0/1"  name="cursorScale"/>
            </Parameters>
            <Attributes>
             <Attribute id="2192" value="" name="ident"/>
            </Attributes>
            <MetaData>
             <entry key="AutoAppliedSmartFocus" val="False"/>
             <entry key="WinSubProjectDisplayName" val=""/>
            </MetaData>
            <ExtraData>
             <Entry key="ZoomPanBin">
              <ZoomPanBin id="2193"  >
               <ZoomPanKeyframes>
                <ZoomPanKeyframe id="2194" timeRangeEnd="-9999999/1" timeRangeDuration="0/1" interpolaterName="linr"  />
               </ZoomPanKeyframes>
              </ZoomPanBin>
             </Entry>
             <Entry key="CursorEffectBin">
              <CursorEffectBin id="2195"  >
               <CursorEffectKeyframes>
               </CursorEffectKeyframes>
              </CursorEffectBin>
             </Entry>
            </ExtraData>
           </ScreenVMFile>
           <ScreenIMFile id="2196" start="2419" duration="300" scalar="1/1" mediaStart="1255/1" mediaDuration="1/1" trackNumber="0" src="4" trimStartSum="0/1" >
            <Transformer>
             <VectorParam id="2197"  name="translation">
              <InterpolatingParam id="2198" interp="linr"  time="-9999999/1" value="0" leadInLength="0/1"  />
              <InterpolatingParam id="2199" interp="linr"  time="-9999999/1" value="0" leadInLength="0/1"  />
              <InterpolatingParam id="2200" interp="linr"  time="-9999999/1" value="0" leadInLength="0/1"  />
             </VectorParam>
             <VectorParam id="2201"  name="rotation">
              <InterpolatingParam id="2202" interp="linr"  time="-9999999/1" value="0" leadInLength="0/1"  />
              <InterpolatingParam id="2203" interp="linr"  time="-9999999/1" value="0" leadInLength="0/1"  />
              <InterpolatingParam id="2204" interp="linr"  time="-9999999/1" value="0" leadInLength="0/1"  />
             </VectorParam>
             <VectorParam id="2205"  name="shear">
              <InterpolatingParam id="2206" interp="linr"  time="-9999999/1" value="0" leadInLength="0/1"  />
              <InterpolatingParam id="2207" interp="linr"  time="-9999999/1" value="0" leadInLength="0/1"  />
              <InterpolatingParam id="2208" interp="linr"  time="-9999999/1" value="0" leadInLength="0/1"  />
             </VectorParam>
             <VectorParam id="2209"  name="scale">
              <InterpolatingParam id="2210" interp="linr"  time="-9999999/1" value="1" leadInLength="0/1"  />
              <InterpolatingParam id="2211" interp="linr"  time="-9999999/1" value="1" leadInLength="0/1"  />
              <InterpolatingParam id="2212" interp="linr"  time="-9999999/1" value="1" leadInLength="0/1"  />
             </VectorParam>
             <VectorParam id="2213"  name="anchor">
              <InterpolatingParam id="2214" interp="linr"  time="0/1" value="0" leadInLength="0/1"  />
              <InterpolatingParam id="2215" interp="linr"  time="0/1" value="0" leadInLength="0/1"  />
              <InterpolatingParam id="2216" interp="linr"  time="0/1" value="0" leadInLength="0/1"  />
             </VectorParam>
            </Transformer>
            <Parameters>
             <VectorParam id="2217"  name="sourceCrop">
              <InterpolatingParam id="2218" interp="linr"  time="0/1" value="0" leadInLength="0/1"  />
              <InterpolatingParam id="2219" interp="linr"  time="0/1" value="0" leadInLength="0/1"  />
              <InterpolatingParam id="2220" interp="linr"  time="0/1" value="0" leadInLength="0/1"  />
              <InterpolatingParam id="2221" interp="linr"  time="0/1" value="0" leadInLength="0/1"  />
             </VectorParam>
             <VectorParam id="2222"  name="geometryCrop">
              <InterpolatingParam id="2223" interp="linr"  time="-9999999/1" value="0" leadInLength="0/1"  />
              <InterpolatingParam id="2224" interp="linr"  time="-9999999/1" value="0" leadInLength="0/1"  />
              <InterpolatingParam id="2225" interp="linr"  time="-9999999/1" value="0" leadInLength="0/1"  />
              <InterpolatingParam id="2226" interp="linr"  time="-9999999/1" value="0" leadInLength="0/1"  />
             </VectorParam>
             <InterpolatingParam id="2227" interp="linr"  time="-9999999/1" value="1" leadInLength="0/1"  name="opacity"/>
             <InterpolatingParam id="2228" interp="linr"  time="0/1" value="0" leadInLength="0/1"  name="cursorOpacity"/>
             <InterpolatingParam id="2229" interp="linr"  time="0/1" value="0" leadInLength="0/1"  name="recordedCursorOpacity"/>
             <InterpolatingParam id="2230" interp="linr"  time="0/1" value="0" leadInLength="0/1"  name="cursorScale"/>
            </Parameters>
            <Attributes>
             <Attribute id="2231" value="" name="ident"/>
            </Attributes>
            <MetaData>
             <entry key="AutoAppliedSmartFocus" val="False"/>
             <entry key="WinSubProjectDisplayName" val=""/>
            </MetaData>
            <ExtraData>
             <Entry key="ZoomPanBin">
              <ZoomPanBin id="2232"  >
               <ZoomPanKeyframes>
                <ZoomPanKeyframe id="2233" timeRangeEnd="-9999999/1" timeRangeDuration="0/1" interpolaterName="linr"  />
               </ZoomPanKeyframes>
              </ZoomPanBin>
             </Entry>
             <Entry key="CursorEffectBin">
              <CursorEffectBin id="2234"  >
               <CursorEffectKeyframes>
               </CursorEffectKeyframes>
              </CursorEffectBin>
             </Entry>
            </ExtraData>
           </ScreenIMFile>
           <ScreenVMFile id="2235" start="2719" duration="27" scalar="1/1" mediaStart="1255/1" mediaDuration="27/1" trackNumber="0" src="4" >
            <Transformer>
             <VectorParam id="2236"  name="translation">
              <InterpolatingParam id="2237" interp="linr"  time="-9999999/1" value="0" leadInLength="0/1"  />
              <InterpolatingParam id="2238" interp="linr"  time="-9999999/1" value="0" leadInLength="0/1"  />
              <InterpolatingParam id="2239" interp="linr"  time="-9999999/1" value="0" leadInLength="0/1"  />
             </VectorParam>
             <VectorParam id="2240"  name="rotation">
              <InterpolatingParam id="2241" interp="linr"  time="-9999999/1" value="0" leadInLength="0/1"  />
              <InterpolatingParam id="2242" interp="linr"  time="-9999999/1" value="0" leadInLength="0/1"  />
              <InterpolatingParam id="2243" interp="linr"  time="-9999999/1" value="0" leadInLength="0/1"  />
             </VectorParam>
             <VectorParam id="2244"  name="shear">
              <InterpolatingParam id="2245" interp="linr"  time="-9999999/1" value="0" leadInLength="0/1"  />
              <InterpolatingParam id="2246" interp="linr"  time="-9999999/1" value="0" leadInLength="0/1"  />
              <InterpolatingParam id="2247" interp="linr"  time="-9999999/1" value="0" leadInLength="0/1"  />
             </VectorParam>
             <VectorParam id="2248"  name="scale">
              <InterpolatingParam id="2249" interp="linr"  time="-9999999/1" value="1" leadInLength="0/1"  />
              <InterpolatingParam id="2250" interp="linr"  time="-9999999/1" value="1" leadInLength="0/1"  />
              <InterpolatingParam id="2251" interp="linr"  time="-9999999/1" value="1" leadInLength="0/1"  />
             </VectorParam>
             <VectorParam id="2252"  name="anchor">
              <InterpolatingParam id="2253" interp="linr"  time="0/1" value="0" leadInLength="0/1"  />
              <InterpolatingParam id="2254" interp="linr"  time="0/1" value="0" leadInLength="0/1"  />
              <InterpolatingParam id="2255" interp="linr"  time="0/1" value="0" leadInLength="0/1"  />
             </VectorParam>
            </Transformer>
            <Parameters>
             <VectorParam id="2256"  name="sourceCrop">
              <InterpolatingParam id="2257" interp="linr"  time="0/1" value="0" leadInLength="0/1"  />
              <InterpolatingParam id="2258" interp="linr"  time="0/1" value="0" leadInLength="0/1"  />
              <InterpolatingParam id="2259" interp="linr"  time="0/1" value="0" leadInLength="0/1"  />
              <InterpolatingParam id="2260" interp="linr"  time="0/1" value="0" leadInLength="0/1"  />
             </VectorParam>
             <VectorParam id="2261"  name="geometryCrop">
              <InterpolatingParam id="2262" interp="linr"  time="-9999999/1" value="0" leadInLength="0/1"  />
              <InterpolatingParam id="2263" interp="linr"  time="-9999999/1" value="0" leadInLength="0/1"  />
              <InterpolatingParam id="2264" interp="linr"  time="-9999999/1" value="0" leadInLength="0/1"  />
              <InterpolatingParam id="2265" interp="linr"  time="-9999999/1" value="0" leadInLength="0/1"  />
             </VectorParam>
             <InterpolatingParam id="2266" interp="linr"  time="-9999999/1" value="1" leadInLength="0/1"  name="opacity"/>
             <InterpolatingParam id="2267" interp="linr"  time="0/1" value="0" leadInLength="0/1"  name="cursorOpacity"/>
             <InterpolatingParam id="2268" interp="linr"  time="0/1" value="0" leadInLength="0/1"  name="cursorScale"/>
            </Parameters>
            <Attributes>
             <Attribute id="2269" value="" name="ident"/>
            </Attributes>
            <MetaData>
             <entry key="AutoAppliedSmartFocus" val="False"/>
             <entry key="WinSubProjectDisplayName" val=""/>
            </MetaData>
            <ExtraData>
             <Entry key="ZoomPanBin">
              <ZoomPanBin id="2270"  >
               <ZoomPanKeyframes>
                <ZoomPanKeyframe id="2271" timeRangeEnd="-9999999/1" timeRangeDuration="0/1" interpolaterName="linr"  />
               </ZoomPanKeyframes>
              </ZoomPanBin>
             </Entry>
             <Entry key="CursorEffectBin">
              <CursorEffectBin id="2272"  >
               <CursorEffectKeyframes>
               </CursorEffectKeyframes>
              </CursorEffectBin>
             </Entry>
            </ExtraData>
           </ScreenVMFile>
           <ScreenIMFile id="2273" start="2746" duration="150" scalar="1/1" mediaStart="1282/1" mediaDuration="1/1" trackNumber="0" src="4" trimStartSum="0/1" >
            <Transformer>
             <VectorParam id="2274"  name="translation">
              <InterpolatingParam id="2275" interp="linr"  time="-9999999/1" value="0" leadInLength="0/1"  />
              <InterpolatingParam id="2276" interp="linr"  time="-9999999/1" value="0" leadInLength="0/1"  />
              <InterpolatingParam id="2277" interp="linr"  time="-9999999/1" value="0" leadInLength="0/1"  />
             </VectorParam>
             <VectorParam id="2278"  name="rotation">
              <InterpolatingParam id="2279" interp="linr"  time="-9999999/1" value="0" leadInLength="0/1"  />
              <InterpolatingParam id="2280" interp="linr"  time="-9999999/1" value="0" leadInLength="0/1"  />
              <InterpolatingParam id="2281" interp="linr"  time="-9999999/1" value="0" leadInLength="0/1"  />
             </VectorParam>
             <VectorParam id="2282"  name="shear">
              <InterpolatingParam id="2283" interp="linr"  time="-9999999/1" value="0" leadInLength="0/1"  />
              <InterpolatingParam id="2284" interp="linr"  time="-9999999/1" value="0" leadInLength="0/1"  />
              <InterpolatingParam id="2285" interp="linr"  time="-9999999/1" value="0" leadInLength="0/1"  />
             </VectorParam>
             <VectorParam id="2286"  name="scale">
              <InterpolatingParam id="2287" interp="linr"  time="-9999999/1" value="1" leadInLength="0/1"  />
              <InterpolatingParam id="2288" interp="linr"  time="-9999999/1" value="1" leadInLength="0/1"  />
              <InterpolatingParam id="2289" interp="linr"  time="-9999999/1" value="1" leadInLength="0/1"  />
             </VectorParam>
             <VectorParam id="2290"  name="anchor">
              <InterpolatingParam id="2291" interp="linr"  time="0/1" value="0" leadInLength="0/1"  />
              <InterpolatingParam id="2292" interp="linr"  time="0/1" value="0" leadInLength="0/1"  />
              <InterpolatingParam id="2293" interp="linr"  time="0/1" value="0" leadInLength="0/1"  />
             </VectorParam>
            </Transformer>
            <Parameters>
             <VectorParam id="2294"  name="sourceCrop">
              <InterpolatingParam id="2295" interp="linr"  time="0/1" value="0" leadInLength="0/1"  />
              <InterpolatingParam id="2296" interp="linr"  time="0/1" value="0" leadInLength="0/1"  />
              <InterpolatingParam id="2297" interp="linr"  time="0/1" value="0" leadInLength="0/1"  />
              <InterpolatingParam id="2298" interp="linr"  time="0/1" value="0" leadInLength="0/1"  />
             </VectorParam>
             <VectorParam id="2299"  name="geometryCrop">
              <InterpolatingParam id="2300" interp="linr"  time="-9999999/1" value="0" leadInLength="0/1"  />
              <InterpolatingParam id="2301" interp="linr"  time="-9999999/1" value="0" leadInLength="0/1"  />
              <InterpolatingParam id="2302" interp="linr"  time="-9999999/1" value="0" leadInLength="0/1"  />
              <InterpolatingParam id="2303" interp="linr"  time="-9999999/1" value="0" leadInLength="0/1"  />
             </VectorParam>
             <InterpolatingParam id="2304" interp="linr"  time="-9999999/1" value="1" leadInLength="0/1"  name="opacity"/>
             <InterpolatingParam id="2305" interp="linr"  time="0/1" value="0" leadInLength="0/1"  name="cursorOpacity"/>
             <InterpolatingParam id="2306" interp="linr"  time="0/1" value="0" leadInLength="0/1"  name="recordedCursorOpacity"/>
             <InterpolatingParam id="2307" interp="linr"  time="0/1" value="0" leadInLength="0/1"  name="cursorScale"/>
            </Parameters>
            <Attributes>
             <Attribute id="2308" value="" name="ident"/>
            </Attributes>
            <MetaData>
             <entry key="AutoAppliedSmartFocus" val="False"/>
             <entry key="WinSubProjectDisplayName" val=""/>
            </MetaData>
            <ExtraData>
             <Entry key="ZoomPanBin">
              <ZoomPanBin id="2309"  >
               <ZoomPanKeyframes>
                <ZoomPanKeyframe id="2310" timeRangeEnd="-9999999/1" timeRangeDuration="0/1" interpolaterName="linr"  />
               </ZoomPanKeyframes>
              </ZoomPanBin>
             </Entry>
             <Entry key="CursorEffectBin">
              <CursorEffectBin id="2311"  >
               <CursorEffectKeyframes>
               </CursorEffectKeyframes>
              </CursorEffectBin>
             </Entry>
            </ExtraData>
           </ScreenIMFile>
           <ScreenVMFile id="2312" start="2896" duration="70" scalar="1/1" mediaStart="1282/1" mediaDuration="70/1" trackNumber="0" src="4" >
            <Transformer>
             <VectorParam id="2313"  name="translation">
              <InterpolatingParam id="2314" interp="linr"  time="-9999999/1" value="0" leadInLength="0/1"  />
              <InterpolatingParam id="2315" interp="linr"  time="-9999999/1" value="0" leadInLength="0/1"  />
              <InterpolatingParam id="2316" interp="linr"  time="-9999999/1" value="0" leadInLength="0/1"  />
             </VectorParam>
             <VectorParam id="2317"  name="rotation">
              <InterpolatingParam id="2318" interp="linr"  time="-9999999/1" value="0" leadInLength="0/1"  />
              <InterpolatingParam id="2319" interp="linr"  time="-9999999/1" value="0" leadInLength="0/1"  />
              <InterpolatingParam id="2320" interp="linr"  time="-9999999/1" value="0" leadInLength="0/1"  />
             </VectorParam>
             <VectorParam id="2321"  name="shear">
              <InterpolatingParam id="2322" interp="linr"  time="-9999999/1" value="0" leadInLength="0/1"  />
              <InterpolatingParam id="2323" interp="linr"  time="-9999999/1" value="0" leadInLength="0/1"  />
              <InterpolatingParam id="2324" interp="linr"  time="-9999999/1" value="0" leadInLength="0/1"  />
             </VectorParam>
             <VectorParam id="2325"  name="scale">
              <InterpolatingParam id="2326" interp="linr"  time="-9999999/1" value="1" leadInLength="0/1"  />
              <InterpolatingParam id="2327" interp="linr"  time="-9999999/1" value="1" leadInLength="0/1"  />
              <InterpolatingParam id="2328" interp="linr"  time="-9999999/1" value="1" leadInLength="0/1"  />
             </VectorParam>
             <VectorParam id="2329"  name="anchor">
              <InterpolatingParam id="2330" interp="linr"  time="0/1" value="0" leadInLength="0/1"  />
              <InterpolatingParam id="2331" interp="linr"  time="0/1" value="0" leadInLength="0/1"  />
              <InterpolatingParam id="2332" interp="linr"  time="0/1" value="0" leadInLength="0/1"  />
             </VectorParam>
            </Transformer>
            <Parameters>
             <VectorParam id="2333"  name="sourceCrop">
              <InterpolatingParam id="2334" interp="linr"  time="0/1" value="0" leadInLength="0/1"  />
              <InterpolatingParam id="2335" interp="linr"  time="0/1" value="0" leadInLength="0/1"  />
              <InterpolatingParam id="2336" interp="linr"  time="0/1" value="0" leadInLength="0/1"  />
              <InterpolatingParam id="2337" interp="linr"  time="0/1" value="0" leadInLength="0/1"  />
             </VectorParam>
             <VectorParam id="2338"  name="geometryCrop">
              <InterpolatingParam id="2339" interp="linr"  time="-9999999/1" value="0" leadInLength="0/1"  />
              <InterpolatingParam id="2340" interp="linr"  time="-9999999/1" value="0" leadInLength="0/1"  />
              <InterpolatingParam id="2341" interp="linr"  time="-9999999/1" value="0" leadInLength="0/1"  />
              <InterpolatingParam id="2342" interp="linr"  time="-9999999/1" value="0" leadInLength="0/1"  />
             </VectorParam>
             <InterpolatingParam id="2343" interp="linr"  time="-9999999/1" value="1" leadInLength="0/1"  name="opacity"/>
             <InterpolatingParam id="2344" interp="linr"  time="0/1" value="0" leadInLength="0/1"  name="cursorOpacity"/>
             <InterpolatingParam id="2345" interp="linr"  time="0/1" value="0" leadInLength="0/1"  name="cursorScale"/>
            </Parameters>
            <Attributes>
             <Attribute id="2346" value="" name="ident"/>
            </Attributes>
            <MetaData>
             <entry key="AutoAppliedSmartFocus" val="False"/>
             <entry key="WinSubProjectDisplayName" val=""/>
            </MetaData>
            <ExtraData>
             <Entry key="ZoomPanBin">
              <ZoomPanBin id="2347"  >
               <ZoomPanKeyframes>
                <ZoomPanKeyframe id="2348" timeRangeEnd="-9999999/1" timeRangeDuration="0/1" interpolaterName="linr"  />
               </ZoomPanKeyframes>
              </ZoomPanBin>
             </Entry>
             <Entry key="CursorEffectBin">
              <CursorEffectBin id="2349"  >
               <CursorEffectKeyframes>
               </CursorEffectKeyframes>
              </CursorEffectBin>
             </Entry>
            </ExtraData>
           </ScreenVMFile>
           <ScreenIMFile id="2350" start="2966" duration="300" scalar="1/1" mediaStart="1352/1" mediaDuration="1/1" trackNumber="0" src="4" trimStartSum="0/1" >
            <Transformer>
             <VectorParam id="2351"  name="translation">
              <InterpolatingParam id="2352" interp="linr"  time="-9999999/1" value="0" leadInLength="0/1"  />
              <InterpolatingParam id="2353" interp="linr"  time="-9999999/1" value="0" leadInLength="0/1"  />
              <InterpolatingParam id="2354" interp="linr"  time="-9999999/1" value="0" leadInLength="0/1"  />
             </VectorParam>
             <VectorParam id="2355"  name="rotation">
              <InterpolatingParam id="2356" interp="linr"  time="-9999999/1" value="0" leadInLength="0/1"  />
              <InterpolatingParam id="2357" interp="linr"  time="-9999999/1" value="0" leadInLength="0/1"  />
              <InterpolatingParam id="2358" interp="linr"  time="-9999999/1" value="0" leadInLength="0/1"  />
             </VectorParam>
             <VectorParam id="2359"  name="shear">
              <InterpolatingParam id="2360" interp="linr"  time="-9999999/1" value="0" leadInLength="0/1"  />
              <InterpolatingParam id="2361" interp="linr"  time="-9999999/1" value="0" leadInLength="0/1"  />
              <InterpolatingParam id="2362" interp="linr"  time="-9999999/1" value="0" leadInLength="0/1"  />
             </VectorParam>
             <VectorParam id="2363"  name="scale">
              <InterpolatingParam id="2364" interp="linr"  time="-9999999/1" value="1" leadInLength="0/1"  />
              <InterpolatingParam id="2365" interp="linr"  time="-9999999/1" value="1" leadInLength="0/1"  />
              <InterpolatingParam id="2366" interp="linr"  time="-9999999/1" value="1" leadInLength="0/1"  />
             </VectorParam>
             <VectorParam id="2367"  name="anchor">
              <InterpolatingParam id="2368" interp="linr"  time="0/1" value="0" leadInLength="0/1"  />
              <InterpolatingParam id="2369" interp="linr"  time="0/1" value="0" leadInLength="0/1"  />
              <InterpolatingParam id="2370" interp="linr"  time="0/1" value="0" leadInLength="0/1"  />
             </VectorParam>
            </Transformer>
            <Parameters>
             <VectorParam id="2371"  name="sourceCrop">
              <InterpolatingParam id="2372" interp="linr"  time="0/1" value="0" leadInLength="0/1"  />
              <InterpolatingParam id="2373" interp="linr"  time="0/1" value="0" leadInLength="0/1"  />
              <InterpolatingParam id="2374" interp="linr"  time="0/1" value="0" leadInLength="0/1"  />
              <InterpolatingParam id="2375" interp="linr"  time="0/1" value="0" leadInLength="0/1"  />
             </VectorParam>
             <VectorParam id="2376"  name="geometryCrop">
              <InterpolatingParam id="2377" interp="linr"  time="-9999999/1" value="0" leadInLength="0/1"  />
              <InterpolatingParam id="2378" interp="linr"  time="-9999999/1" value="0" leadInLength="0/1"  />
              <InterpolatingParam id="2379" interp="linr"  time="-9999999/1" value="0" leadInLength="0/1"  />
              <InterpolatingParam id="2380" interp="linr"  time="-9999999/1" value="0" leadInLength="0/1"  />
             </VectorParam>
             <InterpolatingParam id="2381" interp="linr"  time="-9999999/1" value="1" leadInLength="0/1"  name="opacity"/>
             <InterpolatingParam id="2382" interp="linr"  time="0/1" value="0" leadInLength="0/1"  name="cursorOpacity"/>
             <InterpolatingParam id="2383" interp="linr"  time="0/1" value="0" leadInLength="0/1"  name="recordedCursorOpacity"/>
             <InterpolatingParam id="2384" interp="linr"  time="0/1" value="0" leadInLength="0/1"  name="cursorScale"/>
            </Parameters>
            <Attributes>
             <Attribute id="2385" value="" name="ident"/>
            </Attributes>
            <MetaData>
             <entry key="AutoAppliedSmartFocus" val="False"/>
             <entry key="WinSubProjectDisplayName" val=""/>
            </MetaData>
            <ExtraData>
             <Entry key="ZoomPanBin">
              <ZoomPanBin id="2386"  >
               <ZoomPanKeyframes>
                <ZoomPanKeyframe id="2387" timeRangeEnd="-9999999/1" timeRangeDuration="0/1" interpolaterName="linr"  />
               </ZoomPanKeyframes>
              </ZoomPanBin>
             </Entry>
             <Entry key="CursorEffectBin">
              <CursorEffectBin id="2388"  >
               <CursorEffectKeyframes>
               </CursorEffectKeyframes>
              </CursorEffectBin>
             </Entry>
            </ExtraData>
           </ScreenIMFile>
           <ScreenVMFile id="2389" start="3266" duration="144" scalar="1/1" mediaStart="1352/1" mediaDuration="144/1" trackNumber="0" src="4" >
            <Transformer>
             <VectorParam id="2390"  name="translation">
              <InterpolatingParam id="2391" interp="linr"  time="-9999999/1" value="0" leadInLength="0/1"  />
              <InterpolatingParam id="2392" interp="linr"  time="-9999999/1" value="0" leadInLength="0/1"  />
              <InterpolatingParam id="2393" interp="linr"  time="-9999999/1" value="0" leadInLength="0/1"  />
             </VectorParam>
             <VectorParam id="2394"  name="rotation">
              <InterpolatingParam id="2395" interp="linr"  time="-9999999/1" value="0" leadInLength="0/1"  />
              <InterpolatingParam id="2396" interp="linr"  time="-9999999/1" value="0" leadInLength="0/1"  />
              <InterpolatingParam id="2397" interp="linr"  time="-9999999/1" value="0" leadInLength="0/1"  />
             </VectorParam>
             <VectorParam id="2398"  name="shear">
              <InterpolatingParam id="2399" interp="linr"  time="-9999999/1" value="0" leadInLength="0/1"  />
              <InterpolatingParam id="2400" interp="linr"  time="-9999999/1" value="0" leadInLength="0/1"  />
              <InterpolatingParam id="2401" interp="linr"  time="-9999999/1" value="0" leadInLength="0/1"  />
             </VectorParam>
             <VectorParam id="2402"  name="scale">
              <InterpolatingParam id="2403" interp="linr"  time="-9999999/1" value="1" leadInLength="0/1"  />
              <InterpolatingParam id="2404" interp="linr"  time="-9999999/1" value="1" leadInLength="0/1"  />
              <InterpolatingParam id="2405" interp="linr"  time="-9999999/1" value="1" leadInLength="0/1"  />
             </VectorParam>
             <VectorParam id="2406"  name="anchor">
              <InterpolatingParam id="2407" interp="linr"  time="0/1" value="0" leadInLength="0/1"  />
              <InterpolatingParam id="2408" interp="linr"  time="0/1" value="0" leadInLength="0/1"  />
              <InterpolatingParam id="2409" interp="linr"  time="0/1" value="0" leadInLength="0/1"  />
             </VectorParam>
            </Transformer>
            <Parameters>
             <VectorParam id="2410"  name="sourceCrop">
              <InterpolatingParam id="2411" interp="linr"  time="0/1" value="0" leadInLength="0/1"  />
              <InterpolatingParam id="2412" interp="linr"  time="0/1" value="0" leadInLength="0/1"  />
              <InterpolatingParam id="2413" interp="linr"  time="0/1" value="0" leadInLength="0/1"  />
              <InterpolatingParam id="2414" interp="linr"  time="0/1" value="0" leadInLength="0/1"  />
             </VectorParam>
             <VectorParam id="2415"  name="geometryCrop">
              <InterpolatingParam id="2416" interp="linr"  time="-9999999/1" value="0" leadInLength="0/1"  />
              <InterpolatingParam id="2417" interp="linr"  time="-9999999/1" value="0" leadInLength="0/1"  />
              <InterpolatingParam id="2418" interp="linr"  time="-9999999/1" value="0" leadInLength="0/1"  />
              <InterpolatingParam id="2419" interp="linr"  time="-9999999/1" value="0" leadInLength="0/1"  />
             </VectorParam>
             <InterpolatingParam id="2420" interp="linr"  time="-9999999/1" value="1" leadInLength="0/1"  name="opacity"/>
             <InterpolatingParam id="2421" interp="linr"  time="0/1" value="0" leadInLength="0/1"  name="cursorOpacity"/>
             <InterpolatingParam id="2422" interp="linr"  time="0/1" value="0" leadInLength="0/1"  name="cursorScale"/>
            </Parameters>
            <Attributes>
             <Attribute id="2423" value="" name="ident"/>
            </Attributes>
            <MetaData>
             <entry key="AutoAppliedSmartFocus" val="False"/>
             <entry key="WinSubProjectDisplayName" val=""/>
            </MetaData>
            <ExtraData>
             <Entry key="ZoomPanBin">
              <ZoomPanBin id="2424"  >
               <ZoomPanKeyframes>
                <ZoomPanKeyframe id="2425" timeRangeEnd="-9999999/1" timeRangeDuration="0/1" interpolaterName="linr"  />
               </ZoomPanKeyframes>
              </ZoomPanBin>
             </Entry>
             <Entry key="CursorEffectBin">
              <CursorEffectBin id="2426"  >
               <CursorEffectKeyframes>
               </CursorEffectKeyframes>
              </CursorEffectBin>
             </Entry>
            </ExtraData>
           </ScreenVMFile>
           <ScreenIMFile id="2427" start="3410" duration="150" scalar="1/1" mediaStart="1496/1" mediaDuration="1/1" trackNumber="0" src="4" trimStartSum="0/1" >
            <Transformer>
             <VectorParam id="2428"  name="translation">
              <InterpolatingParam id="2429" interp="linr"  time="-9999999/1" value="0" leadInLength="0/1"  />
              <InterpolatingParam id="2430" interp="linr"  time="-9999999/1" value="0" leadInLength="0/1"  />
              <InterpolatingParam id="2431" interp="linr"  time="-9999999/1" value="0" leadInLength="0/1"  />
             </VectorParam>
             <VectorParam id="2432"  name="rotation">
              <InterpolatingParam id="2433" interp="linr"  time="-9999999/1" value="0" leadInLength="0/1"  />
              <InterpolatingParam id="2434" interp="linr"  time="-9999999/1" value="0" leadInLength="0/1"  />
              <InterpolatingParam id="2435" interp="linr"  time="-9999999/1" value="0" leadInLength="0/1"  />
             </VectorParam>
             <VectorParam id="2436"  name="shear">
              <InterpolatingParam id="2437" interp="linr"  time="-9999999/1" value="0" leadInLength="0/1"  />
              <InterpolatingParam id="2438" interp="linr"  time="-9999999/1" value="0" leadInLength="0/1"  />
              <InterpolatingParam id="2439" interp="linr"  time="-9999999/1" value="0" leadInLength="0/1"  />
             </VectorParam>
             <VectorParam id="2440"  name="scale">
              <InterpolatingParam id="2441" interp="linr"  time="-9999999/1" value="1" leadInLength="0/1"  />
              <InterpolatingParam id="2442" interp="linr"  time="-9999999/1" value="1" leadInLength="0/1"  />
              <InterpolatingParam id="2443" interp="linr"  time="-9999999/1" value="1" leadInLength="0/1"  />
             </VectorParam>
             <VectorParam id="2444"  name="anchor">
              <InterpolatingParam id="2445" interp="linr"  time="0/1" value="0" leadInLength="0/1"  />
              <InterpolatingParam id="2446" interp="linr"  time="0/1" value="0" leadInLength="0/1"  />
              <InterpolatingParam id="2447" interp="linr"  time="0/1" value="0" leadInLength="0/1"  />
             </VectorParam>
            </Transformer>
            <Parameters>
             <VectorParam id="2448"  name="sourceCrop">
              <InterpolatingParam id="2449" interp="linr"  time="0/1" value="0" leadInLength="0/1"  />
              <InterpolatingParam id="2450" interp="linr"  time="0/1" value="0" leadInLength="0/1"  />
              <InterpolatingParam id="2451" interp="linr"  time="0/1" value="0" leadInLength="0/1"  />
              <InterpolatingParam id="2452" interp="linr"  time="0/1" value="0" leadInLength="0/1"  />
             </VectorParam>
             <VectorParam id="2453"  name="geometryCrop">
              <InterpolatingParam id="2454" interp="linr"  time="-9999999/1" value="0" leadInLength="0/1"  />
              <InterpolatingParam id="2455" interp="linr"  time="-9999999/1" value="0" leadInLength="0/1"  />
              <InterpolatingParam id="2456" interp="linr"  time="-9999999/1" value="0" leadInLength="0/1"  />
              <InterpolatingParam id="2457" interp="linr"  time="-9999999/1" value="0" leadInLength="0/1"  />
             </VectorParam>
             <InterpolatingParam id="2458" interp="linr"  time="-9999999/1" value="1" leadInLength="0/1"  name="opacity"/>
             <InterpolatingParam id="2459" interp="linr"  time="0/1" value="0" leadInLength="0/1"  name="cursorOpacity"/>
             <InterpolatingParam id="2460" interp="linr"  time="0/1" value="0" leadInLength="0/1"  name="recordedCursorOpacity"/>
             <InterpolatingParam id="2461" interp="linr"  time="0/1" value="0" leadInLength="0/1"  name="cursorScale"/>
            </Parameters>
            <Attributes>
             <Attribute id="2462" value="" name="ident"/>
            </Attributes>
            <MetaData>
             <entry key="AutoAppliedSmartFocus" val="False"/>
             <entry key="WinSubProjectDisplayName" val=""/>
            </MetaData>
            <ExtraData>
             <Entry key="ZoomPanBin">
              <ZoomPanBin id="2463"  >
               <ZoomPanKeyframes>
                <ZoomPanKeyframe id="2464" timeRangeEnd="-9999999/1" timeRangeDuration="0/1" interpolaterName="linr"  />
               </ZoomPanKeyframes>
              </ZoomPanBin>
             </Entry>
             <Entry key="CursorEffectBin">
              <CursorEffectBin id="2465"  >
               <CursorEffectKeyframes>
               </CursorEffectKeyframes>
              </CursorEffectBin>
             </Entry>
            </ExtraData>
           </ScreenIMFile>
           <ScreenVMFile id="2466" start="3560" duration="70" scalar="1/1" mediaStart="1496/1" mediaDuration="70/1" trackNumber="0" src="4" >
            <Transformer>
             <VectorParam id="2467"  name="translation">
              <InterpolatingParam id="2468" interp="linr"  time="-9999999/1" value="0" leadInLength="0/1"  />
              <InterpolatingParam id="2469" interp="linr"  time="-9999999/1" value="0" leadInLength="0/1"  />
              <InterpolatingParam id="2470" interp="linr"  time="-9999999/1" value="0" leadInLength="0/1"  />
             </VectorParam>
             <VectorParam id="2471"  name="rotation">
              <InterpolatingParam id="2472" interp="linr"  time="-9999999/1" value="0" leadInLength="0/1"  />
              <InterpolatingParam id="2473" interp="linr"  time="-9999999/1" value="0" leadInLength="0/1"  />
              <InterpolatingParam id="2474" interp="linr"  time="-9999999/1" value="0" leadInLength="0/1"  />
             </VectorParam>
             <VectorParam id="2475"  name="shear">
              <InterpolatingParam id="2476" interp="linr"  time="-9999999/1" value="0" leadInLength="0/1"  />
              <InterpolatingParam id="2477" interp="linr"  time="-9999999/1" value="0" leadInLength="0/1"  />
              <InterpolatingParam id="2478" interp="linr"  time="-9999999/1" value="0" leadInLength="0/1"  />
             </VectorParam>
             <VectorParam id="2479"  name="scale">
              <InterpolatingParam id="2480" interp="linr"  time="-9999999/1" value="1" leadInLength="0/1"  />
              <InterpolatingParam id="2481" interp="linr"  time="-9999999/1" value="1" leadInLength="0/1"  />
              <InterpolatingParam id="2482" interp="linr"  time="-9999999/1" value="1" leadInLength="0/1"  />
             </VectorParam>
             <VectorParam id="2483"  name="anchor">
              <InterpolatingParam id="2484" interp="linr"  time="0/1" value="0" leadInLength="0/1"  />
              <InterpolatingParam id="2485" interp="linr"  time="0/1" value="0" leadInLength="0/1"  />
              <InterpolatingParam id="2486" interp="linr"  time="0/1" value="0" leadInLength="0/1"  />
             </VectorParam>
            </Transformer>
            <Parameters>
             <VectorParam id="2487"  name="sourceCrop">
              <InterpolatingParam id="2488" interp="linr"  time="0/1" value="0" leadInLength="0/1"  />
              <InterpolatingParam id="2489" interp="linr"  time="0/1" value="0" leadInLength="0/1"  />
              <InterpolatingParam id="2490" interp="linr"  time="0/1" value="0" leadInLength="0/1"  />
              <InterpolatingParam id="2491" interp="linr"  time="0/1" value="0" leadInLength="0/1"  />
             </VectorParam>
             <VectorParam id="2492"  name="geometryCrop">
              <InterpolatingParam id="2493" interp="linr"  time="-9999999/1" value="0" leadInLength="0/1"  />
              <InterpolatingParam id="2494" interp="linr"  time="-9999999/1" value="0" leadInLength="0/1"  />
              <InterpolatingParam id="2495" interp="linr"  time="-9999999/1" value="0" leadInLength="0/1"  />
              <InterpolatingParam id="2496" interp="linr"  time="-9999999/1" value="0" leadInLength="0/1"  />
             </VectorParam>
             <InterpolatingParam id="2497" interp="linr"  time="-9999999/1" value="1" leadInLength="0/1"  name="opacity"/>
             <InterpolatingParam id="2498" interp="linr"  time="0/1" value="0" leadInLength="0/1"  name="cursorOpacity"/>
             <InterpolatingParam id="2499" interp="linr"  time="0/1" value="0" leadInLength="0/1"  name="cursorScale"/>
            </Parameters>
            <Attributes>
             <Attribute id="2500" value="" name="ident"/>
            </Attributes>
            <MetaData>
             <entry key="AutoAppliedSmartFocus" val="False"/>
             <entry key="WinSubProjectDisplayName" val=""/>
            </MetaData>
            <ExtraData>
             <Entry key="ZoomPanBin">
              <ZoomPanBin id="2501"  >
               <ZoomPanKeyframes>
                <ZoomPanKeyframe id="2502" timeRangeEnd="-9999999/1" timeRangeDuration="0/1" interpolaterName="linr"  />
               </ZoomPanKeyframes>
              </ZoomPanBin>
             </Entry>
             <Entry key="CursorEffectBin">
              <CursorEffectBin id="2503"  >
               <CursorEffectKeyframes>
               </CursorEffectKeyframes>
              </CursorEffectBin>
             </Entry>
            </ExtraData>
           </ScreenVMFile>
           <ScreenIMFile id="2504" start="3630" duration="90" scalar="1/1" mediaStart="1566/1" mediaDuration="1/1" trackNumber="0" src="4" trimStartSum="0/1" >
            <Transformer>
             <VectorParam id="2505"  name="translation">
              <InterpolatingParam id="2506" interp="linr"  time="-9999999/1" value="0" leadInLength="0/1"  />
              <InterpolatingParam id="2507" interp="linr"  time="-9999999/1" value="0" leadInLength="0/1"  />
              <InterpolatingParam id="2508" interp="linr"  time="-9999999/1" value="0" leadInLength="0/1"  />
             </VectorParam>
             <VectorParam id="2509"  name="rotation">
              <InterpolatingParam id="2510" interp="linr"  time="-9999999/1" value="0" leadInLength="0/1"  />
              <InterpolatingParam id="2511" interp="linr"  time="-9999999/1" value="0" leadInLength="0/1"  />
              <InterpolatingParam id="2512" interp="linr"  time="-9999999/1" value="0" leadInLength="0/1"  />
             </VectorParam>
             <VectorParam id="2513"  name="shear">
              <InterpolatingParam id="2514" interp="linr"  time="-9999999/1" value="0" leadInLength="0/1"  />
              <InterpolatingParam id="2515" interp="linr"  time="-9999999/1" value="0" leadInLength="0/1"  />
              <InterpolatingParam id="2516" interp="linr"  time="-9999999/1" value="0" leadInLength="0/1"  />
             </VectorParam>
             <VectorParam id="2517"  name="scale">
              <InterpolatingParam id="2518" interp="linr"  time="-9999999/1" value="1" leadInLength="0/1"  />
              <InterpolatingParam id="2519" interp="linr"  time="-9999999/1" value="1" leadInLength="0/1"  />
              <InterpolatingParam id="2520" interp="linr"  time="-9999999/1" value="1" leadInLength="0/1"  />
             </VectorParam>
             <VectorParam id="2521"  name="anchor">
              <InterpolatingParam id="2522" interp="linr"  time="0/1" value="0" leadInLength="0/1"  />
              <InterpolatingParam id="2523" interp="linr"  time="0/1" value="0" leadInLength="0/1"  />
              <InterpolatingParam id="2524" interp="linr"  time="0/1" value="0" leadInLength="0/1"  />
             </VectorParam>
            </Transformer>
            <Parameters>
             <VectorParam id="2525"  name="sourceCrop">
              <InterpolatingParam id="2526" interp="linr"  time="0/1" value="0" leadInLength="0/1"  />
              <InterpolatingParam id="2527" interp="linr"  time="0/1" value="0" leadInLength="0/1"  />
              <InterpolatingParam id="2528" interp="linr"  time="0/1" value="0" leadInLength="0/1"  />
              <InterpolatingParam id="2529" interp="linr"  time="0/1" value="0" leadInLength="0/1"  />
             </VectorParam>
             <VectorParam id="2530"  name="geometryCrop">
              <InterpolatingParam id="2531" interp="linr"  time="-9999999/1" value="0" leadInLength="0/1"  />
              <InterpolatingParam id="2532" interp="linr"  time="-9999999/1" value="0" leadInLength="0/1"  />
              <InterpolatingParam id="2533" interp="linr"  time="-9999999/1" value="0" leadInLength="0/1"  />
              <InterpolatingParam id="2534" interp="linr"  time="-9999999/1" value="0" leadInLength="0/1"  />
             </VectorParam>
             <InterpolatingParam id="2535" interp="linr"  time="-9999999/1" value="1" leadInLength="0/1"  name="opacity"/>
             <InterpolatingParam id="2536" interp="linr"  time="0/1" value="0" leadInLength="0/1"  name="cursorOpacity"/>
             <InterpolatingParam id="2537" interp="linr"  time="0/1" value="0" leadInLength="0/1"  name="recordedCursorOpacity"/>
             <InterpolatingParam id="2538" interp="linr"  time="0/1" value="0" leadInLength="0/1"  name="cursorScale"/>
            </Parameters>
            <Attributes>
             <Attribute id="2539" value="" name="ident"/>
            </Attributes>
            <MetaData>
             <entry key="AutoAppliedSmartFocus" val="False"/>
             <entry key="WinSubProjectDisplayName" val=""/>
            </MetaData>
            <ExtraData>
             <Entry key="ZoomPanBin">
              <ZoomPanBin id="2540"  >
               <ZoomPanKeyframes>
                <ZoomPanKeyframe id="2541" timeRangeEnd="-9999999/1" timeRangeDuration="0/1" interpolaterName="linr"  />
               </ZoomPanKeyframes>
              </ZoomPanBin>
             </Entry>
             <Entry key="CursorEffectBin">
              <CursorEffectBin id="2542"  >
               <CursorEffectKeyframes>
               </CursorEffectKeyframes>
              </CursorEffectBin>
             </Entry>
            </ExtraData>
           </ScreenIMFile>
           <ScreenVMFile id="2543" start="3720" duration="43" scalar="1/1" mediaStart="1566/1" mediaDuration="43/1" trackNumber="0" src="4" >
            <Transformer>
             <VectorParam id="2544"  name="translation">
              <InterpolatingParam id="2545" interp="linr"  time="-9999999/1" value="0" leadInLength="0/1"  />
              <InterpolatingParam id="2546" interp="linr"  time="-9999999/1" value="0" leadInLength="0/1"  />
              <InterpolatingParam id="2547" interp="linr"  time="-9999999/1" value="0" leadInLength="0/1"  />
             </VectorParam>
             <VectorParam id="2548"  name="rotation">
              <InterpolatingParam id="2549" interp="linr"  time="-9999999/1" value="0" leadInLength="0/1"  />
              <InterpolatingParam id="2550" interp="linr"  time="-9999999/1" value="0" leadInLength="0/1"  />
              <InterpolatingParam id="2551" interp="linr"  time="-9999999/1" value="0" leadInLength="0/1"  />
             </VectorParam>
             <VectorParam id="2552"  name="shear">
              <InterpolatingParam id="2553" interp="linr"  time="-9999999/1" value="0" leadInLength="0/1"  />
              <InterpolatingParam id="2554" interp="linr"  time="-9999999/1" value="0" leadInLength="0/1"  />
              <InterpolatingParam id="2555" interp="linr"  time="-9999999/1" value="0" leadInLength="0/1"  />
             </VectorParam>
             <VectorParam id="2556"  name="scale">
              <InterpolatingParam id="2557" interp="linr"  time="-9999999/1" value="1" leadInLength="0/1"  />
              <InterpolatingParam id="2558" interp="linr"  time="-9999999/1" value="1" leadInLength="0/1"  />
              <InterpolatingParam id="2559" interp="linr"  time="-9999999/1" value="1" leadInLength="0/1"  />
             </VectorParam>
             <VectorParam id="2560"  name="anchor">
              <InterpolatingParam id="2561" interp="linr"  time="0/1" value="0" leadInLength="0/1"  />
              <InterpolatingParam id="2562" interp="linr"  time="0/1" value="0" leadInLength="0/1"  />
              <InterpolatingParam id="2563" interp="linr"  time="0/1" value="0" leadInLength="0/1"  />
             </VectorParam>
            </Transformer>
            <Parameters>
             <VectorParam id="2564"  name="sourceCrop">
              <InterpolatingParam id="2565" interp="linr"  time="0/1" value="0" leadInLength="0/1"  />
              <InterpolatingParam id="2566" interp="linr"  time="0/1" value="0" leadInLength="0/1"  />
              <InterpolatingParam id="2567" interp="linr"  time="0/1" value="0" leadInLength="0/1"  />
              <InterpolatingParam id="2568" interp="linr"  time="0/1" value="0" leadInLength="0/1"  />
             </VectorParam>
             <VectorParam id="2569"  name="geometryCrop">
              <InterpolatingParam id="2570" interp="linr"  time="-9999999/1" value="0" leadInLength="0/1"  />
              <InterpolatingParam id="2571" interp="linr"  time="-9999999/1" value="0" leadInLength="0/1"  />
              <InterpolatingParam id="2572" interp="linr"  time="-9999999/1" value="0" leadInLength="0/1"  />
              <InterpolatingParam id="2573" interp="linr"  time="-9999999/1" value="0" leadInLength="0/1"  />
             </VectorParam>
             <InterpolatingParam id="2574" interp="linr"  time="-9999999/1" value="1" leadInLength="0/1"  name="opacity"/>
             <InterpolatingParam id="2575" interp="linr"  time="0/1" value="0" leadInLength="0/1"  name="cursorOpacity"/>
             <InterpolatingParam id="2576" interp="linr"  time="0/1" value="0" leadInLength="0/1"  name="cursorScale"/>
            </Parameters>
            <Attributes>
             <Attribute id="2577" value="" name="ident"/>
            </Attributes>
            <MetaData>
             <entry key="AutoAppliedSmartFocus" val="False"/>
             <entry key="WinSubProjectDisplayName" val=""/>
            </MetaData>
            <ExtraData>
             <Entry key="ZoomPanBin">
              <ZoomPanBin id="2578"  >
               <ZoomPanKeyframes>
                <ZoomPanKeyframe id="2579" timeRangeEnd="-9999999/1" timeRangeDuration="0/1" interpolaterName="linr"  />
               </ZoomPanKeyframes>
              </ZoomPanBin>
             </Entry>
             <Entry key="CursorEffectBin">
              <CursorEffectBin id="2580"  >
               <CursorEffectKeyframes>
               </CursorEffectKeyframes>
              </CursorEffectBin>
             </Entry>
            </ExtraData>
           </ScreenVMFile>
           <ScreenIMFile id="2581" start="3763" duration="90" scalar="1/1" mediaStart="1609/1" mediaDuration="1/1" trackNumber="0" src="4" trimStartSum="0/1" >
            <Transformer>
             <VectorParam id="2582"  name="translation">
              <InterpolatingParam id="2583" interp="linr"  time="-9999999/1" value="0" leadInLength="0/1"  />
              <InterpolatingParam id="2584" interp="linr"  time="-9999999/1" value="0" leadInLength="0/1"  />
              <InterpolatingParam id="2585" interp="linr"  time="-9999999/1" value="0" leadInLength="0/1"  />
             </VectorParam>
             <VectorParam id="2586"  name="rotation">
              <InterpolatingParam id="2587" interp="linr"  time="-9999999/1" value="0" leadInLength="0/1"  />
              <InterpolatingParam id="2588" interp="linr"  time="-9999999/1" value="0" leadInLength="0/1"  />
              <InterpolatingParam id="2589" interp="linr"  time="-9999999/1" value="0" leadInLength="0/1"  />
             </VectorParam>
             <VectorParam id="2590"  name="shear">
              <InterpolatingParam id="2591" interp="linr"  time="-9999999/1" value="0" leadInLength="0/1"  />
              <InterpolatingParam id="2592" interp="linr"  time="-9999999/1" value="0" leadInLength="0/1"  />
              <InterpolatingParam id="2593" interp="linr"  time="-9999999/1" value="0" leadInLength="0/1"  />
             </VectorParam>
             <VectorParam id="2594"  name="scale">
              <InterpolatingParam id="2595" interp="linr"  time="-9999999/1" value="1" leadInLength="0/1"  />
              <InterpolatingParam id="2596" interp="linr"  time="-9999999/1" value="1" leadInLength="0/1"  />
              <InterpolatingParam id="2597" interp="linr"  time="-9999999/1" value="1" leadInLength="0/1"  />
             </VectorParam>
             <VectorParam id="2598"  name="anchor">
              <InterpolatingParam id="2599" interp="linr"  time="0/1" value="0" leadInLength="0/1"  />
              <InterpolatingParam id="2600" interp="linr"  time="0/1" value="0" leadInLength="0/1"  />
              <InterpolatingParam id="2601" interp="linr"  time="0/1" value="0" leadInLength="0/1"  />
             </VectorParam>
            </Transformer>
            <Parameters>
             <VectorParam id="2602"  name="sourceCrop">
              <InterpolatingParam id="2603" interp="linr"  time="0/1" value="0" leadInLength="0/1"  />
              <InterpolatingParam id="2604" interp="linr"  time="0/1" value="0" leadInLength="0/1"  />
              <InterpolatingParam id="2605" interp="linr"  time="0/1" value="0" leadInLength="0/1"  />
              <InterpolatingParam id="2606" interp="linr"  time="0/1" value="0" leadInLength="0/1"  />
             </VectorParam>
             <VectorParam id="2607"  name="geometryCrop">
              <InterpolatingParam id="2608" interp="linr"  time="-9999999/1" value="0" leadInLength="0/1"  />
              <InterpolatingParam id="2609" interp="linr"  time="-9999999/1" value="0" leadInLength="0/1"  />
              <InterpolatingParam id="2610" interp="linr"  time="-9999999/1" value="0" leadInLength="0/1"  />
              <InterpolatingParam id="2611" interp="linr"  time="-9999999/1" value="0" leadInLength="0/1"  />
             </VectorParam>
             <InterpolatingParam id="2612" interp="linr"  time="-9999999/1" value="1" leadInLength="0/1"  name="opacity"/>
             <InterpolatingParam id="2613" interp="linr"  time="0/1" value="0" leadInLength="0/1"  name="cursorOpacity"/>
             <InterpolatingParam id="2614" interp="linr"  time="0/1" value="0" leadInLength="0/1"  name="recordedCursorOpacity"/>
             <InterpolatingParam id="2615" interp="linr"  time="0/1" value="0" leadInLength="0/1"  name="cursorScale"/>
            </Parameters>
            <Attributes>
             <Attribute id="2616" value="" name="ident"/>
            </Attributes>
            <MetaData>
             <entry key="AutoAppliedSmartFocus" val="False"/>
             <entry key="WinSubProjectDisplayName" val=""/>
            </MetaData>
            <ExtraData>
             <Entry key="ZoomPanBin">
              <ZoomPanBin id="2617"  >
               <ZoomPanKeyframes>
                <ZoomPanKeyframe id="2618" timeRangeEnd="-9999999/1" timeRangeDuration="0/1" interpolaterName="linr"  />
               </ZoomPanKeyframes>
              </ZoomPanBin>
             </Entry>
             <Entry key="CursorEffectBin">
              <CursorEffectBin id="2619"  >
               <CursorEffectKeyframes>
               </CursorEffectKeyframes>
              </CursorEffectBin>
             </Entry>
            </ExtraData>
           </ScreenIMFile>
           <ScreenVMFile id="2620" start="3853" duration="576" scalar="1/1" mediaStart="1609/1" mediaDuration="576/1" trackNumber="0" src="4" >
            <Transformer>
             <VectorParam id="2621"  name="translation">
              <InterpolatingParam id="2622" interp="linr"  time="-9999999/1" value="0" leadInLength="0/1"  />
              <InterpolatingParam id="2623" interp="linr"  time="-9999999/1" value="0" leadInLength="0/1"  />
              <InterpolatingParam id="2624" interp="linr"  time="-9999999/1" value="0" leadInLength="0/1"  />
             </VectorParam>
             <VectorParam id="2625"  name="rotation">
              <InterpolatingParam id="2626" interp="linr"  time="-9999999/1" value="0" leadInLength="0/1"  />
              <InterpolatingParam id="2627" interp="linr"  time="-9999999/1" value="0" leadInLength="0/1"  />
              <InterpolatingParam id="2628" interp="linr"  time="-9999999/1" value="0" leadInLength="0/1"  />
             </VectorParam>
             <VectorParam id="2629"  name="shear">
              <InterpolatingParam id="2630" interp="linr"  time="-9999999/1" value="0" leadInLength="0/1"  />
              <InterpolatingParam id="2631" interp="linr"  time="-9999999/1" value="0" leadInLength="0/1"  />
              <InterpolatingParam id="2632" interp="linr"  time="-9999999/1" value="0" leadInLength="0/1"  />
             </VectorParam>
             <VectorParam id="2633"  name="scale">
              <InterpolatingParam id="2634" interp="linr"  time="-9999999/1" value="1" leadInLength="0/1"  />
              <InterpolatingParam id="2635" interp="linr"  time="-9999999/1" value="1" leadInLength="0/1"  />
              <InterpolatingParam id="2636" interp="linr"  time="-9999999/1" value="1" leadInLength="0/1"  />
             </VectorParam>
             <VectorParam id="2637"  name="anchor">
              <InterpolatingParam id="2638" interp="linr"  time="0/1" value="0" leadInLength="0/1"  />
              <InterpolatingParam id="2639" interp="linr"  time="0/1" value="0" leadInLength="0/1"  />
              <InterpolatingParam id="2640" interp="linr"  time="0/1" value="0" leadInLength="0/1"  />
             </VectorParam>
            </Transformer>
            <Parameters>
             <VectorParam id="2641"  name="sourceCrop">
              <InterpolatingParam id="2642" interp="linr"  time="0/1" value="0" leadInLength="0/1"  />
              <InterpolatingParam id="2643" interp="linr"  time="0/1" value="0" leadInLength="0/1"  />
              <InterpolatingParam id="2644" interp="linr"  time="0/1" value="0" leadInLength="0/1"  />
              <InterpolatingParam id="2645" interp="linr"  time="0/1" value="0" leadInLength="0/1"  />
             </VectorParam>
             <VectorParam id="2646"  name="geometryCrop">
              <InterpolatingParam id="2647" interp="linr"  time="-9999999/1" value="0" leadInLength="0/1"  />
              <InterpolatingParam id="2648" interp="linr"  time="-9999999/1" value="0" leadInLength="0/1"  />
              <InterpolatingParam id="2649" interp="linr"  time="-9999999/1" value="0" leadInLength="0/1"  />
              <InterpolatingParam id="2650" interp="linr"  time="-9999999/1" value="0" leadInLength="0/1"  />
             </VectorParam>
             <InterpolatingParam id="2651" interp="linr"  time="-9999999/1" value="1" leadInLength="0/1"  name="opacity"/>
             <InterpolatingParam id="2652" interp="linr"  time="0/1" value="0" leadInLength="0/1"  name="cursorOpacity"/>
             <InterpolatingParam id="2653" interp="linr"  time="0/1" value="0" leadInLength="0/1"  name="cursorScale"/>
            </Parameters>
            <Attributes>
             <Attribute id="2654" value="" name="ident"/>
            </Attributes>
            <MetaData>
             <entry key="AutoAppliedSmartFocus" val="False"/>
             <entry key="WinSubProjectDisplayName" val=""/>
            </MetaData>
            <ExtraData>
             <Entry key="ZoomPanBin">
              <ZoomPanBin id="2655"  >
               <ZoomPanKeyframes>
                <ZoomPanKeyframe id="2656" timeRangeEnd="-9999999/1" timeRangeDuration="0/1" interpolaterName="linr"  />
               </ZoomPanKeyframes>
              </ZoomPanBin>
             </Entry>
             <Entry key="CursorEffectBin">
              <CursorEffectBin id="2657"  >
               <CursorEffectKeyframes>
               </CursorEffectKeyframes>
              </CursorEffectBin>
             </Entry>
            </ExtraData>
           </ScreenVMFile>
           <ScreenIMFile id="2658" start="4429" duration="90" scalar="1/1" mediaStart="2185/1" mediaDuration="1/1" trackNumber="0" src="4" trimStartSum="0/1" >
            <Transformer>
             <VectorParam id="2659"  name="translation">
              <InterpolatingParam id="2660" interp="linr"  time="-9999999/1" value="0" leadInLength="0/1"  />
              <InterpolatingParam id="2661" interp="linr"  time="-9999999/1" value="0" leadInLength="0/1"  />
              <InterpolatingParam id="2662" interp="linr"  time="-9999999/1" value="0" leadInLength="0/1"  />
             </VectorParam>
             <VectorParam id="2663"  name="rotation">
              <InterpolatingParam id="2664" interp="linr"  time="-9999999/1" value="0" leadInLength="0/1"  />
              <InterpolatingParam id="2665" interp="linr"  time="-9999999/1" value="0" leadInLength="0/1"  />
              <InterpolatingParam id="2666" interp="linr"  time="-9999999/1" value="0" leadInLength="0/1"  />
             </VectorParam>
             <VectorParam id="2667"  name="shear">
              <InterpolatingParam id="2668" interp="linr"  time="-9999999/1" value="0" leadInLength="0/1"  />
              <InterpolatingParam id="2669" interp="linr"  time="-9999999/1" value="0" leadInLength="0/1"  />
              <InterpolatingParam id="2670" interp="linr"  time="-9999999/1" value="0" leadInLength="0/1"  />
             </VectorParam>
             <VectorParam id="2671"  name="scale">
              <InterpolatingParam id="2672" interp="linr"  time="-9999999/1" value="1" leadInLength="0/1"  />
              <InterpolatingParam id="2673" interp="linr"  time="-9999999/1" value="1" leadInLength="0/1"  />
              <InterpolatingParam id="2674" interp="linr"  time="-9999999/1" value="1" leadInLength="0/1"  />
             </VectorParam>
             <VectorParam id="2675"  name="anchor">
              <InterpolatingParam id="2676" interp="linr"  time="0/1" value="0" leadInLength="0/1"  />
              <InterpolatingParam id="2677" interp="linr"  time="0/1" value="0" leadInLength="0/1"  />
              <InterpolatingParam id="2678" interp="linr"  time="0/1" value="0" leadInLength="0/1"  />
             </VectorParam>
            </Transformer>
            <Parameters>
             <VectorParam id="2679"  name="sourceCrop">
              <InterpolatingParam id="2680" interp="linr"  time="0/1" value="0" leadInLength="0/1"  />
              <InterpolatingParam id="2681" interp="linr"  time="0/1" value="0" leadInLength="0/1"  />
              <InterpolatingParam id="2682" interp="linr"  time="0/1" value="0" leadInLength="0/1"  />
              <InterpolatingParam id="2683" interp="linr"  time="0/1" value="0" leadInLength="0/1"  />
             </VectorParam>
             <VectorParam id="2684"  name="geometryCrop">
              <InterpolatingParam id="2685" interp="linr"  time="-9999999/1" value="0" leadInLength="0/1"  />
              <InterpolatingParam id="2686" interp="linr"  time="-9999999/1" value="0" leadInLength="0/1"  />
              <InterpolatingParam id="2687" interp="linr"  time="-9999999/1" value="0" leadInLength="0/1"  />
              <InterpolatingParam id="2688" interp="linr"  time="-9999999/1" value="0" leadInLength="0/1"  />
             </VectorParam>
             <InterpolatingParam id="2689" interp="linr"  time="-9999999/1" value="1" leadInLength="0/1"  name="opacity"/>
             <InterpolatingParam id="2690" interp="linr"  time="0/1" value="0" leadInLength="0/1"  name="cursorOpacity"/>
             <InterpolatingParam id="2691" interp="linr"  time="0/1" value="0" leadInLength="0/1"  name="recordedCursorOpacity"/>
             <InterpolatingParam id="2692" interp="linr"  time="0/1" value="0" leadInLength="0/1"  name="cursorScale"/>
            </Parameters>
            <Attributes>
             <Attribute id="2693" value="" name="ident"/>
            </Attributes>
            <MetaData>
             <entry key="AutoAppliedSmartFocus" val="False"/>
             <entry key="WinSubProjectDisplayName" val=""/>
            </MetaData>
            <ExtraData>
             <Entry key="ZoomPanBin">
              <ZoomPanBin id="2694"  >
               <ZoomPanKeyframes>
                <ZoomPanKeyframe id="2695" timeRangeEnd="-9999999/1" timeRangeDuration="0/1" interpolaterName="linr"  />
               </ZoomPanKeyframes>
              </ZoomPanBin>
             </Entry>
             <Entry key="CursorEffectBin">
              <CursorEffectBin id="2696"  >
               <CursorEffectKeyframes>
               </CursorEffectKeyframes>
              </CursorEffectBin>
             </Entry>
            </ExtraData>
           </ScreenIMFile>
           <ScreenVMFile id="2697" start="4519" duration="19" scalar="1/1" mediaStart="2185/1" mediaDuration="19/1" trackNumber="0" src="4" >
            <Transformer>
             <VectorParam id="2698"  name="translation">
              <InterpolatingParam id="2699" interp="linr"  time="-9999999/1" value="0" leadInLength="0/1"  />
              <InterpolatingParam id="2700" interp="linr"  time="-9999999/1" value="0" leadInLength="0/1"  />
              <InterpolatingParam id="2701" interp="linr"  time="-9999999/1" value="0" leadInLength="0/1"  />
             </VectorParam>
             <VectorParam id="2702"  name="rotation">
              <InterpolatingParam id="2703" interp="linr"  time="-9999999/1" value="0" leadInLength="0/1"  />
              <InterpolatingParam id="2704" interp="linr"  time="-9999999/1" value="0" leadInLength="0/1"  />
              <InterpolatingParam id="2705" interp="linr"  time="-9999999/1" value="0" leadInLength="0/1"  />
             </VectorParam>
             <VectorParam id="2706"  name="shear">
              <InterpolatingParam id="2707" interp="linr"  time="-9999999/1" value="0" leadInLength="0/1"  />
              <InterpolatingParam id="2708" interp="linr"  time="-9999999/1" value="0" leadInLength="0/1"  />
              <InterpolatingParam id="2709" interp="linr"  time="-9999999/1" value="0" leadInLength="0/1"  />
             </VectorParam>
             <VectorParam id="2710"  name="scale">
              <InterpolatingParam id="2711" interp="linr"  time="-9999999/1" value="1" leadInLength="0/1"  />
              <InterpolatingParam id="2712" interp="linr"  time="-9999999/1" value="1" leadInLength="0/1"  />
              <InterpolatingParam id="2713" interp="linr"  time="-9999999/1" value="1" leadInLength="0/1"  />
             </VectorParam>
             <VectorParam id="2714"  name="anchor">
              <InterpolatingParam id="2715" interp="linr"  time="0/1" value="0" leadInLength="0/1"  />
              <InterpolatingParam id="2716" interp="linr"  time="0/1" value="0" leadInLength="0/1"  />
              <InterpolatingParam id="2717" interp="linr"  time="0/1" value="0" leadInLength="0/1"  />
             </VectorParam>
            </Transformer>
            <Parameters>
             <VectorParam id="2718"  name="sourceCrop">
              <InterpolatingParam id="2719" interp="linr"  time="0/1" value="0" leadInLength="0/1"  />
              <InterpolatingParam id="2720" interp="linr"  time="0/1" value="0" leadInLength="0/1"  />
              <InterpolatingParam id="2721" interp="linr"  time="0/1" value="0" leadInLength="0/1"  />
              <InterpolatingParam id="2722" interp="linr"  time="0/1" value="0" leadInLength="0/1"  />
             </VectorParam>
             <VectorParam id="2723"  name="geometryCrop">
              <InterpolatingParam id="2724" interp="linr"  time="-9999999/1" value="0" leadInLength="0/1"  />
              <InterpolatingParam id="2725" interp="linr"  time="-9999999/1" value="0" leadInLength="0/1"  />
              <InterpolatingParam id="2726" interp="linr"  time="-9999999/1" value="0" leadInLength="0/1"  />
              <InterpolatingParam id="2727" interp="linr"  time="-9999999/1" value="0" leadInLength="0/1"  />
             </VectorParam>
             <InterpolatingParam id="2728" interp="linr"  time="-9999999/1" value="1" leadInLength="0/1"  name="opacity"/>
             <InterpolatingParam id="2729" interp="linr"  time="0/1" value="0" leadInLength="0/1"  name="cursorOpacity"/>
             <InterpolatingParam id="2730" interp="linr"  time="0/1" value="0" leadInLength="0/1"  name="cursorScale"/>
            </Parameters>
            <Attributes>
             <Attribute id="2731" value="" name="ident"/>
            </Attributes>
            <MetaData>
             <entry key="AutoAppliedSmartFocus" val="False"/>
             <entry key="WinSubProjectDisplayName" val=""/>
            </MetaData>
            <ExtraData>
             <Entry key="ZoomPanBin">
              <ZoomPanBin id="2732"  >
               <ZoomPanKeyframes>
                <ZoomPanKeyframe id="2733" timeRangeEnd="-9999999/1" timeRangeDuration="0/1" interpolaterName="linr"  />
               </ZoomPanKeyframes>
              </ZoomPanBin>
             </Entry>
             <Entry key="CursorEffectBin">
              <CursorEffectBin id="2734"  >
               <CursorEffectKeyframes>
               </CursorEffectKeyframes>
              </CursorEffectBin>
             </Entry>
            </ExtraData>
           </ScreenVMFile>
           <ScreenIMFile id="2735" start="4538" duration="90" scalar="1/1" mediaStart="2204/1" mediaDuration="1/1" trackNumber="0" src="4" trimStartSum="0/1" >
            <Transformer>
             <VectorParam id="2736"  name="translation">
              <InterpolatingParam id="2737" interp="linr"  time="-9999999/1" value="0" leadInLength="0/1"  />
              <InterpolatingParam id="2738" interp="linr"  time="-9999999/1" value="0" leadInLength="0/1"  />
              <InterpolatingParam id="2739" interp="linr"  time="-9999999/1" value="0" leadInLength="0/1"  />
             </VectorParam>
             <VectorParam id="2740"  name="rotation">
              <InterpolatingParam id="2741" interp="linr"  time="-9999999/1" value="0" leadInLength="0/1"  />
              <InterpolatingParam id="2742" interp="linr"  time="-9999999/1" value="0" leadInLength="0/1"  />
              <InterpolatingParam id="2743" interp="linr"  time="-9999999/1" value="0" leadInLength="0/1"  />
             </VectorParam>
             <VectorParam id="2744"  name="shear">
              <InterpolatingParam id="2745" interp="linr"  time="-9999999/1" value="0" leadInLength="0/1"  />
              <InterpolatingParam id="2746" interp="linr"  time="-9999999/1" value="0" leadInLength="0/1"  />
              <InterpolatingParam id="2747" interp="linr"  time="-9999999/1" value="0" leadInLength="0/1"  />
             </VectorParam>
             <VectorParam id="2748"  name="scale">
              <InterpolatingParam id="2749" interp="linr"  time="-9999999/1" value="1" leadInLength="0/1"  />
              <InterpolatingParam id="2750" interp="linr"  time="-9999999/1" value="1" leadInLength="0/1"  />
              <InterpolatingParam id="2751" interp="linr"  time="-9999999/1" value="1" leadInLength="0/1"  />
             </VectorParam>
             <VectorParam id="2752"  name="anchor">
              <InterpolatingParam id="2753" interp="linr"  time="0/1" value="0" leadInLength="0/1"  />
              <InterpolatingParam id="2754" interp="linr"  time="0/1" value="0" leadInLength="0/1"  />
              <InterpolatingParam id="2755" interp="linr"  time="0/1" value="0" leadInLength="0/1"  />
             </VectorParam>
            </Transformer>
            <Parameters>
             <VectorParam id="2756"  name="sourceCrop">
              <InterpolatingParam id="2757" interp="linr"  time="0/1" value="0" leadInLength="0/1"  />
              <InterpolatingParam id="2758" interp="linr"  time="0/1" value="0" leadInLength="0/1"  />
              <InterpolatingParam id="2759" interp="linr"  time="0/1" value="0" leadInLength="0/1"  />
              <InterpolatingParam id="2760" interp="linr"  time="0/1" value="0" leadInLength="0/1"  />
             </VectorParam>
             <VectorParam id="2761"  name="geometryCrop">
              <InterpolatingParam id="2762" interp="linr"  time="-9999999/1" value="0" leadInLength="0/1"  />
              <InterpolatingParam id="2763" interp="linr"  time="-9999999/1" value="0" leadInLength="0/1"  />
              <InterpolatingParam id="2764" interp="linr"  time="-9999999/1" value="0" leadInLength="0/1"  />
              <InterpolatingParam id="2765" interp="linr"  time="-9999999/1" value="0" leadInLength="0/1"  />
             </VectorParam>
             <InterpolatingParam id="2766" interp="linr"  time="-9999999/1" value="1" leadInLength="0/1"  name="opacity"/>
             <InterpolatingParam id="2767" interp="linr"  time="0/1" value="0" leadInLength="0/1"  name="cursorOpacity"/>
             <InterpolatingParam id="2768" interp="linr"  time="0/1" value="0" leadInLength="0/1"  name="recordedCursorOpacity"/>
             <InterpolatingParam id="2769" interp="linr"  time="0/1" value="0" leadInLength="0/1"  name="cursorScale"/>
            </Parameters>
            <Attributes>
             <Attribute id="2770" value="" name="ident"/>
            </Attributes>
            <MetaData>
             <entry key="AutoAppliedSmartFocus" val="False"/>
             <entry key="WinSubProjectDisplayName" val=""/>
            </MetaData>
            <ExtraData>
             <Entry key="ZoomPanBin">
              <ZoomPanBin id="2771"  >
               <ZoomPanKeyframes>
                <ZoomPanKeyframe id="2772" timeRangeEnd="-9999999/1" timeRangeDuration="0/1" interpolaterName="linr"  />
               </ZoomPanKeyframes>
              </ZoomPanBin>
             </Entry>
             <Entry key="CursorEffectBin">
              <CursorEffectBin id="2773"  >
               <CursorEffectKeyframes>
               </CursorEffectKeyframes>
              </CursorEffectBin>
             </Entry>
            </ExtraData>
           </ScreenIMFile>
           <ScreenVMFile id="2774" start="4628" duration="598" scalar="1/1" mediaStart="2204/1" mediaDuration="598/1" trackNumber="0" src="4" >
            <Transformer>
             <VectorParam id="2775"  name="translation">
              <InterpolatingParam id="2776" interp="linr"  time="-9999999/1" value="0" leadInLength="0/1"  />
              <InterpolatingParam id="2777" interp="linr"  time="-9999999/1" value="0" leadInLength="0/1"  />
              <InterpolatingParam id="2778" interp="linr"  time="-9999999/1" value="0" leadInLength="0/1"  />
             </VectorParam>
             <VectorParam id="2779"  name="rotation">
              <InterpolatingParam id="2780" interp="linr"  time="-9999999/1" value="0" leadInLength="0/1"  />
              <InterpolatingParam id="2781" interp="linr"  time="-9999999/1" value="0" leadInLength="0/1"  />
              <InterpolatingParam id="2782" interp="linr"  time="-9999999/1" value="0" leadInLength="0/1"  />
             </VectorParam>
             <VectorParam id="2783"  name="shear">
              <InterpolatingParam id="2784" interp="linr"  time="-9999999/1" value="0" leadInLength="0/1"  />
              <InterpolatingParam id="2785" interp="linr"  time="-9999999/1" value="0" leadInLength="0/1"  />
              <InterpolatingParam id="2786" interp="linr"  time="-9999999/1" value="0" leadInLength="0/1"  />
             </VectorParam>
             <VectorParam id="2787"  name="scale">
              <InterpolatingParam id="2788" interp="linr"  time="-9999999/1" value="1" leadInLength="0/1"  />
              <InterpolatingParam id="2789" interp="linr"  time="-9999999/1" value="1" leadInLength="0/1"  />
              <InterpolatingParam id="2790" interp="linr"  time="-9999999/1" value="1" leadInLength="0/1"  />
             </VectorParam>
             <VectorParam id="2791"  name="anchor">
              <InterpolatingParam id="2792" interp="linr"  time="0/1" value="0" leadInLength="0/1"  />
              <InterpolatingParam id="2793" interp="linr"  time="0/1" value="0" leadInLength="0/1"  />
              <InterpolatingParam id="2794" interp="linr"  time="0/1" value="0" leadInLength="0/1"  />
             </VectorParam>
            </Transformer>
            <Parameters>
             <VectorParam id="2795"  name="sourceCrop">
              <InterpolatingParam id="2796" interp="linr"  time="0/1" value="0" leadInLength="0/1"  />
              <InterpolatingParam id="2797" interp="linr"  time="0/1" value="0" leadInLength="0/1"  />
              <InterpolatingParam id="2798" interp="linr"  time="0/1" value="0" leadInLength="0/1"  />
              <InterpolatingParam id="2799" interp="linr"  time="0/1" value="0" leadInLength="0/1"  />
             </VectorParam>
             <VectorParam id="2800"  name="geometryCrop">
              <InterpolatingParam id="2801" interp="linr"  time="-9999999/1" value="0" leadInLength="0/1"  />
              <InterpolatingParam id="2802" interp="linr"  time="-9999999/1" value="0" leadInLength="0/1"  />
              <InterpolatingParam id="2803" interp="linr"  time="-9999999/1" value="0" leadInLength="0/1"  />
              <InterpolatingParam id="2804" interp="linr"  time="-9999999/1" value="0" leadInLength="0/1"  />
             </VectorParam>
             <InterpolatingParam id="2805" interp="linr"  time="-9999999/1" value="1" leadInLength="0/1"  name="opacity"/>
             <InterpolatingParam id="2806" interp="linr"  time="0/1" value="0" leadInLength="0/1"  name="cursorOpacity"/>
             <InterpolatingParam id="2807" interp="linr"  time="0/1" value="0" leadInLength="0/1"  name="cursorScale"/>
            </Parameters>
            <Attributes>
             <Attribute id="2808" value="" name="ident"/>
            </Attributes>
            <MetaData>
             <entry key="AutoAppliedSmartFocus" val="False"/>
             <entry key="WinSubProjectDisplayName" val=""/>
            </MetaData>
            <ExtraData>
             <Entry key="ZoomPanBin">
              <ZoomPanBin id="2809"  >
               <ZoomPanKeyframes>
                <ZoomPanKeyframe id="2810" timeRangeEnd="-9999999/1" timeRangeDuration="0/1" interpolaterName="linr"  />
               </ZoomPanKeyframes>
              </ZoomPanBin>
             </Entry>
             <Entry key="CursorEffectBin">
              <CursorEffectBin id="2811"  >
               <CursorEffectKeyframes>
               </CursorEffectKeyframes>
              </CursorEffectBin>
             </Entry>
            </ExtraData>
           </ScreenVMFile>
           <ScreenVMFile id="2812" start="5226" duration="164" scalar="1/1" mediaStart="2927/1" mediaDuration="164/1" trackNumber="0" src="4" >
            <Transformer>
             <VectorParam id="2813"  name="translation">
              <InterpolatingParam id="2814" interp="linr"  time="-9999999/1" value="0" leadInLength="0/1"  />
              <InterpolatingParam id="2815" interp="linr"  time="-9999999/1" value="0" leadInLength="0/1"  />
              <InterpolatingParam id="2816" interp="linr"  time="-9999999/1" value="0" leadInLength="0/1"  />
             </VectorParam>
             <VectorParam id="2817"  name="rotation">
              <InterpolatingParam id="2818" interp="linr"  time="-9999999/1" value="0" leadInLength="0/1"  />
              <InterpolatingParam id="2819" interp="linr"  time="-9999999/1" value="0" leadInLength="0/1"  />
              <InterpolatingParam id="2820" interp="linr"  time="-9999999/1" value="0" leadInLength="0/1"  />
             </VectorParam>
             <VectorParam id="2821"  name="shear">
              <InterpolatingParam id="2822" interp="linr"  time="-9999999/1" value="0" leadInLength="0/1"  />
              <InterpolatingParam id="2823" interp="linr"  time="-9999999/1" value="0" leadInLength="0/1"  />
              <InterpolatingParam id="2824" interp="linr"  time="-9999999/1" value="0" leadInLength="0/1"  />
             </VectorParam>
             <VectorParam id="2825"  name="scale">
              <InterpolatingParam id="2826" interp="linr"  time="-9999999/1" value="1" leadInLength="0/1"  />
              <InterpolatingParam id="2827" interp="linr"  time="-9999999/1" value="1" leadInLength="0/1"  />
              <InterpolatingParam id="2828" interp="linr"  time="-9999999/1" value="1" leadInLength="0/1"  />
             </VectorParam>
             <VectorParam id="2829"  name="anchor">
              <InterpolatingParam id="2830" interp="linr"  time="0/1" value="0" leadInLength="0/1"  />
              <InterpolatingParam id="2831" interp="linr"  time="0/1" value="0" leadInLength="0/1"  />
              <InterpolatingParam id="2832" interp="linr"  time="0/1" value="0" leadInLength="0/1"  />
             </VectorParam>
            </Transformer>
            <Parameters>
             <VectorParam id="2833"  name="sourceCrop">
              <InterpolatingParam id="2834" interp="linr"  time="0/1" value="0" leadInLength="0/1"  />
              <InterpolatingParam id="2835" interp="linr"  time="0/1" value="0" leadInLength="0/1"  />
              <InterpolatingParam id="2836" interp="linr"  time="0/1" value="0" leadInLength="0/1"  />
              <InterpolatingParam id="2837" interp="linr"  time="0/1" value="0" leadInLength="0/1"  />
             </VectorParam>
             <VectorParam id="2838"  name="geometryCrop">
              <InterpolatingParam id="2839" interp="linr"  time="-9999999/1" value="0" leadInLength="0/1"  />
              <InterpolatingParam id="2840" interp="linr"  time="-9999999/1" value="0" leadInLength="0/1"  />
              <InterpolatingParam id="2841" interp="linr"  time="-9999999/1" value="0" leadInLength="0/1"  />
              <InterpolatingParam id="2842" interp="linr"  time="-9999999/1" value="0" leadInLength="0/1"  />
             </VectorParam>
             <InterpolatingParam id="2843" interp="linr"  time="-9999999/1" value="1" leadInLength="0/1"  name="opacity"/>
             <InterpolatingParam id="2844" interp="linr"  time="0/1" value="0" leadInLength="0/1"  name="cursorOpacity"/>
             <InterpolatingParam id="2845" interp="linr"  time="0/1" value="0" leadInLength="0/1"  name="cursorScale"/>
            </Parameters>
            <Attributes>
             <Attribute id="2846" value="" name="ident"/>
            </Attributes>
            <MetaData>
             <entry key="AutoAppliedSmartFocus" val="False"/>
             <entry key="WinSubProjectDisplayName" val=""/>
            </MetaData>
            <ExtraData>
             <Entry key="ZoomPanBin">
              <ZoomPanBin id="2847"  >
               <ZoomPanKeyframes>
                <ZoomPanKeyframe id="2848" timeRangeEnd="-9999999/1" timeRangeDuration="0/1" interpolaterName="linr"  />
               </ZoomPanKeyframes>
              </ZoomPanBin>
             </Entry>
             <Entry key="CursorEffectBin">
              <CursorEffectBin id="2849"  >
               <CursorEffectKeyframes>
               </CursorEffectKeyframes>
              </CursorEffectBin>
             </Entry>
            </ExtraData>
           </ScreenVMFile>
           <ScreenIMFile id="2850" start="5390" duration="90" scalar="1/1" mediaStart="3091/1" mediaDuration="1/1" trackNumber="0" src="4" trimStartSum="0/1" >
            <Transformer>
             <VectorParam id="2851"  name="translation">
              <InterpolatingParam id="2852" interp="linr"  time="-9999999/1" value="0" leadInLength="0/1"  />
              <InterpolatingParam id="2853" interp="linr"  time="-9999999/1" value="0" leadInLength="0/1"  />
              <InterpolatingParam id="2854" interp="linr"  time="-9999999/1" value="0" leadInLength="0/1"  />
             </VectorParam>
             <VectorParam id="2855"  name="rotation">
              <InterpolatingParam id="2856" interp="linr"  time="-9999999/1" value="0" leadInLength="0/1"  />
              <InterpolatingParam id="2857" interp="linr"  time="-9999999/1" value="0" leadInLength="0/1"  />
              <InterpolatingParam id="2858" interp="linr"  time="-9999999/1" value="0" leadInLength="0/1"  />
             </VectorParam>
             <VectorParam id="2859"  name="shear">
              <InterpolatingParam id="2860" interp="linr"  time="-9999999/1" value="0" leadInLength="0/1"  />
              <InterpolatingParam id="2861" interp="linr"  time="-9999999/1" value="0" leadInLength="0/1"  />
              <InterpolatingParam id="2862" interp="linr"  time="-9999999/1" value="0" leadInLength="0/1"  />
             </VectorParam>
             <VectorParam id="2863"  name="scale">
              <InterpolatingParam id="2864" interp="linr"  time="-9999999/1" value="1" leadInLength="0/1"  />
              <InterpolatingParam id="2865" interp="linr"  time="-9999999/1" value="1" leadInLength="0/1"  />
              <InterpolatingParam id="2866" interp="linr"  time="-9999999/1" value="1" leadInLength="0/1"  />
             </VectorParam>
             <VectorParam id="2867"  name="anchor">
              <InterpolatingParam id="2868" interp="linr"  time="0/1" value="0" leadInLength="0/1"  />
              <InterpolatingParam id="2869" interp="linr"  time="0/1" value="0" leadInLength="0/1"  />
              <InterpolatingParam id="2870" interp="linr"  time="0/1" value="0" leadInLength="0/1"  />
             </VectorParam>
            </Transformer>
            <Parameters>
             <VectorParam id="2871"  name="sourceCrop">
              <InterpolatingParam id="2872" interp="linr"  time="0/1" value="0" leadInLength="0/1"  />
              <InterpolatingParam id="2873" interp="linr"  time="0/1" value="0" leadInLength="0/1"  />
              <InterpolatingParam id="2874" interp="linr"  time="0/1" value="0" leadInLength="0/1"  />
              <InterpolatingParam id="2875" interp="linr"  time="0/1" value="0" leadInLength="0/1"  />
             </VectorParam>
             <VectorParam id="2876"  name="geometryCrop">
              <InterpolatingParam id="2877" interp="linr"  time="-9999999/1" value="0" leadInLength="0/1"  />
              <InterpolatingParam id="2878" interp="linr"  time="-9999999/1" value="0" leadInLength="0/1"  />
              <InterpolatingParam id="2879" interp="linr"  time="-9999999/1" value="0" leadInLength="0/1"  />
              <InterpolatingParam id="2880" interp="linr"  time="-9999999/1" value="0" leadInLength="0/1"  />
             </VectorParam>
             <InterpolatingParam id="2881" interp="linr"  time="-9999999/1" value="1" leadInLength="0/1"  name="opacity"/>
             <InterpolatingParam id="2882" interp="linr"  time="0/1" value="0" leadInLength="0/1"  name="cursorOpacity"/>
             <InterpolatingParam id="2883" interp="linr"  time="0/1" value="0" leadInLength="0/1"  name="recordedCursorOpacity"/>
             <InterpolatingParam id="2884" interp="linr"  time="0/1" value="0" leadInLength="0/1"  name="cursorScale"/>
            </Parameters>
            <Attributes>
             <Attribute id="2885" value="" name="ident"/>
            </Attributes>
            <MetaData>
             <entry key="AutoAppliedSmartFocus" val="False"/>
             <entry key="WinSubProjectDisplayName" val=""/>
            </MetaData>
            <ExtraData>
             <Entry key="ZoomPanBin">
              <ZoomPanBin id="2886"  >
               <ZoomPanKeyframes>
                <ZoomPanKeyframe id="2887" timeRangeEnd="-9999999/1" timeRangeDuration="0/1" interpolaterName="linr"  />
               </ZoomPanKeyframes>
              </ZoomPanBin>
             </Entry>
             <Entry key="CursorEffectBin">
              <CursorEffectBin id="2888"  >
               <CursorEffectKeyframes>
               </CursorEffectKeyframes>
              </CursorEffectBin>
             </Entry>
            </ExtraData>
           </ScreenIMFile>
           <ScreenVMFile id="2889" start="5480" duration="23" scalar="1/1" mediaStart="3091/1" mediaDuration="23/1" trackNumber="0" src="4" >
            <Transformer>
             <VectorParam id="2890"  name="translation">
              <InterpolatingParam id="2891" interp="linr"  time="-9999999/1" value="0" leadInLength="0/1"  />
              <InterpolatingParam id="2892" interp="linr"  time="-9999999/1" value="0" leadInLength="0/1"  />
              <InterpolatingParam id="2893" interp="linr"  time="-9999999/1" value="0" leadInLength="0/1"  />
             </VectorParam>
             <VectorParam id="2894"  name="rotation">
              <InterpolatingParam id="2895" interp="linr"  time="-9999999/1" value="0" leadInLength="0/1"  />
              <InterpolatingParam id="2896" interp="linr"  time="-9999999/1" value="0" leadInLength="0/1"  />
              <InterpolatingParam id="2897" interp="linr"  time="-9999999/1" value="0" leadInLength="0/1"  />
             </VectorParam>
             <VectorParam id="2898"  name="shear">
              <InterpolatingParam id="2899" interp="linr"  time="-9999999/1" value="0" leadInLength="0/1"  />
              <InterpolatingParam id="2900" interp="linr"  time="-9999999/1" value="0" leadInLength="0/1"  />
              <InterpolatingParam id="2901" interp="linr"  time="-9999999/1" value="0" leadInLength="0/1"  />
             </VectorParam>
             <VectorParam id="2902"  name="scale">
              <InterpolatingParam id="2903" interp="linr"  time="-9999999/1" value="1" leadInLength="0/1"  />
              <InterpolatingParam id="2904" interp="linr"  time="-9999999/1" value="1" leadInLength="0/1"  />
              <InterpolatingParam id="2905" interp="linr"  time="-9999999/1" value="1" leadInLength="0/1"  />
             </VectorParam>
             <VectorParam id="2906"  name="anchor">
              <InterpolatingParam id="2907" interp="linr"  time="0/1" value="0" leadInLength="0/1"  />
              <InterpolatingParam id="2908" interp="linr"  time="0/1" value="0" leadInLength="0/1"  />
              <InterpolatingParam id="2909" interp="linr"  time="0/1" value="0" leadInLength="0/1"  />
             </VectorParam>
            </Transformer>
            <Parameters>
             <VectorParam id="2910"  name="sourceCrop">
              <InterpolatingParam id="2911" interp="linr"  time="0/1" value="0" leadInLength="0/1"  />
              <InterpolatingParam id="2912" interp="linr"  time="0/1" value="0" leadInLength="0/1"  />
              <InterpolatingParam id="2913" interp="linr"  time="0/1" value="0" leadInLength="0/1"  />
              <InterpolatingParam id="2914" interp="linr"  time="0/1" value="0" leadInLength="0/1"  />
             </VectorParam>
             <VectorParam id="2915"  name="geometryCrop">
              <InterpolatingParam id="2916" interp="linr"  time="-9999999/1" value="0" leadInLength="0/1"  />
              <InterpolatingParam id="2917" interp="linr"  time="-9999999/1" value="0" leadInLength="0/1"  />
              <InterpolatingParam id="2918" interp="linr"  time="-9999999/1" value="0" leadInLength="0/1"  />
              <InterpolatingParam id="2919" interp="linr"  time="-9999999/1" value="0" leadInLength="0/1"  />
             </VectorParam>
             <InterpolatingParam id="2920" interp="linr"  time="-9999999/1" value="1" leadInLength="0/1"  name="opacity"/>
             <InterpolatingParam id="2921" interp="linr"  time="0/1" value="0" leadInLength="0/1"  name="cursorOpacity"/>
             <InterpolatingParam id="2922" interp="linr"  time="0/1" value="0" leadInLength="0/1"  name="cursorScale"/>
            </Parameters>
            <Attributes>
             <Attribute id="2923" value="" name="ident"/>
            </Attributes>
            <MetaData>
             <entry key="AutoAppliedSmartFocus" val="False"/>
             <entry key="WinSubProjectDisplayName" val=""/>
            </MetaData>
            <ExtraData>
             <Entry key="ZoomPanBin">
              <ZoomPanBin id="2924"  >
               <ZoomPanKeyframes>
                <ZoomPanKeyframe id="2925" timeRangeEnd="-9999999/1" timeRangeDuration="0/1" interpolaterName="linr"  />
               </ZoomPanKeyframes>
              </ZoomPanBin>
             </Entry>
             <Entry key="CursorEffectBin">
              <CursorEffectBin id="2926"  >
               <CursorEffectKeyframes>
               </CursorEffectKeyframes>
              </CursorEffectBin>
             </Entry>
            </ExtraData>
           </ScreenVMFile>
           <ScreenIMFile id="2927" start="5503" duration="330" scalar="1/1" mediaStart="3114/1" mediaDuration="1/1" trackNumber="0" src="4" trimStartSum="0/1" >
            <Transformer>
             <VectorParam id="2928"  name="translation">
              <InterpolatingParam id="2929" interp="linr"  time="-9999999/1" value="0" leadInLength="0/1"  />
              <InterpolatingParam id="2930" interp="linr"  time="-9999999/1" value="0" leadInLength="0/1"  />
              <InterpolatingParam id="2931" interp="linr"  time="-9999999/1" value="0" leadInLength="0/1"  />
             </VectorParam>
             <VectorParam id="2932"  name="rotation">
              <InterpolatingParam id="2933" interp="linr"  time="-9999999/1" value="0" leadInLength="0/1"  />
              <InterpolatingParam id="2934" interp="linr"  time="-9999999/1" value="0" leadInLength="0/1"  />
              <InterpolatingParam id="2935" interp="linr"  time="-9999999/1" value="0" leadInLength="0/1"  />
             </VectorParam>
             <VectorParam id="2936"  name="shear">
              <InterpolatingParam id="2937" interp="linr"  time="-9999999/1" value="0" leadInLength="0/1"  />
              <InterpolatingParam id="2938" interp="linr"  time="-9999999/1" value="0" leadInLength="0/1"  />
              <InterpolatingParam id="2939" interp="linr"  time="-9999999/1" value="0" leadInLength="0/1"  />
             </VectorParam>
             <VectorParam id="2940"  name="scale">
              <InterpolatingParam id="2941" interp="linr"  time="-9999999/1" value="1" leadInLength="0/1"  />
              <InterpolatingParam id="2942" interp="linr"  time="-9999999/1" value="1" leadInLength="0/1"  />
              <InterpolatingParam id="2943" interp="linr"  time="-9999999/1" value="1" leadInLength="0/1"  />
             </VectorParam>
             <VectorParam id="2944"  name="anchor">
              <InterpolatingParam id="2945" interp="linr"  time="0/1" value="0" leadInLength="0/1"  />
              <InterpolatingParam id="2946" interp="linr"  time="0/1" value="0" leadInLength="0/1"  />
              <InterpolatingParam id="2947" interp="linr"  time="0/1" value="0" leadInLength="0/1"  />
             </VectorParam>
            </Transformer>
            <Parameters>
             <VectorParam id="2948"  name="sourceCrop">
              <InterpolatingParam id="2949" interp="linr"  time="0/1" value="0" leadInLength="0/1"  />
              <InterpolatingParam id="2950" interp="linr"  time="0/1" value="0" leadInLength="0/1"  />
              <InterpolatingParam id="2951" interp="linr"  time="0/1" value="0" leadInLength="0/1"  />
              <InterpolatingParam id="2952" interp="linr"  time="0/1" value="0" leadInLength="0/1"  />
             </VectorParam>
             <VectorParam id="2953"  name="geometryCrop">
              <InterpolatingParam id="2954" interp="linr"  time="-9999999/1" value="0" leadInLength="0/1"  />
              <InterpolatingParam id="2955" interp="linr"  time="-9999999/1" value="0" leadInLength="0/1"  />
              <InterpolatingParam id="2956" interp="linr"  time="-9999999/1" value="0" leadInLength="0/1"  />
              <InterpolatingParam id="2957" interp="linr"  time="-9999999/1" value="0" leadInLength="0/1"  />
             </VectorParam>
             <InterpolatingParam id="2958" interp="linr"  time="-9999999/1" value="1" leadInLength="0/1"  name="opacity"/>
             <InterpolatingParam id="2959" interp="linr"  time="0/1" value="0" leadInLength="0/1"  name="cursorOpacity"/>
             <InterpolatingParam id="2960" interp="linr"  time="0/1" value="0" leadInLength="0/1"  name="recordedCursorOpacity"/>
             <InterpolatingParam id="2961" interp="linr"  time="0/1" value="0" leadInLength="0/1"  name="cursorScale"/>
            </Parameters>
            <Attributes>
             <Attribute id="2962" value="" name="ident"/>
            </Attributes>
            <MetaData>
             <entry key="AutoAppliedSmartFocus" val="False"/>
             <entry key="WinSubProjectDisplayName" val=""/>
            </MetaData>
            <ExtraData>
             <Entry key="ZoomPanBin">
              <ZoomPanBin id="2963"  >
               <ZoomPanKeyframes>
                <ZoomPanKeyframe id="2964" timeRangeEnd="-9999999/1" timeRangeDuration="0/1" interpolaterName="linr"  />
               </ZoomPanKeyframes>
              </ZoomPanBin>
             </Entry>
             <Entry key="CursorEffectBin">
              <CursorEffectBin id="2965"  >
               <CursorEffectKeyframes>
               </CursorEffectKeyframes>
              </CursorEffectBin>
             </Entry>
            </ExtraData>
           </ScreenIMFile>
           <ScreenVMFile id="2966" start="5833" duration="55" scalar="1/1" mediaStart="3114/1" mediaDuration="55/1" trackNumber="0" src="4" >
            <Transformer>
             <VectorParam id="2967"  name="translation">
              <InterpolatingParam id="2968" interp="linr"  time="-9999999/1" value="0" leadInLength="0/1"  />
              <InterpolatingParam id="2969" interp="linr"  time="-9999999/1" value="0" leadInLength="0/1"  />
              <InterpolatingParam id="2970" interp="linr"  time="-9999999/1" value="0" leadInLength="0/1"  />
             </VectorParam>
             <VectorParam id="2971"  name="rotation">
              <InterpolatingParam id="2972" interp="linr"  time="-9999999/1" value="0" leadInLength="0/1"  />
              <InterpolatingParam id="2973" interp="linr"  time="-9999999/1" value="0" leadInLength="0/1"  />
              <InterpolatingParam id="2974" interp="linr"  time="-9999999/1" value="0" leadInLength="0/1"  />
             </VectorParam>
             <VectorParam id="2975"  name="shear">
              <InterpolatingParam id="2976" interp="linr"  time="-9999999/1" value="0" leadInLength="0/1"  />
              <InterpolatingParam id="2977" interp="linr"  time="-9999999/1" value="0" leadInLength="0/1"  />
              <InterpolatingParam id="2978" interp="linr"  time="-9999999/1" value="0" leadInLength="0/1"  />
             </VectorParam>
             <VectorParam id="2979"  name="scale">
              <InterpolatingParam id="2980" interp="linr"  time="-9999999/1" value="1" leadInLength="0/1"  />
              <InterpolatingParam id="2981" interp="linr"  time="-9999999/1" value="1" leadInLength="0/1"  />
              <InterpolatingParam id="2982" interp="linr"  time="-9999999/1" value="1" leadInLength="0/1"  />
             </VectorParam>
             <VectorParam id="2983"  name="anchor">
              <InterpolatingParam id="2984" interp="linr"  time="0/1" value="0" leadInLength="0/1"  />
              <InterpolatingParam id="2985" interp="linr"  time="0/1" value="0" leadInLength="0/1"  />
              <InterpolatingParam id="2986" interp="linr"  time="0/1" value="0" leadInLength="0/1"  />
             </VectorParam>
            </Transformer>
            <Parameters>
             <VectorParam id="2987"  name="sourceCrop">
              <InterpolatingParam id="2988" interp="linr"  time="0/1" value="0" leadInLength="0/1"  />
              <InterpolatingParam id="2989" interp="linr"  time="0/1" value="0" leadInLength="0/1"  />
              <InterpolatingParam id="2990" interp="linr"  time="0/1" value="0" leadInLength="0/1"  />
              <InterpolatingParam id="2991" interp="linr"  time="0/1" value="0" leadInLength="0/1"  />
             </VectorParam>
             <VectorParam id="2992"  name="geometryCrop">
              <InterpolatingParam id="2993" interp="linr"  time="-9999999/1" value="0" leadInLength="0/1"  />
              <InterpolatingParam id="2994" interp="linr"  time="-9999999/1" value="0" leadInLength="0/1"  />
              <InterpolatingParam id="2995" interp="linr"  time="-9999999/1" value="0" leadInLength="0/1"  />
              <InterpolatingParam id="2996" interp="linr"  time="-9999999/1" value="0" leadInLength="0/1"  />
             </VectorParam>
             <InterpolatingParam id="2997" interp="linr"  time="-9999999/1" value="1" leadInLength="0/1"  name="opacity"/>
             <InterpolatingParam id="2998" interp="linr"  time="0/1" value="0" leadInLength="0/1"  name="cursorOpacity"/>
             <InterpolatingParam id="2999" interp="linr"  time="0/1" value="0" leadInLength="0/1"  name="cursorScale"/>
            </Parameters>
            <Attributes>
             <Attribute id="3000" value="" name="ident"/>
            </Attributes>
            <MetaData>
             <entry key="AutoAppliedSmartFocus" val="False"/>
             <entry key="WinSubProjectDisplayName" val=""/>
            </MetaData>
            <ExtraData>
             <Entry key="ZoomPanBin">
              <ZoomPanBin id="3001"  >
               <ZoomPanKeyframes>
                <ZoomPanKeyframe id="3002" timeRangeEnd="-9999999/1" timeRangeDuration="0/1" interpolaterName="linr"  />
               </ZoomPanKeyframes>
              </ZoomPanBin>
             </Entry>
             <Entry key="CursorEffectBin">
              <CursorEffectBin id="3003"  >
               <CursorEffectKeyframes>
               </CursorEffectKeyframes>
              </CursorEffectBin>
             </Entry>
            </ExtraData>
           </ScreenVMFile>
           <ScreenIMFile id="3004" start="5888" duration="90" scalar="1/1" mediaStart="3169/1" mediaDuration="1/1" trackNumber="0" src="4" trimStartSum="0/1" >
            <Transformer>
             <VectorParam id="3005"  name="translation">
              <InterpolatingParam id="3006" interp="linr"  time="-9999999/1" value="0" leadInLength="0/1"  />
              <InterpolatingParam id="3007" interp="linr"  time="-9999999/1" value="0" leadInLength="0/1"  />
              <InterpolatingParam id="3008" interp="linr"  time="-9999999/1" value="0" leadInLength="0/1"  />
             </VectorParam>
             <VectorParam id="3009"  name="rotation">
              <InterpolatingParam id="3010" interp="linr"  time="-9999999/1" value="0" leadInLength="0/1"  />
              <InterpolatingParam id="3011" interp="linr"  time="-9999999/1" value="0" leadInLength="0/1"  />
              <InterpolatingParam id="3012" interp="linr"  time="-9999999/1" value="0" leadInLength="0/1"  />
             </VectorParam>
             <VectorParam id="3013"  name="shear">
              <InterpolatingParam id="3014" interp="linr"  time="-9999999/1" value="0" leadInLength="0/1"  />
              <InterpolatingParam id="3015" interp="linr"  time="-9999999/1" value="0" leadInLength="0/1"  />
              <InterpolatingParam id="3016" interp="linr"  time="-9999999/1" value="0" leadInLength="0/1"  />
             </VectorParam>
             <VectorParam id="3017"  name="scale">
              <InterpolatingParam id="3018" interp="linr"  time="-9999999/1" value="1" leadInLength="0/1"  />
              <InterpolatingParam id="3019" interp="linr"  time="-9999999/1" value="1" leadInLength="0/1"  />
              <InterpolatingParam id="3020" interp="linr"  time="-9999999/1" value="1" leadInLength="0/1"  />
             </VectorParam>
             <VectorParam id="3021"  name="anchor">
              <InterpolatingParam id="3022" interp="linr"  time="0/1" value="0" leadInLength="0/1"  />
              <InterpolatingParam id="3023" interp="linr"  time="0/1" value="0" leadInLength="0/1"  />
              <InterpolatingParam id="3024" interp="linr"  time="0/1" value="0" leadInLength="0/1"  />
             </VectorParam>
            </Transformer>
            <Parameters>
             <VectorParam id="3025"  name="sourceCrop">
              <InterpolatingParam id="3026" interp="linr"  time="0/1" value="0" leadInLength="0/1"  />
              <InterpolatingParam id="3027" interp="linr"  time="0/1" value="0" leadInLength="0/1"  />
              <InterpolatingParam id="3028" interp="linr"  time="0/1" value="0" leadInLength="0/1"  />
              <InterpolatingParam id="3029" interp="linr"  time="0/1" value="0" leadInLength="0/1"  />
             </VectorParam>
             <VectorParam id="3030"  name="geometryCrop">
              <InterpolatingParam id="3031" interp="linr"  time="-9999999/1" value="0" leadInLength="0/1"  />
              <InterpolatingParam id="3032" interp="linr"  time="-9999999/1" value="0" leadInLength="0/1"  />
              <InterpolatingParam id="3033" interp="linr"  time="-9999999/1" value="0" leadInLength="0/1"  />
              <InterpolatingParam id="3034" interp="linr"  time="-9999999/1" value="0" leadInLength="0/1"  />
             </VectorParam>
             <InterpolatingParam id="3035" interp="linr"  time="-9999999/1" value="1" leadInLength="0/1"  name="opacity"/>
             <InterpolatingParam id="3036" interp="linr"  time="0/1" value="0" leadInLength="0/1"  name="cursorOpacity"/>
             <InterpolatingParam id="3037" interp="linr"  time="0/1" value="0" leadInLength="0/1"  name="recordedCursorOpacity"/>
             <InterpolatingParam id="3038" interp="linr"  time="0/1" value="0" leadInLength="0/1"  name="cursorScale"/>
            </Parameters>
            <Attributes>
             <Attribute id="3039" value="" name="ident"/>
            </Attributes>
            <MetaData>
             <entry key="AutoAppliedSmartFocus" val="False"/>
             <entry key="WinSubProjectDisplayName" val=""/>
            </MetaData>
            <ExtraData>
             <Entry key="ZoomPanBin">
              <ZoomPanBin id="3040"  >
               <ZoomPanKeyframes>
                <ZoomPanKeyframe id="3041" timeRangeEnd="-9999999/1" timeRangeDuration="0/1" interpolaterName="linr"  />
               </ZoomPanKeyframes>
              </ZoomPanBin>
             </Entry>
             <Entry key="CursorEffectBin">
              <CursorEffectBin id="3042"  >
               <CursorEffectKeyframes>
               </CursorEffectKeyframes>
              </CursorEffectBin>
             </Entry>
            </ExtraData>
           </ScreenIMFile>
           <ScreenVMFile id="3043" start="5978" duration="86" scalar="1/1" mediaStart="3169/1" mediaDuration="86/1" trackNumber="0" src="4" >
            <Transformer>
             <VectorParam id="3044"  name="translation">
              <InterpolatingParam id="3045" interp="linr"  time="-9999999/1" value="0" leadInLength="0/1"  />
              <InterpolatingParam id="3046" interp="linr"  time="-9999999/1" value="0" leadInLength="0/1"  />
              <InterpolatingParam id="3047" interp="linr"  time="-9999999/1" value="0" leadInLength="0/1"  />
             </VectorParam>
             <VectorParam id="3048"  name="rotation">
              <InterpolatingParam id="3049" interp="linr"  time="-9999999/1" value="0" leadInLength="0/1"  />
              <InterpolatingParam id="3050" interp="linr"  time="-9999999/1" value="0" leadInLength="0/1"  />
              <InterpolatingParam id="3051" interp="linr"  time="-9999999/1" value="0" leadInLength="0/1"  />
             </VectorParam>
             <VectorParam id="3052"  name="shear">
              <InterpolatingParam id="3053" interp="linr"  time="-9999999/1" value="0" leadInLength="0/1"  />
              <InterpolatingParam id="3054" interp="linr"  time="-9999999/1" value="0" leadInLength="0/1"  />
              <InterpolatingParam id="3055" interp="linr"  time="-9999999/1" value="0" leadInLength="0/1"  />
             </VectorParam>
             <VectorParam id="3056"  name="scale">
              <InterpolatingParam id="3057" interp="linr"  time="-9999999/1" value="1" leadInLength="0/1"  />
              <InterpolatingParam id="3058" interp="linr"  time="-9999999/1" value="1" leadInLength="0/1"  />
              <InterpolatingParam id="3059" interp="linr"  time="-9999999/1" value="1" leadInLength="0/1"  />
             </VectorParam>
             <VectorParam id="3060"  name="anchor">
              <InterpolatingParam id="3061" interp="linr"  time="0/1" value="0" leadInLength="0/1"  />
              <InterpolatingParam id="3062" interp="linr"  time="0/1" value="0" leadInLength="0/1"  />
              <InterpolatingParam id="3063" interp="linr"  time="0/1" value="0" leadInLength="0/1"  />
             </VectorParam>
            </Transformer>
            <Parameters>
             <VectorParam id="3064"  name="sourceCrop">
              <InterpolatingParam id="3065" interp="linr"  time="0/1" value="0" leadInLength="0/1"  />
              <InterpolatingParam id="3066" interp="linr"  time="0/1" value="0" leadInLength="0/1"  />
              <InterpolatingParam id="3067" interp="linr"  time="0/1" value="0" leadInLength="0/1"  />
              <InterpolatingParam id="3068" interp="linr"  time="0/1" value="0" leadInLength="0/1"  />
             </VectorParam>
             <VectorParam id="3069"  name="geometryCrop">
              <InterpolatingParam id="3070" interp="linr"  time="-9999999/1" value="0" leadInLength="0/1"  />
              <InterpolatingParam id="3071" interp="linr"  time="-9999999/1" value="0" leadInLength="0/1"  />
              <InterpolatingParam id="3072" interp="linr"  time="-9999999/1" value="0" leadInLength="0/1"  />
              <InterpolatingParam id="3073" interp="linr"  time="-9999999/1" value="0" leadInLength="0/1"  />
             </VectorParam>
             <InterpolatingParam id="3074" interp="linr"  time="-9999999/1" value="1" leadInLength="0/1"  name="opacity"/>
             <InterpolatingParam id="3075" interp="linr"  time="0/1" value="0" leadInLength="0/1"  name="cursorOpacity"/>
             <InterpolatingParam id="3076" interp="linr"  time="0/1" value="0" leadInLength="0/1"  name="cursorScale"/>
            </Parameters>
            <Attributes>
             <Attribute id="3077" value="" name="ident"/>
            </Attributes>
            <MetaData>
             <entry key="AutoAppliedSmartFocus" val="False"/>
             <entry key="WinSubProjectDisplayName" val=""/>
            </MetaData>
            <ExtraData>
             <Entry key="ZoomPanBin">
              <ZoomPanBin id="3078"  >
               <ZoomPanKeyframes>
                <ZoomPanKeyframe id="3079" timeRangeEnd="-9999999/1" timeRangeDuration="0/1" interpolaterName="linr"  />
               </ZoomPanKeyframes>
              </ZoomPanBin>
             </Entry>
             <Entry key="CursorEffectBin">
              <CursorEffectBin id="3080"  >
               <CursorEffectKeyframes>
               </CursorEffectKeyframes>
              </CursorEffectBin>
             </Entry>
            </ExtraData>
           </ScreenVMFile>
           <ScreenIMFile id="3081" start="6064" duration="30" scalar="1/1" mediaStart="3255/1" mediaDuration="1/1" trackNumber="0" src="4" trimStartSum="0/1" >
            <Transformer>
             <VectorParam id="3082"  name="translation">
              <InterpolatingParam id="3083" interp="linr"  time="-9999999/1" value="0" leadInLength="0/1"  />
              <InterpolatingParam id="3084" interp="linr"  time="-9999999/1" value="0" leadInLength="0/1"  />
              <InterpolatingParam id="3085" interp="linr"  time="-9999999/1" value="0" leadInLength="0/1"  />
             </VectorParam>
             <VectorParam id="3086"  name="rotation">
              <InterpolatingParam id="3087" interp="linr"  time="-9999999/1" value="0" leadInLength="0/1"  />
              <InterpolatingParam id="3088" interp="linr"  time="-9999999/1" value="0" leadInLength="0/1"  />
              <InterpolatingParam id="3089" interp="linr"  time="-9999999/1" value="0" leadInLength="0/1"  />
             </VectorParam>
             <VectorParam id="3090"  name="shear">
              <InterpolatingParam id="3091" interp="linr"  time="-9999999/1" value="0" leadInLength="0/1"  />
              <InterpolatingParam id="3092" interp="linr"  time="-9999999/1" value="0" leadInLength="0/1"  />
              <InterpolatingParam id="3093" interp="linr"  time="-9999999/1" value="0" leadInLength="0/1"  />
             </VectorParam>
             <VectorParam id="3094"  name="scale">
              <InterpolatingParam id="3095" interp="linr"  time="-9999999/1" value="1" leadInLength="0/1"  />
              <InterpolatingParam id="3096" interp="linr"  time="-9999999/1" value="1" leadInLength="0/1"  />
              <InterpolatingParam id="3097" interp="linr"  time="-9999999/1" value="1" leadInLength="0/1"  />
             </VectorParam>
             <VectorParam id="3098"  name="anchor">
              <InterpolatingParam id="3099" interp="linr"  time="0/1" value="0" leadInLength="0/1"  />
              <InterpolatingParam id="3100" interp="linr"  time="0/1" value="0" leadInLength="0/1"  />
              <InterpolatingParam id="3101" interp="linr"  time="0/1" value="0" leadInLength="0/1"  />
             </VectorParam>
            </Transformer>
            <Parameters>
             <VectorParam id="3102"  name="sourceCrop">
              <InterpolatingParam id="3103" interp="linr"  time="0/1" value="0" leadInLength="0/1"  />
              <InterpolatingParam id="3104" interp="linr"  time="0/1" value="0" leadInLength="0/1"  />
              <InterpolatingParam id="3105" interp="linr"  time="0/1" value="0" leadInLength="0/1"  />
              <InterpolatingParam id="3106" interp="linr"  time="0/1" value="0" leadInLength="0/1"  />
             </VectorParam>
             <VectorParam id="3107"  name="geometryCrop">
              <InterpolatingParam id="3108" interp="linr"  time="-9999999/1" value="0" leadInLength="0/1"  />
              <InterpolatingParam id="3109" interp="linr"  time="-9999999/1" value="0" leadInLength="0/1"  />
              <InterpolatingParam id="3110" interp="linr"  time="-9999999/1" value="0" leadInLength="0/1"  />
              <InterpolatingParam id="3111" interp="linr"  time="-9999999/1" value="0" leadInLength="0/1"  />
             </VectorParam>
             <InterpolatingParam id="3112" interp="linr"  time="-9999999/1" value="1" leadInLength="0/1"  name="opacity"/>
             <InterpolatingParam id="3113" interp="linr"  time="0/1" value="0" leadInLength="0/1"  name="cursorOpacity"/>
             <InterpolatingParam id="3114" interp="linr"  time="0/1" value="0" leadInLength="0/1"  name="recordedCursorOpacity"/>
             <InterpolatingParam id="3115" interp="linr"  time="0/1" value="0" leadInLength="0/1"  name="cursorScale"/>
            </Parameters>
            <Attributes>
             <Attribute id="3116" value="" name="ident"/>
            </Attributes>
            <MetaData>
             <entry key="AutoAppliedSmartFocus" val="False"/>
             <entry key="WinSubProjectDisplayName" val=""/>
            </MetaData>
            <ExtraData>
             <Entry key="ZoomPanBin">
              <ZoomPanBin id="3117"  >
               <ZoomPanKeyframes>
                <ZoomPanKeyframe id="3118" timeRangeEnd="-9999999/1" timeRangeDuration="0/1" interpolaterName="linr"  />
               </ZoomPanKeyframes>
              </ZoomPanBin>
             </Entry>
             <Entry key="CursorEffectBin">
              <CursorEffectBin id="3119"  >
               <CursorEffectKeyframes>
               </CursorEffectKeyframes>
              </CursorEffectBin>
             </Entry>
            </ExtraData>
           </ScreenIMFile>
           <ScreenVMFile id="3120" start="6094" duration="206" scalar="1/1" mediaStart="3255/1" mediaDuration="206/1" trackNumber="0" src="4" >
            <Transformer>
             <VectorParam id="3121"  name="translation">
              <InterpolatingParam id="3122" interp="linr"  time="-9999999/1" value="0" leadInLength="0/1"  />
              <InterpolatingParam id="3123" interp="linr"  time="-9999999/1" value="0" leadInLength="0/1"  />
              <InterpolatingParam id="3124" interp="linr"  time="-9999999/1" value="0" leadInLength="0/1"  />
             </VectorParam>
             <VectorParam id="3125"  name="rotation">
              <InterpolatingParam id="3126" interp="linr"  time="-9999999/1" value="0" leadInLength="0/1"  />
              <InterpolatingParam id="3127" interp="linr"  time="-9999999/1" value="0" leadInLength="0/1"  />
              <InterpolatingParam id="3128" interp="linr"  time="-9999999/1" value="0" leadInLength="0/1"  />
             </VectorParam>
             <VectorParam id="3129"  name="shear">
              <InterpolatingParam id="3130" interp="linr"  time="-9999999/1" value="0" leadInLength="0/1"  />
              <InterpolatingParam id="3131" interp="linr"  time="-9999999/1" value="0" leadInLength="0/1"  />
              <InterpolatingParam id="3132" interp="linr"  time="-9999999/1" value="0" leadInLength="0/1"  />
             </VectorParam>
             <VectorParam id="3133"  name="scale">
              <InterpolatingParam id="3134" interp="linr"  time="-9999999/1" value="1" leadInLength="0/1"  />
              <InterpolatingParam id="3135" interp="linr"  time="-9999999/1" value="1" leadInLength="0/1"  />
              <InterpolatingParam id="3136" interp="linr"  time="-9999999/1" value="1" leadInLength="0/1"  />
             </VectorParam>
             <VectorParam id="3137"  name="anchor">
              <InterpolatingParam id="3138" interp="linr"  time="0/1" value="0" leadInLength="0/1"  />
              <InterpolatingParam id="3139" interp="linr"  time="0/1" value="0" leadInLength="0/1"  />
              <InterpolatingParam id="3140" interp="linr"  time="0/1" value="0" leadInLength="0/1"  />
             </VectorParam>
            </Transformer>
            <Parameters>
             <VectorParam id="3141"  name="sourceCrop">
              <InterpolatingParam id="3142" interp="linr"  time="0/1" value="0" leadInLength="0/1"  />
              <InterpolatingParam id="3143" interp="linr"  time="0/1" value="0" leadInLength="0/1"  />
              <InterpolatingParam id="3144" interp="linr"  time="0/1" value="0" leadInLength="0/1"  />
              <InterpolatingParam id="3145" interp="linr"  time="0/1" value="0" leadInLength="0/1"  />
             </VectorParam>
             <VectorParam id="3146"  name="geometryCrop">
              <InterpolatingParam id="3147" interp="linr"  time="-9999999/1" value="0" leadInLength="0/1"  />
              <InterpolatingParam id="3148" interp="linr"  time="-9999999/1" value="0" leadInLength="0/1"  />
              <InterpolatingParam id="3149" interp="linr"  time="-9999999/1" value="0" leadInLength="0/1"  />
              <InterpolatingParam id="3150" interp="linr"  time="-9999999/1" value="0" leadInLength="0/1"  />
             </VectorParam>
             <InterpolatingParam id="3151" interp="linr"  time="-9999999/1" value="1" leadInLength="0/1"  name="opacity"/>
             <InterpolatingParam id="3152" interp="linr"  time="0/1" value="0" leadInLength="0/1"  name="cursorOpacity"/>
             <InterpolatingParam id="3153" interp="linr"  time="0/1" value="0" leadInLength="0/1"  name="cursorScale"/>
            </Parameters>
            <Attributes>
             <Attribute id="3154" value="" name="ident"/>
            </Attributes>
            <MetaData>
             <entry key="AutoAppliedSmartFocus" val="False"/>
             <entry key="WinSubProjectDisplayName" val=""/>
            </MetaData>
            <ExtraData>
             <Entry key="ZoomPanBin">
              <ZoomPanBin id="3155"  >
               <ZoomPanKeyframes>
                <ZoomPanKeyframe id="3156" timeRangeEnd="-9999999/1" timeRangeDuration="0/1" interpolaterName="linr"  />
               </ZoomPanKeyframes>
              </ZoomPanBin>
             </Entry>
             <Entry key="CursorEffectBin">
              <CursorEffectBin id="3157"  >
               <CursorEffectKeyframes>
               </CursorEffectKeyframes>
              </CursorEffectBin>
             </Entry>
            </ExtraData>
           </ScreenVMFile>
           <ScreenIMFile id="3158" start="6300" duration="90" scalar="1/1" mediaStart="3461/1" mediaDuration="1/1" trackNumber="0" src="4" trimStartSum="0/1" >
            <Transformer>
             <VectorParam id="3159"  name="translation">
              <InterpolatingParam id="3160" interp="linr"  time="-9999999/1" value="0" leadInLength="0/1"  />
              <InterpolatingParam id="3161" interp="linr"  time="-9999999/1" value="0" leadInLength="0/1"  />
              <InterpolatingParam id="3162" interp="linr"  time="-9999999/1" value="0" leadInLength="0/1"  />
             </VectorParam>
             <VectorParam id="3163"  name="rotation">
              <InterpolatingParam id="3164" interp="linr"  time="-9999999/1" value="0" leadInLength="0/1"  />
              <InterpolatingParam id="3165" interp="linr"  time="-9999999/1" value="0" leadInLength="0/1"  />
              <InterpolatingParam id="3166" interp="linr"  time="-9999999/1" value="0" leadInLength="0/1"  />
             </VectorParam>
             <VectorParam id="3167"  name="shear">
              <InterpolatingParam id="3168" interp="linr"  time="-9999999/1" value="0" leadInLength="0/1"  />
              <InterpolatingParam id="3169" interp="linr"  time="-9999999/1" value="0" leadInLength="0/1"  />
              <InterpolatingParam id="3170" interp="linr"  time="-9999999/1" value="0" leadInLength="0/1"  />
             </VectorParam>
             <VectorParam id="3171"  name="scale">
              <InterpolatingParam id="3172" interp="linr"  time="-9999999/1" value="1" leadInLength="0/1"  />
              <InterpolatingParam id="3173" interp="linr"  time="-9999999/1" value="1" leadInLength="0/1"  />
              <InterpolatingParam id="3174" interp="linr"  time="-9999999/1" value="1" leadInLength="0/1"  />
             </VectorParam>
             <VectorParam id="3175"  name="anchor">
              <InterpolatingParam id="3176" interp="linr"  time="0/1" value="0" leadInLength="0/1"  />
              <InterpolatingParam id="3177" interp="linr"  time="0/1" value="0" leadInLength="0/1"  />
              <InterpolatingParam id="3178" interp="linr"  time="0/1" value="0" leadInLength="0/1"  />
             </VectorParam>
            </Transformer>
            <Parameters>
             <VectorParam id="3179"  name="sourceCrop">
              <InterpolatingParam id="3180" interp="linr"  time="0/1" value="0" leadInLength="0/1"  />
              <InterpolatingParam id="3181" interp="linr"  time="0/1" value="0" leadInLength="0/1"  />
              <InterpolatingParam id="3182" interp="linr"  time="0/1" value="0" leadInLength="0/1"  />
              <InterpolatingParam id="3183" interp="linr"  time="0/1" value="0" leadInLength="0/1"  />
             </VectorParam>
             <VectorParam id="3184"  name="geometryCrop">
              <InterpolatingParam id="3185" interp="linr"  time="-9999999/1" value="0" leadInLength="0/1"  />
              <InterpolatingParam id="3186" interp="linr"  time="-9999999/1" value="0" leadInLength="0/1"  />
              <InterpolatingParam id="3187" interp="linr"  time="-9999999/1" value="0" leadInLength="0/1"  />
              <InterpolatingParam id="3188" interp="linr"  time="-9999999/1" value="0" leadInLength="0/1"  />
             </VectorParam>
             <InterpolatingParam id="3189" interp="linr"  time="-9999999/1" value="1" leadInLength="0/1"  name="opacity"/>
             <InterpolatingParam id="3190" interp="linr"  time="0/1" value="0" leadInLength="0/1"  name="cursorOpacity"/>
             <InterpolatingParam id="3191" interp="linr"  time="0/1" value="0" leadInLength="0/1"  name="recordedCursorOpacity"/>
             <InterpolatingParam id="3192" interp="linr"  time="0/1" value="0" leadInLength="0/1"  name="cursorScale"/>
            </Parameters>
            <Attributes>
             <Attribute id="3193" value="" name="ident"/>
            </Attributes>
            <MetaData>
             <entry key="AutoAppliedSmartFocus" val="False"/>
             <entry key="WinSubProjectDisplayName" val=""/>
            </MetaData>
            <ExtraData>
             <Entry key="ZoomPanBin">
              <ZoomPanBin id="3194"  >
               <ZoomPanKeyframes>
                <ZoomPanKeyframe id="3195" timeRangeEnd="-9999999/1" timeRangeDuration="0/1" interpolaterName="linr"  />
               </ZoomPanKeyframes>
              </ZoomPanBin>
             </Entry>
             <Entry key="CursorEffectBin">
              <CursorEffectBin id="3196"  >
               <CursorEffectKeyframes>
               </CursorEffectKeyframes>
              </CursorEffectBin>
             </Entry>
            </ExtraData>
           </ScreenIMFile>
           <ScreenVMFile id="3197" start="6390" duration="57" scalar="1/1" mediaStart="3461/1" mediaDuration="57/1" trackNumber="0" src="4" >
            <Transformer>
             <VectorParam id="3198"  name="translation">
              <InterpolatingParam id="3199" interp="linr"  time="-9999999/1" value="0" leadInLength="0/1"  />
              <InterpolatingParam id="3200" interp="linr"  time="-9999999/1" value="0" leadInLength="0/1"  />
              <InterpolatingParam id="3201" interp="linr"  time="-9999999/1" value="0" leadInLength="0/1"  />
             </VectorParam>
             <VectorParam id="3202"  name="rotation">
              <InterpolatingParam id="3203" interp="linr"  time="-9999999/1" value="0" leadInLength="0/1"  />
              <InterpolatingParam id="3204" interp="linr"  time="-9999999/1" value="0" leadInLength="0/1"  />
              <InterpolatingParam id="3205" interp="linr"  time="-9999999/1" value="0" leadInLength="0/1"  />
             </VectorParam>
             <VectorParam id="3206"  name="shear">
              <InterpolatingParam id="3207" interp="linr"  time="-9999999/1" value="0" leadInLength="0/1"  />
              <InterpolatingParam id="3208" interp="linr"  time="-9999999/1" value="0" leadInLength="0/1"  />
              <InterpolatingParam id="3209" interp="linr"  time="-9999999/1" value="0" leadInLength="0/1"  />
             </VectorParam>
             <VectorParam id="3210"  name="scale">
              <InterpolatingParam id="3211" interp="linr"  time="-9999999/1" value="1" leadInLength="0/1"  />
              <InterpolatingParam id="3212" interp="linr"  time="-9999999/1" value="1" leadInLength="0/1"  />
              <InterpolatingParam id="3213" interp="linr"  time="-9999999/1" value="1" leadInLength="0/1"  />
             </VectorParam>
             <VectorParam id="3214"  name="anchor">
              <InterpolatingParam id="3215" interp="linr"  time="0/1" value="0" leadInLength="0/1"  />
              <InterpolatingParam id="3216" interp="linr"  time="0/1" value="0" leadInLength="0/1"  />
              <InterpolatingParam id="3217" interp="linr"  time="0/1" value="0" leadInLength="0/1"  />
             </VectorParam>
            </Transformer>
            <Parameters>
             <VectorParam id="3218"  name="sourceCrop">
              <InterpolatingParam id="3219" interp="linr"  time="0/1" value="0" leadInLength="0/1"  />
              <InterpolatingParam id="3220" interp="linr"  time="0/1" value="0" leadInLength="0/1"  />
              <InterpolatingParam id="3221" interp="linr"  time="0/1" value="0" leadInLength="0/1"  />
              <InterpolatingParam id="3222" interp="linr"  time="0/1" value="0" leadInLength="0/1"  />
             </VectorParam>
             <VectorParam id="3223"  name="geometryCrop">
              <InterpolatingParam id="3224" interp="linr"  time="-9999999/1" value="0" leadInLength="0/1"  />
              <InterpolatingParam id="3225" interp="linr"  time="-9999999/1" value="0" leadInLength="0/1"  />
              <InterpolatingParam id="3226" interp="linr"  time="-9999999/1" value="0" leadInLength="0/1"  />
              <InterpolatingParam id="3227" interp="linr"  time="-9999999/1" value="0" leadInLength="0/1"  />
             </VectorParam>
             <InterpolatingParam id="3228" interp="linr"  time="-9999999/1" value="1" leadInLength="0/1"  name="opacity"/>
             <InterpolatingParam id="3229" interp="linr"  time="0/1" value="0" leadInLength="0/1"  name="cursorOpacity"/>
             <InterpolatingParam id="3230" interp="linr"  time="0/1" value="0" leadInLength="0/1"  name="cursorScale"/>
            </Parameters>
            <Attributes>
             <Attribute id="3231" value="" name="ident"/>
            </Attributes>
            <MetaData>
             <entry key="AutoAppliedSmartFocus" val="False"/>
             <entry key="WinSubProjectDisplayName" val=""/>
            </MetaData>
            <ExtraData>
             <Entry key="ZoomPanBin">
              <ZoomPanBin id="3232"  >
               <ZoomPanKeyframes>
                <ZoomPanKeyframe id="3233" timeRangeEnd="-9999999/1" timeRangeDuration="0/1" interpolaterName="linr"  />
               </ZoomPanKeyframes>
              </ZoomPanBin>
             </Entry>
             <Entry key="CursorEffectBin">
              <CursorEffectBin id="3234"  >
               <CursorEffectKeyframes>
               </CursorEffectKeyframes>
              </CursorEffectBin>
             </Entry>
            </ExtraData>
           </ScreenVMFile>
           <ScreenIMFile id="3235" start="6447" duration="180" scalar="1/1" mediaStart="3518/1" mediaDuration="1/1" trackNumber="0" src="4" trimStartSum="0/1" >
            <Transformer>
             <VectorParam id="3236"  name="translation">
              <InterpolatingParam id="3237" interp="linr"  time="-9999999/1" value="0" leadInLength="0/1"  />
              <InterpolatingParam id="3238" interp="linr"  time="-9999999/1" value="0" leadInLength="0/1"  />
              <InterpolatingParam id="3239" interp="linr"  time="-9999999/1" value="0" leadInLength="0/1"  />
             </VectorParam>
             <VectorParam id="3240"  name="rotation">
              <InterpolatingParam id="3241" interp="linr"  time="-9999999/1" value="0" leadInLength="0/1"  />
              <InterpolatingParam id="3242" interp="linr"  time="-9999999/1" value="0" leadInLength="0/1"  />
              <InterpolatingParam id="3243" interp="linr"  time="-9999999/1" value="0" leadInLength="0/1"  />
             </VectorParam>
             <VectorParam id="3244"  name="shear">
              <InterpolatingParam id="3245" interp="linr"  time="-9999999/1" value="0" leadInLength="0/1"  />
              <InterpolatingParam id="3246" interp="linr"  time="-9999999/1" value="0" leadInLength="0/1"  />
              <InterpolatingParam id="3247" interp="linr"  time="-9999999/1" value="0" leadInLength="0/1"  />
             </VectorParam>
             <VectorParam id="3248"  name="scale">
              <InterpolatingParam id="3249" interp="linr"  time="-9999999/1" value="1" leadInLength="0/1"  />
              <InterpolatingParam id="3250" interp="linr"  time="-9999999/1" value="1" leadInLength="0/1"  />
              <InterpolatingParam id="3251" interp="linr"  time="-9999999/1" value="1" leadInLength="0/1"  />
             </VectorParam>
             <VectorParam id="3252"  name="anchor">
              <InterpolatingParam id="3253" interp="linr"  time="0/1" value="0" leadInLength="0/1"  />
              <InterpolatingParam id="3254" interp="linr"  time="0/1" value="0" leadInLength="0/1"  />
              <InterpolatingParam id="3255" interp="linr"  time="0/1" value="0" leadInLength="0/1"  />
             </VectorParam>
            </Transformer>
            <Parameters>
             <VectorParam id="3256"  name="sourceCrop">
              <InterpolatingParam id="3257" interp="linr"  time="0/1" value="0" leadInLength="0/1"  />
              <InterpolatingParam id="3258" interp="linr"  time="0/1" value="0" leadInLength="0/1"  />
              <InterpolatingParam id="3259" interp="linr"  time="0/1" value="0" leadInLength="0/1"  />
              <InterpolatingParam id="3260" interp="linr"  time="0/1" value="0" leadInLength="0/1"  />
             </VectorParam>
             <VectorParam id="3261"  name="geometryCrop">
              <InterpolatingParam id="3262" interp="linr"  time="-9999999/1" value="0" leadInLength="0/1"  />
              <InterpolatingParam id="3263" interp="linr"  time="-9999999/1" value="0" leadInLength="0/1"  />
              <InterpolatingParam id="3264" interp="linr"  time="-9999999/1" value="0" leadInLength="0/1"  />
              <InterpolatingParam id="3265" interp="linr"  time="-9999999/1" value="0" leadInLength="0/1"  />
             </VectorParam>
             <InterpolatingParam id="3266" interp="linr"  time="-9999999/1" value="1" leadInLength="0/1"  name="opacity"/>
             <InterpolatingParam id="3267" interp="linr"  time="0/1" value="0" leadInLength="0/1"  name="cursorOpacity"/>
             <InterpolatingParam id="3268" interp="linr"  time="0/1" value="0" leadInLength="0/1"  name="recordedCursorOpacity"/>
             <InterpolatingParam id="3269" interp="linr"  time="0/1" value="0" leadInLength="0/1"  name="cursorScale"/>
            </Parameters>
            <Attributes>
             <Attribute id="3270" value="" name="ident"/>
            </Attributes>
            <MetaData>
             <entry key="AutoAppliedSmartFocus" val="False"/>
             <entry key="WinSubProjectDisplayName" val=""/>
            </MetaData>
            <ExtraData>
             <Entry key="ZoomPanBin">
              <ZoomPanBin id="3271"  >
               <ZoomPanKeyframes>
                <ZoomPanKeyframe id="3272" timeRangeEnd="-9999999/1" timeRangeDuration="0/1" interpolaterName="linr"  />
               </ZoomPanKeyframes>
              </ZoomPanBin>
             </Entry>
             <Entry key="CursorEffectBin">
              <CursorEffectBin id="3273"  >
               <CursorEffectKeyframes>
               </CursorEffectKeyframes>
              </CursorEffectBin>
             </Entry>
            </ExtraData>
           </ScreenIMFile>
           <ScreenVMFile id="3274" start="6627" duration="247" scalar="1/1" mediaStart="3518/1" mediaDuration="247/1" trackNumber="0" src="4" >
            <Transformer>
             <VectorParam id="3275"  name="translation">
              <InterpolatingParam id="3276" interp="linr"  time="-9999999/1" value="0" leadInLength="0/1"  />
              <InterpolatingParam id="3277" interp="linr"  time="-9999999/1" value="0" leadInLength="0/1"  />
              <InterpolatingParam id="3278" interp="linr"  time="-9999999/1" value="0" leadInLength="0/1"  />
             </VectorParam>
             <VectorParam id="3279"  name="rotation">
              <InterpolatingParam id="3280" interp="linr"  time="-9999999/1" value="0" leadInLength="0/1"  />
              <InterpolatingParam id="3281" interp="linr"  time="-9999999/1" value="0" leadInLength="0/1"  />
              <InterpolatingParam id="3282" interp="linr"  time="-9999999/1" value="0" leadInLength="0/1"  />
             </VectorParam>
             <VectorParam id="3283"  name="shear">
              <InterpolatingParam id="3284" interp="linr"  time="-9999999/1" value="0" leadInLength="0/1"  />
              <InterpolatingParam id="3285" interp="linr"  time="-9999999/1" value="0" leadInLength="0/1"  />
              <InterpolatingParam id="3286" interp="linr"  time="-9999999/1" value="0" leadInLength="0/1"  />
             </VectorParam>
             <VectorParam id="3287"  name="scale">
              <InterpolatingParam id="3288" interp="linr"  time="-9999999/1" value="1" leadInLength="0/1"  />
              <InterpolatingParam id="3289" interp="linr"  time="-9999999/1" value="1" leadInLength="0/1"  />
              <InterpolatingParam id="3290" interp="linr"  time="-9999999/1" value="1" leadInLength="0/1"  />
             </VectorParam>
             <VectorParam id="3291"  name="anchor">
              <InterpolatingParam id="3292" interp="linr"  time="0/1" value="0" leadInLength="0/1"  />
              <InterpolatingParam id="3293" interp="linr"  time="0/1" value="0" leadInLength="0/1"  />
              <InterpolatingParam id="3294" interp="linr"  time="0/1" value="0" leadInLength="0/1"  />
             </VectorParam>
            </Transformer>
            <Parameters>
             <VectorParam id="3295"  name="sourceCrop">
              <InterpolatingParam id="3296" interp="linr"  time="0/1" value="0" leadInLength="0/1"  />
              <InterpolatingParam id="3297" interp="linr"  time="0/1" value="0" leadInLength="0/1"  />
              <InterpolatingParam id="3298" interp="linr"  time="0/1" value="0" leadInLength="0/1"  />
              <InterpolatingParam id="3299" interp="linr"  time="0/1" value="0" leadInLength="0/1"  />
             </VectorParam>
             <VectorParam id="3300"  name="geometryCrop">
              <InterpolatingParam id="3301" interp="linr"  time="-9999999/1" value="0" leadInLength="0/1"  />
              <InterpolatingParam id="3302" interp="linr"  time="-9999999/1" value="0" leadInLength="0/1"  />
              <InterpolatingParam id="3303" interp="linr"  time="-9999999/1" value="0" leadInLength="0/1"  />
              <InterpolatingParam id="3304" interp="linr"  time="-9999999/1" value="0" leadInLength="0/1"  />
             </VectorParam>
             <InterpolatingParam id="3305" interp="linr"  time="-9999999/1" value="1" leadInLength="0/1"  name="opacity"/>
             <InterpolatingParam id="3306" interp="linr"  time="0/1" value="0" leadInLength="0/1"  name="cursorOpacity"/>
             <InterpolatingParam id="3307" interp="linr"  time="0/1" value="0" leadInLength="0/1"  name="cursorScale"/>
            </Parameters>
            <Attributes>
             <Attribute id="3308" value="" name="ident"/>
            </Attributes>
            <MetaData>
             <entry key="AutoAppliedSmartFocus" val="False"/>
             <entry key="WinSubProjectDisplayName" val=""/>
            </MetaData>
            <ExtraData>
             <Entry key="ZoomPanBin">
              <ZoomPanBin id="3309"  >
               <ZoomPanKeyframes>
                <ZoomPanKeyframe id="3310" timeRangeEnd="-9999999/1" timeRangeDuration="0/1" interpolaterName="linr"  />
               </ZoomPanKeyframes>
              </ZoomPanBin>
             </Entry>
             <Entry key="CursorEffectBin">
              <CursorEffectBin id="3311"  >
               <CursorEffectKeyframes>
               </CursorEffectKeyframes>
              </CursorEffectBin>
             </Entry>
            </ExtraData>
           </ScreenVMFile>
           <ScreenIMFile id="3312" start="6874" duration="270" scalar="1/1" mediaStart="3765/1" mediaDuration="1/1" trackNumber="0" src="4" trimStartSum="0/1" >
            <Transformer>
             <VectorParam id="3313"  name="translation">
              <InterpolatingParam id="3314" interp="linr"  time="-9999999/1" value="0" leadInLength="0/1"  />
              <InterpolatingParam id="3315" interp="linr"  time="-9999999/1" value="0" leadInLength="0/1"  />
              <InterpolatingParam id="3316" interp="linr"  time="-9999999/1" value="0" leadInLength="0/1"  />
             </VectorParam>
             <VectorParam id="3317"  name="rotation">
              <InterpolatingParam id="3318" interp="linr"  time="-9999999/1" value="0" leadInLength="0/1"  />
              <InterpolatingParam id="3319" interp="linr"  time="-9999999/1" value="0" leadInLength="0/1"  />
              <InterpolatingParam id="3320" interp="linr"  time="-9999999/1" value="0" leadInLength="0/1"  />
             </VectorParam>
             <VectorParam id="3321"  name="shear">
              <InterpolatingParam id="3322" interp="linr"  time="-9999999/1" value="0" leadInLength="0/1"  />
              <InterpolatingParam id="3323" interp="linr"  time="-9999999/1" value="0" leadInLength="0/1"  />
              <InterpolatingParam id="3324" interp="linr"  time="-9999999/1" value="0" leadInLength="0/1"  />
             </VectorParam>
             <VectorParam id="3325"  name="scale">
              <InterpolatingParam id="3326" interp="linr"  time="-9999999/1" value="1" leadInLength="0/1"  />
              <InterpolatingParam id="3327" interp="linr"  time="-9999999/1" value="1" leadInLength="0/1"  />
              <InterpolatingParam id="3328" interp="linr"  time="-9999999/1" value="1" leadInLength="0/1"  />
             </VectorParam>
             <VectorParam id="3329"  name="anchor">
              <InterpolatingParam id="3330" interp="linr"  time="0/1" value="0" leadInLength="0/1"  />
              <InterpolatingParam id="3331" interp="linr"  time="0/1" value="0" leadInLength="0/1"  />
              <InterpolatingParam id="3332" interp="linr"  time="0/1" value="0" leadInLength="0/1"  />
             </VectorParam>
            </Transformer>
            <Parameters>
             <VectorParam id="3333"  name="sourceCrop">
              <InterpolatingParam id="3334" interp="linr"  time="0/1" value="0" leadInLength="0/1"  />
              <InterpolatingParam id="3335" interp="linr"  time="0/1" value="0" leadInLength="0/1"  />
              <InterpolatingParam id="3336" interp="linr"  time="0/1" value="0" leadInLength="0/1"  />
              <InterpolatingParam id="3337" interp="linr"  time="0/1" value="0" leadInLength="0/1"  />
             </VectorParam>
             <VectorParam id="3338"  name="geometryCrop">
              <InterpolatingParam id="3339" interp="linr"  time="-9999999/1" value="0" leadInLength="0/1"  />
              <InterpolatingParam id="3340" interp="linr"  time="-9999999/1" value="0" leadInLength="0/1"  />
              <InterpolatingParam id="3341" interp="linr"  time="-9999999/1" value="0" leadInLength="0/1"  />
              <InterpolatingParam id="3342" interp="linr"  time="-9999999/1" value="0" leadInLength="0/1"  />
             </VectorParam>
             <InterpolatingParam id="3343" interp="linr"  time="-9999999/1" value="1" leadInLength="0/1"  name="opacity"/>
             <InterpolatingParam id="3344" interp="linr"  time="0/1" value="0" leadInLength="0/1"  name="cursorOpacity"/>
             <InterpolatingParam id="3345" interp="linr"  time="0/1" value="0" leadInLength="0/1"  name="recordedCursorOpacity"/>
             <InterpolatingParam id="3346" interp="linr"  time="0/1" value="0" leadInLength="0/1"  name="cursorScale"/>
            </Parameters>
            <Attributes>
             <Attribute id="3347" value="" name="ident"/>
            </Attributes>
            <MetaData>
             <entry key="AutoAppliedSmartFocus" val="False"/>
             <entry key="WinSubProjectDisplayName" val=""/>
            </MetaData>
            <ExtraData>
             <Entry key="ZoomPanBin">
              <ZoomPanBin id="3348"  >
               <ZoomPanKeyframes>
                <ZoomPanKeyframe id="3349" timeRangeEnd="-9999999/1" timeRangeDuration="0/1" interpolaterName="linr"  />
               </ZoomPanKeyframes>
              </ZoomPanBin>
             </Entry>
             <Entry key="CursorEffectBin">
              <CursorEffectBin id="3350"  >
               <CursorEffectKeyframes>
               </CursorEffectKeyframes>
              </CursorEffectBin>
             </Entry>
            </ExtraData>
           </ScreenIMFile>
           <ScreenVMFile id="3351" start="7144" duration="486" scalar="1/1" mediaStart="3765/1" mediaDuration="486/1" trackNumber="0" src="4" >
            <Transformer>
             <VectorParam id="3352"  name="translation">
              <InterpolatingParam id="3353" interp="linr"  time="-9999999/1" value="0" leadInLength="0/1"  />
              <InterpolatingParam id="3354" interp="linr"  time="-9999999/1" value="0" leadInLength="0/1"  />
              <InterpolatingParam id="3355" interp="linr"  time="-9999999/1" value="0" leadInLength="0/1"  />
             </VectorParam>
             <VectorParam id="3356"  name="rotation">
              <InterpolatingParam id="3357" interp="linr"  time="-9999999/1" value="0" leadInLength="0/1"  />
              <InterpolatingParam id="3358" interp="linr"  time="-9999999/1" value="0" leadInLength="0/1"  />
              <InterpolatingParam id="3359" interp="linr"  time="-9999999/1" value="0" leadInLength="0/1"  />
             </VectorParam>
             <VectorParam id="3360"  name="shear">
              <InterpolatingParam id="3361" interp="linr"  time="-9999999/1" value="0" leadInLength="0/1"  />
              <InterpolatingParam id="3362" interp="linr"  time="-9999999/1" value="0" leadInLength="0/1"  />
              <InterpolatingParam id="3363" interp="linr"  time="-9999999/1" value="0" leadInLength="0/1"  />
             </VectorParam>
             <VectorParam id="3364"  name="scale">
              <InterpolatingParam id="3365" interp="linr"  time="-9999999/1" value="1" leadInLength="0/1"  />
              <InterpolatingParam id="3366" interp="linr"  time="-9999999/1" value="1" leadInLength="0/1"  />
              <InterpolatingParam id="3367" interp="linr"  time="-9999999/1" value="1" leadInLength="0/1"  />
             </VectorParam>
             <VectorParam id="3368"  name="anchor">
              <InterpolatingParam id="3369" interp="linr"  time="0/1" value="0" leadInLength="0/1"  />
              <InterpolatingParam id="3370" interp="linr"  time="0/1" value="0" leadInLength="0/1"  />
              <InterpolatingParam id="3371" interp="linr"  time="0/1" value="0" leadInLength="0/1"  />
             </VectorParam>
            </Transformer>
            <Parameters>
             <VectorParam id="3372"  name="sourceCrop">
              <InterpolatingParam id="3373" interp="linr"  time="0/1" value="0" leadInLength="0/1"  />
              <InterpolatingParam id="3374" interp="linr"  time="0/1" value="0" leadInLength="0/1"  />
              <InterpolatingParam id="3375" interp="linr"  time="0/1" value="0" leadInLength="0/1"  />
              <InterpolatingParam id="3376" interp="linr"  time="0/1" value="0" leadInLength="0/1"  />
             </VectorParam>
             <VectorParam id="3377"  name="geometryCrop">
              <InterpolatingParam id="3378" interp="linr"  time="-9999999/1" value="0" leadInLength="0/1"  />
              <InterpolatingParam id="3379" interp="linr"  time="-9999999/1" value="0" leadInLength="0/1"  />
              <InterpolatingParam id="3380" interp="linr"  time="-9999999/1" value="0" leadInLength="0/1"  />
              <InterpolatingParam id="3381" interp="linr"  time="-9999999/1" value="0" leadInLength="0/1"  />
             </VectorParam>
             <InterpolatingParam id="3382" interp="linr"  time="-9999999/1" value="1" leadInLength="0/1"  name="opacity"/>
             <InterpolatingParam id="3383" interp="linr"  time="0/1" value="0" leadInLength="0/1"  name="cursorOpacity"/>
             <InterpolatingParam id="3384" interp="linr"  time="0/1" value="0" leadInLength="0/1"  name="cursorScale"/>
            </Parameters>
            <Attributes>
             <Attribute id="3385" value="" name="ident"/>
            </Attributes>
            <MetaData>
             <entry key="AutoAppliedSmartFocus" val="False"/>
             <entry key="WinSubProjectDisplayName" val=""/>
            </MetaData>
            <ExtraData>
             <Entry key="ZoomPanBin">
              <ZoomPanBin id="3386"  >
               <ZoomPanKeyframes>
                <ZoomPanKeyframe id="3387" timeRangeEnd="-9999999/1" timeRangeDuration="0/1" interpolaterName="linr"  />
               </ZoomPanKeyframes>
              </ZoomPanBin>
             </Entry>
             <Entry key="CursorEffectBin">
              <CursorEffectBin id="3388"  >
               <CursorEffectKeyframes>
               </CursorEffectKeyframes>
              </CursorEffectBin>
             </Entry>
            </ExtraData>
           </ScreenVMFile>
          </Medias>
         </GenericTrack>
        </StitchedMedia>
       </Medias>
      </GenericTrack>
      <GenericTrack id="3389"  >
       <Attributes>
        <Attribute id="3390" value="" name="ident"/>
       </Attributes>
       <MetaData>
        <entry key="IsLocked" val="False"/>
        <entry key="WinTrackHeight" val="62"/>
       </MetaData>
       <Medias>
        <AMFile id="3391" start="0" duration="189" scalar="1/1" mediaStart="66/1" mediaDuration="189/1" trackNumber="0" src="5" channelNumber="0,1" >
         <Parameters>
          <InterpolatingParam id="3392" interp="linr"  time="0/1" value="1" leadInLength="0/1"  name="volume"/>
          <Parameter id="3393"  name="captions"/>
         </Parameters>
         <Attributes>
          <Attribute id="3394" value="" name="ident"/>
          <Attribute id="3395" value="44100" name="sampleRate"/>
          <Attribute id="3396" value="16" name="bitDepth"/>
          <Attribute id="3397" value="1" name="gain"/>
         </Attributes>
         <MetaData>
          <entry key="WinSubProjectDisplayName" val=""/>
         </MetaData>
        </AMFile>
        <AMFile id="3398" start="189" duration="314" scalar="1/1" mediaStart="0/1" mediaDuration="314/1" trackNumber="0" src="6" channelNumber="0,1" >
         <Parameters>
          <InterpolatingParam id="3399" interp="linr"  time="0/1" value="1" leadInLength="0/1"  name="volume"/>
          <Parameter id="3400"  name="captions"/>
         </Parameters>
         <Attributes>
          <Attribute id="3401" value="" name="ident"/>
          <Attribute id="3402" value="44100" name="sampleRate"/>
          <Attribute id="3403" value="16" name="bitDepth"/>
          <Attribute id="3404" value="1" name="gain"/>
         </Attributes>
         <MetaData>
          <entry key="WinSubProjectDisplayName" val=""/>
         </MetaData>
        </AMFile>
        <AMFile id="3405" start="503" duration="311" scalar="1/1" mediaStart="0/1" mediaDuration="311/1" trackNumber="0" src="7" channelNumber="0,1" >
         <Parameters>
          <InterpolatingParam id="3406" interp="linr"  time="0/1" value="1" leadInLength="0/1"  name="volume"/>
          <Parameter id="3407"  name="captions"/>
         </Parameters>
         <Attributes>
          <Attribute id="3408" value="" name="ident"/>
          <Attribute id="3409" value="44100" name="sampleRate"/>
          <Attribute id="3410" value="16" name="bitDepth"/>
          <Attribute id="3411" value="1" name="gain"/>
         </Attributes>
         <MetaData>
          <entry key="WinSubProjectDisplayName" val=""/>
         </MetaData>
        </AMFile>
        <AMFile id="3412" start="814" duration="236" scalar="1/1" mediaStart="0/1" mediaDuration="236/1" trackNumber="0" src="8" channelNumber="0,1" >
         <Parameters>
          <InterpolatingParam id="3413" interp="linr"  time="0/1" value="1" leadInLength="0/1"  name="volume"/>
          <Parameter id="3414"  name="captions"/>
         </Parameters>
         <Attributes>
          <Attribute id="3415" value="" name="ident"/>
          <Attribute id="3416" value="44100" name="sampleRate"/>
          <Attribute id="3417" value="16" name="bitDepth"/>
          <Attribute id="3418" value="1" name="gain"/>
         </Attributes>
         <MetaData>
          <entry key="WinSubProjectDisplayName" val=""/>
         </MetaData>
        </AMFile>
        <AMFile id="3419" start="1050" duration="198" scalar="1/1" mediaStart="0/1" mediaDuration="198/1" trackNumber="0" src="9" channelNumber="0,1" >
         <Parameters>
          <InterpolatingParam id="3420" interp="linr"  time="0/1" value="1" leadInLength="0/1"  name="volume"/>
          <Parameter id="3421"  name="captions"/>
         </Parameters>
         <Attributes>
          <Attribute id="3422" value="" name="ident"/>
          <Attribute id="3423" value="44100" name="sampleRate"/>
          <Attribute id="3424" value="16" name="bitDepth"/>
          <Attribute id="3425" value="1" name="gain"/>
         </Attributes>
         <MetaData>
          <entry key="WinSubProjectDisplayName" val=""/>
         </MetaData>
        </AMFile>
        <AMFile id="3426" start="1248" duration="549" scalar="1/1" mediaStart="0/1" mediaDuration="549/1" trackNumber="0" src="31" channelNumber="0,1" >
         <Parameters>
          <InterpolatingParam id="3427" interp="linr"  time="0/1" value="1" leadInLength="0/1"  name="volume"/>
          <Parameter id="3428"  name="captions"/>
         </Parameters>
         <Attributes>
          <Attribute id="3429" value="" name="ident"/>
          <Attribute id="3430" value="44100" name="sampleRate"/>
          <Attribute id="3431" value="16" name="bitDepth"/>
          <Attribute id="3432" value="1" name="gain"/>
         </Attributes>
         <MetaData>
          <entry key="WinSubProjectDisplayName" val=""/>
         </MetaData>
        </AMFile>
        <AMFile id="3433" start="1797" duration="159" scalar="1/1" mediaStart="0/1" mediaDuration="159/1" trackNumber="0" src="11" channelNumber="0,1" >
         <Parameters>
          <InterpolatingParam id="3434" interp="linr"  time="0/1" value="1" leadInLength="0/1"  name="volume"/>
          <Parameter id="3435"  name="captions"/>
         </Parameters>
         <Attributes>
          <Attribute id="3436" value="" name="ident"/>
          <Attribute id="3437" value="44100" name="sampleRate"/>
          <Attribute id="3438" value="16" name="bitDepth"/>
          <Attribute id="3439" value="1" name="gain"/>
         </Attributes>
         <MetaData>
          <entry key="WinSubProjectDisplayName" val=""/>
         </MetaData>
        </AMFile>
        <AMFile id="3440" start="1956" duration="291" scalar="1/1" mediaStart="0/1" mediaDuration="291/1" trackNumber="0" src="12" channelNumber="0,1" >
         <Parameters>
          <InterpolatingParam id="3441" interp="linr"  time="0/1" value="1" leadInLength="0/1"  name="volume"/>
          <Parameter id="3442"  name="captions"/>
         </Parameters>
         <Attributes>
          <Attribute id="3443" value="" name="ident"/>
          <Attribute id="3444" value="44100" name="sampleRate"/>
          <Attribute id="3445" value="16" name="bitDepth"/>
          <Attribute id="3446" value="1" name="gain"/>
         </Attributes>
         <MetaData>
          <entry key="WinSubProjectDisplayName" val=""/>
         </MetaData>
        </AMFile>
        <AMFile id="3447" start="2247" duration="366" scalar="1/1" mediaStart="0/1" mediaDuration="366/1" trackNumber="0" src="13" channelNumber="0,1" >
         <Parameters>
          <InterpolatingParam id="3448" interp="linr"  time="0/1" value="1" leadInLength="0/1"  name="volume"/>
          <Parameter id="3449"  name="captions"/>
         </Parameters>
         <Attributes>
          <Attribute id="3450" value="" name="ident"/>
          <Attribute id="3451" value="44100" name="sampleRate"/>
          <Attribute id="3452" value="16" name="bitDepth"/>
          <Attribute id="3453" value="1" name="gain"/>
         </Attributes>
         <MetaData>
          <entry key="WinSubProjectDisplayName" val=""/>
         </MetaData>
        </AMFile>
        <AMFile id="3454" start="2613" duration="521" scalar="1/1" mediaStart="0/1" mediaDuration="521/1" trackNumber="0" src="16" channelNumber="0,1" >
         <Parameters>
          <InterpolatingParam id="3455" interp="linr"  time="0/1" value="1" leadInLength="0/1"  name="volume"/>
          <Parameter id="3456"  name="captions"/>
         </Parameters>
         <Attributes>
          <Attribute id="3457" value="" name="ident"/>
          <Attribute id="3458" value="44100" name="sampleRate"/>
          <Attribute id="3459" value="16" name="bitDepth"/>
          <Attribute id="3460" value="1" name="gain"/>
         </Attributes>
         <MetaData>
          <entry key="WinSubProjectDisplayName" val=""/>
         </MetaData>
        </AMFile>
        <AMFile id="3461" start="3134" duration="561" scalar="1/1" mediaStart="0/1" mediaDuration="561/1" trackNumber="0" src="17" channelNumber="0,1" >
         <Parameters>
          <InterpolatingParam id="3462" interp="linr"  time="0/1" value="1" leadInLength="0/1"  name="volume"/>
          <Parameter id="3463"  name="captions"/>
         </Parameters>
         <Attributes>
          <Attribute id="3464" value="" name="ident"/>
          <Attribute id="3465" value="44100" name="sampleRate"/>
          <Attribute id="3466" value="16" name="bitDepth"/>
          <Attribute id="3467" value="1" name="gain"/>
         </Attributes>
         <MetaData>
          <entry key="WinSubProjectDisplayName" val=""/>
         </MetaData>
        </AMFile>
        <AMFile id="3468" start="3695" duration="357" scalar="1/1" mediaStart="0/1" mediaDuration="357/1" trackNumber="0" src="18" channelNumber="0,1" >
         <Parameters>
          <InterpolatingParam id="3469" interp="linr"  time="0/1" value="1" leadInLength="0/1"  name="volume"/>
          <Parameter id="3470"  name="captions"/>
         </Parameters>
         <Attributes>
          <Attribute id="3471" value="" name="ident"/>
          <Attribute id="3472" value="44100" name="sampleRate"/>
          <Attribute id="3473" value="16" name="bitDepth"/>
          <Attribute id="3474" value="1" name="gain"/>
         </Attributes>
         <MetaData>
          <entry key="WinSubProjectDisplayName" val=""/>
         </MetaData>
        </AMFile>
        <AMFile id="3475" start="4052" duration="420" scalar="1/1" mediaStart="0/1" mediaDuration="420/1" trackNumber="0" src="19" channelNumber="0,1" >
         <Parameters>
          <InterpolatingParam id="3476" interp="linr"  time="0/1" value="1" leadInLength="0/1"  name="volume"/>
          <Parameter id="3477"  name="captions"/>
         </Parameters>
         <Attributes>
          <Attribute id="3478" value="" name="ident"/>
          <Attribute id="3479" value="44100" name="sampleRate"/>
          <Attribute id="3480" value="16" name="bitDepth"/>
          <Attribute id="3481" value="1" name="gain"/>
         </Attributes>
         <MetaData>
          <entry key="WinSubProjectDisplayName" val=""/>
         </MetaData>
        </AMFile>
        <AMFile id="3482" start="4472" duration="239" scalar="1/1" mediaStart="0/1" mediaDuration="239/1" trackNumber="0" src="21" channelNumber="0,1" >
         <Parameters>
          <InterpolatingParam id="3483" interp="linr"  time="0/1" value="1" leadInLength="0/1"  name="volume"/>
          <Parameter id="3484"  name="captions"/>
         </Parameters>
         <Attributes>
          <Attribute id="3485" value="" name="ident"/>
          <Attribute id="3486" value="44100" name="sampleRate"/>
          <Attribute id="3487" value="16" name="bitDepth"/>
          <Attribute id="3488" value="1" name="gain"/>
         </Attributes>
         <MetaData>
          <entry key="WinSubProjectDisplayName" val=""/>
         </MetaData>
        </AMFile>
        <AMFile id="3489" start="4711" duration="447" scalar="1/1" mediaStart="0/1" mediaDuration="447/1" trackNumber="0" src="22" channelNumber="0,1" >
         <Parameters>
          <InterpolatingParam id="3490" interp="linr"  time="0/1" value="1" leadInLength="0/1"  name="volume"/>
          <Parameter id="3491"  name="captions"/>
         </Parameters>
         <Attributes>
          <Attribute id="3492" value="" name="ident"/>
          <Attribute id="3493" value="44100" name="sampleRate"/>
          <Attribute id="3494" value="16" name="bitDepth"/>
          <Attribute id="3495" value="1" name="gain"/>
         </Attributes>
         <MetaData>
          <entry key="WinSubProjectDisplayName" val=""/>
         </MetaData>
        </AMFile>
        <AMFile id="3496" start="5158" duration="201" scalar="1/1" mediaStart="0/1" mediaDuration="201/1" trackNumber="0" src="23" channelNumber="0,1" >
         <Parameters>
          <InterpolatingParam id="3497" interp="linr"  time="0/1" value="1" leadInLength="0/1"  name="volume"/>
          <Parameter id="3498"  name="captions"/>
         </Parameters>
         <Attributes>
          <Attribute id="3499" value="" name="ident"/>
          <Attribute id="3500" value="44100" name="sampleRate"/>
          <Attribute id="3501" value="16" name="bitDepth"/>
          <Attribute id="3502" value="1" name="gain"/>
         </Attributes>
         <MetaData>
          <entry key="WinSubProjectDisplayName" val=""/>
         </MetaData>
        </AMFile>
        <AMFile id="3503" start="5359" duration="368" scalar="1/1" mediaStart="0/1" mediaDuration="368/1" trackNumber="0" src="24" channelNumber="0,1" >
         <Parameters>
          <InterpolatingParam id="3504" interp="linr"  time="0/1" value="1" leadInLength="0/1"  name="volume"/>
          <Parameter id="3505"  name="captions"/>
         </Parameters>
         <Attributes>
          <Attribute id="3506" value="" name="ident"/>
          <Attribute id="3507" value="44100" name="sampleRate"/>
          <Attribute id="3508" value="16" name="bitDepth"/>
          <Attribute id="3509" value="1" name="gain"/>
         </Attributes>
         <MetaData>
          <entry key="WinSubProjectDisplayName" val=""/>
         </MetaData>
        </AMFile>
        <AMFile id="3510" start="5727" duration="272" scalar="1/1" mediaStart="0/1" mediaDuration="272/1" trackNumber="0" src="25" channelNumber="0,1" >
         <Parameters>
          <InterpolatingParam id="3511" interp="linr"  time="0/1" value="1" leadInLength="0/1"  name="volume"/>
          <Parameter id="3512"  name="captions"/>
         </Parameters>
         <Attributes>
          <Attribute id="3513" value="" name="ident"/>
          <Attribute id="3514" value="44100" name="sampleRate"/>
          <Attribute id="3515" value="16" name="bitDepth"/>
          <Attribute id="3516" value="1" name="gain"/>
         </Attributes>
         <MetaData>
          <entry key="WinSubProjectDisplayName" val=""/>
         </MetaData>
        </AMFile>
        <AMFile id="3517" start="5999" duration="271" scalar="1/1" mediaStart="28/1" mediaDuration="271/1" trackNumber="0" src="26" channelNumber="0,1" >
         <Parameters>
          <InterpolatingParam id="3518" interp="linr"  time="0/1" value="1" leadInLength="0/1"  name="volume"/>
          <Parameter id="3519"  name="captions"/>
         </Parameters>
         <Attributes>
          <Attribute id="3520" value="" name="ident"/>
          <Attribute id="3521" value="44100" name="sampleRate"/>
          <Attribute id="3522" value="16" name="bitDepth"/>
          <Attribute id="3523" value="1" name="gain"/>
         </Attributes>
         <MetaData>
          <entry key="WinSubProjectDisplayName" val=""/>
         </MetaData>
        </AMFile>
        <AMFile id="3524" start="6270" duration="411" scalar="1/1" mediaStart="0/1" mediaDuration="411/1" trackNumber="0" src="27" channelNumber="0,1" >
         <Parameters>
          <InterpolatingParam id="3525" interp="linr"  time="0/1" value="1" leadInLength="0/1"  name="volume"/>
          <Parameter id="3526"  name="captions"/>
         </Parameters>
         <Attributes>
          <Attribute id="3527" value="" name="ident"/>
          <Attribute id="3528" value="44100" name="sampleRate"/>
          <Attribute id="3529" value="16" name="bitDepth"/>
          <Attribute id="3530" value="1" name="gain"/>
         </Attributes>
         <MetaData>
          <entry key="WinSubProjectDisplayName" val=""/>
         </MetaData>
        </AMFile>
        <AMFile id="3531" start="6681" duration="315" scalar="1/1" mediaStart="0/1" mediaDuration="315/1" trackNumber="0" src="28" channelNumber="0,1" >
         <Parameters>
          <InterpolatingParam id="3532" interp="linr"  time="0/1" value="1" leadInLength="0/1"  name="volume"/>
          <Parameter id="3533"  name="captions"/>
         </Parameters>
         <Attributes>
          <Attribute id="3534" value="" name="ident"/>
          <Attribute id="3535" value="44100" name="sampleRate"/>
          <Attribute id="3536" value="16" name="bitDepth"/>
          <Attribute id="3537" value="1" name="gain"/>
         </Attributes>
         <MetaData>
          <entry key="WinSubProjectDisplayName" val=""/>
         </MetaData>
        </AMFile>
        <AMFile id="3538" start="6996" duration="536" scalar="1/1" mediaStart="0/1" mediaDuration="536/1" trackNumber="0" src="29" channelNumber="0,1" >
         <Parameters>
          <InterpolatingParam id="3539" interp="linr"  time="0/1" value="1" leadInLength="0/1"  name="volume"/>
          <Parameter id="3540"  name="captions"/>
         </Parameters>
         <Attributes>
          <Attribute id="3541" value="" name="ident"/>
          <Attribute id="3542" value="44100" name="sampleRate"/>
          <Attribute id="3543" value="16" name="bitDepth"/>
          <Attribute id="3544" value="1" name="gain"/>
         </Attributes>
         <MetaData>
          <entry key="WinSubProjectDisplayName" val=""/>
         </MetaData>
        </AMFile>
        <AMFile id="3545" start="7532" duration="362" scalar="1/1" mediaStart="0/1" mediaDuration="362/1" trackNumber="0" src="30" channelNumber="0,1" >
         <Parameters>
          <InterpolatingParam id="3546" interp="linr"  time="0/1" value="1" leadInLength="0/1"  name="volume"/>
          <Parameter id="3547"  name="captions"/>
         </Parameters>
         <Attributes>
          <Attribute id="3548" value="" name="ident"/>
          <Attribute id="3549" value="44100" name="sampleRate"/>
          <Attribute id="3550" value="16" name="bitDepth"/>
          <Attribute id="3551" value="1" name="gain"/>
         </Attributes>
         <MetaData>
          <entry key="WinSubProjectDisplayName" val=""/>
         </MetaData>
        </AMFile>
       </Medias>
      </GenericTrack>
      <GenericTrack id="3552"  >
       <Attributes>
        <Attribute id="3553" value="" name="ident"/>
       </Attributes>
       <MetaData>
        <entry key="IsLocked" val="False"/>
        <entry key="WinTrackHeight" val="62"/>
       </MetaData>
       <Medias>
        <Caption id="3554" start="0" duration="1050" scalar="1/1" mediaStart="0/1" mediaDuration="1050/1" maxMediaDuration="9.22337e+018"  allowTrimOut="1"  >
         <Parameters>
          <Parameter id="3555"  name="captionData">
           <Keyframes>
           <Keyframe id="3556"  time="-9999999/1" value="{58,{\rtf1Intro to Credit Scoring \i http://bit.ly/1falq64\i0},0}" leadInLength="0/1"  />
           <Keyframe id="3557"  time="503/1" value="{57,{\rtf1Download from http://www.\i SkyScorer.com/trial\i0},0}" leadInLength="0/1"  />
           <Keyframe id="3558"  time="814/1" value="{65,{\rtf1Kaggle -  Give Me Some Credit &#xa;\i http://bit.ly/1pFVqRD\i0},0}" leadInLength="0/1"  />
           <Keyframe id="3559"  time="1255/1" value="{58,{\rtf1Upload \i C:\SkyScorer\Apps\Data\cs-training.csv\i0},0}" leadInLength="0/1"  />
           </Keyframes>
          </Parameter>
          <Parameter id="3560"  name="toc"/>
          <Parameter id="3561"  name="quiz"/>
         </Parameters>
         <Attributes>
         </Attributes>
         <MetaData>
          <entry key="WinSubProjectDisplayName" val=""/>
         </MetaData>
        </Caption>
        <Caption id="3562" start="1248" duration="696" scalar="1/1" mediaStart="1101/1" mediaDuration="696/1" maxMediaDuration="9.22337e+018"  allowTrimOut="1"  >
         <Parameters>
          <Parameter id="3563"  name="captionData">
           <Keyframes>
           <Keyframe id="3564"  time="-9999999/1" value="{58,{\rtf1Intro to Credit Scoring \i http://bit.ly/1falq64\i0},0}" leadInLength="0/1"  />
           <Keyframe id="3565"  time="503/1" value="{57,{\rtf1Download from http://www.\i SkyScorer.com/trial\i0},0}" leadInLength="0/1"  />
           <Keyframe id="3566"  time="814/1" value="{58,{\rtf1Upload \i C:\SkyScorer\Apps\Data\cs-training.csv\i0},0}" leadInLength="0/1"  />
           </Keyframes>
          </Parameter>
          <Parameter id="3567"  name="toc"/>
          <Parameter id="3568"  name="quiz"/>
         </Parameters>
         <Attributes>
         </Attributes>
         <MetaData>
          <entry key="WinSubProjectDisplayName" val=""/>
         </MetaData>
        </Caption>
       </Medias>
      </GenericTrack>
      <GenericTrack id="3569"  >
       <Attributes>
        <Attribute id="3570" value="" name="ident"/>
       </Attributes>
       <MetaData>
        <entry key="IsLocked" val="False"/>
        <entry key="WinTrackHeight" val="62"/>
       </MetaData>
       <Medias>
       </Medias>
      </GenericTrack>
     </Tracks>
    </GenericMixer>
   <CaptionAttributes id="3571"  >
    <Attribute id="3572" value="1" name="captionsEnabled"/>
    <Attribute id="3573" value="Arial" name="captionsFontName"/>
    <Attribute id="3574" value="36" name="captionsFontSize"/>
    <Attribute id="3575" value="(0,0,0,255)" name="captionsBackgroundColor"/>
    <Attribute id="3576" value="(255,255,255,255)" name="captionsForegroundColor"/>
    <Attribute id="3577" value="en" name="lang"/>
    <Attribute id="3578" value="0" name="captionsAlignment"/>
    <Attribute id="3579" value="1" name="captionsDefaultFontSize"/>
    <Attribute id="3580" value="0.5" name="captionsOpacity"/>
    <Attribute id="3581" value="1" name="captionsBackgroundEnabled"/>
    <Attribute id="3582" value="1" name="captionsBackgroundOnlyAroundText"/>
   </CaptionAttributes>
   <Parameters>
    <VectorParam id="3583"  name="eyePosition">
     <InterpolatingParam id="3584" interp="linr"  time="0/1" value="0" leadInLength="0/1"  />
     <InterpolatingParam id="3585" interp="linr"  time="0/1" value="0" leadInLength="0/1"  />
     <InterpolatingParam id="3586" interp="linr"  time="0/1" value="3000" leadInLength="0/1"  />
    </VectorParam>
    <VectorParam id="3587"  name="eyeLookAtPosition">
     <InterpolatingParam id="3588" interp="linr"  time="0/1" value="0" leadInLength="0/1"  />
     <InterpolatingParam id="3589" interp="linr"  time="0/1" value="0" leadInLength="0/1"  />
     <InterpolatingParam id="3590" interp="linr"  time="0/1" value="0" leadInLength="0/1"  />
    </VectorParam>
    <VectorParam id="3591"  name="eyeUpVector">
     <InterpolatingParam id="3592" interp="linr"  time="0/1" value="0" leadInLength="0/1"  />
     <InterpolatingParam id="3593" interp="linr"  time="0/1" value="1" leadInLength="0/1"  />
     <InterpolatingParam id="3594" interp="linr"  time="0/1" value="0" leadInLength="0/1"  />
    </VectorParam>
    <InterpolatingParam id="3595" interp="linr"  time="0/1" value="0.356185883" leadInLength="0/1"  name="fov"/>
    <InterpolatingParam id="3596" interp="linr"  time="0/1" value="1.5" leadInLength="0/1"  name="nearClipDistance"/>
    <InterpolatingParam id="3597" interp="linr"  time="0/1" value="6000" leadInLength="0/1"  name="farClipDistance"/>
   </Parameters>
  </Timeline>
 </Project>
</GoProject>
</CSMLData>

</Project_Data>
